<svg width="141" height="141" fill="none" xmlns="http://www.w3.org/2000/svg">
  <g id="Abra">
    <g id="Group 18" fill-rule="evenodd" clip-rule="evenodd">
      <path id="Shape" d="M121.471 72.164c0 20.676-24.53 33.486-51.709 33.486-27.178 0-51.708-12.81-51.708-33.486 0-20.68 24.531-45.46 51.71-45.46 27.177 0 51.707 24.78 51.707 45.46z" fill="#F4D647"/>
      <path id="Shape_2" d="M121.471 72.164c0 20.676-24.53 32.152-51.709 32.152-27.178 0-51.708-11.476-51.708-32.152 0-20.68 24.531-34.928 51.71-34.928 27.177 0 51.707 14.248 51.707 34.928z" fill="#E2B90E"/>
      <path id="Shape_3" d="M80.242 100.658c0 1.393-4.69 1.643-10.478 1.643-5.787 0-10.479-.25-10.479-1.643 0-1.395 4.691-5.037 10.48-5.037 5.786 0 10.477 3.643 10.477 5.037z" fill="#E2B90E"/>
      <path id="Shape_4" d="M121.471 72.164c0-20.682-8.761 18.34-51.709 18.34-42.947 0-51.709-39.021-51.709-18.34 0 11.986 9.773 20.486 20.332 29.422l21.76 19.484c5.31 4.574 13.925 4.574 19.234 0l21.758-19.482c10.563-10.104 20.334-17.485 20.334-29.424z" fill="#E0A010"/>
      <path id="Shape_5" d="M89.231 112.248c-4.732-5.432-11.697-8.869-19.468-8.869-7.77 0-14.735 3.438-19.47 8.871l9.852 8.82c5.31 4.574 13.925 4.574 19.234 0l9.852-8.822z" fill="#F4EC8E"/>
      <path id="Shape_6" d="M50.293 113.75a1.5 1.5 0 01-1.131-2.485 27.322 27.322 0 0120.601-9.386 27.32 27.32 0 0120.6 9.384 1.5 1.5 0 11-2.263 1.97 24.32 24.32 0 00-18.337-8.354 24.327 24.327 0 00-18.339 8.356 1.492 1.492 0 01-1.13.515z" fill="#33363A"/>
      <path id="Shape_7" d="M96.04 100.65a1.501 1.501 0 01-.608-2.873c15.15-6.683 24.539-13.3 24.539-25.614 0-23.262-28.077-43.96-50.209-43.96s-50.208 20.699-50.208 43.96c0 12.316 9.39 18.933 24.54 25.615a1.5 1.5 0 01-1.21 2.745c-16.256-7.17-26.33-14.414-26.33-28.358 0-21.14 24.553-46.96 53.21-46.96 28.655 0 53.208 25.82 53.208 46.96 0 13.944-10.074 21.189-26.328 28.358a1.51 1.51 0 01-.605.127z" fill="#33363A"/>
      <path id="Shape_8" d="M69.763 127.551c-3.839 0-7.675-1.258-10.597-3.773a1.147 1.147 0 01-.072-.068L25.237 90.37a1.5 1.5 0 112.105-2.137l33.818 33.303c4.753 4.062 12.448 4.061 17.204.001l36.316-35.804a1.5 1.5 0 012.107 2.137l-36.353 35.84a1.64 1.64 0 01-.076.068c-2.921 2.514-6.76 3.773-10.596 3.773z" fill="#33363A"/>
      <path id="Shape_9" d="M16.175 15.01C8.551 22.713 5.48 33.887 9.266 44.094c3.786 10.213 13.397 16.68 24.204 17.554 7.625-7.707 14.881-14.2 11.094-24.412-3.786-10.21-17.583-21.355-28.389-22.226z" fill="#E2B90E"/>
      <path id="Shape_10" d="M16.175 15.01C8.551 22.713 5.48 33.887 9.266 44.094c3.786 10.213 13.397 16.68 24.204 17.554 7.625-7.707-6.504-5.998-10.29-16.211-3.789-10.21 3.801-29.556-7.005-30.427z" fill="#F4EC8E"/>
      <path id="Shape_11" d="M23.18 45.437c-3.099-8.354 1.413-22.818-2.762-28.281-6.188 7.549-8.444 17.639-4.994 26.938 3.15 8.496 10.335 14.388 18.881 16.636 5.604-6.66-7.5-5.51-11.126-15.293z" fill="#DBD279"/>
      <path id="Shape_12" d="M33.47 63.148a1.5 1.5 0 01-1.066-2.555c1.716-1.735 1.82-2.531 1.784-2.793-.099-.735-1.73-1.677-3.31-2.588-3.046-1.757-7.218-4.162-9.105-9.254-1.56-4.206-1.33-9.608-1.108-14.834.375-8.804.353-14.22-4.61-14.62a1.5 1.5 0 01-1.375-1.615 1.502 1.502 0 011.616-1.375c8.094.652 7.724 9.338 7.367 17.738-.21 4.928-.427 10.023.923 13.663 1.512 4.076 4.994 6.085 7.791 7.698 2.41 1.39 4.49 2.589 4.785 4.786.214 1.592-.62 3.276-2.625 5.303a1.495 1.495 0 01-1.067.446z" fill="#33363A"/>
      <path id="Shape_13" d="M33.471 63.148c-.04 0-.08-.002-.122-.005-11.84-.957-21.608-8.056-25.489-18.528-3.884-10.47-1.107-22.22 7.25-30.66a1.5 1.5 0 011.186-.44c11.351.915 27.192 15.675 31.186 26.448a1.5 1.5 0 01-2.813 1.043c-3.545-9.56-17.78-23.062-27.926-24.427-7.138 7.56-9.467 17.839-6.07 26.993 3.472 9.366 12.253 15.72 22.917 16.58a1.5 1.5 0 01-.119 2.996z" fill="#33363A"/>
      <path id="Shape_14" d="M27.825 70.816a1.5 1.5 0 01-1.147-2.466c3.236-3.848 6.937-8.616 7.271-9.61.131-.817.883-1.342 1.71-1.198.817.13 1.364.944 1.232 1.762-.256 1.597-4.447 6.852-7.918 10.979-.296.352-.72.533-1.148.533z" fill="#33363A"/>
      <path id="Shape_15" d="M123.351 15.01c7.624 7.703 10.696 18.877 6.908 29.084-3.785 10.213-13.397 16.682-24.203 17.555-7.623-7.707-14.882-14.2-11.094-24.412 3.787-10.21 17.582-21.356 28.389-22.227z" fill="#E2B90E"/>
      <path id="Shape_16" d="M123.351 15.01c7.624 7.703 10.696 18.877 6.908 29.084-3.785 10.213-13.397 16.682-24.203 17.555-7.624-7.707 6.505-5.998 10.292-16.211 3.786-10.21-3.804-29.557 7.003-30.428z" fill="#F4EC8E"/>
      <path id="Shape_17" d="M116.348 45.437c3.098-8.354-1.414-22.818 2.76-28.281 6.189 7.549 8.444 17.639 4.994 26.938-3.148 8.496-10.335 14.389-18.882 16.637-5.604-6.661 7.5-5.51 11.128-15.294z" fill="#DBD279"/>
      <path id="Shape_18" d="M106.056 63.148c-.387 0-.773-.148-1.066-.445-2.004-2.026-2.838-3.711-2.624-5.303.296-2.196 2.376-3.396 4.785-4.786 2.797-1.613 6.279-3.621 7.791-7.698 1.349-3.64 1.132-8.733.922-13.661-.358-8.4-.729-17.088 7.367-17.74.837-.054 1.55.549 1.616 1.375a1.5 1.5 0 01-1.375 1.615c-4.964.4-4.986 5.817-4.611 14.622.223 5.225.453 10.627-1.106 14.832-1.888 5.092-6.059 7.497-9.105 9.254-1.579.91-3.211 1.853-3.311 2.588-.035.262.068 1.059 1.784 2.793a1.498 1.498 0 01-1.067 2.554z" fill="#33363A"/>
      <path id="Shape_19" d="M106.055 63.148a1.501 1.501 0 01-.119-2.995c10.665-.861 19.446-7.215 22.917-16.581 3.397-9.154 1.068-19.433-6.07-26.993-10.146 1.365-24.38 14.867-27.926 24.427a1.5 1.5 0 11-2.813-1.043c3.994-10.772 19.835-25.533 31.187-26.448.444-.03.875.125 1.187.44 8.356 8.442 11.134 20.19 7.249 30.66-3.881 10.472-13.648 17.57-25.489 18.528a1.709 1.709 0 01-.123.005z" fill="#33363A"/>
      <path id="Shape_20" d="M111.701 70.816c-.428 0-.852-.182-1.149-.534-3.471-4.127-7.663-9.382-7.918-10.98a1.5 1.5 0 112.962-.472c.315.905 4.016 5.673 7.252 9.52a1.499 1.499 0 01-1.147 2.466z" fill="#33363A"/>
      <path id="Shape_21" d="M59.928 100.461a1.5 1.5 0 01-1.396-.95c-.024-.06-2.277-5.76-2.948-7.337-1.662-1.355-13.446-7.672-21.52-11.848a1.5 1.5 0 011.377-2.665C57.483 89.058 57.987 90.19 58.23 90.735c.538 1.216 2.986 7.41 3.09 7.675a1.499 1.499 0 01-1.393 2.051z" fill="#33363A"/>
      <path id="Shape_22" d="M79.6 100.461a1.498 1.498 0 01-1.394-2.05c.104-.264 2.551-6.46 3.091-7.674.241-.544.745-1.678 22.787-13.074a1.5 1.5 0 111.377 2.665c-8.075 4.176-19.86 10.492-21.519 11.848-.672 1.576-2.923 7.277-2.947 7.338a1.499 1.499 0 01-1.395.947z" fill="#33363A"/>
      <path id="Shape_23" d="M66.93 119.441a1.502 1.502 0 01-1.415-1.001l-.926-2.625a1.5 1.5 0 012.83-.998l.926 2.625a1.5 1.5 0 01-1.415 1.999z" fill="#33363A"/>
      <path id="Shape_24" d="M72.597 119.441a1.5 1.5 0 01-1.414-1.999l.925-2.625a1.502 1.502 0 012.83.998l-.925 2.625a1.499 1.499 0 01-1.416 1.001z" fill="#33363A"/>
    </g>
  </g>
</svg>
