<svg width="140" height="140" fill="none" xmlns="http://www.w3.org/2000/svg">
  <g id="Battle">
    <g id="Group 25" fill-rule="evenodd" clip-rule="evenodd">
      <path id="Shape" d="M132.371 81.004c0 6.701-5.434 12.137-12.135 12.137H20.592c-6.701 0-12.135-5.436-12.135-12.137V51.926c0-6.703 5.434-12.137 12.135-12.137h99.645c6.701 0 12.135 5.434 12.135 12.137v29.078h-.001z" fill="#7BC7FF"/>
      <path id="Shape_2" d="M120.236 39.79H20.592c-6.701 0-12.135 5.433-12.135 12.136v23.828c0 6.701 5.434 12.137 12.135 12.137h99.645c6.701 0 12.135-5.436 12.135-12.137V51.926c-.001-6.703-5.435-12.137-12.136-12.137z" fill="#0086FF"/>
      <path id="Shape_3" d="M120.236 94.64H20.592c-7.519 0-13.635-6.117-13.635-13.637V51.926c0-7.52 6.116-13.637 13.635-13.637h99.645c7.519 0 13.635 6.117 13.635 13.637v29.078c-.001 7.52-6.117 13.636-13.636 13.636zM20.592 41.29c-5.864 0-10.635 4.77-10.635 10.636v29.078c0 5.865 4.771 10.637 10.635 10.637h99.645c5.864 0 10.635-4.77 10.635-10.637V51.926c0-5.865-4.771-10.637-10.635-10.637H20.592z" fill="#33363A"/>
      <path id="Shape_4" d="M83.672 89.293l-13.258 13.258-13.258-13.258" fill="#7BC7FF"/>
      <path id="Shape_5" d="M70.414 104.051c-.384 0-.768-.146-1.06-.439L56.095 90.353a1.5 1.5 0 112.121-2.12l12.197 12.197 12.197-12.197a1.5 1.5 0 112.121 2.121l-13.258 13.258a1.495 1.495 0 01-1.06.439z" fill="#33363A"/>
      <path id="Shape_6" d="M70.416 18.156a1.5 1.5 0 01-1.5-1.5v-.992a1.5 1.5 0 013 0v.992a1.5 1.5 0 01-1.5 1.5z" fill="#33363A"/>
      <path id="Shape_7" d="M70.416 33.021a1.5 1.5 0 01-1.5-1.5v-5.824a1.5 1.5 0 013 0v5.824a1.5 1.5 0 01-1.5 1.5z" fill="#33363A"/>
      <path id="Shape_8" d="M43.057 23.49c-.38 0-.763-.145-1.055-.434l-.709-.7a1.5 1.5 0 112.11-2.134l.708.701a1.5 1.5 0 01-1.054 2.567z" fill="#33363A"/>
      <path id="Shape_9" d="M53.568 34.006c-.384 0-.769-.146-1.062-.439l-4.123-4.127a1.501 1.501 0 012.123-2.12l4.123 4.126a1.501 1.501 0 01-1.061 2.56z" fill="#33363A"/>
      <path id="Shape_10" d="M97.775 23.494a1.5 1.5 0 01-1.061-2.56l.705-.705a1.5 1.5 0 112.12 2.121l-.704.705a1.491 1.491 0 01-1.06.44z" fill="#33363A"/>
      <path id="Shape_11" d="M87.266 34.006a1.5 1.5 0 01-1.062-2.559l4.12-4.125a1.5 1.5 0 112.122 2.12l-4.119 4.124c-.293.293-.678.44-1.06.44z" fill="#33363A"/>
      <path id="Shape_12" d="M70.41 125.492a1.5 1.5 0 01-1.5-1.5V123a1.5 1.5 0 013 0v.992a1.5 1.5 0 01-1.5 1.5z" fill="#33363A"/>
      <path id="Shape_13" d="M70.41 115.459a1.5 1.5 0 01-1.5-1.501l.002-5.824a1.5 1.5 0 011.5-1.499h.001a1.5 1.5 0 011.5 1.501l-.003 5.824a1.5 1.5 0 01-1.5 1.499z" fill="#33363A"/>
      <path id="Shape_14" d="M98.48 119.867c-.381 0-.763-.145-1.055-.434l-.709-.701a1.5 1.5 0 112.109-2.133l.709.701a1.5 1.5 0 01-1.054 2.567z" fill="#33363A"/>
      <path id="Shape_15" d="M91.383 112.779c-.384 0-.77-.146-1.062-.439l-4.123-4.127a1.501 1.501 0 012.123-2.121l4.123 4.127a1.501 1.501 0 01-1.061 2.56z" fill="#33363A"/>
      <path id="Shape_16" d="M42.348 119.867a1.5 1.5 0 01-1.061-2.56l.705-.705a1.5 1.5 0 112.121 2.121l-.705.705a1.495 1.495 0 01-1.06.439z" fill="#33363A"/>
      <path id="Shape_17" d="M49.443 112.775a1.5 1.5 0 01-1.062-2.559l4.119-4.125a1.5 1.5 0 112.123 2.119l-4.12 4.125a1.49 1.49 0 01-1.06.44z" fill="#33363A"/>
      <path id="Shape_18" d="M32.69 73.828h-9.446a1.5 1.5 0 01-1.5-1.5v-13.77a1.5 1.5 0 011.5-1.5h9.445a1.5 1.5 0 011.5 1.5v13.77a1.5 1.5 0 01-1.5 1.5zm-7.946-3h6.445v-10.77h-6.445v10.77z" fill="#33363A"/>
      <path id="Shape_19" d="M49.668 73.828a1.5 1.5 0 01-1.5-1.5v-12.27h-6.445v12.27a1.5 1.5 0 01-3 0v-13.77a1.5 1.5 0 011.5-1.5h9.445a1.5 1.5 0 011.5 1.5v13.77a1.5 1.5 0 01-1.5 1.5z" fill="#33363A"/>
      <path id="Shape_20" d="M100.603 73.828h-9.445a1.5 1.5 0 01-1.5-1.5v-13.77a1.5 1.5 0 013 0v12.27h7.945a1.5 1.5 0 010 3z" fill="#33363A"/>
      <path id="Shape_21" d="M117.582 73.828h-9.445a1.5 1.5 0 01-1.5-1.5v-13.77a1.5 1.5 0 011.5-1.5h9.445a1.5 1.5 0 010 3h-7.945v10.77h7.945a1.5 1.5 0 010 3z" fill="#33363A"/>
      <path id="Shape_22" d="M32.69 66.941h-9.446a1.5 1.5 0 010-3h9.445a1.5 1.5 0 010 3z" fill="#33363A"/>
      <path id="Shape_23" d="M49.668 66.941h-9.445a1.5 1.5 0 010-3h9.445a1.5 1.5 0 010 3z" fill="#33363A"/>
      <path id="Shape_24" d="M66.646 60.057h-9.445a1.5 1.5 0 010-3h9.445a1.5 1.5 0 010 3z" fill="#33363A"/>
      <path id="Shape_25" d="M61.924 73.828a1.5 1.5 0 01-1.5-1.5v-13.77a1.5 1.5 0 013 0v13.77a1.5 1.5 0 01-1.5 1.5z" fill="#33363A"/>
      <path id="Shape_26" d="M83.625 60.057H74.18a1.5 1.5 0 010-3h9.445a1.5 1.5 0 010 3z" fill="#33363A"/>
      <path id="Shape_27" d="M78.902 73.828a1.5 1.5 0 01-1.5-1.5v-13.77a1.5 1.5 0 013 0v13.77a1.5 1.5 0 01-1.5 1.5z" fill="#33363A"/>
      <path id="Shape_28" d="M117.582 66.941h-9.445a1.5 1.5 0 010-3h9.445a1.5 1.5 0 010 3z" fill="#33363A"/>
    </g>
  </g>
</svg>
