<svg width="141" height="141" fill="none" xmlns="http://www.w3.org/2000/svg">
  <g id="Bellsprout">
    <g id="Group 14" fill-rule="evenodd" clip-rule="evenodd">
      <path id="Shape" d="M102.517 124.187c-8.547 5.938-19.053 6.906-28.129 3.555.023-9.676 4.596-19.186 13.143-25.123 8.547-5.939 19.055-6.908 28.129-3.555-.022 9.674-4.596 19.184-13.143 25.123z" fill="#91EA57"/>
      <path id="Shape_2" d="M115.659 99.064c-.021 9.674-4.596 19.184-13.143 25.123-8.547 5.938-19.053 6.906-28.129 3.555" fill="#34C166"/>
      <path id="Shape_3" d="M85.087 131.156c-3.839 0-7.613-.676-11.219-2.007a1.498 1.498 0 01-.98-1.411c.025-10.521 5.18-20.371 13.787-26.351a31.897 31.897 0 0118.284-5.738c3.84 0 7.614.676 11.22 2.008a1.5 1.5 0 01.98 1.41c-.023 10.518-5.177 20.369-13.786 26.352a31.905 31.905 0 01-18.286 5.737zm-9.178-4.472a29.268 29.268 0 009.178 1.472 28.929 28.929 0 0016.574-5.2c7.515-5.223 12.125-13.698 12.477-22.835a29.275 29.275 0 00-9.179-1.472 28.914 28.914 0 00-16.572 5.201c-7.514 5.22-12.124 13.696-12.478 22.834z" fill="#33363A"/>
      <path id="Shape_4" d="M71.393 131.324a1.498 1.498 0 01-.856-2.732L112.406 99.5a1.497 1.497 0 012.087.376c.473.68.305 1.614-.376 2.087l-41.869 29.092a1.489 1.489 0 01-.855.269z" fill="#33363A"/>
      <path id="Shape_5" d="M39.169 124.187c8.549 5.938 19.055 6.906 28.129 3.555-.021-9.676-4.596-19.186-13.143-25.123-8.547-5.939-19.055-6.908-28.13-3.555.025 9.674 4.597 19.184 13.144 25.123z" fill="#91EA57"/>
      <path id="Shape_6" d="M26.027 99.064c.023 9.674 4.596 19.184 13.143 25.123 8.549 5.938 19.055 6.906 28.129 3.555" fill="#34C166"/>
      <path id="Shape_7" d="M56.602 131.156H56.6a31.92 31.92 0 01-18.286-5.736c-8.607-5.982-13.762-15.833-13.787-26.352a1.5 1.5 0 01.98-1.41 32.272 32.272 0 0111.22-2.009 31.9 31.9 0 0118.285 5.738c8.608 5.98 13.763 15.832 13.786 26.352a1.5 1.5 0 01-.98 1.41 32.284 32.284 0 01-11.216 2.007zm-29.054-31.035c.354 9.138 4.964 17.613 12.478 22.835a28.938 28.938 0 0016.575 5.2 29.25 29.25 0 009.176-1.472c-.352-9.138-4.962-17.613-12.477-22.834a28.92 28.92 0 00-16.573-5.2c-3.13 0-6.212.494-9.18 1.471z" fill="#33363A"/>
      <path id="Shape_8" d="M70.293 131.324c-.296 0-.594-.087-.854-.269l-41.87-29.091a1.498 1.498 0 01-.375-2.087 1.496 1.496 0 012.087-.376l41.869 29.092a1.498 1.498 0 01-.857 2.731z" fill="#33363A"/>
      <path id="Shape_9" d="M66.892 132.213V86.297a3.952 3.952 0 017.904 0v45.916" fill="#663C17"/>
      <path id="Shape_10" d="M74.796 133.713a1.5 1.5 0 01-1.5-1.5V86.297a2.455 2.455 0 00-2.453-2.45 2.454 2.454 0 00-2.45 2.45v45.916a1.5 1.5 0 01-3 0V86.297a5.457 5.457 0 015.45-5.45 5.458 5.458 0 015.453 5.45v45.916a1.5 1.5 0 01-1.5 1.5z" fill="#33363A"/>
      <path id="Shape_11" d="M120.052 53.468c0 20.676-22.031 37.441-49.209 37.441-27.178 0-49.209-16.765-49.209-37.44 0-20.68 22.031-45.46 49.209-45.46 27.178 0 49.209 24.78 49.209 45.46z" fill="#FFFCC0"/>
      <path id="Shape_12" d="M120.052 53.468c0 20.676-22.031 37.441-49.209 37.441-27.178 0-49.209-16.765-49.209-37.441 0-20.68 22.031-34.928 49.209-34.928 27.178 0 49.209 14.249 49.209 34.928z" fill="#FFF800"/>
      <path id="Shape_13" d="M81.322 70.095c0 1.393-4.691 1.643-10.477 1.643-5.787 0-10.479-.25-10.479-1.643 0-1.395 4.691-5.037 10.479-5.037 5.785 0 10.477 3.643 10.477 5.037z" fill="#FFFCC0"/>
      <path id="Shape_14" d="M120.052 53.468c0 20.676-22.031 37.441-49.209 37.441-27.178 0-49.209-16.765-49.209-37.44 0-20.683 6.262 18.34 49.209 18.34s49.209-39.022 49.209-18.34z" fill="#EADF11"/>
      <path id="Shape_15" d="M70.843 92.41c-27.961 0-50.709-17.469-50.709-38.94 0-21.27 22.619-46.96 50.709-46.96 13.041 0 25.772 5.472 35.85 15.406 9.305 9.174 14.859 20.97 14.859 31.553 0 21.472-22.748 38.941-50.709 38.941zm0-82.9c-26.428 0-47.709 24.047-47.709 43.958 0 19.818 21.402 35.941 47.709 35.941 26.307 0 47.709-16.123 47.709-35.94 0-19.912-21.281-43.96-47.709-43.96z" fill="#33363A"/>
      <path id="Shape_16" d="M54.681 57.336a8.05 8.05 0 01-8.053 8.051 8.05 8.05 0 110-16.102 8.051 8.051 0 018.053 8.051z" fill="#6D5C4D"/>
      <path id="Shape_17" d="M54.681 57.336c0 4.45-3.605 1.664-8.053 1.664-4.445 0-8.05 2.785-8.05-1.664a8.05 8.05 0 018.05-8.05 8.051 8.051 0 018.053 8.05z" fill="#33363A"/>
      <path id="Shape_18" d="M46.628 66.886c-5.267 0-9.55-4.284-9.55-9.55 0-5.268 4.283-9.552 9.55-9.552 5.268 0 9.553 4.284 9.553 9.551s-4.285 9.551-9.553 9.551zm0-16.1a6.558 6.558 0 00-6.55 6.55 6.557 6.557 0 006.55 6.551 6.56 6.56 0 006.553-6.55 6.56 6.56 0 00-6.553-6.552z" fill="#33363A"/>
      <path id="Oval" d="M42.625 57.998a3.28 3.28 0 100-6.56 3.28 3.28 0 000 6.56z" fill="#fff"/>
      <path id="Shape_19" d="M42.624 59.5a4.785 4.785 0 01-4.779-4.78 4.784 4.784 0 014.779-4.78 4.785 4.785 0 014.781 4.78 4.786 4.786 0 01-4.781 4.78zm0-6.56a1.78 1.78 0 000 3.56 1.781 1.781 0 000-3.56z" fill="#33363A"/>
      <path id="Shape_20" d="M103.109 57.336a8.05 8.05 0 01-8.051 8.051 8.05 8.05 0 110-16.102 8.051 8.051 0 018.051 8.051z" fill="#6D5C4D"/>
      <path id="Shape_21" d="M103.109 57.336c0 4.45-3.605 1.664-8.051 1.664-4.447 0-8.053 2.785-8.053-1.664a8.051 8.051 0 018.053-8.05 8.051 8.051 0 018.051 8.05z" fill="#33363A"/>
      <path id="Shape_22" d="M95.058 66.886c-5.268 0-9.553-4.284-9.553-9.55 0-5.268 4.285-9.552 9.553-9.552 5.267 0 9.551 4.284 9.551 9.551s-4.285 9.551-9.551 9.551zm0-16.1a6.56 6.56 0 00-6.553 6.55 6.559 6.559 0 006.553 6.551 6.558 6.558 0 006.551-6.55 6.558 6.558 0 00-6.551-6.552z" fill="#33363A"/>
      <path id="Oval_2" d="M91.053 57.998a3.28 3.28 0 100-6.56 3.28 3.28 0 000 6.56z" fill="#fff"/>
      <path id="Shape_23" d="M91.052 59.5a4.785 4.785 0 01-4.78-4.78 4.784 4.784 0 014.78-4.78 4.785 4.785 0 014.78 4.78 4.786 4.786 0 01-4.78 4.78zm0-6.56a1.78 1.78 0 000 3.56c.982 0 1.78-.8 1.78-1.782 0-.98-.798-1.779-1.78-1.779z" fill="#33363A"/>
      <path id="Shape_24" d="M92.718 93.148c0 2.21-1.789 4-4 4h-35.75a4 4 0 01-4-4V74.076a4 4 0 014-4h35.75c2.211 0 4 1.791 4 4v19.072z" fill="#E8A113"/>
      <path id="Shape_25" d="M88.718 75.769h-35.75a4 4 0 00-4 4v13.379a4 4 0 004 4h35.75c2.211 0 4-1.791 4-4V79.769c0-2.209-1.789-4-4-4z" fill="#C68510"/>
      <path id="Shape_26" d="M88.718 98.648h-35.75a5.507 5.507 0 01-5.5-5.5V74.076c0-3.032 2.468-5.5 5.5-5.5h35.75c3.032 0 5.5 2.468 5.5 5.5v19.072c0 3.032-2.468 5.5-5.5 5.5zm-35.75-27.072a2.502 2.502 0 00-2.5 2.5v19.072c0 1.38 1.121 2.5 2.5 2.5h35.75c1.379 0 2.5-1.12 2.5-2.5V74.076c0-1.379-1.121-2.5-2.5-2.5h-35.75z" fill="#33363A"/>
      <path id="Shape_27" d="M83.435 88.826a2.098 2.098 0 01-2.098 2.098H60.349a2.098 2.098 0 01-2.098-2.098V78.82c0-1.158.939-2.098 2.098-2.098h20.988c1.16 0 2.098.94 2.098 2.098v10.006z" fill="#965514"/>
      <path id="Shape_28" d="M81.337 76.722H60.349a2.098 2.098 0 00-2.098 2.098v3.551c0 1.158.939 2.098 2.098 2.098h20.988c1.16 0 2.098-.939 2.098-2.098v-3.55a2.098 2.098 0 00-2.098-2.099z" fill="#663C17"/>
      <path id="Shape_29" d="M81.337 92.423H60.349a3.603 3.603 0 01-3.598-3.598V78.82a3.603 3.603 0 013.598-3.598h20.988a3.603 3.603 0 013.598 3.598v10.006a3.602 3.602 0 01-3.598 3.597zm-20.988-14.2a.6.6 0 00-.598.597v10.006a.6.6 0 00.598.598h20.988a.6.6 0 00.598-.598V78.82a.6.6 0 00-.598-.598H60.349z" fill="#33363A"/>
    </g>
  </g>
</svg>
