<svg width="140" height="140" viewBox="0 0 140 140" fill="none" xmlns="http://www.w3.org/2000/svg">
<g id="Bookbag">
<g id="Group 28">
<path id="Shape" fill-rule="evenodd" clip-rule="evenodd" d="M78.364 111.173C78.364 115.693 74.702 119.354 70.182 119.354C65.662 119.354 62 115.693 62 111.173V87.4369C62 82.9169 65.662 79.2539 70.182 79.2539C74.702 79.2539 78.364 82.9169 78.364 87.4369V111.173Z" fill="#FF1A1A"/>
<path id="Shape_2" fill-rule="evenodd" clip-rule="evenodd" d="M70.182 79.2551C65.662 79.2551 62 82.9181 62 87.4381V89.0481C62 93.5671 65.662 97.2291 70.182 97.2291C74.702 97.2291 78.364 93.5671 78.364 89.0481V87.4381C78.364 82.9181 74.701 79.2551 70.182 79.2551Z" fill="#FF7676"/>
<path id="Shape_3" fill-rule="evenodd" clip-rule="evenodd" d="M69.682 120.853C64.343 120.853 60 116.51 60 111.172V87.4369C60 82.0979 64.343 77.7539 69.682 77.7539C75.021 77.7539 79.364 82.0979 79.364 87.4369V111.172C79.364 116.51 75.021 120.853 69.682 120.853ZM69.682 80.7549C65.997 80.7549 63 83.7529 63 87.4379V111.173C63 114.857 65.997 117.854 69.682 117.854C73.367 117.854 76.364 114.857 76.364 111.173V87.4369C76.364 83.7529 73.366 80.7549 69.682 80.7549Z" fill="#33363A"/>
<path id="Shape_4" fill-rule="evenodd" clip-rule="evenodd" d="M78.364 111.173C78.364 115.693 74.702 119.354 70.181 119.354C65.662 119.354 62 115.693 62 111.173V87.4369C62 82.9169 65.662 79.2539 70.181 79.2539C74.702 79.2539 78.364 82.9169 78.364 87.4369V111.173Z" fill="#FF1A1A"/>
<path id="Shape_5" fill-rule="evenodd" clip-rule="evenodd" d="M70.181 79.2551C65.662 79.2551 62 82.9181 62 87.4381V89.0481C62 93.5671 65.662 97.2291 70.181 97.2291C74.702 97.2291 78.364 93.5671 78.364 89.0481V87.4381C78.364 82.9181 74.702 79.2551 70.181 79.2551Z" fill="#FF7676"/>
<path id="Shape_6" fill-rule="evenodd" clip-rule="evenodd" d="M69.681 120.853C64.343 120.853 60 116.51 60 111.172V87.4369C60 82.0979 64.343 77.7539 69.681 77.7539C75.02 77.7539 79.364 82.0979 79.364 87.4369V111.172C79.364 116.51 75.02 120.853 69.681 120.853ZM69.681 80.7549C65.997 80.7549 63 83.7529 63 87.4379V111.173C63 114.857 65.997 117.854 69.681 117.854C73.366 117.854 76.364 114.857 76.364 111.173V87.4369C76.364 83.7529 73.366 80.7549 69.681 80.7549Z" fill="#33363A"/>
<path id="Shape_7" fill-rule="evenodd" clip-rule="evenodd" d="M72.838 18.3901H65.926C41.155 18.3901 21 38.5461 21 63.3181V115.156C21 124.699 28.734 132.435 38.279 132.435H100.484C110.029 132.435 117.765 124.699 117.765 115.156V63.3181C117.766 38.5471 97.611 18.3901 72.838 18.3901Z" fill="#8DE4FF"/>
<path id="Shape_8" fill-rule="evenodd" clip-rule="evenodd" d="M72.838 30.593H65.926C41.155 30.593 21 50.749 21 75.521V115.156C21 124.699 28.734 132.435 38.279 132.435H100.484C110.029 132.435 117.765 124.699 117.765 115.156V75.521C117.766 50.75 97.611 30.593 72.838 30.593Z" fill="#00AAFF"/>
<path id="Shape_9" fill-rule="evenodd" clip-rule="evenodd" d="M100.985 133.935H38.779C28.425 133.935 20 125.511 20 115.156V63.3181C20 37.7181 40.826 16.8901 66.426 16.8901H73.338C98.939 16.8901 119.766 37.7181 119.766 63.3181V115.156C119.766 125.511 111.341 133.935 100.985 133.935ZM66.426 19.8901C42.481 19.8901 23 39.3711 23 63.3181V115.156C23 123.857 30.078 130.935 38.779 130.935H100.984C109.686 130.935 116.765 123.856 116.765 115.156V63.3181C116.765 39.3721 97.284 19.8901 73.337 19.8901H66.426Z" fill="#33363A"/>
<path id="Shape_10" fill-rule="evenodd" clip-rule="evenodd" d="M102.328 103.542C102.328 111.633 95.769 118.194 87.678 118.194H52.65C44.56 118.194 38 111.632 38 103.542V92.5521C38 84.4621 44.561 77.9041 52.65 77.9041H87.677C95.769 77.9041 102.327 84.4631 102.327 92.5521V103.542H102.328Z" fill="#FF1A1A"/>
<path id="Shape_11" fill-rule="evenodd" clip-rule="evenodd" d="M52.603 77.9041C47.234 77.9041 42.552 80.8001 40 85.1091C42.552 89.4191 47.233 92.3181 52.603 92.3181H87.63C92.999 92.3181 97.681 89.4191 100.232 85.1091C97.681 80.8001 93 77.9041 87.63 77.9041H52.603Z" fill="#FF7676"/>
<path id="Shape_12" fill-rule="evenodd" clip-rule="evenodd" d="M87.178 119.694H52.15C43.245 119.694 36 112.448 36 103.542V92.5521C36 83.6481 43.245 76.4041 52.15 76.4041H87.177C96.082 76.4041 103.327 83.6481 103.327 92.5521V103.541C103.328 112.448 96.083 119.694 87.178 119.694ZM52.15 79.4041C44.899 79.4041 39 85.3021 39 92.5521V103.541C39 110.793 44.899 116.693 52.15 116.693H87.177C94.428 116.693 100.327 110.793 100.327 103.541V92.5521C100.327 85.3021 94.428 79.4041 87.177 79.4041H52.15Z" fill="#33363A"/>
<path id="Shape_13" fill-rule="evenodd" clip-rule="evenodd" d="M101.708 65.81C100.88 65.81 100.208 65.139 100.208 64.31C100.208 48.7 87.508 36 71.896 36H67.311C51.701 36 39 48.7 39 64.31C39 65.139 38.328 65.81 37.5 65.81C36.672 65.81 36 65.139 36 64.31C36 47.046 50.046 33 67.311 33H71.896C89.162 33 103.208 47.045 103.208 64.31C103.208 65.139 102.536 65.81 101.708 65.81Z" fill="#33363A"/>
<path id="Shape_14" fill-rule="evenodd" clip-rule="evenodd" d="M69.334 75.48C68.047 75.48 67 74.432 67 73.144V70.511C67 69.224 68.047 68.177 69.334 68.177C70.621 68.177 71.668 69.224 71.668 70.511V73.144C71.668 74.432 70.621 75.48 69.334 75.48Z" fill="#33363A"/>
<path id="Shape_15" fill-rule="evenodd" clip-rule="evenodd" d="M83.7818 24.142C82.9538 24.142 82.2818 23.471 82.2818 22.642C82.2818 15.671 76.6108 10 69.6408 10C62.6708 10 56.9998 15.671 56.9998 22.642C56.9998 23.471 56.3278 24.142 55.4998 24.142C54.6718 24.142 53.9998 23.471 53.9998 22.642C53.9998 14.017 61.0168 7 69.6408 7C78.2648 7 85.2818 14.017 85.2818 22.642C85.2818 23.471 84.6098 24.142 83.7818 24.142Z" fill="#33363A"/>
<path id="Shape_16" fill-rule="evenodd" clip-rule="evenodd" d="M71.5 110.237H67.5C66.672 110.237 66 109.566 66 108.737C66 107.908 66.672 107.237 67.5 107.237H71.5C72.328 107.237 73 107.908 73 108.737C73 109.566 72.328 110.237 71.5 110.237Z" fill="#33363A"/>
<path id="Shape_17" fill-rule="evenodd" clip-rule="evenodd" d="M88.831 110.237H81.165C80.337 110.237 79.665 109.566 79.665 108.737C79.665 107.908 80.337 107.237 81.165 107.237H88.831C89.659 107.237 90.331 107.908 90.331 108.737C90.331 109.566 89.659 110.237 88.831 110.237ZM73.499 110.237H65.833C65.005 110.237 64.333 109.566 64.333 108.737C64.333 107.908 65.005 107.237 65.833 107.237H73.499C74.327 107.237 74.999 107.908 74.999 108.737C74.999 109.566 74.327 110.237 73.499 110.237ZM58.166 110.237H50.5C49.672 110.237 49 109.566 49 108.737C49 107.908 49.672 107.237 50.5 107.237H58.166C58.994 107.237 59.666 107.908 59.666 108.737C59.666 109.566 58.994 110.237 58.166 110.237Z" fill="#33363A"/>
<path id="Shape_18" fill-rule="evenodd" clip-rule="evenodd" d="M71.5 110.237H67.5C66.672 110.237 66 109.566 66 108.737C66 107.908 66.672 107.237 67.5 107.237H71.5C72.328 107.237 73 107.908 73 108.737C73 109.566 72.328 110.237 71.5 110.237Z" fill="#33363A"/>
</g>
</g>
</svg>
