<svg width="140" height="140" fill="none" xmlns="http://www.w3.org/2000/svg">
  <g id="Bookmark">
    <g id="Group 27" fill-rule="evenodd" clip-rule="evenodd">
      <path id="Shape" d="M131.386 55.813a8.367 8.367 0 00-6.783-5.718L91.87 45.328 77.228 15.657a8.404 8.404 0 00-15.068 0L47.52 45.328l-32.737 4.768A8.372 8.372 0 008 55.814a8.404 8.404 0 002.128 8.609l23.691 23.081-5.598 32.613a8.403 8.403 0 003.345 8.221 8.413 8.413 0 008.854.629l29.276-15.383 29.276 15.383a8.329 8.329 0 003.909.971 8.395 8.395 0 008.285-9.821l-5.599-32.613 23.691-23.081a8.394 8.394 0 002.129-8.61z" fill="#FA0"/>
      <path id="Shape_2" d="M69.694 10.979a8.41 8.41 0 00-7.535 4.679l-14.64 29.67-32.736 4.768A8.372 8.372 0 008 55.814a8.404 8.404 0 002.128 8.609l23.691 23.081-5.598 32.613a8.403 8.403 0 003.345 8.221 8.413 8.413 0 008.854.629l29.275-15.383V10.979z" fill="#FFD00B"/>
      <path id="Shape_3" d="M102.88 131.437c-1.604 0-3.2-.396-4.612-1.146l-28.574-15.013-28.579 15.016a9.911 9.911 0 01-10.427-.738c-3.08-2.241-4.59-5.953-3.947-9.693l5.465-31.835L9.08 65.497c-2.674-2.598-3.66-6.581-2.508-10.145 1.18-3.628 4.246-6.21 8.002-6.742l31.95-4.652 14.291-28.964c1.654-3.351 5.14-5.515 8.88-5.515 3.742 0 7.228 2.165 8.88 5.516l14.291 28.963 31.954 4.654c3.753.531 6.819 3.114 7.995 6.74 1.155 3.562.17 7.545-2.509 10.147l-23.126 22.529 5.465 31.835a9.851 9.851 0 01-3.938 9.688 9.857 9.857 0 01-5.826 1.886zm-33.186-19.353c.24 0 .48.058.698.172l29.276 15.383c2.289 1.214 5.194.995 7.273-.515a6.867 6.867 0 002.746-6.753l-5.598-32.613a1.5 1.5 0 01.432-1.328l23.691-23.081a6.938 6.938 0 001.748-7.073c-.819-2.526-2.952-4.325-5.567-4.695l-32.74-4.769a1.5 1.5 0 01-1.129-.821l-14.64-29.67a6.944 6.944 0 00-6.19-3.842 6.946 6.946 0 00-6.19 3.843l-14.64 29.67a1.5 1.5 0 01-1.129.821L15 51.581c-2.62.371-4.753 2.17-5.575 4.697-.802 2.483-.117 5.259 1.747 7.07l23.694 23.083a1.5 1.5 0 01.432 1.328l-5.599 32.613a6.865 6.865 0 002.75 6.754c2.096 1.51 4.991 1.722 7.27.516l29.28-15.385a1.49 1.49 0 01.696-.173z" fill="#33363A"/>
    </g>
  </g>
</svg>
