<svg width="141" height="141" fill="none" xmlns="http://www.w3.org/2000/svg">
  <g id="Bulbasaur">
    <g id="Group 4" fill-rule="evenodd" clip-rule="evenodd">
      <path id="Shape" d="M118.901 45.421c18.363 18.363 18.365 35.658.002 54.021-18.365 18.367-79.133 18.365-97.496 0-18.363-18.363-18.365-35.658 0-54.021 48.547-48.549 48.947-48.549 97.494 0z" fill="#43B530"/>
      <path id="Shape_2" d="M21.407 52.046C13.362 60.089 8.842 67.928 7.846 75.743c.996 7.814 5.516 15.654 13.56 23.699 18.364 18.365 79.132 18.367 97.497 0 8.043-8.043 12.562-15.883 13.559-23.697-.996-7.814-5.516-15.654-13.561-23.699-48.547-48.549-48.947-48.549-97.494 0z" fill="#107510"/>
      <path id="Shape_3" d="M21.407 52.046c-5.006 5.004-8.645 9.93-10.92 14.818 2.275 4.891 5.915 9.816 10.92 14.82 18.363 18.365 79.131 18.367 97.496 0 5.004-5.004 8.643-9.93 10.919-14.818-2.276-4.891-5.916-9.816-10.921-14.82-48.547-48.549-48.947-48.549-97.494 0z" fill="#1A8E1C"/>
      <path id="Shape_4" d="M70.156 114.717c-21.957 0-41.043-5.446-49.81-14.214-9.563-9.564-14.212-18.745-14.212-28.072 0-9.326 4.648-18.509 14.212-28.071C44.881 19.824 57.196 7.51 70.154 7.51c12.958 0 25.273 12.314 49.808 36.851 18.89 18.89 18.891 37.254.002 56.143-8.767 8.766-27.852 14.213-49.808 14.213zM70.154 10.51c-11.242 0-22.743 11.027-47.687 35.972-8.973 8.972-13.334 17.46-13.333 25.95 0 8.489 4.361 16.978 13.333 25.95 8.225 8.226 26.498 13.335 47.688 13.335 21.189 0 39.462-5.109 47.687-13.335 17.704-17.704 17.703-34.195-.002-51.9C92.897 21.537 81.396 10.51 70.154 10.51z" fill="#33363A"/>
      <path id="Shape_5" d="M92.978 45.421c8.599 18.363 8.599 35.658.001 54.021-8.599 18.367-37.05 18.365-45.648 0-8.599-18.363-8.6-35.658 0-54.021 22.73-48.549 22.917-48.549 45.647 0z" fill="#43B530"/>
      <path id="Shape_6" d="M49.83 52.046c-3.767 8.043-8.383 15.883-8.849 23.697.466 7.814 2.582 15.654 6.35 23.699 8.598 18.365 37.05 18.367 45.648 0 3.766-8.043 5.883-15.883 6.349-23.697-.466-7.814-5.083-15.654-8.85-23.699-22.73-48.549-17.917-48.549-40.648 0z" fill="#1A8E1C"/>
      <path id="Shape_7" d="M70.155 114.717c-10.689 0-19.956-5.609-24.183-14.639-8.833-18.862-8.833-36.433-.001-55.293C57.955 19.19 63.425 7.51 70.154 7.51c6.729 0 12.2 11.68 24.183 37.275 8.832 18.861 8.833 36.431.001 55.293-4.227 9.029-13.494 14.639-24.183 14.639zM70.154 10.51c-4.822 0-11.087 13.38-21.466 35.547-8.425 17.993-8.425 34.755.001 52.75 3.728 7.963 11.954 12.91 21.466 12.91s17.737-4.947 21.465-12.91c8.425-17.994 8.424-34.756-.001-52.75C81.241 23.889 74.976 10.51 70.154 10.51z" fill="#33363A"/>
      <path id="Shape_8" d="M119.363 95.448c0 20.676-22.032 37.441-49.209 37.441-27.178 0-49.209-16.766-49.209-37.441 0-20.68 22.031-45.459 49.21-45.459 27.176 0 49.208 24.779 49.208 45.459z" fill="#80EDAC"/>
      <path id="Shape_9" d="M119.363 95.448c0 20.676-22.032 37.441-49.209 37.441-27.178 0-49.209-16.766-49.209-37.441 0-20.68 22.031-34.928 49.21-34.928 27.176 0 49.208 14.248 49.208 34.928z" fill="#6ADB9A"/>
      <path id="Shape_10" d="M80.591 98.522c0 1.393-4.69 1.643-10.479 1.643-5.788 0-10.479-.25-10.479-1.643 0-1.395 4.691-5.037 10.48-5.037 5.787 0 10.478 3.643 10.478 5.037z" fill="#80EDAC"/>
      <path id="Shape_11" d="M119.363 95.448c0 20.676-22.032 37.441-49.209 37.441-27.178 0-49.209-16.766-49.209-37.441 0-20.682 6.261 18.34 49.21 18.34 42.947 0 49.208-39.022 49.208-18.34z" fill="#47C67B"/>
      <path id="Shape_12" d="M83.737 110.011c0 3.893-6.082 7.047-13.583 7.047s-13.583-3.154-13.583-7.047" fill="#BA503A"/>
      <path id="Shape_13" d="M70.154 118.557c-8.458 0-15.083-3.754-15.083-8.547a1.5 1.5 0 113 0c0 2.624 4.962 5.547 12.083 5.547s12.083-2.923 12.083-5.547a1.5 1.5 0 113 0c0 4.793-6.625 8.547-15.083 8.547z" fill="#33363A"/>
      <path id="Shape_14" d="M70.154 134.389c-27.96 0-50.709-17.469-50.709-38.941 0-21.27 22.62-46.959 50.71-46.959 13.04 0 25.771 5.472 35.848 15.406 9.305 9.174 14.86 20.97 14.86 31.553 0 21.473-22.748 38.941-50.709 38.941zm0-82.9c-26.428 0-47.709 24.048-47.709 43.959 0 19.818 21.402 35.941 47.71 35.941 26.306 0 47.708-16.123 47.708-35.941 0-19.911-21.28-43.959-47.709-43.959z" fill="#33363A"/>
      <path id="Shape_15" d="M53.992 91.604a8.05 8.05 0 01-8.052 8.051 8.049 8.049 0 01-8.051-8.051 8.052 8.052 0 0116.103 0z" fill="#AD2707"/>
      <path id="Shape_16" d="M53.992 91.604c0 4.449-3.605 1.664-8.052 1.664-4.447 0-8.051 2.785-8.051-1.664a8.052 8.052 0 0116.103 0z" fill="#33363A"/>
      <path id="Shape_17" d="M45.94 101.155c-5.266 0-9.551-4.284-9.551-9.551s4.285-9.551 9.55-9.551c5.268 0 9.553 4.284 9.553 9.551s-4.285 9.551-9.552 9.551zm0-16.102a6.558 6.558 0 00-6.551 6.551 6.557 6.557 0 006.55 6.551 6.558 6.558 0 006.553-6.551 6.558 6.558 0 00-6.552-6.551z" fill="#33363A"/>
      <path id="Oval" d="M41.936 92.268a3.281 3.281 0 100-6.562 3.281 3.281 0 000 6.562z" fill="#fff"/>
      <path id="Shape_18" d="M41.935 93.768a4.786 4.786 0 01-4.78-4.781 4.785 4.785 0 014.78-4.779 4.786 4.786 0 014.781 4.779 4.786 4.786 0 01-4.781 4.781zm0-6.56c-.981 0-1.78.798-1.78 1.779 0 .982.799 1.781 1.78 1.781.982 0 1.781-.799 1.781-1.781 0-.981-.798-1.779-1.781-1.779z" fill="#33363A"/>
      <path id="Shape_19" d="M102.419 91.604a8.05 8.05 0 01-8.051 8.051 8.05 8.05 0 01-8.052-8.051 8.05 8.05 0 018.052-8.051 8.051 8.051 0 018.051 8.051z" fill="#AD2707"/>
      <path id="Shape_20" d="M102.419 91.604c0 4.449-3.604 1.664-8.051 1.664s-8.052 2.785-8.052-1.664a8.05 8.05 0 018.052-8.051 8.051 8.051 0 018.051 8.051z" fill="#33363A"/>
      <path id="Shape_21" d="M94.368 101.155c-5.267 0-9.552-4.284-9.552-9.551s4.285-9.551 9.552-9.551c5.266 0 9.551 4.284 9.551 9.551s-4.285 9.551-9.551 9.551zm0-16.102a6.558 6.558 0 00-6.552 6.551 6.558 6.558 0 006.552 6.551 6.558 6.558 0 006.551-6.551 6.558 6.558 0 00-6.551-6.551z" fill="#33363A"/>
      <path id="Oval_2" d="M90.363 92.267a3.28 3.28 0 100-6.56 3.28 3.28 0 000 6.56z" fill="#fff"/>
      <path id="Shape_22" d="M90.364 93.768a4.787 4.787 0 01-4.781-4.781 4.785 4.785 0 014.781-4.779 4.785 4.785 0 014.779 4.779 4.785 4.785 0 01-4.779 4.781zm0-6.56c-.982 0-1.781.798-1.781 1.779 0 .982.799 1.781 1.781 1.781a1.78 1.78 0 000-3.56z" fill="#33363A"/>
      <path id="Shape_23" d="M68.633 113.329c-.226-.901-2.8-3.211-11.883-3.062-13.738.222-18.003-8.107-18.176-8.462a1.5 1.5 0 012.691-1.326c.154.304 3.677 7.011 15.437 6.788 1.473-.016 14.381-.062 14.904 5.688l-2.987.271a.309.309 0 00.014.103z" fill="#33363A"/>
      <path id="Shape_24" d="M71.675 113.329c.016-.065.014-.103.014-.103l-2.987-.271c.523-5.752 13.44-5.705 14.905-5.688 11.875.225 15.398-6.71 15.432-6.78a1.5 1.5 0 112.695 1.319c-.174.354-4.414 8.66-18.175 8.462-9.064-.173-11.658 2.16-11.884 3.061z" fill="#33363A"/>
      <path id="Shape_25" d="M67.687 105.145c-.398 0-.796-.157-1.091-.47l-1.5-1.588a1.5 1.5 0 112.181-2.06l1.5 1.588a1.5 1.5 0 01-1.09 2.53z" fill="#33363A"/>
      <path id="Shape_26" d="M72.621 105.145a1.498 1.498 0 01-1.09-2.53l1.5-1.588a1.5 1.5 0 112.181 2.06l-1.5 1.588c-.295.313-.692.47-1.09.47z" fill="#33363A"/>
      <path id="Shape_27" d="M39.684 64.173c2.6-1.83 5.37-3.064 8.057-3.723.418-2.48.033-4.844-1.305-6.744-2.9-4.123-9.328-4.807-15.596-2.104-4.662 4.988-6.188 11.27-3.287 15.39 1.338 1.903 3.432 3.063 5.91 3.507 1.526-2.31 3.623-4.498 6.221-6.326z" fill="#9CFFC4"/>
      <path id="Shape_28" d="M42.852 56.374c-2.596-3.689-8.016-4.617-13.618-2.836-3.368 4.598-4.216 9.852-1.681 13.455 1.112 1.582 2.751 2.643 4.693 3.213 1.126-1.205 2.656-.191 4.107-1.213.425-.299.607-2.711 1.041-2.979a25.477 25.477 0 012.289-1.842 24.806 24.806 0 014.618-2.551c.069-1.925-.382-3.735-1.449-5.247z" fill="#80EDAC"/>
      <path id="Shape_29" d="M33.465 72c-.088 0-.177-.009-.266-.024-2.975-.532-5.351-1.957-6.872-4.119-3.271-4.647-1.897-11.59 3.418-17.278a1.52 1.52 0 01.501-.353c7.148-3.083 14.146-2.03 17.417 2.617 1.521 2.16 2.06 4.877 1.557 7.856a1.508 1.508 0 01-1.728 1.23 1.5 1.5 0 01-1.23-1.729c.368-2.184.004-4.13-1.052-5.632-2.354-3.344-7.867-4.032-13.486-1.712-4.083 4.506-5.297 9.93-2.944 13.272 1.057 1.502 2.767 2.503 4.947 2.893A1.5 1.5 0 0133.465 72z" fill="#33363A"/>
      <path id="Shape_30" d="M100.624 64.173c-2.601-1.83-5.369-3.064-8.057-3.723-.419-2.48-.034-4.844 1.305-6.744 2.9-4.123 9.328-4.807 15.596-2.104 4.661 4.988 6.188 11.27 3.287 15.39-1.339 1.903-3.432 3.063-5.91 3.507-1.526-2.31-3.624-4.498-6.221-6.326z" fill="#9CFFC4"/>
      <path id="Shape_31" d="M97.456 56.374c2.596-3.689 8.016-4.617 13.617-2.836 3.369 4.598 4.217 9.852 1.682 13.455-1.113 1.582-2.752 2.643-4.693 3.213-1.127-1.205-2.656-.191-4.107-1.213-.426-.299-.607-2.711-1.041-2.979a25.619 25.619 0 00-2.289-1.842 24.817 24.817 0 00-4.62-2.551c-.067-1.925.384-3.735 1.45-5.247z" fill="#80EDAC"/>
      <path id="Shape_32" d="M106.842 71.999a1.5 1.5 0 01-.263-2.976c2.179-.39 3.89-1.39 4.948-2.893 2.353-3.343 1.138-8.767-2.944-13.272-5.619-2.32-11.133-1.633-13.485 1.712-1.058 1.5-1.42 3.447-1.053 5.63a1.5 1.5 0 01-1.229 1.73 1.506 1.506 0 01-1.729-1.23c-.503-2.98.035-5.696 1.558-7.857 3.27-4.646 10.269-5.698 17.416-2.616.189.08.36.202.502.353 5.314 5.688 6.688 12.632 3.417 17.278-1.522 2.163-3.898 3.587-6.873 4.119a1.692 1.692 0 01-.265.022z" fill="#33363A"/>
      <path id="Shape_33" d="M63.69 75.958a7.582 7.582 0 01-7.58-7.582c0-4.186 5.277-5.697 9.464-5.697s5.697 1.512 5.697 5.697a7.582 7.582 0 01-7.58 7.582z" fill="#47C67B"/>
      <path id="Oval_3" d="M78.68 75.957a2.667 2.667 0 10.001-5.334 2.667 2.667 0 000 5.334z" fill="#47C67B"/>
      <path id="Oval_4" d="M89.069 73.291a1.986 1.986 0 100-3.972 1.986 1.986 0 000 3.972z" fill="#47C67B"/>
      <path id="Oval_5" d="M75.43 88.854a1.308 1.308 0 100-2.616 1.308 1.308 0 000 2.616z" fill="#47C67B"/>
      <path id="Oval_6" d="M52.515 76.306a2.501 2.501 0 100-5.002 2.501 2.501 0 000 5.002z" fill="#47C67B"/>
      <path id="Shape_34" d="M47.918 108.438l-5.054 2.975-.357-5.852" fill="#fff"/>
      <path id="Shape_35" d="M42.864 112.913a1.499 1.499 0 01-1.497-1.408l-.357-5.852a1.5 1.5 0 011.406-1.589 1.497 1.497 0 011.588 1.405l.208 3.409 2.945-1.733a1.5 1.5 0 011.521 2.586l-5.054 2.975a1.495 1.495 0 01-.76.207z" fill="#33363A"/>
      <path id="Shape_36" d="M92.39 108.438l5.054 2.975.357-5.852" fill="#fff"/>
      <path id="Shape_37" d="M97.444 112.913c-.263 0-.526-.069-.76-.207l-5.055-2.975a1.5 1.5 0 011.521-2.586l2.945 1.733.208-3.409a1.5 1.5 0 012.994.184l-.357 5.852a1.5 1.5 0 01-1.496 1.408z" fill="#33363A"/>
    </g>
  </g>
</svg>
