<svg width="131" height="265" fill="none" xmlns="http://www.w3.org/2000/svg">
  <g filter="url(#filter0_d)">
    <rect x="-83" y="19.706" width="180" height="233" rx="16" transform="rotate(-4.048 -83 19.706)" fill="#E8E8ED"/>
  </g>
  <path d="M-44.146 233.237l132.3-9.363c2.614-.184 4.59-2.258 4.421-4.638L79.174 29.858c-.168-2.376-2.417-4.155-5.03-3.97l-132.3 9.362c-2.609.185-4.59 2.263-4.421 4.639l13.401 189.378c.169 2.38 2.422 4.154 5.03 3.97zM72.749 73.274c.31 4.384-4.732 7.051-8.181 4.329L25.541 46.8c-3.628-2.864-1.833-8.692 2.777-9.018a5.059 5.059 0 013.491 1.075L70.838 69.66a5.058 5.058 0 011.912 3.614zm-.085 22.21a5.059 5.059 0 011.912 3.615c.31 4.383-4.731 7.05-8.18 4.328L-2.81 48.806c-3.628-2.863-1.833-8.691 2.777-9.018a5.06 5.06 0 013.491 1.076l69.205 54.62zm1.828 25.825a5.06 5.06 0 011.912 3.614c.31 4.383-4.732 7.051-8.181 4.328L-31.16 50.812c-3.628-2.863-1.833-8.691 2.777-9.017a5.06 5.06 0 013.491 1.075l99.382 78.439zm1.827 25.824a5.059 5.059 0 011.912 3.614c.31 4.384-4.731 7.051-8.18 4.328L-49.977 60.343a5.059 5.059 0 01-1.912-3.614c-.31-4.383 4.731-7.05 8.18-4.328L76.32 147.133zm1.828 25.824a5.059 5.059 0 011.912 3.614c.31 4.384-4.732 7.051-8.181 4.329L-48.148 86.167a5.06 5.06 0 01-1.912-3.614c-.31-4.383 4.73-7.05 8.18-4.328l120.026 94.732zm1.827 25.825a5.06 5.06 0 011.912 3.614c.31 4.383-4.731 7.051-8.18 4.328l-120.027-94.732a5.059 5.059 0 01-1.912-3.614c-.31-4.384 4.731-7.051 8.18-4.329l120.027 94.733zm-18.816 9.531c3.627 2.863 1.833 8.691-2.778 9.017a5.057 5.057 0 01-3.491-1.075l-99.382-78.439a5.059 5.059 0 01-1.913-3.614c-.31-4.383 4.732-7.051 8.181-4.328l99.383 78.439zm-28.35 2.006c3.627 2.863 1.832 8.691-2.778 9.017a5.058 5.058 0 01-3.491-1.075l-69.205-54.621a5.06 5.06 0 01-1.912-3.614c-.31-4.383 4.731-7.051 8.18-4.328l69.205 54.621zm-28.35 2.006c3.627 2.863 1.832 8.691-2.778 9.018a5.058 5.058 0 01-3.491-1.076l-39.028-30.802a5.059 5.059 0 01-1.912-3.614c-.31-4.384 4.732-7.051 8.181-4.329l39.027 30.803zm-45.01 4.602c-.452-6.399 6.907-10.292 11.943-6.318 5.296 4.18 2.676 12.688-4.054 13.164a7.385 7.385 0 01-7.889-6.846zM70.55 42.197c.452 6.4-6.907 10.293-11.943 6.319-5.296-4.18-2.676-12.688 4.054-13.164a7.385 7.385 0 017.889 6.845z" fill="#E43B26" fill-opacity=".6"/>
  <g filter="url(#filter1_d)">
    <rect x="-57.353" y="4" width="180" height="233" rx="16" transform="rotate(3.358 -57.353 4)" fill="#E8E8ED"/>
  </g>
  <path d="M-46.346 220.758l132.404 7.768c2.615.153 4.842-1.648 4.981-4.03L102.16 34.97c.14-2.378-1.861-4.432-4.476-4.585L-34.72 22.617c-2.61-.153-4.842 1.652-4.981 4.03l-11.12 189.526c-.14 2.382 1.866 4.431 4.476 4.585zM90.192 77.196c-.258 4.387-5.6 6.382-8.67 3.238L46.79 44.858c-3.229-3.307-.697-8.855 3.916-8.585a5.059 5.059 0 013.324 1.517L88.76 73.366a5.059 5.059 0 011.43 3.83zM87.245 99.21a5.058 5.058 0 011.43 3.83c-.257 4.387-5.6 6.383-8.67 3.238L18.418 43.193c-3.229-3.307-.698-8.855 3.916-8.584a5.059 5.059 0 013.324 1.516L87.245 99.21zm-1.516 25.845a5.057 5.057 0 011.43 3.83c-.257 4.387-5.6 6.382-8.67 3.238L-9.955 41.529c-3.228-3.308-.697-8.856 3.917-8.585a5.059 5.059 0 013.323 1.516l88.444 90.595zm-1.517 25.844a5.06 5.06 0 011.43 3.83c-.257 4.387-5.6 6.383-8.67 3.238L-29.842 48.555a5.06 5.06 0 01-1.43-3.83c.257-4.388 5.6-6.383 8.67-3.239L84.212 150.9zm-1.516 25.844a5.061 5.061 0 011.43 3.831c-.257 4.387-5.6 6.382-8.67 3.238L-31.359 74.399a5.059 5.059 0 01-1.43-3.83c.257-4.387 5.6-6.382 8.67-3.238L82.696 176.743zm-1.516 25.845a5.06 5.06 0 011.43 3.83c-.257 4.387-5.6 6.382-8.67 3.238L-32.875 100.244a5.06 5.06 0 01-1.43-3.83c.257-4.388 5.6-6.383 8.67-3.239L81.18 202.588zm-19.888 7.026c3.228 3.307.697 8.855-3.916 8.584a5.054 5.054 0 01-3.324-1.516l-88.443-90.594a5.06 5.06 0 01-1.43-3.83c.257-4.387 5.6-6.383 8.67-3.238l88.443 90.594zm-28.372-1.665c3.228 3.307.697 8.856-3.917 8.585a5.063 5.063 0 01-3.323-1.516l-61.588-63.086a5.058 5.058 0 01-1.43-3.83c.257-4.387 5.6-6.382 8.67-3.238l61.588 63.085zm-28.373-1.664c3.229 3.307.698 8.855-3.916 8.584a5.059 5.059 0 01-3.324-1.516l-34.731-35.576a5.06 5.06 0 01-1.43-3.831c.257-4.386 5.6-6.382 8.67-3.237l34.731 35.576zm-45.226-1.237c.376-6.404 8.176-9.317 12.657-4.727 4.713 4.828 1.018 12.927-5.717 12.532a7.386 7.386 0 01-6.94-7.805zM92.016 46.095c-.375 6.404-8.175 9.317-12.657 4.727-4.713-4.828-1.018-12.927 5.717-12.532a7.385 7.385 0 016.94 7.805z" fill="#E43B26" fill-opacity=".6"/>
  <g filter="url(#filter2_d)">
    <rect x="-83" y="19.706" width="180" height="233" rx="16" transform="rotate(-4.048 -83 19.706)" fill="#E8E8ED"/>
  </g>
  <path d="M-44.146 233.237l132.3-9.363c2.614-.184 4.59-2.258 4.421-4.638L79.174 29.858c-.168-2.376-2.417-4.155-5.03-3.97l-132.3 9.362c-2.609.185-4.59 2.263-4.421 4.639l13.401 189.378c.169 2.38 2.422 4.154 5.03 3.97zM72.749 73.274c.31 4.384-4.732 7.051-8.181 4.329L25.541 46.8c-3.628-2.864-1.833-8.692 2.777-9.018a5.059 5.059 0 013.491 1.075L70.838 69.66a5.058 5.058 0 011.912 3.614zm-.085 22.21a5.059 5.059 0 011.912 3.615c.31 4.383-4.731 7.05-8.18 4.328L-2.81 48.806c-3.628-2.863-1.833-8.691 2.777-9.018a5.06 5.06 0 013.491 1.076l69.205 54.62zm1.828 25.825a5.06 5.06 0 011.912 3.614c.31 4.383-4.732 7.051-8.181 4.328L-31.16 50.812c-3.628-2.863-1.833-8.691 2.777-9.017a5.06 5.06 0 013.491 1.075l99.382 78.439zm1.827 25.824a5.059 5.059 0 011.912 3.614c.31 4.384-4.731 7.051-8.18 4.328L-49.977 60.343a5.059 5.059 0 01-1.912-3.614c-.31-4.383 4.731-7.05 8.18-4.328L76.32 147.133zm1.828 25.824a5.059 5.059 0 011.912 3.614c.31 4.384-4.732 7.051-8.181 4.329L-48.148 86.167a5.06 5.06 0 01-1.912-3.614c-.31-4.383 4.73-7.05 8.18-4.328l120.026 94.732zm1.827 25.825a5.06 5.06 0 011.912 3.614c.31 4.383-4.731 7.051-8.18 4.328l-120.027-94.732a5.059 5.059 0 01-1.912-3.614c-.31-4.384 4.731-7.051 8.18-4.329l120.027 94.733zm-18.816 9.531c3.627 2.863 1.833 8.691-2.778 9.017a5.057 5.057 0 01-3.491-1.075l-99.382-78.439a5.059 5.059 0 01-1.913-3.614c-.31-4.383 4.732-7.051 8.181-4.328l99.383 78.439zm-28.35 2.006c3.627 2.863 1.832 8.691-2.778 9.017a5.058 5.058 0 01-3.491-1.075l-69.205-54.621a5.06 5.06 0 01-1.912-3.614c-.31-4.383 4.731-7.051 8.18-4.328l69.205 54.621zm-28.35 2.006c3.627 2.863 1.832 8.691-2.778 9.018a5.058 5.058 0 01-3.491-1.076l-39.028-30.802a5.059 5.059 0 01-1.912-3.614c-.31-4.384 4.732-7.051 8.181-4.329l39.027 30.803zm-45.01 4.602c-.452-6.399 6.907-10.292 11.943-6.318 5.296 4.18 2.676 12.688-4.054 13.164a7.385 7.385 0 01-7.889-6.846zM70.55 42.197c.452 6.4-6.907 10.293-11.943 6.319-5.296-4.18-2.676-12.688 4.054-13.164a7.385 7.385 0 017.889 6.845z" fill="#E43B26" fill-opacity=".6"/>
  <g filter="url(#filter3_d)">
    <rect x="-57.353" y="4" width="180" height="233" rx="16" transform="rotate(3.358 -57.353 4)" fill="#E8E8ED"/>
  </g>
  <path d="M-46.346 220.758l132.404 7.768c2.615.153 4.842-1.648 4.981-4.03L102.16 34.97c.14-2.378-1.861-4.432-4.476-4.585L-34.72 22.617c-2.61-.153-4.842 1.652-4.981 4.03l-11.12 189.526c-.14 2.382 1.866 4.431 4.476 4.585zM90.192 77.196c-.258 4.387-5.6 6.382-8.67 3.238L46.79 44.858c-3.229-3.307-.697-8.855 3.916-8.585a5.059 5.059 0 013.324 1.517L88.76 73.366a5.059 5.059 0 011.43 3.83zM87.245 99.21a5.058 5.058 0 011.43 3.83c-.257 4.387-5.6 6.383-8.67 3.238L18.418 43.193c-3.229-3.307-.698-8.855 3.916-8.584a5.059 5.059 0 013.324 1.516L87.245 99.21zm-1.516 25.845a5.057 5.057 0 011.43 3.83c-.257 4.387-5.6 6.382-8.67 3.238L-9.955 41.529c-3.228-3.308-.697-8.856 3.917-8.585a5.059 5.059 0 013.323 1.516l88.444 90.595zm-1.517 25.844a5.06 5.06 0 011.43 3.83c-.257 4.387-5.6 6.383-8.67 3.238L-29.842 48.555a5.06 5.06 0 01-1.43-3.83c.257-4.388 5.6-6.383 8.67-3.239L84.212 150.9zm-1.516 25.844a5.061 5.061 0 011.43 3.831c-.257 4.387-5.6 6.382-8.67 3.238L-31.359 74.399a5.059 5.059 0 01-1.43-3.83c.257-4.387 5.6-6.382 8.67-3.238L82.696 176.743zm-1.516 25.845a5.06 5.06 0 011.43 3.83c-.257 4.387-5.6 6.382-8.67 3.238L-32.875 100.244a5.06 5.06 0 01-1.43-3.83c.257-4.388 5.6-6.383 8.67-3.239L81.18 202.588zm-19.888 7.026c3.228 3.307.697 8.855-3.916 8.584a5.054 5.054 0 01-3.324-1.516l-88.443-90.594a5.06 5.06 0 01-1.43-3.83c.257-4.387 5.6-6.383 8.67-3.238l88.443 90.594zm-28.372-1.665c3.228 3.307.697 8.856-3.917 8.585a5.063 5.063 0 01-3.323-1.516l-61.588-63.086a5.058 5.058 0 01-1.43-3.83c.257-4.387 5.6-6.382 8.67-3.238l61.588 63.085zm-28.373-1.664c3.229 3.307.698 8.855-3.916 8.584a5.059 5.059 0 01-3.324-1.516l-34.731-35.576a5.06 5.06 0 01-1.43-3.831c.257-4.386 5.6-6.382 8.67-3.237l34.731 35.576zm-45.226-1.237c.376-6.404 8.176-9.317 12.657-4.727 4.713 4.828 1.018 12.927-5.717 12.532a7.386 7.386 0 01-6.94-7.805zM92.016 46.095c-.375 6.404-8.175 9.317-12.657 4.727-4.713-4.828-1.018-12.927 5.717-12.532a7.385 7.385 0 016.94 7.805z" fill="#E43B26" fill-opacity=".6"/>
  <defs>
    <filter id="filter0_d" x="-91" y="3" width="211.998" height="261.125" filterUnits="userSpaceOnUse" color-interpolation-filters="sRGB">
      <feFlood flood-opacity="0" result="BackgroundImageFix"/>
      <feColorMatrix in="SourceAlpha" values="0 0 0 0 0 0 0 0 0 0 0 0 0 0 0 0 0 0 127 0"/>
      <feOffset dy="4"/>
      <feGaussianBlur stdDeviation="4"/>
      <feColorMatrix values="0 0 0 0 0.2 0 0 0 0 0.211765 0 0 0 0 0.227451 0 0 0 0.13 0"/>
      <feBlend in2="BackgroundImageFix" result="effect1_dropShadow"/>
      <feBlend in="SourceGraphic" in2="effect1_dropShadow" result="shape"/>
    </filter>
    <filter id="filter1_d" x="-79" y="0" width="209.338" height="259.143" filterUnits="userSpaceOnUse" color-interpolation-filters="sRGB">
      <feFlood flood-opacity="0" result="BackgroundImageFix"/>
      <feColorMatrix in="SourceAlpha" values="0 0 0 0 0 0 0 0 0 0 0 0 0 0 0 0 0 0 127 0"/>
      <feOffset dy="4"/>
      <feGaussianBlur stdDeviation="4"/>
      <feColorMatrix values="0 0 0 0 0.2 0 0 0 0 0.211765 0 0 0 0 0.227451 0 0 0 0.13 0"/>
      <feBlend in2="BackgroundImageFix" result="effect1_dropShadow"/>
      <feBlend in="SourceGraphic" in2="effect1_dropShadow" result="shape"/>
    </filter>
    <filter id="filter2_d" x="-91" y="3" width="211.998" height="261.125" filterUnits="userSpaceOnUse" color-interpolation-filters="sRGB">
      <feFlood flood-opacity="0" result="BackgroundImageFix"/>
      <feColorMatrix in="SourceAlpha" values="0 0 0 0 0 0 0 0 0 0 0 0 0 0 0 0 0 0 127 0"/>
      <feOffset dy="4"/>
      <feGaussianBlur stdDeviation="4"/>
      <feColorMatrix values="0 0 0 0 0.2 0 0 0 0 0.211765 0 0 0 0 0.227451 0 0 0 0.13 0"/>
      <feBlend in2="BackgroundImageFix" result="effect1_dropShadow"/>
      <feBlend in="SourceGraphic" in2="effect1_dropShadow" result="shape"/>
    </filter>
    <filter id="filter3_d" x="-79" y="0" width="209.338" height="259.143" filterUnits="userSpaceOnUse" color-interpolation-filters="sRGB">
      <feFlood flood-opacity="0" result="BackgroundImageFix"/>
      <feColorMatrix in="SourceAlpha" values="0 0 0 0 0 0 0 0 0 0 0 0 0 0 0 0 0 0 127 0"/>
      <feOffset dy="4"/>
      <feGaussianBlur stdDeviation="4"/>
      <feColorMatrix values="0 0 0 0 0.2 0 0 0 0 0.211765 0 0 0 0 0.227451 0 0 0 0.13 0"/>
      <feBlend in2="BackgroundImageFix" result="effect1_dropShadow"/>
      <feBlend in="SourceGraphic" in2="effect1_dropShadow" result="shape"/>
    </filter>
  </defs>
</svg>
