<svg width="272" height="302" fill="none" xmlns="http://www.w3.org/2000/svg"><g filter="url(#filter0_d)"><rect x="33.098" y="12" width="180.703" height="233" rx="16" fill="#E8E8ED"/></g><path d="M56.874 227.741h133.15c2.63 0 4.755-1.929 4.755-4.315V33.574c0-2.382-2.125-4.315-4.755-4.315H56.874c-2.625 0-4.755 1.933-4.755 4.315v189.852c0 2.386 2.13 4.315 4.755 4.315zM185.27 76.439c0 4.397-5.217 6.708-8.474 3.753l-36.9-33.482c-3.432-3.114-1.229-8.821 3.406-8.821 1.259 0 2.473.469 3.405 1.315l36.9 33.481a5.067 5.067 0 011.663 3.754zm-1.663 22.135a5.067 5.067 0 011.663 3.753c0 4.398-5.217 6.709-8.474 3.754l-65.432-59.37c-3.432-3.115-1.229-8.822 3.406-8.822 1.259 0 2.473.469 3.405 1.315l65.432 59.37zm0 25.889a5.068 5.068 0 011.663 3.753c0 4.398-5.217 6.709-8.474 3.754L82.831 46.71c-3.432-3.114-1.23-8.821 3.406-8.821 1.259 0 2.473.469 3.405 1.315l93.964 85.259zm0 25.889a5.068 5.068 0 011.663 3.753c0 4.398-5.217 6.708-8.474 3.753L63.292 54.87a5.068 5.068 0 01-1.662-3.753c0-4.397 5.217-6.708 8.473-3.753l113.503 102.988zm0 25.889a5.067 5.067 0 011.663 3.753c0 4.398-5.217 6.708-8.474 3.753L63.292 80.759a5.068 5.068 0 01-1.662-3.753c0-4.397 5.217-6.708 8.473-3.753L183.606 176.24zm0 25.889a5.065 5.065 0 011.663 3.753c0 4.397-5.217 6.708-8.474 3.753L63.292 106.648a5.069 5.069 0 01-1.662-3.753c0-4.398 5.217-6.708 8.473-3.753L183.606 202.13zm-19.539 8.16c3.433 3.114 1.23 8.821-3.405 8.821a5.07 5.07 0 01-3.406-1.315l-93.964-85.259a5.069 5.069 0 01-1.662-3.753c0-4.398 5.217-6.709 8.473-3.754l93.964 85.26zm-28.532 0c3.433 3.114 1.23 8.821-3.405 8.821a5.07 5.07 0 01-3.406-1.315l-65.432-59.37a5.069 5.069 0 01-1.662-3.753c0-4.398 5.217-6.709 8.473-3.754l65.432 59.371zm-28.532 0c3.433 3.114 1.229 8.821-3.405 8.821a5.07 5.07 0 01-3.406-1.315l-36.9-33.481a5.07 5.07 0 01-1.662-3.754c0-4.397 5.217-6.708 8.473-3.753l36.9 33.482zm-45.373 1.422c0-6.419 7.616-9.793 12.37-5.479 5.011 4.547 1.795 12.878-4.971 12.878a7.398 7.398 0 01-7.4-7.399zM185.269 45.288c0 6.42-7.616 9.793-12.371 5.479-5.011-4.547-1.794-12.878 4.972-12.878a7.4 7.4 0 017.399 7.399z" fill="#E43B26" fill-opacity=".6"/><g opacity=".9" clip-path="url(#clip0)" fill-rule="evenodd" clip-rule="evenodd"><path d="M102.339 174.453c0 .915-.742 1.656-1.657 1.656h-2.691a1.656 1.656 0 01-1.656-1.656v-3.312c0-.915.74-1.655 1.656-1.655h2.691c.915 0 1.657.74 1.657 1.655v3.312zM128.657 174.453c0 .915-.742 1.656-1.657 1.656h-2.691a1.656 1.656 0 01-1.657-1.656v-3.312c0-.915.742-1.655 1.657-1.655H127c.915 0 1.657.74 1.657 1.655v3.312z" fill="#FF8B00"/><path d="M92.642 96.56a23.344 23.344 0 0010.164 12.537 23.352 23.352 0 00.36-16.137 23.347 23.347 0 00-10.165-12.535 23.331 23.331 0 00-.359 16.134zM132.349 96.56a23.347 23.347 0 01-10.164 12.537 23.347 23.347 0 01-.359-16.137 23.342 23.342 0 0110.164-12.535 23.339 23.339 0 01.359 16.134z" fill="#FFBF31"/><path d="M93 86.576a23.536 23.536 0 00-1.415 5.482c.201 1.504.546 3.01 1.056 4.502a23.338 23.338 0 0010.164 12.537 23.573 23.573 0 001.415-5.482 23.583 23.583 0 00-1.055-4.503A23.344 23.344 0 0093 86.576zM121.825 99.112a23.49 23.49 0 00-1.055 4.503 23.474 23.474 0 001.415 5.482 23.345 23.345 0 0010.164-12.537c.51-1.492.855-2.998 1.055-4.504a23.402 23.402 0 00-1.414-5.48 23.349 23.349 0 00-10.165 12.536z" fill="#FF8B00"/><path d="M109.047 111.563c-.205 0-.407-.055-.588-.162a24.591 24.591 0 01-10.66-13.151 24.589 24.589 0 01.376-16.925 1.145 1.145 0 011.655-.565 24.594 24.594 0 0110.661 13.148 24.606 24.606 0 01-.377 16.926 1.15 1.15 0 01-1.067.729zm-9.209-28.076a22.298 22.298 0 00.13 14.021 22.292 22.292 0 008.484 11.166 22.317 22.317 0 00-.13-14.024 22.306 22.306 0 00-8.484-11.163zM137.427 111.562a1.146 1.146 0 01-1.067-.728 24.607 24.607 0 01-.376-16.926 24.595 24.595 0 0110.661-13.149 1.15 1.15 0 011.655.566 24.59 24.59 0 01.376 16.924 24.593 24.593 0 01-10.661 13.151 1.143 1.143 0 01-.588.162zm9.21-28.076a22.315 22.315 0 00-8.485 11.165 22.318 22.318 0 00-.129 14.024 22.307 22.307 0 008.484-11.166 22.307 22.307 0 00.13-14.023z" fill="#33363A"/><path d="M132.529 151.426v-29.114c0-10.258-8.346-18.605-18.603-18.605h-2.862c-10.258 0-18.603 8.347-18.603 18.605v29.114a7.912 7.912 0 00-2.115 5.386v6.594a7.951 7.951 0 007.952 7.952h28.393a7.952 7.952 0 007.952-7.952v-6.594a7.905 7.905 0 00-2.114-5.386z" fill="#FFBF31"/><path d="M132.529 151.427V127.22c0-10.258-8.346-18.604-18.603-18.604h-2.862c-10.258 0-18.603 8.346-18.603 18.604v29.116a7.912 7.912 0 00-2.115 5.385v1.685a7.951 7.951 0 007.952 7.952h28.393a7.952 7.952 0 007.952-7.952v-1.685c0-2.08-.807-3.968-2.115-5.385v-4.909h.001z" fill="#FF8B00"/><path d="M132.613 181.004H104.22c-5.017 0-9.098-4.081-9.098-9.098v-6.594c0-2.133.748-4.18 2.115-5.817v-28.683c0-10.891 8.859-19.752 19.749-19.752h2.862c10.891 0 19.75 8.861 19.75 19.752v28.683a9.052 9.052 0 012.115 5.816v6.594c-.001 5.018-4.082 9.099-9.1 9.099zm-15.628-67.65c-9.625 0-17.456 7.832-17.456 17.458v29.115c0 .288-.11.567-.304.778a6.778 6.778 0 00-1.81 4.607v6.595a6.813 6.813 0 006.805 6.805h28.393a6.814 6.814 0 006.806-6.805v-6.595a6.779 6.779 0 00-1.81-4.607 1.142 1.142 0 01-.304-.778v-29.115c0-9.627-7.831-17.459-17.458-17.459h-2.862v.001z" fill="#33363A"/><path d="M166.379 133.546l-20.964-8.922-20.181 15.355 9.387 3.996-22.963 19.78 44.687-15.186-10.513-4.474 20.547-10.549z" fill="#FFBF31"/><path d="M140.428 146.766l20.548-10.55-19.75-8.404-15.992 12.167 9.387 3.997-22.963 19.779 38.194-12.977-9.424-4.012z" fill="#FF8B00"/><path d="M111.657 164.902a1.147 1.147 0 01-.368-2.232l41.846-14.22-7.752-3.299a1.147 1.147 0 01-.076-2.075l18.372-9.433-18.1-7.702-18.081 13.756 7.572 3.225a1.145 1.145 0 11-.899 2.109l-9.386-3.996a1.147 1.147 0 01-.245-1.967l20.18-15.354a1.147 1.147 0 011.143-.143l20.964 8.921a1.147 1.147 0 01.076 2.075L148.531 144l8.263 3.516a1.148 1.148 0 01-.08 2.141l-44.688 15.186c-.122.04-.246.059-.369.059zM97.681 93.114a1.147 1.147 0 01-1.144-1.064 24.677 24.677 0 011.636-10.724 1.148 1.148 0 011.655-.566 24.437 24.437 0 016.935 6.21 1.144 1.144 0 01-.377 1.71l-8.171 4.301c-.167.089-.35.133-.534.133zm2.156-9.627a22.463 22.463 0 00-1.067 6.611l5.313-2.797a22.112 22.112 0 00-4.246-3.814z" fill="#33363A"/><path d="M93 80.425a23.383 23.383 0 00-1.56 10.223l8.171-4.302a23.39 23.39 0 00-6.61-5.92zM150.276 93.115c-.184 0-.367-.045-.535-.133l-8.171-4.302a1.146 1.146 0 01-.377-1.71 24.45 24.45 0 016.935-6.21 1.147 1.147 0 011.655.567 24.71 24.71 0 011.636 10.724 1.149 1.149 0 01-1.143 1.064zm-6.402-5.813l5.312 2.797a22.404 22.404 0 00-1.067-6.61 22.115 22.115 0 00-4.245 3.813zM125.379 86.346l8.171 4.302a23.382 23.382 0 00-1.56-10.223 23.393 23.393 0 00-6.611 5.921zM106.35 127.169a1.146 1.146 0 01-.81-1.957c4.169-4.171 10.954-4.171 15.125-.001a1.146 1.146 0 11-1.621 1.621c-3.275-3.277-8.608-3.275-11.883.001a1.142 1.142 0 01-.811.336zM119.855 136.337c-.293 0-.587-.111-.811-.335-3.276-3.276-8.607-3.276-11.883 0a1.146 1.146 0 11-1.621-1.621c4.17-4.171 10.955-4.171 15.125 0a1.146 1.146 0 01-.81 1.956zM99.336 177.256h-5.944a1.147 1.147 0 010-2.293h5.944a1.146 1.146 0 110 2.293zM88.475 177.256h-.069a1.147 1.147 0 010-2.293c.633 0 1.181.512 1.181 1.146 0 .634-.48 1.147-1.112 1.147zM84.508 177.256h-.07a1.147 1.147 0 010-2.293c.634 0 1.182.512 1.182 1.146 0 .634-.48 1.147-1.112 1.147zM80.54 177.256h-.068a1.147 1.147 0 010-2.293c.633 0 1.18.512 1.18 1.146 0 .634-.479 1.147-1.112 1.147z" fill="#33363A"/></g><g filter="url(#filter1_d)"><rect x="8" y="40.706" width="180.699" height="233.005" rx="16" transform="rotate(-4.048 8 40.706)" fill="#E8E8ED"/></g><path d="M46.946 254.235l132.815-9.399c2.623-.186 4.607-2.26 4.439-4.64L170.798 50.814c-.168-2.376-2.425-4.154-5.048-3.968L32.935 56.244c-2.618.186-4.607 2.264-4.439 4.64l13.402 189.382c.169 2.38 2.43 4.154 5.048 3.969zM164.337 94.244c.311 4.386-4.73 7.059-8.187 4.342l-39.171-30.794c-3.644-2.865-1.849-8.713 2.774-9.04a5.068 5.068 0 013.49 1.071l39.171 30.794a5.068 5.068 0 011.923 3.627zm-.096 22.198a5.07 5.07 0 011.924 3.627c.31 4.386-4.731 7.059-8.188 4.341L88.518 69.805c-3.643-2.864-1.848-8.712 2.775-9.039a5.068 5.068 0 013.49 1.071l69.458 54.605zm1.828 25.825a5.066 5.066 0 011.923 3.626c.31 4.387-4.73 7.06-8.187 4.342L60.058 71.82c-3.643-2.865-1.848-8.713 2.775-9.04a5.068 5.068 0 013.49 1.071l99.746 78.416zm1.827 25.825a5.067 5.067 0 011.924 3.626c.31 4.387-4.731 7.06-8.188 4.342L41.145 81.339a5.068 5.068 0 01-1.923-3.627c-.31-4.386 4.73-7.06 8.187-4.342l120.487 94.722zm1.828 25.824a5.07 5.07 0 011.923 3.627c.31 4.386-4.73 7.06-8.187 4.342L42.972 107.164a5.07 5.07 0 01-1.923-3.627c-.31-4.386 4.73-7.06 8.188-4.342l120.487 94.721zm1.827 25.825a5.07 5.07 0 011.924 3.627c.31 4.386-4.731 7.06-8.188 4.342L44.8 132.988a5.066 5.066 0 01-1.923-3.626c-.31-4.387 4.73-7.06 8.187-4.342l120.487 94.721zm-18.913 9.52c3.643 2.864 1.849 8.712-2.774 9.039a5.067 5.067 0 01-3.49-1.071l-99.747-78.416a5.066 5.066 0 01-1.923-3.626c-.31-4.387 4.73-7.06 8.188-4.342l99.746 78.416zm-28.46 2.014c3.643 2.864 1.848 8.712-2.775 9.039a5.069 5.069 0 01-3.49-1.071l-69.458-54.605a5.066 5.066 0 01-1.923-3.626c-.31-4.387 4.73-7.06 8.187-4.342l69.459 54.605zm-28.46 2.014c3.643 2.864 1.848 8.712-2.775 9.039a5.068 5.068 0 01-3.49-1.071l-39.17-30.794a5.07 5.07 0 01-1.924-3.627c-.31-4.386 4.73-7.059 8.188-4.342l39.17 30.795zm-45.16 4.621c-.453-6.404 6.906-10.306 11.953-6.339 5.32 4.182 2.699 12.72-4.05 13.197a7.398 7.398 0 01-7.903-6.858zm111.58-174.74c.453 6.404-6.906 10.306-11.953 6.339-5.319-4.182-2.699-12.72 4.051-13.197a7.398 7.398 0 017.902 6.858z" fill="#E43B26" fill-opacity=".6"/><g opacity=".9" fill-rule="evenodd" clip-rule="evenodd"><path d="M88.534 197.869a1.656 1.656 0 01-1.536 1.769l-2.684.19a1.655 1.655 0 01-1.769-1.535l-.234-3.303a1.656 1.656 0 011.535-1.769l2.685-.189a1.655 1.655 0 011.77 1.534l.233 3.303zM114.787 196.012a1.657 1.657 0 01-1.536 1.769l-2.684.19a1.658 1.658 0 01-1.77-1.536l-.233-3.303a1.655 1.655 0 011.536-1.768l2.684-.19a1.656 1.656 0 011.769 1.534l.234 3.304z" fill="#FF8B00"/><path d="M87.08 200.782l-2.685.19a2.806 2.806 0 01-2.993-2.598l-.234-3.303a2.806 2.806 0 012.598-2.993l2.684-.19a2.806 2.806 0 012.994 2.597l.234 3.303a2.806 2.806 0 01-2.599 2.994zm-3.152-6.417a.51.51 0 00-.473.544l.234 3.303a.51.51 0 00.544.473l2.685-.19a.511.511 0 00.473-.545l-.234-3.303a.51.51 0 00-.545-.472l-2.684.19zM113.332 198.924l-2.684.19a2.806 2.806 0 01-2.994-2.598l-.234-3.303a2.806 2.806 0 012.599-2.993l2.684-.19a2.805 2.805 0 012.993 2.597l.234 3.304a2.806 2.806 0 01-2.598 2.993zm-3.152-6.417a.51.51 0 00-.474.544l.234 3.303c.02.281.265.493.545.473l2.685-.19a.51.51 0 00.472-.544l-.234-3.304a.51.51 0 00-.544-.472l-2.684.19z" fill="#33363A"/><path d="M73.364 120.853a23.341 23.341 0 0011.023 11.789 23.349 23.349 0 00-.78-16.122 23.348 23.348 0 00-11.024-11.787 23.334 23.334 0 00.78 16.12zM112.971 118.05a23.345 23.345 0 01-9.254 13.224 23.343 23.343 0 01-1.497-16.071 23.348 23.348 0 019.253-13.222 23.339 23.339 0 011.498 16.069z" fill="#FFBF31"/><path d="M73.016 110.869a23.55 23.55 0 00-1.025 5.568 23.507 23.507 0 001.372 4.417 23.345 23.345 0 0011.023 11.789c.563-1.8.906-3.67 1.025-5.569a23.517 23.517 0 00-1.371-4.417 23.343 23.343 0 00-11.024-11.788zM102.654 121.339a23.52 23.52 0 00-.735 4.567 23.535 23.535 0 001.798 5.369 23.349 23.349 0 009.254-13.224 23.53 23.53 0 00.735-4.568 23.43 23.43 0 00-1.798-5.366 23.351 23.351 0 00-9.254 13.222z" fill="#FF8B00"/><path d="M84.467 133.785a1.145 1.145 0 01-.597-.12 24.59 24.59 0 01-11.562-12.366 24.59 24.59 0 01-.82-16.909 1.146 1.146 0 011.61-.681 24.594 24.594 0 0111.563 12.364 24.608 24.608 0 01.82 16.911 1.15 1.15 0 01-1.014.801zM73.3 106.429a22.3 22.3 0 001.12 13.978 22.294 22.294 0 009.25 10.539 22.317 22.317 0 00-1.12-13.98 22.316 22.316 0 00-9.25-10.537zM103.798 132.417a1.147 1.147 0 01-1.116-.651 24.609 24.609 0 01-1.57-16.857 24.597 24.597 0 019.706-13.869 1.15 1.15 0 011.691.447 24.6 24.6 0 011.57 16.856 24.596 24.596 0 01-9.706 13.871 1.135 1.135 0 01-.575.203zm7.204-28.656a22.313 22.313 0 00-7.674 11.736 22.318 22.318 0 00.86 13.998 22.314 22.314 0 007.675-11.737 22.306 22.306 0 00-.861-13.997z" fill="#33363A"/><path d="M117.024 172.769l-2.055-29.043c-.724-10.233-9.639-17.97-19.87-17.246l-2.856.203c-10.231.724-17.966 9.639-17.242 19.872l2.055 29.042a7.912 7.912 0 00-1.73 5.521l.466 6.578a7.95 7.95 0 008.493 7.371l28.322-2.004a7.95 7.95 0 007.37-8.494l-.465-6.577a7.902 7.902 0 00-2.488-5.223z" fill="#FFBF31"/><path d="M117.024 172.769l-1.709-24.147c-.724-10.233-9.638-17.969-19.87-17.245l-2.855.202c-10.231.724-17.967 9.639-17.243 19.872l1.71 24.146.346 4.897a7.914 7.914 0 00-1.73 5.521l.12 1.681a7.951 7.951 0 008.492 7.371l28.322-2.004a7.952 7.952 0 007.371-8.494l-.119-1.681a7.917 7.917 0 00-2.49-5.222l-.347-4.897h.002z" fill="#FF8B00"/><path d="M112.689 194.206l-28.322 2.004c-5.004.355-9.363-3.429-9.717-8.433l-.466-6.578a9.055 9.055 0 011.699-5.951l-2.025-28.613c-.769-10.864 7.443-20.327 18.305-21.096l2.856-.202c10.862-.769 20.325 7.444 21.094 18.308l2.025 28.612a9.062 9.062 0 012.52 5.653l.465 6.578c.354 5.005-3.429 9.364-8.434 9.718zm-20.364-66.379c-9.602.679-16.86 9.044-16.18 18.647l2.055 29.043c.02.287-.07.573-.249.798a6.777 6.777 0 00-1.48 4.723l.466 6.578a6.813 6.813 0 007.268 6.308l28.322-2.004a6.813 6.813 0 006.308-7.269l-.466-6.578a6.777 6.777 0 00-2.13-4.468 1.148 1.148 0 01-.359-.754l-2.055-29.044c-.679-9.603-9.043-16.862-18.645-16.183l-2.856.202v.001z" fill="#33363A"/><path d="M149.526 152.543l-21.541-7.419-19.046 16.741 9.645 3.324-21.51 21.351 43.503-18.302-10.802-3.721 19.751-11.974z" fill="#FFBF31"/><path d="M124.573 167.562l19.752-11.974-20.294-6.989-15.092 13.266 9.645 3.324-21.51 21.351 37.183-15.641-9.684-3.337z" fill="#FF8B00"/><path d="M97.156 187.685a1.148 1.148 0 01-.525-2.201l40.737-17.139-7.966-2.743a1.147 1.147 0 01-.222-2.065l17.66-10.706-18.599-6.406-17.064 14.999 7.781 2.682a1.147 1.147 0 01-.748 2.167l-9.645-3.324a1.144 1.144 0 01-.382-1.944l19.045-16.741c.31-.273.742-.356 1.13-.223l21.541 7.419a1.146 1.146 0 01.222 2.065l-17.66 10.706 8.49 2.925a1.145 1.145 0 01.072 2.141l-43.504 18.302c-.12.049-.241.077-.363.086zM71.829 116.185a1.148 1.148 0 01-1.216-.981 24.68 24.68 0 01.874-10.813 1.15 1.15 0 011.61-.682 24.455 24.455 0 017.357 5.705 1.148 1.148 0 01-.256 1.732l-7.847 4.869c-.16.1-.339.157-.522.17zm1.47-9.755a22.463 22.463 0 00-.597 6.67l5.102-3.166a22.13 22.13 0 00-4.504-3.504z" fill="#33363A"/><path d="M72.582 104.734a23.38 23.38 0 00-.834 10.307l7.847-4.868a23.384 23.384 0 00-7.013-5.439zM113.832 113.213a1.148 1.148 0 01-.542-.095l-8.454-3.714a1.148 1.148 0 01-.497-1.679 24.452 24.452 0 016.479-6.684 1.15 1.15 0 011.691.448 24.72 24.72 0 012.389 10.582 1.144 1.144 0 01-1.066 1.142zm-6.796-5.346l5.497 2.415a22.435 22.435 0 00-1.531-6.519 22.078 22.078 0 00-3.966 4.104z" fill="#33363A"/><path d="M105.297 108.354l8.454 3.715a23.37 23.37 0 00-2.278-10.088 23.406 23.406 0 00-6.176 6.373zM89.198 150.419a1.146 1.146 0 01-.947-1.894c3.865-4.456 10.633-4.935 15.088-1.07a1.146 1.146 0 01-1.502 1.732c-3.5-3.037-8.819-2.659-11.854.84a1.141 1.141 0 01-.785.392zM103.316 158.612c-.293.02-.593-.07-.832-.278-3.5-3.036-8.817-2.66-11.854.839a1.146 1.146 0 01-1.732-1.503c3.866-4.454 10.633-4.933 15.088-1.067a1.146 1.146 0 01-.67 2.009zM85.737 200.877l-5.928.419a1.146 1.146 0 11-.162-2.287l5.928-.419a1.146 1.146 0 11.162 2.287zM74.904 201.644l-.069.004a1.146 1.146 0 11-.162-2.287c.632-.044 1.214.428 1.26 1.06.044.632-.398 1.178-1.03 1.223zM70.946 201.924l-.068.005a1.147 1.147 0 01-.162-2.288c.631-.044 1.214.429 1.259 1.061.044.632-.397 1.177-1.029 1.222zM66.989 202.204l-.069.005a1.147 1.147 0 01-.162-2.288c.632-.044 1.214.429 1.26 1.061.044.632-.398 1.177-1.03 1.222z" fill="#33363A"/></g><g filter="url(#filter2_d)"><rect x="8" y="40.706" width="180.699" height="233.005" rx="16" transform="rotate(-4.048 8 40.706)" fill="#E8E8ED"/></g><path d="M46.946 254.235l132.815-9.399c2.623-.186 4.607-2.26 4.439-4.64L170.798 50.814c-.168-2.376-2.425-4.154-5.048-3.968L32.935 56.244c-2.618.186-4.607 2.264-4.439 4.64l13.402 189.382c.169 2.38 2.43 4.154 5.048 3.969zM164.337 94.244c.31 4.386-4.73 7.059-8.187 4.342l-39.171-30.794c-3.644-2.865-1.849-8.713 2.774-9.04a5.068 5.068 0 013.49 1.071l39.171 30.794a5.068 5.068 0 011.923 3.627zm-.096 22.198a5.07 5.07 0 011.924 3.627c.31 4.386-4.731 7.059-8.188 4.341L88.518 69.805c-3.643-2.864-1.848-8.712 2.775-9.039a5.068 5.068 0 013.49 1.071l69.458 54.605zm1.828 25.825a5.066 5.066 0 011.923 3.626c.31 4.387-4.73 7.06-8.187 4.342L60.058 71.82c-3.643-2.865-1.848-8.713 2.775-9.04a5.068 5.068 0 013.49 1.071l99.746 78.416zm1.827 25.825a5.067 5.067 0 011.924 3.626c.31 4.387-4.731 7.06-8.188 4.342L41.145 81.339a5.068 5.068 0 01-1.923-3.627c-.31-4.386 4.73-7.06 8.187-4.342l120.487 94.722zm1.828 25.824a5.07 5.07 0 011.923 3.627c.31 4.386-4.73 7.06-8.187 4.342L42.972 107.164a5.07 5.07 0 01-1.923-3.627c-.31-4.386 4.73-7.06 8.188-4.342l120.487 94.721zm1.827 25.825a5.07 5.07 0 011.924 3.627c.31 4.386-4.731 7.06-8.188 4.342L44.8 132.988a5.066 5.066 0 01-1.923-3.626c-.31-4.387 4.73-7.06 8.187-4.342l120.487 94.721zm-18.913 9.52c3.643 2.864 1.849 8.712-2.774 9.039a5.067 5.067 0 01-3.49-1.071l-99.747-78.416a5.066 5.066 0 01-1.923-3.626c-.31-4.387 4.73-7.06 8.188-4.342l99.746 78.416zm-28.46 2.014c3.643 2.864 1.848 8.712-2.775 9.039a5.069 5.069 0 01-3.49-1.071l-69.458-54.605a5.066 5.066 0 01-1.923-3.626c-.31-4.387 4.73-7.06 8.187-4.342l69.459 54.605zm-28.46 2.014c3.643 2.864 1.848 8.712-2.775 9.039a5.068 5.068 0 01-3.49-1.071l-39.17-30.794a5.07 5.07 0 01-1.924-3.627c-.31-4.386 4.73-7.059 8.188-4.342l39.17 30.795zm-45.16 4.621c-.453-6.404 6.906-10.306 11.953-6.339 5.32 4.182 2.699 12.72-4.05 13.197a7.398 7.398 0 01-7.903-6.858zm111.58-174.74c.453 6.404-6.906 10.306-11.953 6.339-5.319-4.182-2.699-12.72 4.051-13.197a7.398 7.398 0 017.902 6.858z" fill="#E43B26" fill-opacity=".6"/><g opacity=".9" clip-path="url(#clip1)" fill-rule="evenodd" clip-rule="evenodd"><path d="M88.535 197.869a1.656 1.656 0 01-1.536 1.769l-2.685.19a1.655 1.655 0 01-1.768-1.535l-.234-3.303a1.656 1.656 0 011.535-1.769l2.684-.189a1.655 1.655 0 011.77 1.534l.234 3.303zM114.787 196.012a1.657 1.657 0 01-1.536 1.769l-2.684.19a1.658 1.658 0 01-1.77-1.536l-.233-3.303a1.655 1.655 0 011.536-1.768l2.684-.19a1.656 1.656 0 011.769 1.534l.234 3.304z" fill="#FF8B00"/><path d="M73.364 120.853a23.341 23.341 0 0011.023 11.789 23.349 23.349 0 00-.78-16.122 23.348 23.348 0 00-11.024-11.787 23.334 23.334 0 00.78 16.12zM112.971 118.05a23.345 23.345 0 01-9.254 13.224 23.343 23.343 0 01-1.497-16.071 23.348 23.348 0 019.253-13.222 23.339 23.339 0 011.498 16.069z" fill="#FFBF31"/><path d="M73.016 110.869a23.55 23.55 0 00-1.025 5.568 23.507 23.507 0 001.372 4.417 23.345 23.345 0 0011.023 11.789c.563-1.8.906-3.67 1.025-5.569a23.517 23.517 0 00-1.371-4.417 23.343 23.343 0 00-11.024-11.788zM102.654 121.339a23.533 23.533 0 00-.735 4.567 23.535 23.535 0 001.798 5.369 23.349 23.349 0 009.254-13.224c.403-1.524.641-3.051.735-4.567a23.422 23.422 0 00-1.798-5.367 23.351 23.351 0 00-9.254 13.222z" fill="#FF8B00"/><path d="M90.787 134.661a1.145 1.145 0 01-.598-.12 24.59 24.59 0 01-11.561-12.366 24.59 24.59 0 01-.82-16.909 1.144 1.144 0 011.61-.681 24.594 24.594 0 0111.563 12.364 24.606 24.606 0 01.819 16.91 1.148 1.148 0 01-1.013.802zM79.62 107.305a22.297 22.297 0 001.12 13.977 22.292 22.292 0 009.25 10.54 22.317 22.317 0 00-1.118-13.98 22.307 22.307 0 00-9.251-10.537zM119.096 132.658a1.143 1.143 0 01-1.115-.652 24.606 24.606 0 01-1.57-16.857 24.587 24.587 0 019.706-13.869 1.145 1.145 0 011.69.447 24.595 24.595 0 011.57 16.856 24.591 24.591 0 01-9.706 13.871 1.14 1.14 0 01-.575.204zm7.205-28.657a22.315 22.315 0 00-7.675 11.736 22.325 22.325 0 00.86 13.998 22.302 22.302 0 007.675-11.737 22.306 22.306 0 00-.86-13.997z" fill="#33363A"/><path d="M117.024 172.769l-2.055-29.043c-.724-10.233-9.639-17.97-19.87-17.246l-2.856.203c-10.231.724-17.966 9.639-17.242 19.872l2.055 29.042a7.912 7.912 0 00-1.73 5.521l.466 6.578a7.95 7.95 0 008.493 7.371l28.322-2.004a7.95 7.95 0 007.37-8.494l-.465-6.577a7.902 7.902 0 00-2.488-5.223z" fill="#FFBF31"/><path d="M117.024 172.769l-1.709-24.147c-.724-10.232-9.638-17.969-19.87-17.245l-2.855.202c-10.231.725-17.967 9.639-17.243 19.872l1.71 24.146.346 4.897a7.914 7.914 0 00-1.73 5.521l.12 1.681a7.95 7.95 0 008.492 7.371l28.322-2.004a7.952 7.952 0 007.371-8.493l-.119-1.681a7.917 7.917 0 00-2.49-5.223l-.347-4.897h.002z" fill="#FF8B00"/><path d="M119.196 202.266l-28.322 2.005c-5.004.354-9.363-3.429-9.718-8.434l-.465-6.578a9.055 9.055 0 011.699-5.951l-2.025-28.612c-.769-10.865 7.443-20.328 18.305-21.097l2.855-.202c10.863-.769 20.326 7.444 21.095 18.308l2.025 28.612a9.065 9.065 0 012.52 5.653l.465 6.578c.354 5.005-3.429 9.364-8.434 9.718zm-20.365-66.379c-9.6.679-16.86 9.044-16.18 18.648l2.056 29.042a1.15 1.15 0 01-.249.798 6.777 6.777 0 00-1.48 4.723l.466 6.578a6.812 6.812 0 007.268 6.308l28.322-2.004c3.743-.265 6.572-3.526 6.308-7.269l-.466-6.578a6.777 6.777 0 00-2.13-4.468 1.143 1.143 0 01-.359-.754l-2.055-29.044c-.68-9.603-9.044-16.862-18.646-16.183l-2.855.202v.001z" fill="#33363A"/><path d="M149.526 152.543l-21.541-7.419-19.046 16.741 9.645 3.324-21.51 21.351 43.503-18.302-10.802-3.721 19.751-11.974z" fill="#FFBF31"/><path d="M124.573 167.562l19.752-11.974-20.294-6.989-15.092 13.266 9.645 3.324-21.51 21.351 37.183-15.641-9.684-3.337z" fill="#FF8B00"/><path d="M97.156 187.685a1.148 1.148 0 01-.525-2.201l40.737-17.139-7.966-2.743a1.147 1.147 0 01-.222-2.065l17.66-10.706-18.599-6.406-17.064 14.999 7.781 2.682a1.147 1.147 0 01-.748 2.167l-9.645-3.324a1.144 1.144 0 01-.382-1.944l19.045-16.741c.31-.273.742-.356 1.13-.223l21.541 7.419a1.146 1.146 0 01.222 2.065l-17.66 10.706 8.49 2.925a1.145 1.145 0 01.072 2.141l-43.504 18.302c-.12.049-.241.077-.363.086zM78.148 117.061a1.151 1.151 0 01-1.217-.982 24.678 24.678 0 01.875-10.812 1.148 1.148 0 011.61-.682 24.438 24.438 0 017.357 5.705 1.146 1.146 0 01-.256 1.732l-7.847 4.868c-.16.101-.339.158-.522.171zm1.47-9.756a22.472 22.472 0 00-.597 6.67l5.102-3.165a22.135 22.135 0 00-4.504-3.505z" fill="#33363A"/><path d="M72.582 104.734a23.38 23.38 0 00-.834 10.307l7.847-4.868a23.384 23.384 0 00-7.013-5.439zM130.61 113.348a1.147 1.147 0 01-.542-.094l-8.454-3.715a1.146 1.146 0 01-.497-1.678 24.424 24.424 0 016.479-6.684 1.146 1.146 0 011.69.448 24.706 24.706 0 012.39 10.581 1.151 1.151 0 01-.521.96 1.148 1.148 0 01-.545.182zm-6.796-5.346l5.497 2.416a22.441 22.441 0 00-1.531-6.52 22.108 22.108 0 00-3.966 4.104zM105.297 108.354l8.454 3.715a23.384 23.384 0 00-2.277-10.088 23.41 23.41 0 00-6.177 6.373zM89.198 150.419a1.146 1.146 0 01-.947-1.894c3.865-4.456 10.633-4.935 15.088-1.07a1.146 1.146 0 01-1.502 1.732c-3.5-3.037-8.819-2.659-11.854.84a1.141 1.141 0 01-.785.392zM103.317 158.612c-.293.02-.594-.07-.833-.278-3.5-3.036-8.817-2.66-11.854.839a1.146 1.146 0 01-1.731-1.503c3.865-4.454 10.633-4.933 15.088-1.067a1.146 1.146 0 01-.67 2.009zM85.737 200.877l-5.928.419a1.146 1.146 0 11-.162-2.287l5.928-.419a1.146 1.146 0 11.162 2.287zM74.904 201.644l-.069.004a1.146 1.146 0 11-.162-2.287c.632-.044 1.214.429 1.26 1.061.044.632-.398 1.177-1.03 1.222zM70.946 201.924l-.068.005a1.147 1.147 0 01-.162-2.288c.631-.044 1.214.429 1.259 1.061.044.632-.397 1.177-1.029 1.222zM66.989 202.204l-.069.005a1.147 1.147 0 01-.162-2.288c.632-.044 1.214.429 1.26 1.061.044.632-.398 1.177-1.03 1.222z" fill="#33363A"/></g><g filter="url(#filter3_d)"><rect width="180.699" height="233.005" rx="16" transform="rotate(-4.032 377.16 -328.932) skewX(.031)" fill="#E8E8ED"/></g><path d="M63.068 239.237l132.817-9.362c2.624-.185 4.607-2.259 4.438-4.639L186.869 35.858c-.168-2.376-2.426-4.155-5.049-3.97L49.003 41.251c-2.619.184-4.607 2.262-4.438 4.638l13.454 189.378c.169 2.38 2.43 4.154 5.049 3.97zM180.42 79.284c.312 4.386-4.729 7.058-8.187 4.34l-39.18-30.804c-3.645-2.865-1.851-8.712 2.772-9.038a5.07 5.07 0 013.49 1.072l39.181 30.803a5.07 5.07 0 011.924 3.627zm-.09 22.197a5.075 5.075 0 011.925 3.627c.311 4.387-4.729 7.059-8.187 4.34l-69.476-54.622c-3.645-2.865-1.851-8.712 2.772-9.038a5.07 5.07 0 013.49 1.072l69.476 54.621zm1.835 25.825a5.07 5.07 0 011.924 3.627c.312 4.386-4.729 7.058-8.187 4.339l-99.771-78.44c-3.644-2.865-1.851-8.712 2.772-9.038a5.07 5.07 0 013.49 1.072l99.772 78.44zM184 153.13a5.074 5.074 0 011.924 3.627c.311 4.386-4.729 7.058-8.187 4.34L57.219 66.347a5.07 5.07 0 01-1.924-3.628c-.311-4.386 4.729-7.058 8.187-4.34L184 153.13zm1.834 25.824a5.07 5.07 0 011.924 3.627c.312 4.387-4.728 7.058-8.186 4.34L59.054 92.171a5.07 5.07 0 01-1.924-3.627c-.312-4.387 4.728-7.058 8.187-4.34l120.517 94.75zm1.835 25.825a5.07 5.07 0 011.924 3.627c.312 4.386-4.729 7.058-8.187 4.339l-120.517-94.75a5.072 5.072 0 01-1.925-3.627c-.311-4.386 4.73-7.058 8.187-4.34l120.518 94.751zm-18.912 9.514c3.645 2.865 1.851 8.712-2.772 9.038a5.07 5.07 0 01-3.49-1.072l-99.772-78.44a5.072 5.072 0 01-1.924-3.627c-.312-4.386 4.729-7.058 8.187-4.339l99.771 78.44zm-28.461 2.006c3.645 2.865 1.851 8.712-2.772 9.038a5.064 5.064 0 01-3.49-1.072l-69.476-54.621a5.072 5.072 0 01-1.924-3.627c-.312-4.387 4.728-7.059 8.186-4.34l69.476 54.622zm-28.461 2.006c3.645 2.865 1.852 8.713-2.772 9.038a5.064 5.064 0 01-3.49-1.072l-39.18-30.803a5.072 5.072 0 01-1.925-3.627c-.311-4.386 4.729-7.058 8.187-4.34l39.18 30.804zm-45.16 4.609c-.454-6.404 6.904-10.304 11.952-6.335 5.32 4.183 2.703 12.719-4.047 13.195a7.404 7.404 0 01-7.904-6.86zM178.213 48.211c.455 6.404-6.903 10.304-11.951 6.335-5.321-4.183-2.703-12.72 4.047-13.195a7.403 7.403 0 017.904 6.86z" fill="#E43B26" fill-opacity=".6"/><g opacity=".9" clip-path="url(#clip2)" fill-rule="evenodd" clip-rule="evenodd"><path d="M104.643 182.885a1.657 1.657 0 01-1.536 1.769l-2.684.189a1.657 1.657 0 01-1.77-1.536l-.234-3.303a1.654 1.654 0 011.534-1.768l2.685-.189a1.657 1.657 0 011.77 1.535l.235 3.303zM130.895 181.034a1.655 1.655 0 01-1.534 1.769l-2.685.189a1.657 1.657 0 01-1.77-1.535l-.234-3.304a1.655 1.655 0 011.535-1.768l2.684-.189a1.658 1.658 0 011.77 1.535l.234 3.303z" fill="#FF8B00"/><path d="M89.45 105.867a23.357 23.357 0 0011.027 11.792 23.344 23.344 0 00-.785-16.121 23.362 23.362 0 00-11.027-11.79 23.33 23.33 0 00.785 16.119zM129.058 103.076a23.322 23.322 0 01-9.25 13.22 23.35 23.35 0 01-1.502-16.071 23.326 23.326 0 019.251-13.218 23.345 23.345 0 011.501 16.069z" fill="#FFBF31"/><path d="M89.1 95.884a23.525 23.525 0 00-1.023 5.567 23.482 23.482 0 001.373 4.417 23.361 23.361 0 0011.026 11.792c.563-1.8.906-3.67 1.024-5.568a23.605 23.605 0 00-1.372-4.418A23.362 23.362 0 0089.1 95.884zM118.742 106.362a23.432 23.432 0 00-.734 4.566 23.589 23.589 0 001.8 5.369 23.324 23.324 0 009.25-13.221c.403-1.524.641-3.051.734-4.567a23.488 23.488 0 00-1.799-5.367 23.327 23.327 0 00-9.251 13.22z" fill="#FF8B00"/><path d="M106.878 119.68a1.158 1.158 0 01-.598-.12 24.612 24.612 0 01-11.566-12.369 24.59 24.59 0 01-.824-16.909 1.144 1.144 0 011.61-.68 24.616 24.616 0 0111.567 12.366 24.61 24.61 0 01.824 16.91 1.148 1.148 0 01-1.013.802zM95.702 92.321a22.3 22.3 0 001.124 13.978 22.318 22.318 0 009.253 10.542 22.314 22.314 0 00-1.122-13.98 22.332 22.332 0 00-9.255-10.54zM135.188 117.684a1.144 1.144 0 01-1.116-.652 24.607 24.607 0 01-1.574-16.857A24.576 24.576 0 01142.2 86.31a1.148 1.148 0 011.691.447 24.596 24.596 0 011.575 16.856 24.575 24.575 0 01-9.703 13.868c-.172.12-.37.189-.575.203zm7.197-28.654a22.3 22.3 0 00-7.672 11.734 22.32 22.32 0 00.865 13.998 22.292 22.292 0 007.671-11.735 22.306 22.306 0 00-.864-13.997z" fill="#33363A"/><path d="M133.127 157.793l-2.064-29.042c-.727-10.232-9.643-17.972-19.875-17.25l-2.855.201c-10.232.721-17.965 9.634-17.238 19.867l2.063 29.042a7.906 7.906 0 00-1.728 5.52l.467 6.578a7.957 7.957 0 008.496 7.373l28.322-1.997a7.947 7.947 0 007.369-8.491l-.468-6.578a7.912 7.912 0 00-2.489-5.223z" fill="#FFBF31"/><path d="M133.126 157.793l-1.715-24.146c-.727-10.232-9.644-17.971-19.875-17.249l-2.856.201c-10.231.721-17.964 9.633-17.238 19.866l1.716 24.146.348 4.897a7.908 7.908 0 00-1.728 5.52l.12 1.681a7.957 7.957 0 008.495 7.373l28.322-1.997a7.945 7.945 0 007.368-8.491l-.119-1.681a7.925 7.925 0 00-2.491-5.223l-.348-4.897h.001z" fill="#FF8B00"/><path d="M135.306 187.29l-28.322 1.997c-5.004.353-9.365-3.432-9.72-8.436l-.467-6.578a9.049 9.049 0 011.697-5.95l-2.033-28.612c-.772-10.864 7.438-20.325 18.301-21.091l2.855-.201c10.863-.766 20.328 7.449 21.1 18.313l2.033 28.612a9.058 9.058 0 012.521 5.653l.468 6.577c.354 5.005-3.428 9.364-8.433 9.716zm-20.383-66.382c-9.601.677-16.858 9.039-16.175 18.642l2.063 29.042c.02.288-.069.573-.248.798a6.773 6.773 0 00-1.48 4.723l.468 6.578a6.817 6.817 0 007.271 6.309l28.322-1.996a6.809 6.809 0 006.306-7.267l-.467-6.578a6.779 6.779 0 00-2.132-4.468 1.148 1.148 0 01-.359-.755l-2.063-29.043c-.682-9.602-9.048-16.864-18.651-16.187l-2.855.201v.001z" fill="#33363A"/><path d="M165.624 137.577l-21.544-7.425-19.042 16.735 9.646 3.327-21.504 21.345 43.5-18.29-10.804-3.724 19.748-11.968z" fill="#FFBF31"/><path d="M140.675 152.589l19.749-11.969-20.297-6.994-15.089 13.261 9.646 3.327-21.504 21.345 37.18-15.631-9.685-3.339z" fill="#FF8B00"/><path d="M113.261 172.703a1.146 1.146 0 01-.525-2.201l40.734-17.127-7.967-2.745a1.146 1.146 0 01-.222-2.065l17.657-10.701-18.601-6.411-17.061 14.994 7.782 2.684a1.147 1.147 0 01-.747 2.167l-9.646-3.326a1.145 1.145 0 01-.384-1.945l19.042-16.735a1.15 1.15 0 011.13-.223l21.544 7.426a1.146 1.146 0 01.223 2.064l-17.658 10.701 8.491 2.927a1.147 1.147 0 01.072 2.141l-43.5 18.29c-.12.048-.242.077-.364.085zM94.234 102.077a1.152 1.152 0 01-1.217-.982 24.672 24.672 0 01.872-10.812 1.148 1.148 0 011.61-.681 24.452 24.452 0 017.358 5.706 1.145 1.145 0 01-.255 1.732l-7.846 4.866c-.16.101-.339.158-.522.171zm1.468-9.755a22.464 22.464 0 00-.596 6.67l5.101-3.164a22.131 22.131 0 00-4.505-3.506z" fill="#33363A"/><path d="M88.665 89.749a23.378 23.378 0 00-.832 10.307l7.846-4.866a23.41 23.41 0 00-7.014-5.441zM146.697 98.379a1.15 1.15 0 01-.542-.095l-8.455-3.717a1.15 1.15 0 01-.498-1.678 24.414 24.414 0 016.478-6.682 1.145 1.145 0 011.69.448 24.696 24.696 0 012.392 10.582 1.143 1.143 0 01-1.065 1.142zM139.9 93.03l5.497 2.417c-.18-2.23-.7-4.44-1.533-6.52a22.082 22.082 0 00-3.964 4.103zM121.381 93.378l8.456 3.717a23.372 23.372 0 00-2.281-10.088 23.389 23.389 0 00-6.175 6.371zM105.293 135.437a1.145 1.145 0 01-.947-1.895c3.864-4.454 10.631-4.931 15.088-1.065a1.146 1.146 0 11-1.502 1.731c-3.5-3.038-8.82-2.661-11.854.837a1.143 1.143 0 01-.785.392zM119.414 143.633c-.292.02-.593-.07-.832-.278-3.501-3.037-8.818-2.662-11.854.836a1.146 1.146 0 01-1.732-1.503c3.864-4.454 10.632-4.931 15.088-1.064a1.146 1.146 0 01-.67 2.009zM101.846 185.892l-5.929.418a1.147 1.147 0 01-.162-2.287l5.928-.418a1.147 1.147 0 01.163 2.287zM91.012 186.655l-.068.005a1.147 1.147 0 01-.163-2.287c.631-.044 1.215.429 1.26 1.061.044.632-.397 1.177-1.029 1.221zM87.055 186.934l-.069.005a1.147 1.147 0 01-.162-2.287c.631-.044 1.214.429 1.259 1.061.045.632-.397 1.177-1.028 1.221zM83.097 187.213l-.068.005a1.147 1.147 0 01-.163-2.287c.632-.044 1.215.429 1.26 1.061.044.632-.397 1.177-1.029 1.221z" fill="#33363A"/></g><g filter="url(#filter4_d)"><rect width="180.695" height="233.01" rx="16" transform="rotate(5.897 -93.25 835.403) skewX(-.046)" fill="#E8E8ED"/></g><path d="M86.644 231.033l132.439 13.678c2.616.27 4.93-1.43 5.177-3.803l19.656-188.84c.246-2.369-1.668-4.51-4.284-4.78L107.193 33.61c-2.611-.27-4.93 1.434-5.177 3.803L82.36 226.253c-.247 2.373 1.673 4.51 4.284 4.78zM230.017 93.727c-.455 4.374-5.884 6.136-8.818 2.862l-33.236-37.093c-3.092-3.45-.309-8.9 4.301-8.424 1.252.13 2.411.72 3.251 1.658l33.237 37.093a5.066 5.066 0 011.265 3.904zm-3.945 21.847a5.066 5.066 0 011.265 3.904c-.456 4.374-5.884 6.136-8.818 2.862l-58.936-65.775c-3.092-3.45-.309-8.9 4.301-8.424 1.252.13 2.411.72 3.251 1.658l58.937 65.775zm-2.681 25.751a5.062 5.062 0 011.265 3.904c-.455 4.374-5.884 6.136-8.817 2.862l-84.636-94.457c-3.092-3.45-.309-8.9 4.301-8.424 1.252.13 2.411.72 3.251 1.657l84.636 94.458zm-2.68 25.751a5.066 5.066 0 011.265 3.904c-.455 4.374-5.884 6.136-8.818 2.862L110.925 59.743a5.062 5.062 0 01-1.265-3.903c.455-4.374 5.884-6.137 8.817-2.863l102.235 114.099zm-2.68 25.751a5.065 5.065 0 011.264 3.904c-.455 4.373-5.884 6.136-8.817 2.862L108.244 85.494a5.07 5.07 0 01-1.265-3.903c.456-4.374 5.884-6.137 8.818-2.863l102.235 114.099zm-2.681 25.751a5.061 5.061 0 011.265 3.903c-.455 4.374-5.884 6.137-8.817 2.863L105.564 111.245a5.066 5.066 0 01-1.265-3.904c.455-4.373 5.884-6.136 8.818-2.862l102.234 114.099zm-20.279 6.11c3.092 3.45.309 8.899-4.301 8.423a5.063 5.063 0 01-3.251-1.657l-84.636-94.458a5.062 5.062 0 01-1.265-3.904c.455-4.374 5.884-6.136 8.817-2.862l84.636 94.458zm-28.38-2.932c3.092 3.451.309 8.9-4.301 8.424a5.063 5.063 0 01-3.251-1.657l-58.937-65.776a5.065 5.065 0 01-1.264-3.904c.455-4.374 5.883-6.136 8.817-2.862l58.936 65.775zm-28.38-2.931c3.092 3.451.309 8.9-4.301 8.424a5.063 5.063 0 01-3.251-1.657l-33.237-37.094a5.064 5.064 0 01-1.265-3.904c.455-4.374 5.884-6.136 8.818-2.862l33.236 37.093zm-45.279-3.246c.665-6.386 8.59-8.958 12.872-4.179 4.514 5.037.452 12.993-6.278 12.298a7.392 7.392 0 01-6.594-8.119zm140.21-152.837c-.665 6.386-8.59 8.959-12.873 4.18-4.513-5.038-.451-12.994 6.279-12.299a7.392 7.392 0 016.594 8.12z" fill="#E43B26" fill-opacity=".6"/><g opacity=".9" clip-path="url(#clip3)" fill-rule="evenodd" clip-rule="evenodd"><path d="M137.383 182.7a1.659 1.659 0 01-1.82 1.477l-2.677-.277a1.653 1.653 0 01-1.475-1.817l.342-3.294a1.658 1.658 0 011.819-1.477l2.677.277c.91.094 1.571.907 1.477 1.817l-.343 3.294zM163.56 185.403a1.656 1.656 0 01-1.818 1.477l-2.677-.276a1.656 1.656 0 01-1.477-1.818l.343-3.294c.095-.91.91-1.57 1.82-1.476l2.676.276c.91.094 1.571.907 1.476 1.817l-.343 3.294z" fill="#FF8B00"/><path d="M135.802 104.225a23.32 23.32 0 008.812 13.515 23.347 23.347 0 002.028-16.013 23.312 23.312 0 00-8.812-13.513 23.336 23.336 0 00-2.028 16.011zM175.298 108.304a23.371 23.371 0 01-11.409 11.427 23.351 23.351 0 011.314-16.088 23.37 23.37 0 0111.408-11.424 23.347 23.347 0 01-1.313 16.085z" fill="#FFBF31"/><path d="M137.193 94.332a23.521 23.521 0 00-1.976 5.307c.044 1.517.231 3.051.585 4.587a23.308 23.308 0 008.811 13.514 23.563 23.563 0 001.975-5.307 23.565 23.565 0 00-.583-4.588 23.318 23.318 0 00-8.812-13.513zM164.566 109.762a23.51 23.51 0 00-1.516 4.371c.055 1.901.336 3.781.839 5.598a23.367 23.367 0 0011.408-11.426 23.476 23.476 0 001.517-4.372 23.403 23.403 0 00-.84-5.596 23.37 23.37 0 00-11.408 11.425z" fill="#FF8B00"/><path d="M150.568 120.834a1.148 1.148 0 01-.568-.222 24.561 24.561 0 01-9.242-14.176 24.59 24.59 0 012.126-16.795 1.146 1.146 0 011.705-.393 24.565 24.565 0 019.242 14.174 24.611 24.611 0 01-2.127 16.797 1.15 1.15 0 01-1.136.615zm-6.253-28.873a22.297 22.297 0 00-1.323 13.961 22.274 22.274 0 007.282 11.978 22.318 22.318 0 001.324-13.963 22.293 22.293 0 00-7.283-11.975zM178.798 123.749a1.144 1.144 0 01-.986-.834 24.607 24.607 0 011.379-16.874 24.621 24.621 0 0111.965-11.984 1.148 1.148 0 011.588.733 24.595 24.595 0 01-1.379 16.873 24.613 24.613 0 01-11.965 11.985 1.143 1.143 0 01-.602.101zm12.068-26.98a22.335 22.335 0 00-9.595 10.233 22.323 22.323 0 00-1.582 13.936 22.336 22.336 0 009.596-10.235 22.312 22.312 0 001.581-13.934z" fill="#33363A"/><path d="M169.797 162.898l3.014-28.96c1.062-10.203-6.375-19.363-16.578-20.417l-2.847-.294c-10.203-1.054-19.368 6.391-20.43 16.595l-3.014 28.959a7.918 7.918 0 00-2.661 5.14l-.683 6.559a7.943 7.943 0 007.086 8.726l28.242 2.917a7.959 7.959 0 008.732-7.093l.683-6.559a7.898 7.898 0 00-1.544-5.573z" fill="#FFBF31"/><path d="M169.796 162.898l2.507-24.078c1.062-10.203-6.376-19.362-16.578-20.416l-2.847-.294c-10.203-1.054-19.368 6.39-20.43 16.594l-2.506 24.077-.509 4.883a7.924 7.924 0 00-2.661 5.139l-.174 1.677a7.943 7.943 0 007.086 8.726l28.242 2.917a7.959 7.959 0 008.732-7.093l.175-1.676a7.914 7.914 0 00-1.546-5.574l.508-4.883.001.001z" fill="#FF8B00"/><path d="M166.819 192.324l-28.242-2.916c-4.99-.516-8.627-4.995-8.107-9.985l.682-6.559a9.064 9.064 0 012.706-5.568l2.97-28.53c1.127-10.833 10.857-18.736 21.688-17.618l2.847.294c10.833 1.119 18.728 10.842 17.6 21.675l-2.97 28.53a9.055 9.055 0 011.502 6.003l-.683 6.559c-.52 4.991-5.002 8.631-9.993 8.115zm-8.541-68.894c-9.574-.989-18.174 5.996-19.171 15.572l-3.014 28.959c-.03.287-.167.552-.383.743a6.785 6.785 0 00-2.277 4.397l-.683 6.559a6.807 6.807 0 006.064 7.468l28.242 2.917a6.82 6.82 0 007.474-6.07l.682-6.559a6.772 6.772 0 00-1.323-4.769 1.148 1.148 0 01-.222-.805l3.015-28.96c.996-9.576-5.982-18.17-15.557-19.159l-2.847-.294v.001z" fill="#33363A"/><path d="M205.317 148.59l-19.929-11.028-21.662 13.2 8.922 4.939-24.888 17.315 46.021-10.514-9.994-5.53 21.53-8.382z" fill="#FFBF31"/><path d="M178.135 159.073l21.531-8.383-18.775-10.388-17.165 10.46 8.922 4.939-24.888 17.315 39.334-8.984-8.959-4.959z" fill="#FF8B00"/><path d="M147.641 174.157a1.146 1.146 0 01-.135-2.258l43.095-9.846-7.369-4.077a1.149 1.149 0 01.139-2.072l19.25-7.495-17.206-9.521-19.408 11.826 7.197 3.985a1.146 1.146 0 11-1.112 2.006l-8.922-4.94a1.145 1.145 0 01-.04-1.981l21.662-13.199a1.145 1.145 0 011.151-.025l19.929 11.028a1.147 1.147 0 01-.139 2.071l-19.251 7.495 7.855 4.347a1.145 1.145 0 01-.302 2.121l-46.021 10.514a1.179 1.179 0 01-.373.021zM141.172 101.316a1.147 1.147 0 01-1.027-1.176 24.692 24.692 0 012.737-10.499 1.15 1.15 0 011.705-.393 24.406 24.406 0 016.255 6.89 1.15 1.15 0 01-.552 1.662l-8.573 3.439a1.134 1.134 0 01-.545.077zm3.142-9.354a22.443 22.443 0 00-1.746 6.466l5.574-2.236a22.12 22.12 0 00-3.828-4.23z" fill="#33363A"/><path d="M137.83 88.214a23.374 23.374 0 00-2.61 10.008l8.572-3.44a23.367 23.367 0 00-5.962-6.568zM193.488 106.72a1.156 1.156 0 01-.518-.187l-7.682-5.118a1.15 1.15 0 01-.198-1.74 24.478 24.478 0 017.541-5.464 1.148 1.148 0 011.587.733 24.7 24.7 0 01.518 10.835 1.148 1.148 0 01-1.248.941zm-5.766-6.44l4.995 3.329c.21-2.227.082-4.494-.377-6.686a22.137 22.137 0 00-4.618 3.357zM169.422 97.43l7.682 5.118a23.379 23.379 0 00-.493-10.329 23.427 23.427 0 00-7.189 5.21zM146.268 136.08a1.147 1.147 0 01-.604-2.03c4.58-3.72 11.328-3.023 15.046 1.553a1.145 1.145 0 01-.168 1.612c-.492.4-1.213.325-1.612-.166-2.919-3.596-8.224-4.142-11.821-1.22-.245.2-.549.281-.841.251zM158.752 146.587a1.145 1.145 0 01-.772-.417c-2.919-3.595-8.222-4.143-11.82-1.221a1.145 1.145 0 11-1.445-1.779c4.581-3.72 11.329-3.023 15.046 1.554a1.145 1.145 0 01-1.009 1.863zM134.106 185.179l-5.912-.611a1.147 1.147 0 01.238-2.28l5.911.61a1.146 1.146 0 11-.237 2.281zM123.303 184.063l-.068-.007a1.146 1.146 0 11.237-2.281c.63.066 1.122.632 1.056 1.262-.065.63-.595 1.091-1.225 1.026zM119.357 183.656l-.068-.008a1.144 1.144 0 01-1.022-1.258c.066-.63.63-1.087 1.259-1.022.63.065 1.122.631 1.056 1.261-.066.631-.595 1.092-1.225 1.027zM115.411 183.248l-.069-.007a1.147 1.147 0 01.238-2.281c.629.065 1.121.632 1.056 1.262-.066.63-.596 1.091-1.225 1.026z" fill="#33363A"/></g><g filter="url(#filter5_d)"><rect width="180.689" height="233.018" rx="16" transform="rotate(8.123 -213.33 484.196) skewX(-.063)" fill="#E8E8ED"/></g><path d="M59.092 251.919l131.803 18.812c2.603.371 4.982-1.238 5.322-3.6L223.25 79.199c.339-2.358-1.49-4.572-4.093-4.943L87.353 55.444c-2.598-.37-4.982 1.242-5.321 3.6L54.999 246.975c-.34 2.362 1.494 4.572 4.093 4.943zm148.64-131.633c-.626 4.353-6.12 5.903-8.924 2.517l-31.759-38.356c-2.954-3.568.04-8.905 4.628-8.25a5.064 5.064 0 013.184 1.783l31.759 38.356a5.063 5.063 0 011.112 3.95zm-4.798 21.678a5.059 5.059 0 011.111 3.949c-.626 4.353-6.12 5.903-8.923 2.518l-56.317-68.015c-2.954-3.568.04-8.905 4.628-8.25a5.059 5.059 0 013.184 1.783l56.317 68.015zm-3.686 25.627a5.059 5.059 0 011.111 3.949c-.626 4.353-6.12 5.903-8.923 2.518l-80.874-97.673c-2.954-3.568.039-8.905 4.627-8.25a5.064 5.064 0 013.185 1.783l80.874 97.673zm-3.686 25.627a5.064 5.064 0 011.111 3.949c-.626 4.353-6.12 5.903-8.923 2.518L90.06 81.703a5.062 5.062 0 01-1.112-3.95c.626-4.353 6.12-5.903 8.923-2.517l97.691 117.982zm-3.687 25.627a5.061 5.061 0 011.111 3.95c-.626 4.352-6.12 5.902-8.923 2.517L86.373 107.33a5.063 5.063 0 01-1.111-3.95c.626-4.353 6.12-5.903 8.923-2.517l97.69 117.982zm-3.686 25.627a5.062 5.062 0 011.111 3.95c-.626 4.353-6.12 5.903-8.923 2.517l-97.69-117.982a5.062 5.062 0 01-1.111-3.95c.626-4.352 6.12-5.902 8.923-2.517l97.69 117.982zm-20.502 5.318c2.954 3.568-.04 8.905-4.628 8.25a5.062 5.062 0 01-3.185-1.783L79 158.584a5.061 5.061 0 01-1.11-3.949c.625-4.353 6.12-5.903 8.922-2.518l80.875 97.673zm-28.244-4.031c2.954 3.568-.04 8.905-4.628 8.25a5.066 5.066 0 01-3.184-1.783l-56.317-68.015a5.06 5.06 0 01-1.111-3.949c.626-4.353 6.12-5.903 8.923-2.518l56.317 68.015zm-28.244-4.031c2.954 3.568-.039 8.905-4.627 8.25a5.066 5.066 0 01-3.185-1.783l-31.76-38.357a5.06 5.06 0 01-1.11-3.949c.626-4.353 6.12-5.903 8.923-2.518l31.759 38.357zm-45.118-5.003c.914-6.355 8.935-8.618 13.027-3.675 4.313 5.208-.058 13-6.756 12.044a7.39 7.39 0 01-6.27-8.369zM212.167 89.45c-.914 6.355-8.934 8.617-13.027 3.675-4.312-5.208.058-13 6.756-12.044a7.389 7.389 0 016.271 8.369z" fill="#E43B26" fill-opacity=".6"/><defs><filter id="filter0_d" x="9.098" y="0" width="228.703" height="281" filterUnits="userSpaceOnUse" color-interpolation-filters="sRGB"><feFlood flood-opacity="0" result="BackgroundImageFix"/><feColorMatrix in="SourceAlpha" values="0 0 0 0 0 0 0 0 0 0 0 0 0 0 0 0 0 0 127 0"/><feOffset dy="12"/><feGaussianBlur stdDeviation="12"/><feColorMatrix values="0 0 0 0 0.733333 0 0 0 0 0.474957 0 0 0 0 0 0 0 0 1 0"/><feBlend in2="BackgroundImageFix" result="effect1_dropShadow"/><feBlend in="SourceGraphic" in2="effect1_dropShadow" result="shape"/></filter><filter id="filter1_d" x="0" y="23.951" width="212.696" height="261.179" filterUnits="userSpaceOnUse" color-interpolation-filters="sRGB"><feFlood flood-opacity="0" result="BackgroundImageFix"/><feColorMatrix in="SourceAlpha" values="0 0 0 0 0 0 0 0 0 0 0 0 0 0 0 0 0 0 127 0"/><feOffset dy="4"/><feGaussianBlur stdDeviation="4"/><feColorMatrix values="0 0 0 0 0.2 0 0 0 0 0.211765 0 0 0 0 0.227451 0 0 0 0.13 0"/><feBlend in2="BackgroundImageFix" result="effect1_dropShadow"/><feBlend in="SourceGraphic" in2="effect1_dropShadow" result="shape"/></filter><filter id="filter2_d" x="0" y="23.951" width="212.696" height="261.179" filterUnits="userSpaceOnUse" color-interpolation-filters="sRGB"><feFlood flood-opacity="0" result="BackgroundImageFix"/><feColorMatrix in="SourceAlpha" values="0 0 0 0 0 0 0 0 0 0 0 0 0 0 0 0 0 0 127 0"/><feOffset dy="4"/><feGaussianBlur stdDeviation="4"/><feColorMatrix values="0 0 0 0 0.2 0 0 0 0 0.211765 0 0 0 0 0.227451 0 0 0 0.13 0"/><feBlend in2="BackgroundImageFix" result="effect1_dropShadow"/><feBlend in="SourceGraphic" in2="effect1_dropShadow" result="shape"/></filter><filter id="filter3_d" x="17.155" y="10.085" width="210.578" height="258.955" filterUnits="userSpaceOnUse" color-interpolation-filters="sRGB"><feFlood flood-opacity="0" result="BackgroundImageFix"/><feColorMatrix in="SourceAlpha" values="0 0 0 0 0 0 0 0 0 0 0 0 0 0 0 0 0 0 127 0"/><feOffset dy="4"/><feGaussianBlur stdDeviation="4"/><feColorMatrix values="0 0 0 0 0.2 0 0 0 0 0.211765 0 0 0 0 0.227451 0 0 0 0.13 0"/><feBlend in2="BackgroundImageFix" result="effect1_dropShadow"/><feBlend in="SourceGraphic" in2="effect1_dropShadow" result="shape"/></filter><filter id="filter4_d" x="54.776" y="11.558" width="216.724" height="263.205" filterUnits="userSpaceOnUse" color-interpolation-filters="sRGB"><feFlood flood-opacity="0" result="BackgroundImageFix"/><feColorMatrix in="SourceAlpha" values="0 0 0 0 0 0 0 0 0 0 0 0 0 0 0 0 0 0 127 0"/><feOffset dy="4"/><feGaussianBlur stdDeviation="4"/><feColorMatrix values="0 0 0 0 0.2 0 0 0 0 0.211765 0 0 0 0 0.227451 0 0 0 0.13 0"/><feBlend in2="BackgroundImageFix" result="effect1_dropShadow"/><feBlend in="SourceGraphic" in2="effect1_dropShadow" result="shape"/></filter><filter id="filter5_d" x="27.211" y="33.098" width="223.827" height="267.979" filterUnits="userSpaceOnUse" color-interpolation-filters="sRGB"><feFlood flood-opacity="0" result="BackgroundImageFix"/><feColorMatrix in="SourceAlpha" values="0 0 0 0 0 0 0 0 0 0 0 0 0 0 0 0 0 0 127 0"/><feOffset dy="4"/><feGaussianBlur stdDeviation="4"/><feColorMatrix values="0 0 0 0 0.2 0 0 0 0 0.211765 0 0 0 0 0.227451 0 0 0 0.13 0"/><feBlend in2="BackgroundImageFix" result="effect1_dropShadow"/><feBlend in="SourceGraphic" in2="effect1_dropShadow" result="shape"/></filter><clipPath id="clip0"><path fill="#fff" transform="translate(70 75)" d="M0 0h107v107H0z"/></clipPath><clipPath id="clip1"><path fill="#fff" transform="rotate(-4.048 1452.89 -646.457)" d="M0 0h106.998v107.002H0z"/></clipPath><clipPath id="clip2"><path fill="#fff" transform="rotate(-4.032 1253.56 -885.08) skewX(.031)" d="M0 0h106.998v107.002H0z"/></clipPath><clipPath id="clip3"><path fill="#fff" transform="rotate(5.897 -723.319 1161.653) skewX(-.046)" d="M0 0h106.996v107.004H0z"/></clipPath></defs></svg>