<svg width="113" height="265" fill="none" xmlns="http://www.w3.org/2000/svg">
  <g filter="url(#filter0_d)">
    <rect x="8" y="19.706" width="180" height="233" rx="16" transform="rotate(-4.048 8 19.706)" fill="#E8E8ED"/>
  </g>
  <path d="M46.854 233.237l132.3-9.363c2.613-.184 4.589-2.258 4.421-4.638L170.174 29.858c-.169-2.376-2.417-4.155-5.03-3.97l-132.3 9.362c-2.609.185-4.59 2.263-4.421 4.639l13.401 189.378c.169 2.38 2.422 4.154 5.03 3.97zM163.749 73.274c.31 4.384-4.732 7.051-8.181 4.329L116.541 46.8c-3.628-2.864-1.833-8.692 2.777-9.018a5.057 5.057 0 013.491 1.075l39.027 30.803a5.06 5.06 0 011.913 3.614zm-.085 22.21a5.062 5.062 0 011.912 3.615c.31 4.383-4.731 7.05-8.181 4.328L88.19 48.806c-3.627-2.863-1.832-8.691 2.778-9.018a5.06 5.06 0 013.491 1.076l69.205 54.62zm1.827 25.825a5.055 5.055 0 011.912 3.614c.311 4.383-4.731 7.051-8.18 4.328L59.84 50.812c-3.628-2.863-1.833-8.691 2.777-9.017a5.06 5.06 0 013.492 1.075l99.382 78.439zm1.828 25.824a5.062 5.062 0 011.912 3.614c.31 4.384-4.731 7.051-8.181 4.328L41.024 60.343a5.06 5.06 0 01-1.912-3.614c-.31-4.383 4.731-7.05 8.18-4.328l120.027 94.732zm1.827 25.824a5.055 5.055 0 011.912 3.614c.311 4.384-4.731 7.051-8.18 4.329L42.851 86.167a5.059 5.059 0 01-1.912-3.614c-.31-4.383 4.732-7.05 8.181-4.328l120.026 94.732zm1.828 25.825a5.062 5.062 0 011.912 3.614c.31 4.383-4.731 7.051-8.181 4.328L44.679 111.992a5.06 5.06 0 01-1.912-3.614c-.31-4.384 4.731-7.051 8.18-4.329l120.027 94.733zm-18.817 9.531c3.628 2.863 1.833 8.691-2.777 9.017a5.056 5.056 0 01-3.491-1.075l-99.383-78.439a5.06 5.06 0 01-1.912-3.614c-.31-4.383 4.731-7.051 8.18-4.328l99.383 78.439zm-28.35 2.006c3.628 2.863 1.833 8.691-2.777 9.017a5.056 5.056 0 01-3.491-1.075L48.334 163.64a5.059 5.059 0 01-1.912-3.614c-.31-4.383 4.731-7.051 8.18-4.328l69.205 54.621zm-28.35 2.006c3.628 2.863 1.833 8.691-2.777 9.018a5.058 5.058 0 01-3.492-1.076l-39.027-30.802a5.06 5.06 0 01-1.912-3.614c-.31-4.384 4.731-7.051 8.18-4.329l39.028 30.803zm-45.009 4.602c-.453-6.399 6.907-10.292 11.943-6.318 5.296 4.18 2.676 12.688-4.054 13.164a7.385 7.385 0 01-7.889-6.846zM161.55 42.197c.453 6.4-6.907 10.293-11.942 6.319-5.296-4.18-2.676-12.688 4.054-13.164a7.385 7.385 0 017.888 6.845z" fill="#E43B26" fill-opacity=".6"/>
  <g filter="url(#filter1_d)">
    <rect x="33.647" y="4" width="180" height="233" rx="16" transform="rotate(3.358 33.647 4)" fill="#E8E8ED"/>
  </g>
  <path d="M44.654 220.758l132.404 7.768c2.615.153 4.842-1.648 4.981-4.03l11.12-189.526c.139-2.378-1.861-4.432-4.476-4.585L56.279 22.617c-2.61-.153-4.842 1.652-4.981 4.03l-11.12 189.526c-.14 2.382 1.866 4.431 4.476 4.585zM181.191 77.196c-.257 4.387-5.6 6.382-8.67 3.238L137.79 44.858c-3.229-3.307-.698-8.855 3.916-8.585a5.061 5.061 0 013.324 1.517l34.731 35.576a5.054 5.054 0 011.43 3.83zm-2.946 22.014a5.058 5.058 0 011.43 3.83c-.257 4.387-5.6 6.383-8.67 3.238l-61.588-63.085c-3.228-3.307-.697-8.855 3.917-8.584a5.057 5.057 0 013.323 1.516l61.588 63.085zm-1.517 25.845a5.058 5.058 0 011.431 3.83c-.258 4.387-5.601 6.382-8.671 3.238L81.045 41.529c-3.228-3.308-.697-8.856 3.916-8.585a5.059 5.059 0 013.324 1.516l88.443 90.595zm-1.516 25.844a5.059 5.059 0 011.431 3.83c-.258 4.387-5.601 6.383-8.671 3.238L61.157 48.555a5.059 5.059 0 01-1.43-3.83c.257-4.388 5.6-6.383 8.67-3.239L175.212 150.9zm-1.516 25.844a5.06 5.06 0 011.43 3.831c-.257 4.387-5.6 6.382-8.67 3.238L59.641 74.399a5.059 5.059 0 01-1.43-3.83c.257-4.387 5.6-6.382 8.67-3.238l106.815 109.412zm-1.516 25.845a5.062 5.062 0 011.43 3.83c-.257 4.387-5.601 6.382-8.67 3.238L58.125 100.244a5.06 5.06 0 01-1.43-3.83c.257-4.388 5.6-6.383 8.67-3.239L172.18 202.588zm-19.888 7.026c3.228 3.307.697 8.855-3.917 8.584a5.052 5.052 0 01-3.323-1.516l-88.444-90.594a5.059 5.059 0 01-1.43-3.83c.257-4.387 5.6-6.383 8.67-3.238l88.444 90.594zm-28.373-1.665c3.229 3.307.698 8.856-3.916 8.585a5.066 5.066 0 01-3.324-1.516l-61.587-63.086a5.057 5.057 0 01-1.43-3.83c.257-4.387 5.6-6.382 8.67-3.238l61.587 63.085zm-28.372-1.664c3.229 3.307.698 8.855-3.916 8.584a5.058 5.058 0 01-3.324-1.516l-34.731-35.576a5.06 5.06 0 01-1.43-3.831c.257-4.386 5.6-6.382 8.67-3.237l34.731 35.576zm-45.226-1.237c.375-6.404 8.176-9.317 12.657-4.727 4.713 4.828 1.018 12.927-5.717 12.532a7.386 7.386 0 01-6.94-7.805zM183.016 46.095c-.376 6.404-8.176 9.317-12.657 4.727-4.713-4.828-1.018-12.927 5.717-12.532a7.385 7.385 0 016.94 7.805z" fill="#E43B26" fill-opacity=".6"/>
  <g filter="url(#filter2_d)">
    <rect x="8" y="19.706" width="180" height="233" rx="16" transform="rotate(-4.048 8 19.706)" fill="#E8E8ED"/>
  </g>
  <path d="M46.854 233.237l132.3-9.363c2.613-.184 4.589-2.258 4.421-4.638L170.174 29.858c-.169-2.376-2.417-4.155-5.03-3.97l-132.3 9.362c-2.609.185-4.59 2.263-4.421 4.639l13.401 189.378c.169 2.38 2.422 4.154 5.03 3.97zM163.749 73.274c.31 4.384-4.732 7.051-8.181 4.329L116.541 46.8c-3.628-2.864-1.833-8.692 2.777-9.018a5.057 5.057 0 013.491 1.075l39.027 30.803a5.06 5.06 0 011.913 3.614zm-.085 22.21a5.062 5.062 0 011.912 3.615c.31 4.383-4.731 7.05-8.181 4.328L88.19 48.806c-3.627-2.863-1.832-8.691 2.778-9.018a5.06 5.06 0 013.491 1.076l69.205 54.62zm1.827 25.825a5.055 5.055 0 011.912 3.614c.311 4.383-4.731 7.051-8.18 4.328L59.84 50.812c-3.628-2.863-1.833-8.691 2.777-9.017a5.06 5.06 0 013.492 1.075l99.382 78.439zm1.828 25.824a5.062 5.062 0 011.912 3.614c.31 4.384-4.731 7.051-8.181 4.328L41.024 60.343a5.06 5.06 0 01-1.912-3.614c-.31-4.383 4.731-7.05 8.18-4.328l120.027 94.732zm1.827 25.824a5.055 5.055 0 011.912 3.614c.311 4.384-4.731 7.051-8.18 4.329L42.851 86.167a5.059 5.059 0 01-1.912-3.614c-.31-4.383 4.732-7.05 8.181-4.328l120.026 94.732zm1.828 25.825a5.062 5.062 0 011.912 3.614c.31 4.383-4.731 7.051-8.181 4.328L44.679 111.992a5.06 5.06 0 01-1.912-3.614c-.31-4.384 4.731-7.051 8.18-4.329l120.027 94.733zm-18.817 9.531c3.628 2.863 1.833 8.691-2.777 9.017a5.056 5.056 0 01-3.491-1.075l-99.383-78.439a5.06 5.06 0 01-1.912-3.614c-.31-4.383 4.731-7.051 8.18-4.328l99.383 78.439zm-28.35 2.006c3.628 2.863 1.833 8.691-2.777 9.017a5.056 5.056 0 01-3.491-1.075L48.334 163.64a5.059 5.059 0 01-1.912-3.614c-.31-4.383 4.731-7.051 8.18-4.328l69.205 54.621zm-28.35 2.006c3.628 2.863 1.833 8.691-2.777 9.018a5.058 5.058 0 01-3.492-1.076l-39.027-30.802a5.06 5.06 0 01-1.912-3.614c-.31-4.384 4.731-7.051 8.18-4.329l39.028 30.803zm-45.009 4.602c-.453-6.399 6.907-10.292 11.943-6.318 5.296 4.18 2.676 12.688-4.054 13.164a7.385 7.385 0 01-7.889-6.846zM161.55 42.197c.453 6.4-6.907 10.293-11.942 6.319-5.296-4.18-2.676-12.688 4.054-13.164a7.385 7.385 0 017.888 6.845z" fill="#E43B26" fill-opacity=".6"/>
  <g filter="url(#filter3_d)">
    <rect x="33.647" y="4" width="180" height="233" rx="16" transform="rotate(3.358 33.647 4)" fill="#E8E8ED"/>
  </g>
  <path d="M44.654 220.758l132.404 7.768c2.615.153 4.842-1.648 4.981-4.03l11.12-189.526c.139-2.378-1.861-4.432-4.476-4.585L56.279 22.617c-2.61-.153-4.842 1.652-4.981 4.03l-11.12 189.526c-.14 2.382 1.866 4.431 4.476 4.585zM181.191 77.196c-.257 4.387-5.6 6.382-8.67 3.238L137.79 44.858c-3.229-3.307-.698-8.855 3.916-8.585a5.061 5.061 0 013.324 1.517l34.731 35.576a5.054 5.054 0 011.43 3.83zm-2.946 22.014a5.058 5.058 0 011.43 3.83c-.257 4.387-5.6 6.383-8.67 3.238l-61.588-63.085c-3.228-3.307-.697-8.855 3.917-8.584a5.057 5.057 0 013.323 1.516l61.588 63.085zm-1.517 25.845a5.058 5.058 0 011.431 3.83c-.258 4.387-5.601 6.382-8.671 3.238L81.045 41.529c-3.228-3.308-.697-8.856 3.916-8.585a5.059 5.059 0 013.324 1.516l88.443 90.595zm-1.516 25.844a5.059 5.059 0 011.431 3.83c-.258 4.387-5.601 6.383-8.671 3.238L61.157 48.555a5.059 5.059 0 01-1.43-3.83c.257-4.388 5.6-6.383 8.67-3.239L175.212 150.9zm-1.516 25.844a5.06 5.06 0 011.43 3.831c-.257 4.387-5.6 6.382-8.67 3.238L59.641 74.399a5.059 5.059 0 01-1.43-3.83c.257-4.387 5.6-6.382 8.67-3.238l106.815 109.412zm-1.516 25.845a5.062 5.062 0 011.43 3.83c-.257 4.387-5.601 6.382-8.67 3.238L58.125 100.244a5.06 5.06 0 01-1.43-3.83c.257-4.388 5.6-6.383 8.67-3.239L172.18 202.588zm-19.888 7.026c3.228 3.307.697 8.855-3.917 8.584a5.052 5.052 0 01-3.323-1.516l-88.444-90.594a5.059 5.059 0 01-1.43-3.83c.257-4.387 5.6-6.383 8.67-3.238l88.444 90.594zm-28.373-1.665c3.229 3.307.698 8.856-3.916 8.585a5.066 5.066 0 01-3.324-1.516l-61.587-63.086a5.057 5.057 0 01-1.43-3.83c.257-4.387 5.6-6.382 8.67-3.238l61.587 63.085zm-28.372-1.664c3.229 3.307.698 8.855-3.916 8.584a5.058 5.058 0 01-3.324-1.516l-34.731-35.576a5.06 5.06 0 01-1.43-3.831c.257-4.386 5.6-6.382 8.67-3.237l34.731 35.576zm-45.226-1.237c.375-6.404 8.176-9.317 12.657-4.727 4.713 4.828 1.018 12.927-5.717 12.532a7.386 7.386 0 01-6.94-7.805zM183.016 46.095c-.376 6.404-8.176 9.317-12.657 4.727-4.713-4.828-1.018-12.927 5.717-12.532a7.385 7.385 0 016.94 7.805z" fill="#E43B26" fill-opacity=".6"/>
  <defs>
    <filter id="filter0_d" x="0" y="3" width="211.998" height="261.125" filterUnits="userSpaceOnUse" color-interpolation-filters="sRGB">
      <feFlood flood-opacity="0" result="BackgroundImageFix"/>
      <feColorMatrix in="SourceAlpha" values="0 0 0 0 0 0 0 0 0 0 0 0 0 0 0 0 0 0 127 0"/>
      <feOffset dy="4"/>
      <feGaussianBlur stdDeviation="4"/>
      <feColorMatrix values="0 0 0 0 0.2 0 0 0 0 0.211765 0 0 0 0 0.227451 0 0 0 0.13 0"/>
      <feBlend in2="BackgroundImageFix" result="effect1_dropShadow"/>
      <feBlend in="SourceGraphic" in2="effect1_dropShadow" result="shape"/>
    </filter>
    <filter id="filter1_d" x="11.999" y="0" width="209.338" height="259.143" filterUnits="userSpaceOnUse" color-interpolation-filters="sRGB">
      <feFlood flood-opacity="0" result="BackgroundImageFix"/>
      <feColorMatrix in="SourceAlpha" values="0 0 0 0 0 0 0 0 0 0 0 0 0 0 0 0 0 0 127 0"/>
      <feOffset dy="4"/>
      <feGaussianBlur stdDeviation="4"/>
      <feColorMatrix values="0 0 0 0 0.2 0 0 0 0 0.211765 0 0 0 0 0.227451 0 0 0 0.13 0"/>
      <feBlend in2="BackgroundImageFix" result="effect1_dropShadow"/>
      <feBlend in="SourceGraphic" in2="effect1_dropShadow" result="shape"/>
    </filter>
    <filter id="filter2_d" x="0" y="3" width="211.998" height="261.125" filterUnits="userSpaceOnUse" color-interpolation-filters="sRGB">
      <feFlood flood-opacity="0" result="BackgroundImageFix"/>
      <feColorMatrix in="SourceAlpha" values="0 0 0 0 0 0 0 0 0 0 0 0 0 0 0 0 0 0 127 0"/>
      <feOffset dy="4"/>
      <feGaussianBlur stdDeviation="4"/>
      <feColorMatrix values="0 0 0 0 0.2 0 0 0 0 0.211765 0 0 0 0 0.227451 0 0 0 0.13 0"/>
      <feBlend in2="BackgroundImageFix" result="effect1_dropShadow"/>
      <feBlend in="SourceGraphic" in2="effect1_dropShadow" result="shape"/>
    </filter>
    <filter id="filter3_d" x="11.999" y="0" width="209.338" height="259.143" filterUnits="userSpaceOnUse" color-interpolation-filters="sRGB">
      <feFlood flood-opacity="0" result="BackgroundImageFix"/>
      <feColorMatrix in="SourceAlpha" values="0 0 0 0 0 0 0 0 0 0 0 0 0 0 0 0 0 0 127 0"/>
      <feOffset dy="4"/>
      <feGaussianBlur stdDeviation="4"/>
      <feColorMatrix values="0 0 0 0 0.2 0 0 0 0 0.211765 0 0 0 0 0.227451 0 0 0 0.13 0"/>
      <feBlend in2="BackgroundImageFix" result="effect1_dropShadow"/>
      <feBlend in="SourceGraphic" in2="effect1_dropShadow" result="shape"/>
    </filter>
  </defs>
</svg>
