<svg width="273" height="237" fill="none" xmlns="http://www.w3.org/2000/svg">
  <g filter="url(#filter0_d)">
    <rect x="33" y="12" width="180" height="233" rx="16" fill="#E8E8ED"/>
  </g>
  <path d="M56.684 227.741h132.632c2.619 0 4.737-1.929 4.737-4.315V33.574c0-2.382-2.118-4.315-4.737-4.315H56.684c-2.615 0-4.737 1.933-4.737 4.315v189.852c0 2.386 2.122 4.315 4.737 4.315zM184.58 76.429c0 4.394-5.217 6.699-8.466 3.74l-36.756-33.481c-3.416-3.112-1.214-8.8 3.407-8.8 1.261 0 2.475.471 3.407 1.32l36.756 33.48a5.06 5.06 0 011.652 3.74zm-1.652 22.149a5.06 5.06 0 011.652 3.74c0 4.394-5.217 6.699-8.466 3.74l-65.177-59.37c-3.416-3.112-1.214-8.8 3.407-8.8 1.261 0 2.475.471 3.407 1.32l65.177 59.37zm0 25.888a5.062 5.062 0 011.652 3.741c0 4.394-5.217 6.699-8.466 3.74L82.515 46.688c-3.416-3.112-1.215-8.8 3.407-8.8 1.26 0 2.475.471 3.407 1.32l93.598 85.258zm0 25.889a5.062 5.062 0 011.652 3.74c0 4.395-5.217 6.7-8.466 3.74L63.073 54.867a5.06 5.06 0 01-1.652-3.74c0-4.395 5.217-6.7 8.466-3.74l113.04 102.968zm0 25.889a5.062 5.062 0 011.652 3.74c0 4.395-5.217 6.699-8.466 3.74L63.073 80.756a5.06 5.06 0 01-1.652-3.74c0-4.395 5.217-6.7 8.466-3.74l113.04 102.968zm0 25.889a5.062 5.062 0 011.652 3.74c0 4.395-5.217 6.699-8.466 3.74L63.073 106.645a5.06 5.06 0 01-1.652-3.74c0-4.395 5.217-6.7 8.466-3.74l113.04 102.968zm-19.443 8.179c3.417 3.112 1.215 8.799-3.406 8.799a5.055 5.055 0 01-3.407-1.319l-93.598-85.258a5.06 5.06 0 01-1.652-3.74c0-4.395 5.217-6.7 8.466-3.741l93.597 85.259zm-28.421 0c3.417 3.112 1.215 8.799-3.406 8.799a5.055 5.055 0 01-3.407-1.319l-65.177-59.37a5.057 5.057 0 01-1.652-3.74c0-4.394 5.217-6.699 8.466-3.74l65.176 59.37zm-28.421 0c3.417 3.112 1.215 8.799-3.407 8.799-1.26 0-2.475-.47-3.406-1.319l-36.756-33.481a5.057 5.057 0 01-1.652-3.74c0-4.394 5.217-6.699 8.466-3.74l36.755 33.481zm-45.221 1.414c0-6.415 7.616-9.78 12.358-5.46 4.988 4.543 1.774 12.845-4.973 12.845a7.385 7.385 0 01-7.385-7.385zM184.579 45.274c0 6.415-7.616 9.78-12.359 5.46-4.987-4.543-1.773-12.845 4.974-12.845a7.386 7.386 0 017.385 7.385z" fill="#E43B26" fill-opacity=".6"/>
  <g filter="url(#filter1_d)">
    <rect x="8" y="40.706" width="180" height="233" rx="16" transform="rotate(-4.048 8 40.706)" fill="#E8E8ED"/>
  </g>
  <path d="M46.854 254.237l132.3-9.362c2.613-.185 4.589-2.259 4.421-4.639L170.174 50.858c-.169-2.376-2.417-4.155-5.03-3.97l-132.3 9.363c-2.609.184-4.59 2.262-4.421 4.638l13.401 189.378c.169 2.38 2.422 4.154 5.03 3.97zM163.749 94.274c.31 4.384-4.732 7.051-8.181 4.329L116.541 67.8c-3.628-2.863-1.833-8.691 2.777-9.018a5.058 5.058 0 013.491 1.076l39.027 30.802a5.06 5.06 0 011.913 3.614zm-.085 22.211a5.062 5.062 0 011.912 3.614c.31 4.383-4.731 7.05-8.181 4.328L88.19 69.807c-3.627-2.864-1.832-8.692 2.778-9.019a5.059 5.059 0 013.491 1.076l69.205 54.621zm1.827 25.824a5.055 5.055 0 011.912 3.614c.311 4.383-4.731 7.051-8.18 4.328L59.84 71.812c-3.628-2.863-1.833-8.691 2.777-9.017a5.059 5.059 0 013.492 1.075l99.382 78.439zm1.828 25.824a5.062 5.062 0 011.912 3.614c.31 4.384-4.731 7.051-8.181 4.329L41.024 81.343a5.06 5.06 0 01-1.912-3.614c-.31-4.383 4.731-7.05 8.18-4.328l120.027 94.732zm1.827 25.825a5.055 5.055 0 011.912 3.614c.311 4.383-4.731 7.05-8.18 4.328L42.851 107.168a5.06 5.06 0 01-1.912-3.615c-.31-4.383 4.732-7.05 8.181-4.328l120.026 94.733zm1.828 25.824a5.062 5.062 0 011.912 3.614c.31 4.383-4.731 7.051-8.181 4.328L44.679 132.992a5.06 5.06 0 01-1.912-3.614c-.31-4.384 4.731-7.051 8.18-4.329l120.027 94.733zm-18.817 9.531c3.628 2.863 1.833 8.691-2.777 9.017a5.056 5.056 0 01-3.491-1.075l-99.383-78.439a5.06 5.06 0 01-1.912-3.614c-.31-4.383 4.731-7.051 8.18-4.328l99.383 78.439zm-28.35 2.006c3.628 2.863 1.833 8.691-2.777 9.018a5.062 5.062 0 01-3.491-1.076L48.334 184.64a5.059 5.059 0 01-1.912-3.614c-.31-4.383 4.731-7.05 8.18-4.328l69.205 54.621zm-28.35 2.006c3.628 2.863 1.833 8.691-2.777 9.018a5.058 5.058 0 01-3.492-1.076l-39.027-30.802a5.06 5.06 0 01-1.912-3.614c-.31-4.384 4.731-7.051 8.18-4.329l39.028 30.803zm-45.009 4.602c-.453-6.398 6.907-10.292 11.943-6.318 5.296 4.18 2.676 12.688-4.054 13.164a7.385 7.385 0 01-7.889-6.846zM161.55 63.197c.453 6.4-6.907 10.293-11.942 6.319-5.296-4.18-2.676-12.688 4.054-13.164a7.385 7.385 0 017.888 6.846z" fill="#E43B26" fill-opacity=".6"/>
  <g filter="url(#filter2_d)">
    <rect x="8" y="40.706" width="180" height="233" rx="16" transform="rotate(-4.048 8 40.706)" fill="#E8E8ED"/>
  </g>
  <path d="M46.854 254.237l132.3-9.362c2.613-.185 4.589-2.259 4.421-4.639L170.174 50.858c-.169-2.376-2.417-4.155-5.03-3.97l-132.3 9.363c-2.609.184-4.59 2.262-4.421 4.638l13.401 189.378c.169 2.38 2.422 4.154 5.03 3.97zM163.749 94.274c.31 4.384-4.732 7.051-8.181 4.329L116.541 67.8c-3.628-2.863-1.833-8.691 2.777-9.018a5.058 5.058 0 013.491 1.076l39.027 30.802a5.06 5.06 0 011.913 3.614zm-.085 22.211a5.062 5.062 0 011.912 3.614c.31 4.383-4.731 7.05-8.181 4.328L88.19 69.807c-3.627-2.864-1.832-8.692 2.778-9.019a5.059 5.059 0 013.491 1.076l69.205 54.621zm1.827 25.824a5.055 5.055 0 011.912 3.614c.311 4.383-4.731 7.051-8.18 4.328L59.84 71.812c-3.628-2.863-1.833-8.691 2.777-9.017a5.059 5.059 0 013.492 1.075l99.382 78.439zm1.828 25.824a5.062 5.062 0 011.912 3.614c.31 4.384-4.731 7.051-8.181 4.329L41.024 81.343a5.06 5.06 0 01-1.912-3.614c-.31-4.383 4.731-7.05 8.18-4.328l120.027 94.732zm1.827 25.825a5.055 5.055 0 011.912 3.614c.311 4.383-4.731 7.05-8.18 4.328L42.851 107.168a5.06 5.06 0 01-1.912-3.615c-.31-4.383 4.732-7.05 8.181-4.328l120.026 94.733zm1.828 25.824a5.062 5.062 0 011.912 3.614c.31 4.383-4.731 7.051-8.181 4.328L44.679 132.992a5.06 5.06 0 01-1.912-3.614c-.31-4.384 4.731-7.051 8.18-4.329l120.027 94.733zm-18.817 9.531c3.628 2.863 1.833 8.691-2.777 9.017a5.056 5.056 0 01-3.491-1.075l-99.383-78.439a5.06 5.06 0 01-1.912-3.614c-.31-4.383 4.731-7.051 8.18-4.328l99.383 78.439zm-28.35 2.006c3.628 2.863 1.833 8.691-2.777 9.018a5.062 5.062 0 01-3.491-1.076L48.334 184.64a5.059 5.059 0 01-1.912-3.614c-.31-4.383 4.731-7.05 8.18-4.328l69.205 54.621zm-28.35 2.006c3.628 2.863 1.833 8.691-2.777 9.018a5.058 5.058 0 01-3.492-1.076l-39.027-30.802a5.06 5.06 0 01-1.912-3.614c-.31-4.384 4.731-7.051 8.18-4.329l39.028 30.803zm-45.009 4.602c-.453-6.398 6.907-10.292 11.943-6.318 5.296 4.18 2.676 12.688-4.054 13.164a7.385 7.385 0 01-7.889-6.846zM161.55 63.197c.453 6.4-6.907 10.293-11.942 6.319-5.296-4.18-2.676-12.688 4.054-13.164a7.385 7.385 0 017.888 6.846z" fill="#E43B26" fill-opacity=".6"/>
  <g filter="url(#filter3_d)">
    <rect x="24" y="25.706" width="180" height="233" rx="16" transform="rotate(-4.048 24 25.706)" fill="#E8E8ED"/>
  </g>
  <path d="M62.854 239.237l132.3-9.362c2.613-.185 4.589-2.259 4.421-4.639L186.174 35.858c-.169-2.376-2.417-4.155-5.03-3.97l-132.3 9.363c-2.609.184-4.59 2.262-4.421 4.638l13.401 189.378c.169 2.38 2.422 4.154 5.03 3.97zM179.749 79.274c.31 4.384-4.732 7.051-8.181 4.329L132.541 52.8c-3.628-2.863-1.833-8.691 2.777-9.018a5.058 5.058 0 013.491 1.076l39.027 30.802a5.06 5.06 0 011.913 3.614zm-.085 22.211a5.062 5.062 0 011.912 3.614c.31 4.383-4.731 7.05-8.181 4.328l-69.205-54.62c-3.627-2.864-1.833-8.692 2.778-9.019a5.058 5.058 0 013.491 1.076l69.205 54.621zm1.827 25.824a5.055 5.055 0 011.912 3.614c.311 4.383-4.731 7.051-8.18 4.328L75.84 56.812c-3.627-2.863-1.833-8.691 2.778-9.017a5.059 5.059 0 013.49 1.075l99.383 78.439zm1.828 25.824a5.062 5.062 0 011.912 3.614c.31 4.384-4.731 7.051-8.181 4.329L57.024 66.343a5.06 5.06 0 01-1.912-3.614c-.31-4.383 4.731-7.05 8.18-4.328l120.027 94.732zm1.827 25.825a5.055 5.055 0 011.912 3.614c.311 4.383-4.731 7.05-8.18 4.328L58.851 92.167a5.059 5.059 0 01-1.912-3.614c-.31-4.383 4.732-7.05 8.181-4.328l120.026 94.733zm1.828 25.824a5.062 5.062 0 011.912 3.614c.31 4.383-4.731 7.051-8.181 4.328L60.679 117.992a5.06 5.06 0 01-1.912-3.614c-.31-4.384 4.731-7.051 8.18-4.329l120.027 94.733zm-18.817 9.531c3.628 2.863 1.833 8.691-2.777 9.017a5.056 5.056 0 01-3.491-1.075l-99.383-78.439a5.06 5.06 0 01-1.912-3.614c-.31-4.383 4.732-7.051 8.18-4.328l99.383 78.439zm-28.35 2.006c3.628 2.863 1.833 8.691-2.777 9.018a5.062 5.062 0 01-3.491-1.076L64.334 169.64a5.059 5.059 0 01-1.912-3.614c-.31-4.383 4.731-7.05 8.18-4.328l69.205 54.621zm-28.35 2.006c3.628 2.863 1.833 8.691-2.777 9.018a5.061 5.061 0 01-3.492-1.076l-39.027-30.802a5.06 5.06 0 01-1.912-3.614c-.31-4.384 4.732-7.051 8.18-4.329l39.028 30.803zm-45.009 4.602c-.452-6.398 6.907-10.292 11.943-6.318 5.296 4.18 2.675 12.688-4.055 13.164a7.385 7.385 0 01-7.888-6.846zM177.55 48.197c.453 6.4-6.907 10.293-11.942 6.319-5.296-4.18-2.676-12.688 4.054-13.164a7.385 7.385 0 017.888 6.846z" fill="#E43B26" fill-opacity=".6"/>
  <g filter="url(#filter4_d)">
    <rect x="85.029" y="14" width="180" height="233" rx="16" transform="rotate(5.92 85.03 14)" fill="#E8E8ED"/>
  </g>
  <path d="M86.338 231.033l131.924 13.678c2.606.27 4.911-1.43 5.157-3.803l19.579-188.84c.246-2.369-1.661-4.51-4.266-4.78L106.807 33.61c-2.601-.27-4.911 1.434-5.156 3.803l-19.58 188.84c-.246 2.373 1.666 4.51 4.267 4.78zM229.155 93.718c-.453 4.37-5.88 6.125-8.806 2.847l-33.107-37.093c-3.077-3.448-.301-8.878 4.297-8.401a5.058 5.058 0 013.252 1.663l33.107 37.093a5.058 5.058 0 011.257 3.89zm-3.927 21.86a5.061 5.061 0 011.258 3.89c-.454 4.371-5.881 6.126-8.807 2.847l-58.706-65.774c-3.078-3.448-.301-8.878 4.296-8.401a5.061 5.061 0 013.253 1.663l58.706 65.775zm-2.67 25.751a5.061 5.061 0 011.258 3.89c-.454 4.371-5.881 6.126-8.807 2.847L130.703 53.61c-3.077-3.448-.301-8.878 4.297-8.401a5.059 5.059 0 013.252 1.663l84.306 94.457zm-2.67 25.751a5.057 5.057 0 011.258 3.89c-.453 4.371-5.881 6.126-8.807 2.847L110.521 59.74a5.058 5.058 0 01-1.257-3.89c.453-4.372 5.88-6.126 8.806-2.848L219.888 167.08zm-2.67 25.75a5.06 5.06 0 011.258 3.891c-.453 4.371-5.881 6.125-8.807 2.847L107.851 85.491a5.062 5.062 0 01-1.257-3.89c.453-4.372 5.88-6.126 8.806-2.848L217.218 192.83zm-2.67 25.751a5.06 5.06 0 011.258 3.891c-.453 4.371-5.88 6.125-8.807 2.847L105.182 111.242a5.06 5.06 0 01-1.258-3.891c.453-4.371 5.88-6.125 8.806-2.847l101.818 114.077zm-20.182 6.131c3.078 3.448.301 8.877-4.296 8.4a5.064 5.064 0 01-3.253-1.663l-84.305-94.457a5.057 5.057 0 01-1.258-3.89c.453-4.371 5.88-6.126 8.806-2.847l84.306 94.457zm-28.269-2.932c3.077 3.449.301 8.878-4.296 8.401a5.06 5.06 0 01-3.253-1.663l-58.706-65.775a5.058 5.058 0 01-1.258-3.89c.453-4.371 5.88-6.126 8.806-2.847l58.707 65.774zm-28.27-2.931c3.078 3.448.301 8.878-4.296 8.401a5.062 5.062 0 01-3.253-1.663l-33.106-37.093a5.058 5.058 0 01-1.258-3.89c.453-4.371 5.88-6.126 8.806-2.847l33.107 37.092zm-45.126-3.257c.662-6.381 8.584-8.942 12.856-4.156 4.492 5.033.439 12.959-6.272 12.264a7.386 7.386 0 01-6.584-8.108zM232.368 62.729c-.661 6.38-8.584 8.942-12.855 4.156-4.493-5.033-.44-12.96 6.271-12.263a7.385 7.385 0 016.584 8.107z" fill="#E43B26" fill-opacity=".6"/>
  <g filter="url(#filter5_d)">
    <rect x="66.048" y="35" width="180" height="233" rx="16" transform="rotate(8.154 66.048 35)" fill="#E8E8ED"/>
  </g>
  <path d="M58.893 251.919l131.29 18.812c2.593.371 4.963-1.238 5.301-3.6l26.928-187.932c.338-2.358-1.484-4.572-4.077-4.943L87.045 55.444c-2.589-.37-4.964 1.242-5.302 3.6L54.816 246.975c-.339 2.362 1.488 4.572 4.077 4.943zm148.063-131.642c-.623 4.35-6.115 5.891-8.911 2.501L166.41 84.423c-2.941-3.566.045-8.883 4.62-8.227a5.06 5.06 0 013.186 1.789l31.635 38.355a5.058 5.058 0 011.105 3.937zm-4.777 21.69a5.059 5.059 0 011.105 3.937c-.623 4.35-6.115 5.891-8.911 2.501l-56.097-68.014c-2.94-3.565.046-8.882 4.621-8.226a5.06 5.06 0 013.185 1.788l56.097 68.014zm-3.672 25.627a5.06 5.06 0 011.105 3.937c-.623 4.35-6.115 5.891-8.911 2.501L110.143 76.36c-2.941-3.565.045-8.882 4.62-8.227a5.06 5.06 0 013.185 1.79l80.559 97.671zm-3.672 25.628a5.057 5.057 0 011.105 3.936c-.623 4.35-6.115 5.892-8.911 2.502L89.737 81.699a5.059 5.059 0 01-1.105-3.937c.623-4.35 6.114-5.891 8.91-2.501l97.293 117.961zm-3.672 25.627a5.057 5.057 0 011.105 3.936c-.623 4.35-6.115 5.892-8.911 2.502L86.065 107.326a5.058 5.058 0 01-1.105-3.936c.623-4.35 6.115-5.892 8.91-2.502l97.293 117.961zm-3.672 25.627a5.057 5.057 0 011.105 3.936c-.623 4.35-6.115 5.892-8.911 2.502L82.393 132.953a5.057 5.057 0 01-1.105-3.936c.623-4.35 6.115-5.892 8.91-2.502l97.293 117.961zm-20.406 5.338c2.941 3.566-.045 8.883-4.62 8.227a5.05 5.05 0 01-3.185-1.789L78.721 158.58a5.058 5.058 0 01-1.105-3.936c.623-4.35 6.115-5.892 8.91-2.502l80.559 97.672zm-28.133-4.031c2.94 3.566-.046 8.883-4.621 8.227a5.053 5.053 0 01-3.185-1.789l-56.097-68.013a5.061 5.061 0 01-1.105-3.937c.623-4.35 6.115-5.891 8.91-2.501l56.098 68.013zm-28.134-4.031c2.941 3.566-.046 8.883-4.621 8.227a5.058 5.058 0 01-3.185-1.789l-31.635-38.355a5.06 5.06 0 01-1.105-3.937c.623-4.35 6.115-5.891 8.91-2.501l31.636 38.355zm-44.965-5.014c.91-6.35 8.927-8.601 13.008-3.652 4.293 5.205-.066 12.967-6.745 12.01a7.386 7.386 0 01-6.263-8.358zm145.522-147.3c-.91 6.35-8.927 8.6-13.008 3.65-4.293-5.204.066-12.966 6.745-12.01a7.386 7.386 0 016.263 8.36z" fill="#E43B26" fill-opacity=".6"/>
  <defs>
    <filter id="filter0_d" x="9" y="0" width="228" height="281" filterUnits="userSpaceOnUse" color-interpolation-filters="sRGB">
      <feFlood flood-opacity="0" result="BackgroundImageFix"/>
      <feColorMatrix in="SourceAlpha" values="0 0 0 0 0 0 0 0 0 0 0 0 0 0 0 0 0 0 127 0"/>
      <feOffset dy="12"/>
      <feGaussianBlur stdDeviation="12"/>
      <feColorMatrix values="0 0 0 0 0.733333 0 0 0 0 0.474957 0 0 0 0 0 0 0 0 1 0"/>
      <feBlend in2="BackgroundImageFix" result="effect1_dropShadow"/>
      <feBlend in="SourceGraphic" in2="effect1_dropShadow" result="shape"/>
    </filter>
    <filter id="filter1_d" x="0" y="24" width="211.998" height="261.125" filterUnits="userSpaceOnUse" color-interpolation-filters="sRGB">
      <feFlood flood-opacity="0" result="BackgroundImageFix"/>
      <feColorMatrix in="SourceAlpha" values="0 0 0 0 0 0 0 0 0 0 0 0 0 0 0 0 0 0 127 0"/>
      <feOffset dy="4"/>
      <feGaussianBlur stdDeviation="4"/>
      <feColorMatrix values="0 0 0 0 0.2 0 0 0 0 0.211765 0 0 0 0 0.227451 0 0 0 0.13 0"/>
      <feBlend in2="BackgroundImageFix" result="effect1_dropShadow"/>
      <feBlend in="SourceGraphic" in2="effect1_dropShadow" result="shape"/>
    </filter>
    <filter id="filter2_d" x="0" y="24" width="211.998" height="261.125" filterUnits="userSpaceOnUse" color-interpolation-filters="sRGB">
      <feFlood flood-opacity="0" result="BackgroundImageFix"/>
      <feColorMatrix in="SourceAlpha" values="0 0 0 0 0 0 0 0 0 0 0 0 0 0 0 0 0 0 127 0"/>
      <feOffset dy="4"/>
      <feGaussianBlur stdDeviation="4"/>
      <feColorMatrix values="0 0 0 0 0.2 0 0 0 0 0.211765 0 0 0 0 0.227451 0 0 0 0.13 0"/>
      <feBlend in2="BackgroundImageFix" result="effect1_dropShadow"/>
      <feBlend in="SourceGraphic" in2="effect1_dropShadow" result="shape"/>
    </filter>
    <filter id="filter3_d" x="16" y="9" width="211.998" height="261.125" filterUnits="userSpaceOnUse" color-interpolation-filters="sRGB">
      <feFlood flood-opacity="0" result="BackgroundImageFix"/>
      <feColorMatrix in="SourceAlpha" values="0 0 0 0 0 0 0 0 0 0 0 0 0 0 0 0 0 0 127 0"/>
      <feOffset dy="4"/>
      <feGaussianBlur stdDeviation="4"/>
      <feColorMatrix values="0 0 0 0 0.2 0 0 0 0 0.211765 0 0 0 0 0.227451 0 0 0 0.13 0"/>
      <feBlend in2="BackgroundImageFix" result="effect1_dropShadow"/>
      <feBlend in="SourceGraphic" in2="effect1_dropShadow" result="shape"/>
    </filter>
    <filter id="filter4_d" x="53" y="10" width="219.07" height="266.321" filterUnits="userSpaceOnUse" color-interpolation-filters="sRGB">
      <feFlood flood-opacity="0" result="BackgroundImageFix"/>
      <feColorMatrix in="SourceAlpha" values="0 0 0 0 0 0 0 0 0 0 0 0 0 0 0 0 0 0 127 0"/>
      <feOffset dy="4"/>
      <feGaussianBlur stdDeviation="4"/>
      <feColorMatrix values="0 0 0 0 0.2 0 0 0 0 0.211765 0 0 0 0 0.227451 0 0 0 0.13 0"/>
      <feBlend in2="BackgroundImageFix" result="effect1_dropShadow"/>
      <feBlend in="SourceGraphic" in2="effect1_dropShadow" result="shape"/>
    </filter>
    <filter id="filter5_d" x="25" y="31" width="227.228" height="272.175" filterUnits="userSpaceOnUse" color-interpolation-filters="sRGB">
      <feFlood flood-opacity="0" result="BackgroundImageFix"/>
      <feColorMatrix in="SourceAlpha" values="0 0 0 0 0 0 0 0 0 0 0 0 0 0 0 0 0 0 127 0"/>
      <feOffset dy="4"/>
      <feGaussianBlur stdDeviation="4"/>
      <feColorMatrix values="0 0 0 0 0.2 0 0 0 0 0.211765 0 0 0 0 0.227451 0 0 0 0.13 0"/>
      <feBlend in2="BackgroundImageFix" result="effect1_dropShadow"/>
      <feBlend in="SourceGraphic" in2="effect1_dropShadow" result="shape"/>
    </filter>
  </defs>
</svg>
