<svg width="141" height="141" fill="none" xmlns="http://www.w3.org/2000/svg">
  <g id="Caterpie">
    <g id="Group 17" fill-rule="evenodd" clip-rule="evenodd">
      <path id="Shape" d="M121.471 82.755c0 21.461-22.866 38.861-51.073 38.861-28.209 0-51.074-17.4-51.074-38.861 0-21.463 22.865-47.182 51.074-47.182 28.207 0 51.073 25.719 51.073 47.182z" fill="#A2F255"/>
      <path id="Shape_2" d="M121.471 82.755c0 21.461-22.866 38.861-51.073 38.861-28.209 0-51.074-17.4-51.074-38.861 0-21.463 22.865-36.25 51.074-36.25 28.207 0 51.073 14.787 51.073 36.25z" fill="#83D839"/>
      <path id="Shape_3" d="M81.273 87.776c0 1.445-4.87 1.705-10.875 1.705-6.006 0-10.875-.26-10.875-1.705 0-1.447 4.869-5.229 10.875-5.229s10.875 3.782 10.875 5.229z" fill="#A2F255"/>
      <path id="Shape_4" d="M121.471 82.755c0 21.461-22.866 38.861-51.073 38.861-28.209 0-51.074-17.4-51.074-38.861 0-21.465 6.498 19.035 51.074 19.035 44.574 0 51.073-40.5 51.073-19.035z" fill="#20B518"/>
      <path id="Shape_5" d="M70.398 123.116c-28.99 0-52.574-18.106-52.574-40.361 0-22.05 23.452-48.682 52.574-48.682 13.52 0 26.72 5.673 37.167 15.974 9.646 9.512 15.406 21.738 15.406 32.708 0 22.255-23.584 40.361-52.573 40.361zm0-86.043c-27.461 0-49.574 24.99-49.574 45.682 0 20.602 22.239 37.361 49.574 37.361 27.335 0 49.573-16.76 49.573-37.361 0-20.692-22.113-45.682-49.573-45.682z" fill="#33363A"/>
      <path id="Shape_6" d="M87.246 109.247c0 8.281-7.543 14.994-16.848 14.994-9.307 0-16.85-6.713-16.85-14.994 0-8.281 7.543-18.201 16.85-18.201 9.305 0 16.848 9.92 16.848 18.201z" fill="#A2F255"/>
      <path id="Shape_7" d="M87.246 109.247c0 8.281-7.543 14.994-16.848 14.994-9.307 0-16.85-6.713-16.85-14.994 0-8.281 7.543-13.986 16.85-13.986 9.305 0 16.848 5.705 16.848 13.986z" fill="#83D839"/>
      <path id="Shape_8" d="M73.985 105.323c0 .559-1.606.66-3.587.66-1.98 0-3.588-.102-3.588-.66 0-.557 1.606-2.016 3.588-2.016 1.98.001 3.587 1.46 3.587 2.016z" fill="#FFF800"/>
      <path id="Shape_9" d="M87.246 109.247c0 8.281-7.543 14.994-16.848 14.994-9.307 0-16.85-6.713-16.85-14.994 0-8.281 2.145 7.346 16.85 7.346 14.703 0 16.848-15.627 16.848-7.346z" fill="#25931C"/>
      <path id="Shape_10" d="M70.398 125.741c-10.118 0-18.35-7.399-18.35-16.494 0-8.924 8.185-19.701 18.35-19.701 10.164 0 18.348 10.777 18.348 19.701 0 9.095-8.23 16.494-18.348 16.494zm0-33.195c-6.953 0-15.35 7.45-15.35 16.701 0 7.44 6.886 13.494 15.35 13.494 8.463 0 15.348-6.054 15.348-13.494 0-9.251-8.396-16.701-15.348-16.701z" fill="#33363A"/>
      <path id="Shape_11" d="M81.263 114.573c0 5.338-4.865 9.668-10.865 9.668-6.002 0-10.866-4.33-10.866-9.668 0-5.344 4.864-11.742 10.866-11.742 6 0 10.865 6.398 10.865 11.742z" fill="#A2F255"/>
      <path id="Shape_12" d="M81.263 114.573c0 5.338-4.865 9.668-10.865 9.668-6.002 0-10.866-4.33-10.866-9.668 0-5.344 4.864-9.021 10.866-9.021 6 0 10.865 3.677 10.865 9.021z" fill="#83D839"/>
      <path id="Shape_13" d="M72.71 112.04c0 .361-1.035.426-2.312.426-1.278 0-2.313-.064-2.313-.426 0-.359 1.035-1.299 2.313-1.299 1.277 0 2.312.94 2.312 1.299z" fill="#A2F255"/>
      <path id="Shape_14" d="M81.263 114.573c0 5.338-4.865 9.668-10.865 9.668-6.002 0-10.866-4.33-10.866-9.668 0-5.344 1.383 4.734 10.866 4.734 9.482.001 10.865-10.078 10.865-4.734z" fill="#20B518"/>
      <path id="Shape_15" d="M70.398 125.741c-6.819 0-12.366-5.01-12.366-11.168 0-6.124 5.402-13.242 12.366-13.242 6.964 0 12.365 7.118 12.365 13.242 0 6.158-5.547 11.168-12.365 11.168zm0-21.41c-5.044 0-9.366 5.632-9.366 10.242 0 4.504 4.202 8.168 9.366 8.168s9.365-3.664 9.365-8.168c0-4.61-4.321-10.242-9.365-10.242z" fill="#33363A"/>
      <path id="Shape_16" d="M56.837 81.677c0 9.934-8.049 17.975-17.977 17.975-9.926 0-17.973-8.041-17.973-17.975 0-9.928 8.047-17.975 17.973-17.975 9.929 0 17.977 8.047 17.977 17.975z" fill="#FFF800"/>
      <path id="Shape_17" d="M56.837 81.677c0 9.934-8.049 3.713-17.977 3.713-9.926 0-17.973 6.221-17.973-3.713 0-9.928 8.047-17.975 17.973-17.975 9.929 0 17.977 8.047 17.977 17.975z" fill="#FFB000"/>
      <path id="Shape_18" d="M38.861 101.151c-10.737 0-19.473-8.736-19.473-19.475s8.735-19.475 19.473-19.475c10.74 0 19.477 8.736 19.477 19.475 0 10.74-8.738 19.475-19.477 19.475zm0-35.949c-9.083 0-16.473 7.391-16.473 16.475 0 9.084 7.39 16.475 16.473 16.475 9.085 0 16.477-7.391 16.477-16.475 0-9.084-7.392-16.475-16.477-16.475z" fill="#33363A"/>
      <path id="Shape_19" d="M119.906 81.677c0 9.934-8.049 17.975-17.977 17.975-9.926 0-17.973-8.041-17.973-17.975 0-9.928 8.047-17.975 17.973-17.975 9.928 0 17.977 8.047 17.977 17.975z" fill="#FFF800"/>
      <path id="Shape_20" d="M119.906 81.677c0 9.934-8.049 3.713-17.977 3.713-9.926 0-17.973 6.221-17.973-3.713 0-9.928 8.047-17.975 17.973-17.975 9.928 0 17.977 8.047 17.977 17.975z" fill="#FFB000"/>
      <path id="Shape_21" d="M101.929 101.151c-10.737 0-19.473-8.736-19.473-19.475s8.735-19.475 19.473-19.475c10.739 0 19.477 8.736 19.477 19.475 0 10.74-8.738 19.475-19.477 19.475zm0-35.949c-9.083 0-16.473 7.391-16.473 16.475 0 9.084 7.39 16.475 16.473 16.475 9.085 0 16.477-7.391 16.477-16.475 0-9.084-7.391-16.475-16.477-16.475z" fill="#33363A"/>
      <path id="Shape_22" d="M49.349 81.677c0 5.795-4.695 10.486-10.488 10.486-5.789 0-10.484-4.691-10.484-10.486 0-5.793 4.695-10.484 10.484-10.484 5.793-.001 10.488 4.691 10.488 10.484z" fill="#6D5C4D"/>
      <path id="Shape_23" d="M49.349 81.677c0 5.795-4.695 2.166-10.488 2.166-5.789 0-10.484 3.629-10.484-2.166 0-5.793 4.695-10.484 10.484-10.484 5.793-.001 10.488 4.691 10.488 10.484z" fill="#33363A"/>
      <path id="Shape_24" d="M38.861 93.663c-6.608 0-11.984-5.377-11.984-11.986 0-6.608 5.376-11.984 11.984-11.984 6.61 0 11.988 5.376 11.988 11.984 0 6.609-5.378 11.986-11.988 11.986zm0-20.971c-4.954 0-8.984 4.03-8.984 8.984 0 4.955 4.03 8.986 8.984 8.986 4.956 0 8.988-4.031 8.988-8.986 0-4.953-4.032-8.984-8.988-8.984z" fill="#33363A"/>
      <path id="Oval" d="M33.647 82.54a4.272 4.272 0 100-8.543 4.272 4.272 0 000 8.544z" fill="#fff"/>
      <path id="Shape_25" d="M33.647 84.04a5.778 5.778 0 01-5.772-5.771 5.778 5.778 0 015.772-5.771 5.778 5.778 0 015.772 5.771 5.778 5.778 0 01-5.772 5.771zm0-8.543a2.774 2.774 0 00-2.772 2.771 2.775 2.775 0 002.772 2.771 2.775 2.775 0 002.772-2.771 2.774 2.774 0 00-2.772-2.771z" fill="#33363A"/>
      <path id="Shape_26" d="M112.418 81.677c0 5.795-4.695 10.486-10.484 10.486-5.793 0-10.487-4.691-10.487-10.486 0-5.793 4.694-10.484 10.487-10.484 5.788-.001 10.484 4.691 10.484 10.484z" fill="#6D5C4D"/>
      <path id="Shape_27" d="M112.418 81.677c0 5.795-4.695 2.166-10.484 2.166-5.793 0-10.487 3.629-10.487-2.166 0-5.793 4.694-10.484 10.487-10.484 5.788-.001 10.484 4.691 10.484 10.484z" fill="#33363A"/>
      <path id="Shape_28" d="M101.933 93.663c-6.61 0-11.987-5.377-11.987-11.986 0-6.608 5.377-11.984 11.987-11.984 6.608 0 11.984 5.376 11.984 11.984.001 6.609-5.375 11.986-11.984 11.986zm0-20.971c-4.956 0-8.987 4.03-8.987 8.984 0 4.955 4.032 8.986 8.987 8.986 4.954 0 8.984-4.031 8.984-8.986.001-4.953-4.03-8.984-8.984-8.984z" fill="#33363A"/>
      <path id="Oval_2" d="M96.717 82.54a4.272 4.272 0 100-8.543 4.272 4.272 0 000 8.544z" fill="#fff"/>
      <path id="Shape_29" d="M96.716 84.04a5.777 5.777 0 01-5.77-5.771 5.778 5.778 0 015.77-5.771 5.778 5.778 0 015.772 5.771 5.778 5.778 0 01-5.772 5.771zm0-8.543a2.774 2.774 0 00-2.77 2.771 2.774 2.774 0 002.77 2.771 2.774 2.774 0 002.772-2.771 2.774 2.774 0 00-2.772-2.771z" fill="#33363A"/>
      <path id="Shape_30" d="M133.16 21.413c0-17.328-28.098 12.561-62.761 12.561-34.664 0-62.765-29.889-62.765-12.561 0 15.561 22.658 28.471 52.375 30.947.916 5.75 5.217 19.908 10.389 19.908 5.17 0 9.471-14.158 10.389-19.908 29.716-2.474 52.373-15.384 52.373-30.947z" fill="#EA81BD"/>
      <path id="Shape_31" d="M70.4 43.099c-31.1 0-56.912-24.049-61.893-16.486 4.395 13.164 25.17 23.555 51.502 25.748.916 5.75 5.217 19.908 10.39 19.908 5.17 0 9.47-14.158 10.388-19.908 26.332-2.193 47.107-12.584 51.501-25.748-4.981-7.563-30.79 16.486-61.889 16.486z" fill="#CC549E"/>
      <path id="Shape_32" d="M70.398 73.769c-6.458 0-10.548-14.504-11.658-20.014C28.186 50.924 6.134 37.417 6.134 21.413c0-5.706 2.998-6.903 5.513-6.903 3.608 0 8.894 2.47 15.584 5.597 11.167 5.22 26.461 12.367 43.167 12.367 16.707 0 32.001-7.148 43.168-12.368 6.689-3.127 11.973-5.596 15.58-5.596 2.515 0 5.513 1.197 5.513 6.903 0 16.006-22.051 29.514-52.604 32.342-1.111 5.51-5.205 20.014-11.657 20.014zM11.647 17.51c-1.001 0-2.513 0-2.513 3.903 0 14.367 21.925 27.029 51 29.452a1.501 1.501 0 011.357 1.259c1.168 7.334 5.52 18.645 8.907 18.645 3.384 0 7.736-11.311 8.907-18.645a1.501 1.501 0 011.357-1.259c29.073-2.421 50.998-15.083 50.998-29.452 0-3.903-1.512-3.903-2.513-3.903-2.941 0-8.209 2.462-14.31 5.313-11.421 5.339-27.064 12.65-44.438 12.65-17.372 0-33.015-7.311-44.438-12.649-6.102-2.851-11.372-5.314-14.314-5.314z" fill="#33363A"/>
      <path id="Shape_33" d="M66.013 60.499a1.5 1.5 0 01-1.5-1.5 5.279 5.279 0 00-5.273-5.273 1.5 1.5 0 110-3c4.562 0 8.273 3.712 8.273 8.273a1.5 1.5 0 01-1.5 1.5z" fill="#33363A"/>
      <path id="Shape_34" d="M74.783 60.499a1.5 1.5 0 01-1.5-1.5c0-4.562 3.71-8.273 8.271-8.273a1.5 1.5 0 110 3 5.277 5.277 0 00-5.271 5.273 1.5 1.5 0 01-1.5 1.5z" fill="#33363A"/>
    </g>
  </g>
</svg>
