<svg width="141" height="141" fill="none" xmlns="http://www.w3.org/2000/svg">
  <g id="Charmander">
    <g id="Group 5" fill-rule="evenodd" clip-rule="evenodd">
      <path id="Shape" d="M46.286 19.887c-2.965 5.133-3.018 11.145-.68 16.135 5.49-.47 10.67-3.52 13.635-8.656 2.963-5.133 3.018-11.145.68-16.135-5.49.468-10.672 3.523-13.635 8.656z" fill="#FFD400"/>
      <path id="Shape_2" d="M45.606 36.022c5.49-.47 10.67-3.52 13.635-8.656 2.963-5.133 3.018-11.145.68-16.135" fill="#FFC200"/>
      <path id="Shape_3" d="M46.493 24.383a11.76 11.76 0 00-.459 10.9 11.77 11.77 0 009.21-5.848c2-3.467 2.036-7.527.456-10.896-3.707.317-7.207 2.377-9.207 5.844z" fill="#FF5B00"/>
      <path id="Shape_4" d="M46.034 35.283a11.77 11.77 0 009.21-5.848c2-3.467 2.036-7.527.456-10.896" fill="#FF7900"/>
      <path id="Shape_5" d="M45.606 37.522a1.5 1.5 0 01-1.358-.863 18.965 18.965 0 01.74-17.52 18.959 18.959 0 0114.805-9.4 1.494 1.494 0 011.486.856 18.968 18.968 0 01-.739 17.521 18.971 18.971 0 01-14.806 9.4 1.387 1.387 0 01-.128.006zm13.378-24.67a15.958 15.958 0 00-11.399 7.785A15.96 15.96 0 0046.542 34.4a15.965 15.965 0 0011.4-7.784 15.97 15.97 0 001.042-13.764z" fill="#33363A"/>
      <path id="Shape_6" d="M54.69 22.625c-5.135 2.963-8.186 8.143-8.656 13.633 4.99 2.338 11.002 2.285 16.137-.678 5.133-2.965 8.186-8.145 8.656-13.635-4.99-2.337-11.004-2.285-16.137.68z" fill="#FFD400"/>
      <path id="Shape_7" d="M46.034 36.258c4.99 2.338 11.002 2.285 16.137-.678 5.133-2.965 8.186-8.145 8.656-13.635" fill="#FFC200"/>
      <path id="Shape_8" d="M52.62 26.623a11.759 11.759 0 00-5.846 9.21 11.768 11.768 0 0010.898-.46 11.766 11.766 0 005.844-9.209c-3.367-1.578-7.429-1.545-10.896.46z" fill="#FF5B00"/>
      <path id="Shape_9" d="M46.774 35.832a11.768 11.768 0 0010.898-.459 11.766 11.766 0 005.844-9.209" fill="#FF7900"/>
      <path id="Shape_10" d="M53.475 39.416c-2.77 0-5.564-.622-8.077-1.8a1.5 1.5 0 01-.858-1.486 18.964 18.964 0 019.401-14.804 18.913 18.913 0 019.447-2.539c2.77 0 5.562.622 8.076 1.8a1.5 1.5 0 01.858 1.486 18.977 18.977 0 01-9.4 14.806 18.938 18.938 0 01-9.447 2.537zm-5.819-4.094a16.139 16.139 0 005.818 1.095c2.777 0 5.525-.738 7.946-2.135a15.972 15.972 0 007.784-11.399c-4.45-1.728-9.623-1.352-13.763 1.041a15.956 15.956 0 00-7.785 11.398z" fill="#33363A"/>
      <path id="Shape_11" d="M70.391 87.35C52.421 85.946 38.993 70.24 40.4 52.268c.463-5.939 2.516-11.365 5.671-15.94-12.3 3.895-21.634 14.907-22.702 28.563-1.405 17.97 12.023 33.676 29.994 35.082 12.03.939 23.02-4.787 29.41-14.053a32.495 32.495 0 01-12.38 1.43z" fill="#E86207"/>
      <path id="Shape_12" d="M38.064 40.147a32.422 32.422 0 00-5.436 15.613C31.223 73.73 44.65 89.436 62.621 90.84c7.164.561 13.95-1.258 19.625-4.768a32.487 32.487 0 01-11.855 1.277C52.421 85.945 38.993 70.24 40.4 52.267c.463-5.939 2.516-11.365 5.671-15.94a32.71 32.71 0 00-8.006 3.82z" fill="#F77819"/>
      <path id="Shape_13" d="M55.931 101.573c-.89 0-1.794-.035-2.686-.105C34.48 100 20.406 83.539 21.872 64.774c1.09-13.926 10.41-25.653 23.745-29.877a1.5 1.5 0 011.688 2.281 31.09 31.09 0 00-5.41 15.206c-.649 8.293 1.97 16.341 7.375 22.662 5.404 6.322 12.947 10.16 21.24 10.81 3.98.31 7.98-.153 11.811-1.365a1.5 1.5 0 011.688 2.281c-6.395 9.268-16.89 14.801-28.078 14.801zM42.54 39.321C32.53 44.057 25.745 53.744 24.864 65.01c-1.338 17.115 11.5 32.13 28.616 33.47.814.063 1.64.096 2.452.096 8.77 0 17.074-3.73 22.938-10.15a33.898 33.898 0 01-8.595.422c-9.09-.71-17.36-4.918-23.286-11.849-5.925-6.93-8.796-15.755-8.085-24.846a33.98 33.98 0 013.635-12.83z" fill="#33363A"/>
      <path id="Shape_14" d="M115.052 95.153c0 20.676-22.032 37.441-49.209 37.441-27.178 0-49.209-16.766-49.209-37.44 0-20.68 22.031-45.46 49.21-45.46 27.176 0 49.208 24.78 49.208 45.46z" fill="#FFAD40"/>
      <path id="Shape_15" d="M115.052 95.153c0 20.676-22.032 37.441-49.209 37.441-27.178 0-49.209-16.766-49.209-37.44 0-20.68 22.031-34.929 49.21-34.929 27.176 0 49.208 14.248 49.208 34.928z" fill="#F77819"/>
      <path id="Shape_16" d="M76.28 89.297c0 1.395-4.69 1.645-10.479 1.645-5.788 0-10.479-.25-10.479-1.645 0-1.393 4.691-5.035 10.48-5.035 5.787 0 10.478 3.643 10.478 5.035z" fill="#FFAD40"/>
      <path id="Shape_17" d="M115.052 95.153c0 20.676-22.032 37.441-49.209 37.441-27.178 0-49.209-16.766-49.209-37.44 0-20.683 6.261 18.339 49.21 18.339 42.947 0 49.208-39.022 49.208-18.34z" fill="#E86207"/>
      <path id="Shape_18" d="M65.843 134.094c-27.96 0-50.709-17.469-50.709-38.94 0-21.27 22.62-46.96 50.71-46.96 13.04 0 25.771 5.472 35.848 15.406 9.305 9.174 14.86 20.97 14.86 31.553 0 21.472-22.748 38.941-50.709 38.941zm0-82.9c-26.428 0-47.709 24.048-47.709 43.96 0 19.817 21.402 35.94 47.71 35.94 26.306 0 47.708-16.123 47.708-35.94 0-19.913-21.28-43.96-47.709-43.96z" fill="#33363A"/>
      <path id="Shape_19" d="M49.681 81.06a8.05 8.05 0 01-8.052 8.05 8.049 8.049 0 01-8.05-8.05 8.05 8.05 0 018.05-8.052 8.051 8.051 0 018.052 8.051z" fill="#1362A8"/>
      <path id="Shape_20" d="M49.681 81.06c0 4.448-3.605 1.663-8.052 1.663-4.447 0-8.05 2.785-8.05-1.664a8.05 8.05 0 018.05-8.05 8.051 8.051 0 018.052 8.05z" fill="#33363A"/>
      <path id="Shape_21" d="M41.63 90.61c-5.267 0-9.552-4.284-9.552-9.55 0-5.268 4.285-9.552 9.551-9.552 5.267 0 9.552 4.284 9.552 9.551s-4.284 9.551-9.552 9.551zm0-16.102a6.558 6.558 0 00-6.552 6.551 6.557 6.557 0 006.551 6.551 6.558 6.558 0 006.552-6.55 6.558 6.558 0 00-6.552-6.552z" fill="#33363A"/>
      <path id="Oval" d="M37.625 81.723a3.28 3.28 0 100-6.562 3.28 3.28 0 000 6.562z" fill="#fff"/>
      <path id="Shape_22" d="M37.625 83.223a4.786 4.786 0 01-4.78-4.78 4.785 4.785 0 014.78-4.78 4.786 4.786 0 014.781 4.78 4.787 4.787 0 01-4.78 4.78zm0-6.56c-.98 0-1.78.797-1.78 1.778 0 .982.8 1.781 1.78 1.781.982 0 1.781-.799 1.781-1.78 0-.982-.799-1.78-1.78-1.78z" fill="#33363A"/>
      <path id="Shape_23" d="M98.108 81.06a8.049 8.049 0 01-8.05 8.05 8.05 8.05 0 01-8.053-8.05 8.05 8.05 0 018.052-8.052 8.05 8.05 0 018.051 8.051z" fill="#1362A8"/>
      <path id="Shape_24" d="M98.108 81.06c0 4.448-3.604 1.663-8.05 1.663-4.448 0-8.053 2.785-8.053-1.664a8.05 8.05 0 018.052-8.05 8.05 8.05 0 018.051 8.05z" fill="#33363A"/>
      <path id="Shape_25" d="M90.057 90.61c-5.267 0-9.552-4.284-9.552-9.55 0-5.268 4.285-9.552 9.552-9.552 5.266 0 9.551 4.284 9.551 9.551s-4.285 9.551-9.55 9.551zm0-16.102a6.558 6.558 0 00-6.552 6.551 6.558 6.558 0 006.552 6.551 6.558 6.558 0 006.551-6.55 6.557 6.557 0 00-6.55-6.552z" fill="#33363A"/>
      <path id="Oval_2" d="M86.052 81.722a3.28 3.28 0 100-6.56 3.28 3.28 0 000 6.56z" fill="#fff"/>
      <path id="Shape_26" d="M86.053 83.223a4.787 4.787 0 01-4.78-4.78 4.785 4.785 0 014.78-4.78 4.785 4.785 0 014.78 4.78 4.784 4.784 0 01-4.78 4.78zm0-6.56c-.982 0-1.78.797-1.78 1.778 0 .982.798 1.781 1.78 1.781a1.78 1.78 0 000-3.56z" fill="#33363A"/>
      <path id="Shape_27" d="M64.322 105.533c-.226-.901-2.798-3.209-11.883-3.062-13.746.248-18.002-8.107-18.176-8.462a1.5 1.5 0 012.691-1.326c.154.305 3.693 6.996 15.437 6.788 1.468-.02 14.381-.062 14.904 5.688l-2.987.271c0 .001-.002.038.014.103z" fill="#33363A"/>
      <path id="Shape_28" d="M67.365 105.533c.016-.065.014-.103.014-.103l-2.987-.271c.523-5.75 13.436-5.703 14.905-5.688.16.003.318.004.475.004 11.504 0 14.924-6.715 14.958-6.784a1.5 1.5 0 112.695 1.32c-.174.353-4.41 8.705-18.175 8.461-9.068-.173-11.66 2.16-11.885 3.061z" fill="#33363A"/>
      <path id="Shape_29" d="M63.376 97.35c-.398 0-.796-.157-1.09-.47l-1.5-1.588a1.5 1.5 0 112.18-2.06l1.5 1.588a1.5 1.5 0 01-1.09 2.53z" fill="#33363A"/>
      <path id="Shape_30" d="M68.311 97.35a1.498 1.498 0 01-1.09-2.53l1.5-1.588a1.5 1.5 0 012.181 2.06l-1.5 1.588c-.295.313-.693.47-1.09.47z" fill="#33363A"/>
      <path id="Shape_31" d="M43.607 100.801l-5.054 2.975-.357-5.852" fill="#fff"/>
      <path id="Shape_32" d="M38.553 105.276a1.499 1.499 0 01-1.497-1.408l-.357-5.852a1.5 1.5 0 012.994-.184l.208 3.409 2.945-1.733a1.5 1.5 0 011.521 2.586l-5.054 2.975a1.503 1.503 0 01-.76.207z" fill="#33363A"/>
      <path id="Shape_33" d="M88.08 100.801l5.053 2.975.358-5.852" fill="#fff"/>
      <path id="Shape_34" d="M93.133 105.276c-.263 0-.526-.069-.76-.207l-5.055-2.975a1.5 1.5 0 011.521-2.586l2.945 1.733.208-3.409a1.51 1.51 0 011.588-1.405 1.5 1.5 0 011.406 1.59l-.357 5.851a1.5 1.5 0 01-1.496 1.408z" fill="#33363A"/>
      <path id="Shape_35" d="M53.448 22.324c0 5.928-2.96 11.16-7.48 14.312-4.52-3.152-7.479-8.385-7.479-14.312s2.96-11.162 7.48-14.314c4.52 3.152 7.48 8.387 7.48 14.314z" fill="#FFD400"/>
      <path id="Shape_36" d="M45.967 36.637c-4.52-3.152-7.479-8.385-7.479-14.312s2.96-11.162 7.48-14.314" fill="#FFC200"/>
      <path id="Shape_37" d="M51.02 26.115c0 4.006-2 7.54-5.053 9.668a11.761 11.761 0 01-5.05-9.668c0-4.002 1.997-7.537 5.05-9.664a11.76 11.76 0 015.053 9.664z" fill="#FF5B00"/>
      <path id="Shape_38" d="M45.967 35.783a11.761 11.761 0 01-5.05-9.668c0-4.002 1.997-7.537 5.05-9.664" fill="#FF7900"/>
      <path id="Shape_39" d="M45.967 38.137c-.3 0-.6-.09-.858-.27a18.969 18.969 0 01-8.122-15.543A18.968 18.968 0 0145.11 6.78a1.502 1.502 0 011.716 0 18.97 18.97 0 018.123 15.545 18.967 18.967 0 01-8.123 15.543c-.258.18-.557.27-.858.27zm0-28.255a15.966 15.966 0 00-5.979 12.442c0 4.848 2.217 9.422 5.98 12.44a15.963 15.963 0 005.98-12.44 15.96 15.96 0 00-5.98-12.442z" fill="#33363A"/>
      <path id="Shape_40" d="M105.588 31.56c0 5.927-2.96 11.16-7.48 14.311-4.52-3.152-7.479-8.385-7.479-14.312s2.96-11.162 7.48-14.314c4.52 3.152 7.479 8.386 7.479 14.314z" fill="#FFD400"/>
      <path id="Shape_41" d="M98.108 45.871c-4.52-3.152-7.479-8.385-7.479-14.312s2.96-11.162 7.48-14.314" fill="#FFC200"/>
      <path id="Shape_42" d="M103.161 35.35c0 4.006-2 7.54-5.053 9.668a11.761 11.761 0 01-5.05-9.668c0-4.002 1.997-7.537 5.05-9.664a11.758 11.758 0 015.053 9.664z" fill="#FF5B00"/>
      <path id="Shape_43" d="M98.108 45.018a11.761 11.761 0 01-5.05-9.668c0-4.002 1.997-7.537 5.05-9.664" fill="#FF7900"/>
      <path id="Shape_44" d="M98.108 47.371c-.3 0-.6-.09-.858-.27a18.969 18.969 0 01-8.122-15.543 18.968 18.968 0 018.122-15.545 1.502 1.502 0 011.716 0 18.97 18.97 0 018.123 15.545 18.968 18.968 0 01-8.123 15.543c-.258.18-.558.27-.858.27zm0-28.255a15.966 15.966 0 00-5.979 12.442c0 4.848 2.217 9.422 5.98 12.44a15.964 15.964 0 005.979-12.44c0-4.848-2.217-9.423-5.98-12.442z" fill="#33363A"/>
      <path id="Shape_45" d="M125.249 55.254c0 5.928-2.961 11.16-7.481 14.312-4.52-3.152-7.479-8.385-7.479-14.312s2.96-11.162 7.479-14.314c4.52 3.152 7.481 8.386 7.481 14.314z" fill="#FFD400"/>
      <path id="Shape_46" d="M117.767 69.567c-4.52-3.152-7.479-8.385-7.479-14.312s2.96-11.162 7.479-14.314" fill="#FFC200"/>
      <path id="Shape_47" d="M122.819 59.045c0 4.006-1.999 7.54-5.052 9.668a11.764 11.764 0 01-5.052-9.668c0-4.002 2-7.537 5.052-9.664a11.757 11.757 0 015.052 9.664z" fill="#FF5B00"/>
      <path id="Shape_48" d="M117.767 68.713a11.764 11.764 0 01-5.052-9.668c0-4.002 2-7.537 5.052-9.664" fill="#FF7900"/>
      <path id="Shape_49" d="M117.767 71.067c-.3 0-.6-.09-.858-.27a18.969 18.969 0 01-8.122-15.543 18.968 18.968 0 018.122-15.545 1.502 1.502 0 011.716 0 18.968 18.968 0 018.124 15.545 18.965 18.965 0 01-8.124 15.543c-.258.18-.558.27-.858.27zm0-28.255a15.966 15.966 0 00-5.979 12.442c0 4.848 2.217 9.422 5.979 12.44a15.962 15.962 0 005.981-12.44 15.96 15.96 0 00-5.981-12.442z" fill="#33363A"/>
    </g>
  </g>
</svg>
