<svg width="141" height="141" fill="none" xmlns="http://www.w3.org/2000/svg">
  <g id="Dratini">
    <g id="Group 13" fill-rule="evenodd" clip-rule="evenodd">
      <path id="Shape" d="M90.944 132.854c1.508-21.699 5.67-31.811 11.326-37.834h-64.1c5.659 6.023 9.819 16.135 11.32 37.834h41.454z" fill="#1A93D6"/>
      <path id="Shape_2" d="M81.003 132.854c.784-21.699 2.95-31.811 5.894-37.834h-33.35c2.943 6.023 5.108 16.135 5.89 37.834h21.566z" fill="#fff"/>
      <path id="Shape_3" d="M57.895 112.069a62.32 62.32 0 0012.326 1.219c4.257 0 8.387-.426 12.327-1.219 1.077-8.275 2.57-13.41 4.349-17.05h-33.35c1.778 3.64 3.272 8.774 4.348 17.05z" fill="#D9E7E8"/>
      <path id="Shape_4" d="M90.946 134.354a1.5 1.5 0 01-1.498-1.604c1.214-17.477 4.218-28.87 9.63-36.23H41.364c5.413 7.359 8.415 18.753 9.624 36.23a1.5 1.5 0 01-1.393 1.6c-.813.082-1.543-.565-1.6-1.393-1.308-18.881-4.674-30.264-10.918-36.91a1.501 1.501 0 011.094-2.527h64.099a1.5 1.5 0 011.094 2.526c-6.243 6.648-9.611 18.032-10.924 36.911a1.5 1.5 0 01-1.494 1.397z" fill="#33363A"/>
      <path id="Shape_5" d="M119.43 67.06c0 20.677-22.032 37.442-49.21 37.442-27.177 0-49.208-16.766-49.208-37.441 0-20.68 22.03-45.46 49.209-45.46 27.177 0 49.209 24.78 49.209 45.46z" fill="#77D6FC"/>
      <path id="Shape_6" d="M119.43 67.06c0 20.677-22.032 37.442-49.21 37.442-27.177 0-49.208-16.766-49.208-37.441 0-20.68 22.03-34.928 49.209-34.928 27.177 0 49.209 14.248 49.209 34.928z" fill="#42B1E8"/>
      <path id="Shape_7" d="M80.7 77.698c0 1.393-4.691 1.643-10.48 1.643-5.787 0-10.478-.25-10.478-1.643 0-1.395 4.69-5.037 10.479-5.037 5.788 0 10.479 3.642 10.479 5.037z" fill="#77D6FC"/>
      <path id="Shape_8" d="M119.43 67.06c0 20.677-22.032 37.942-49.21 37.942-27.177 0-49.208-17.266-49.208-37.941 0-20.682 6.26 18.34 49.209 18.34 42.947 0 49.209-39.022 49.209-18.34z" fill="#1A93D6"/>
      <path id="Shape_9" d="M44.004 100.241a1.5 1.5 0 01-.648-.147c-14.931-7.172-23.844-19.52-23.844-33.033 0-21.27 22.619-46.96 50.709-46.96 13.04 0 25.772 5.473 35.849 15.407 9.306 9.174 14.86 20.97 14.86 31.553 0 13.515-8.914 25.862-23.844 33.03a1.5 1.5 0 01-1.3-2.705c13.866-6.656 22.144-17.993 22.144-30.325 0-19.911-21.281-43.96-47.71-43.96-26.427 0-47.708 24.049-47.708 43.96 0 12.332 8.277 23.669 22.143 30.327a1.5 1.5 0 01-.651 2.853z" fill="#33363A"/>
      <path id="Shape_10" d="M54.059 71.877a8.05 8.05 0 01-8.053 8.05 8.05 8.05 0 01-8.051-8.05 8.053 8.053 0 0116.104 0z" fill="#465652"/>
      <path id="Shape_11" d="M54.059 71.877c0 4.449-3.605 1.664-8.053 1.664-4.446 0-8.051 2.785-8.051-1.664a8.053 8.053 0 0116.104 0z" fill="#33363A"/>
      <path id="Shape_12" d="M46.006 81.428c-5.267 0-9.551-4.284-9.551-9.551s4.284-9.551 9.55-9.551c5.269 0 9.554 4.284 9.554 9.55 0 5.268-4.285 9.552-9.553 9.552zm0-16.101a6.558 6.558 0 00-6.551 6.55 6.557 6.557 0 006.55 6.552 6.56 6.56 0 006.554-6.551 6.56 6.56 0 00-6.553-6.551z" fill="#33363A"/>
      <path id="Oval" d="M42.003 72.54a3.281 3.281 0 100-6.561 3.281 3.281 0 000 6.562z" fill="#fff"/>
      <path id="Shape_13" d="M42.002 74.04a4.786 4.786 0 01-4.78-4.78 4.785 4.785 0 014.78-4.78 4.785 4.785 0 014.78 4.78 4.785 4.785 0 01-4.78 4.78zm0-6.56c-.981 0-1.78.799-1.78 1.78 0 .982.799 1.78 1.78 1.78.982 0 1.78-.798 1.78-1.78 0-.981-.797-1.78-1.78-1.78z" fill="#33363A"/>
      <path id="Shape_14" d="M102.486 71.877a8.05 8.05 0 01-8.051 8.05 8.05 8.05 0 01-8.052-8.05 8.052 8.052 0 0116.103 0z" fill="#465652"/>
      <path id="Shape_15" d="M102.486 71.877c0 4.449-3.604 1.664-8.051 1.664s-8.052 2.785-8.052-1.664a8.052 8.052 0 0116.103 0z" fill="#33363A"/>
      <path id="Shape_16" d="M94.435 81.428c-5.267 0-9.552-4.284-9.552-9.551s4.285-9.551 9.552-9.551c5.267 0 9.551 4.284 9.551 9.55 0 5.268-4.285 9.552-9.551 9.552zm0-16.101a6.559 6.559 0 00-6.552 6.55 6.558 6.558 0 006.552 6.552 6.558 6.558 0 006.551-6.551 6.558 6.558 0 00-6.551-6.551z" fill="#33363A"/>
      <path id="Oval_2" d="M90.43 72.54a3.28 3.28 0 100-6.56 3.28 3.28 0 000 6.56z" fill="#fff"/>
      <path id="Shape_17" d="M90.43 74.04a4.786 4.786 0 01-4.78-4.78 4.785 4.785 0 014.78-4.78 4.785 4.785 0 014.78 4.78 4.785 4.785 0 01-4.78 4.78zm0-6.56c-.981 0-1.78.799-1.78 1.78 0 .982.799 1.78 1.78 1.78.98 0 1.78-.798 1.78-1.78 0-.981-.8-1.78-1.78-1.78z" fill="#33363A"/>
      <path id="Shape_18" d="M88.555 87.244c0 6.256-8.21 11.33-18.334 11.33-10.125 0-18.332-5.074-18.332-11.33 0-6.258 8.207-5.861 18.332-5.861s18.334-.396 18.334 5.86z" fill="#D9E7E8"/>
      <path id="Shape_19" d="M88.555 87.244c0 6.256-8.21 11.33-18.334 11.33-10.125 0-18.332-5.074-18.332-11.33 0-6.258 8.207-1.5 18.332-1.5s18.334-4.757 18.334 1.5z" fill="#fff"/>
      <path id="Shape_20" d="M70.22 100.075c-11.12 0-19.831-5.636-19.831-12.83 0-7.366 8.765-7.366 16.498-7.366l3.334.005 3.335-.005c7.733 0 16.499 0 16.499 7.366 0 7.194-8.712 12.83-19.834 12.83zm-3.333-17.197c-9.334 0-13.498.63-13.498 4.366 0 5.328 7.708 9.83 16.832 9.83 9.125 0 16.834-4.502 16.834-9.83 0-3.736-4.164-4.366-13.5-4.366l-3.334.005-3.334-.005z" fill="#33363A"/>
      <path id="Shape_21" d="M27.368 9.01c-4.703 0-8.517 12.098-8.517 27.02a86.3 86.3 0 00.146 4.97c-4.36-4.738-8.594-7.291-10.45-5.957-2.407 1.73.094 9.324 5.583 16.959 4.764 6.627 10.208 11.1 13.14 11.04.033.003.065.009.098.009 4.704 0 8.517-12.098 8.517-27.02 0-14.923-3.812-27.021-8.517-27.021z" fill="#fff"/>
      <path id="Shape_22" d="M9.068 43.133c1.115 2.693 2.839 5.773 5.063 8.869 4.764 6.627 10.208 11.1 13.14 11.04.033.003.065.009.098.009 4.257 0 7.784-9.91 8.415-22.854-.631-12.945-4.158-22.854-8.415-22.854-4.246 0-7.766 9.86-8.41 22.76.015.297.022.602.04.896l-.074-.078a84.363 84.363 0 00.074 8.412c-3.995-4.342-7.88-6.84-9.931-6.2z" fill="#D9E7E8"/>
      <path id="Shape_23" d="M27.368 64.55c-.044 0-.126-.004-.185-.01-4.17-.105-10.136-5.91-14.271-11.662-2.742-3.814-4.858-7.756-5.96-11.101-1.636-4.97-.512-7.067.719-7.952.587-.421 1.288-.635 2.085-.635 2.447 0 5.366 2.084 7.604 4.084-.007-.416-.01-.831-.01-1.243 0-18.725 5.039-28.521 10.017-28.521s10.018 9.797 10.018 28.522c0 18.723-5.04 28.519-10.017 28.519zM9.757 36.19c-.088 0-.248.01-.334.07-.236.17-.674 1.377.38 4.579 1.008 3.062 2.978 6.716 5.546 10.287 4.688 6.52 9.714 10.418 11.865 10.418.03 0 .118 0 .148.002l.053.004c2.859-.107 6.97-10.025 6.97-25.52 0-15.578-4.155-25.52-7.017-25.52s-7.017 9.942-7.017 25.52c0 1.599.049 3.24.144 4.883a1.499 1.499 0 01-2.6 1.103c-3.702-4.024-6.755-5.825-8.138-5.825z" fill="#33363A"/>
      <path id="Shape_24" d="M23.852 49.397h-.744a5.507 5.507 0 01-5.5-5.5v-3.115a1.5 1.5 0 013 0v3.115c0 1.379 1.12 2.5 2.5 2.5h.744c1.379 0 2.5-1.121 2.5-2.5v-3.115a1.5 1.5 0 013 0v3.115c0 3.032-2.468 5.5-5.5 5.5z" fill="#33363A"/>
      <path id="Shape_25" d="M113.073 9.01c4.703 0 8.517 12.098 8.517 27.02 0 1.698-.052 3.358-.146 4.97 4.358-4.738 8.593-7.291 10.449-5.957 2.407 1.73-.094 9.324-5.583 16.959-4.763 6.627-10.208 11.1-13.14 11.04-.033.003-.064.009-.098.009-4.703 0-8.516-12.098-8.516-27.02.001-14.923 3.813-27.021 8.517-27.021z" fill="#fff"/>
      <path id="Shape_26" d="M131.373 43.133c-1.115 2.693-2.838 5.773-5.063 8.869-4.763 6.627-10.208 11.1-13.14 11.04-.033.003-.064.009-.098.009-4.256 0-7.783-9.91-8.415-22.854.632-12.945 4.159-22.854 8.415-22.854 4.246 0 7.766 9.86 8.41 22.76-.014.297-.022.602-.039.896.024-.027.049-.053.074-.078.045 1.127.071 2.275.071 3.44 0 1.7-.052 3.36-.146 4.972 3.996-4.342 7.881-6.84 9.931-6.2z" fill="#D9E7E8"/>
      <path id="Shape_27" d="M113.073 64.55c-4.978 0-10.016-9.795-10.016-28.52 0-18.724 5.038-28.52 10.016-28.52s10.017 9.797 10.017 28.52c0 .414-.003.828-.009 1.245 2.237-2.001 5.156-4.085 7.604-4.085.797 0 1.498.214 2.084.635 1.231.885 2.355 2.982.72 7.952-1.102 3.345-3.218 7.286-5.96 11.1-4.173 5.807-10.213 11.666-14.3 11.667a1.477 1.477 0 01-.156.007zm0-54.04c-2.86 0-7.016 9.942-7.016 25.52 0 15.497 4.111 25.416 6.971 25.52a2.237 2.237 0 01.173-.007c2.179 0 7.205-3.896 11.892-10.416 2.568-3.572 4.538-7.226 5.546-10.288 1.054-3.202.616-4.408.379-4.578-.085-.062-.245-.07-.333-.07-1.383 0-4.435 1.8-8.137 5.825a1.499 1.499 0 01-2.6-1.103c.095-1.631.143-3.273.143-4.882-.002-15.578-4.157-25.521-7.018-25.521z" fill="#33363A"/>
      <path id="Shape_28" d="M117.333 49.397h-.744a5.507 5.507 0 01-5.5-5.5v-3.115a1.5 1.5 0 013 0v3.115c0 1.379 1.121 2.5 2.5 2.5h.744c1.379 0 2.5-1.121 2.5-2.5v-3.115a1.5 1.5 0 013 0v3.115c0 3.032-2.467 5.5-5.5 5.5z" fill="#33363A"/>
      <path id="Oval_3" d="M70.22 56.354a5.307 5.307 0 100-10.614 5.307 5.307 0 000 10.614z" fill="#fff"/>
      <path id="Shape_29" d="M64.914 51.047a5.307 5.307 0 1110.614 0" fill="#D9E7E8"/>
      <path id="Shape_30" d="M70.22 57.854a6.815 6.815 0 01-6.806-6.807 6.815 6.815 0 016.807-6.807 6.815 6.815 0 016.807 6.807 6.815 6.815 0 01-6.807 6.807zm0-10.613a3.812 3.812 0 00-3.806 3.807 3.812 3.812 0 003.807 3.807 3.812 3.812 0 003.807-3.807 3.812 3.812 0 00-3.807-3.807z" fill="#33363A"/>
      <path id="Shape_31" d="M75.528 52.547a1.5 1.5 0 01-1.5-1.5 3.812 3.812 0 00-3.807-3.807 3.812 3.812 0 00-3.807 3.807 1.5 1.5 0 01-3 0 6.815 6.815 0 016.807-6.807 6.815 6.815 0 016.807 6.807 1.5 1.5 0 01-1.5 1.5z" fill="#33363A"/>
    </g>
  </g>
</svg>
