<svg width="141" height="141" fill="none" xmlns="http://www.w3.org/2000/svg">
  <g id="Eevee">
    <g id="Group 6" fill-rule="evenodd" clip-rule="evenodd">
      <path id="Shape" d="M122.154 97.68c0 16.235-22.949 34.931-51.26 34.931-28.311 0-51.26-18.695-51.26-34.932 0-16.238 22.949-29.402 51.26-29.402 28.311 0 51.26 13.164 51.26 29.402z" fill="#FFECD2"/>
      <path id="Shape_2" d="M122.154 97.68c0 16.235-22.949 29.265-51.26 29.265-28.311 0-51.26-13.029-51.26-29.266 0-16.238 22.949-29.402 51.26-29.402 28.311 0 51.26 13.164 51.26 29.402z" fill="#EFC99A"/>
      <path id="Shape_3" d="M70.894 134.111c-29.713 0-52.76-19.584-52.76-36.432 0-17.04 23.668-30.902 52.76-30.902s52.76 13.862 52.76 30.902c0 16.848-23.047 36.432-52.76 36.432zm0-64.334c-27.438 0-49.76 12.517-49.76 27.902 0 18.519 27.222 33.432 49.76 33.432 22.538 0 49.76-14.913 49.76-33.432 0-15.386-22.322-27.902-49.76-27.902z" fill="#33363A"/>
      <path id="Shape_4" d="M120.103 86.124c0 20.676-22.03 37.441-49.209 37.441-27.178 0-49.209-16.766-49.209-37.441 0-20.68 22.031-45.46 49.21-45.46 27.177 0 49.208 24.78 49.208 45.46z" fill="#E5B076"/>
      <path id="Shape_5" d="M120.103 86.124c0 20.676-22.03 37.441-49.209 37.441-27.178 0-49.209-16.766-49.209-37.441 0-20.68 22.031-34.928 49.21-34.928 27.177 0 49.208 14.248 49.208 34.928z" fill="#D3964C"/>
      <path id="Shape_6" d="M81.373 90.08c0 1.394-4.691 1.644-10.478 1.644s-10.479-.25-10.479-1.644 4.691-5.037 10.479-5.037c5.786 0 10.478 3.642 10.478 5.037z" fill="#E5B076"/>
      <path id="Shape_7" d="M120.103 86.124c0 20.676-22.03 37.441-49.209 37.441-27.178 0-49.209-16.766-49.209-37.441 0-20.682 6.262 18.34 49.21 18.34 42.946 0 49.208-39.022 49.208-18.34z" fill="#C4833D"/>
      <path id="Shape_8" d="M70.894 125.065c-27.96 0-50.709-17.469-50.709-38.941 0-21.27 22.62-46.96 50.71-46.96 13.04 0 25.771 5.473 35.849 15.407 9.305 9.174 14.859 20.97 14.859 31.553 0 21.472-22.748 38.941-50.709 38.941zm0-82.9c-26.428 0-47.709 24.048-47.709 43.959 0 19.818 21.402 35.941 47.71 35.941 26.306 0 47.708-16.123 47.708-35.941 0-19.912-21.28-43.96-47.709-43.96z" fill="#33363A"/>
      <path id="Shape_9" d="M28.205 40.542c-.124 12.322 4.217 22.303 11.01 27.772 6.932-8.355 11.494-20.207 11.618-32.531.125-12.325-4.217-22.306-11.01-27.772-6.93 8.355-11.494 20.207-11.618 32.532z" fill="#D3964C"/>
      <path id="Shape_10" d="M39.823 8.011c-6.93 8.355-11.494 20.207-11.618 32.532-.124 12.322 4.217 22.303 11.01 27.77l.608-60.302z" fill="#C4833D"/>
      <path id="Shape_11" d="M33.494 63.217c-.503 0-.995-.255-1.278-.715-3.69-6-5.596-13.599-5.511-21.976.123-12.257 4.484-24.458 11.964-33.474a1.5 1.5 0 012.095-.21c7.479 6.019 11.695 16.572 11.569 28.956-.075 7.311-1.688 14.76-4.665 21.536a1.501 1.501 0 01-2.747-1.207c2.815-6.409 4.34-13.45 4.41-20.36.11-10.798-3.266-20.026-9.31-25.605-6.463 8.362-10.206 19.349-10.317 30.395-.08 7.811 1.672 14.855 5.065 20.373a1.499 1.499 0 01-1.275 2.287z" fill="#33363A"/>
      <path id="Shape_12" d="M34.013 46.622c-.059 5.826 1.994 10.54 5.204 13.127 3.276-3.95 5.433-9.551 5.491-15.375.06-5.826-1.992-10.543-5.203-13.127-3.276 3.949-5.433 9.55-5.492 15.375z" fill="#66310E"/>
      <path id="Shape_13" d="M39.505 31.247c-3.276 3.949-5.434 9.55-5.492 15.375-.059 5.826 1.994 10.54 5.204 13.127l.288-28.502z" fill="#89410B"/>
      <path id="Shape_14" d="M39.216 61.248a1.49 1.49 0 01-.94-.331c-3.724-3-5.824-8.217-5.763-14.31.061-5.971 2.188-11.92 5.838-16.319a1.499 1.499 0 012.095-.21c3.725 2.997 5.825 8.213 5.763 14.311-.061 5.971-2.188 11.92-5.837 16.317a1.497 1.497 0 01-1.156.542zm.469-27.77c-2.619 3.716-4.124 8.425-4.172 13.157-.045 4.413 1.253 8.355 3.524 10.88 2.618-3.715 4.123-8.422 4.171-13.157.045-4.415-1.252-8.356-3.523-10.88z" fill="#33363A"/>
      <path id="Shape_15" d="M113.583 40.542c.124 12.322-4.217 22.303-11.009 27.772-6.933-8.355-11.495-20.207-11.619-32.531-.124-12.325 4.217-22.305 11.01-27.772 6.931 8.355 11.494 20.207 11.618 32.532z" fill="#D3964C"/>
      <path id="Shape_16" d="M101.965 8.011c6.931 8.355 11.494 20.207 11.618 32.532.124 12.322-4.217 22.303-11.009 27.77l-.609-60.302z" fill="#C4833D"/>
      <path id="Shape_17" d="M108.294 63.217a1.499 1.499 0 01-1.276-2.286c3.394-5.518 5.145-12.562 5.065-20.372-.111-11.048-3.854-22.033-10.317-30.396-6.044 5.579-9.42 14.808-9.31 25.604.07 6.91 1.595 13.952 4.41 20.36a1.5 1.5 0 01-2.747 1.208c-2.978-6.777-4.59-14.225-4.665-21.537-.124-12.382 4.092-22.936 11.571-28.955a1.5 1.5 0 012.095.21c7.479 9.017 11.841 21.218 11.964 33.476.085 8.376-1.82 15.975-5.511 21.975a1.502 1.502 0 01-1.279.713z" fill="#33363A"/>
      <path id="Shape_18" d="M107.775 46.622c.059 5.826-1.994 10.54-5.204 13.127-3.276-3.95-5.433-9.551-5.491-15.375-.06-5.826 1.992-10.543 5.203-13.127 3.276 3.949 5.433 9.55 5.492 15.375z" fill="#66310E"/>
      <path id="Shape_19" d="M102.283 31.247c3.276 3.949 5.434 9.55 5.492 15.375.059 5.826-1.994 10.54-5.204 13.127l-.288-28.502z" fill="#89410B"/>
      <path id="Shape_20" d="M102.572 61.248c-.432 0-.859-.184-1.155-.541-3.65-4.398-5.776-10.348-5.837-16.319-.062-6.096 2.038-11.311 5.763-14.31a1.499 1.499 0 012.095.21c3.65 4.4 5.777 10.348 5.838 16.318.062 6.094-2.039 11.31-5.763 14.31a1.5 1.5 0 01-.941.333zm-.469-27.77c-2.271 2.523-3.568 6.465-3.523 10.88.048 4.735 1.553 9.442 4.171 13.158 2.271-2.526 3.569-6.468 3.524-10.88-.048-4.733-1.553-9.442-4.172-13.158z" fill="#33363A"/>
      <path id="Shape_21" d="M66.976 98.01l3.918 1.96 3.92-1.96h-7.838z" fill="#33363A"/>
      <path id="Shape_22" d="M70.894 101.471c-.23 0-.46-.053-.671-.158l-3.918-1.962a1.502 1.502 0 01.67-2.841h7.838a1.502 1.502 0 01.67 2.841l-3.918 1.962a1.506 1.506 0 01-.671.158z" fill="#33363A"/>
      <path id="Shape_23" d="M66.804 108.166h-1.457a5.597 5.597 0 01-5.59-5.59 1.5 1.5 0 013 0 2.593 2.593 0 002.59 2.59h1.457a2.593 2.593 0 002.59-2.59v-1.454a1.5 1.5 0 013 0v1.455a5.596 5.596 0 01-5.59 5.589z" fill="#33363A"/>
      <path id="Shape_24" d="M76.441 108.166h-1.457a5.597 5.597 0 01-5.59-5.59v-1.454a1.5 1.5 0 013 0v1.455a2.593 2.593 0 002.59 2.59h1.457a2.593 2.593 0 002.59-2.59 1.5 1.5 0 013 0 5.596 5.596 0 01-5.59 5.589z" fill="#33363A"/>
      <path id="Shape_25" d="M54.732 90.94a8.05 8.05 0 01-8.053 8.05 8.05 8.05 0 110-16.102 8.052 8.052 0 018.053 8.052z" fill="#89410B"/>
      <path id="Shape_26" d="M54.732 90.94c0 4.449-3.605 1.664-8.053 1.664-4.445 0-8.051 2.785-8.051-1.664a8.052 8.052 0 0116.104 0z" fill="#33363A"/>
      <path id="Shape_27" d="M46.679 100.491c-5.267 0-9.551-4.284-9.551-9.551s4.284-9.551 9.55-9.551c5.269 0 9.554 4.284 9.554 9.55 0 5.268-4.285 9.552-9.553 9.552zm0-16.102a6.558 6.558 0 00-6.551 6.55 6.557 6.557 0 006.55 6.552 6.56 6.56 0 006.554-6.551 6.56 6.56 0 00-6.553-6.551z" fill="#33363A"/>
      <path id="Oval" d="M42.676 91.603a3.28 3.28 0 100-6.56 3.28 3.28 0 000 6.56z" fill="#fff"/>
      <path id="Shape_28" d="M42.675 93.103a4.785 4.785 0 01-4.779-4.78 4.784 4.784 0 014.779-4.78 4.785 4.785 0 014.781 4.78 4.786 4.786 0 01-4.781 4.78zm0-6.56a1.78 1.78 0 000 3.56c.982 0 1.781-.8 1.781-1.781 0-.981-.798-1.78-1.781-1.78z" fill="#33363A"/>
      <path id="Shape_29" d="M103.16 90.94a8.05 8.05 0 01-8.05 8.05 8.05 8.05 0 110-16.101 8.051 8.051 0 018.05 8.05z" fill="#89410B"/>
      <path id="Shape_30" d="M103.16 90.94c0 4.449-3.605 1.664-8.05 1.664-4.448 0-8.054 2.785-8.054-1.664a8.051 8.051 0 018.053-8.051 8.051 8.051 0 018.051 8.05z" fill="#33363A"/>
      <path id="Shape_31" d="M95.11 100.491c-5.269 0-9.554-4.284-9.554-9.551s4.285-9.551 9.553-9.551c5.267 0 9.551 4.284 9.551 9.55 0 5.268-4.285 9.552-9.55 9.552zm0-16.102a6.56 6.56 0 00-6.554 6.55 6.559 6.559 0 006.553 6.552 6.558 6.558 0 006.551-6.551 6.558 6.558 0 00-6.55-6.551z" fill="#33363A"/>
      <path id="Oval_2" d="M91.104 91.603a3.28 3.28 0 100-6.56 3.28 3.28 0 000 6.56z" fill="#fff"/>
      <path id="Shape_32" d="M91.103 93.103a4.785 4.785 0 01-4.779-4.78 4.784 4.784 0 014.78-4.78 4.785 4.785 0 014.78 4.78 4.786 4.786 0 01-4.78 4.78zm0-6.56a1.78 1.78 0 000 3.56c.982 0 1.781-.8 1.781-1.781 0-.981-.799-1.78-1.78-1.78z" fill="#33363A"/>
      <path id="Shape_33" d="M91.421 50.702l-6.707-14.928-6.412 2.883-7.408-7.41-7.409 7.41-6.41-2.883-6.708 14.928 14.924 6.707.333-.743 5.27 5.27 5.27-5.268.332.74 14.925-6.706z" fill="#E5B076"/>
      <path id="Shape_34" d="M78.302 51.157l-7.408-7.408-7.409 7.407-6.411-2.88L55.04 52.8l10.251 4.608.333-.742 5.27 5.27 5.269-5.269.333.741L86.748 52.8l-2.034-4.524-6.412 2.88z" fill="#D3964C"/>
      <path id="Shape_35" d="M91.422 52.202a1.5 1.5 0 01-1.369-.885l-6.092-13.56-5.044 2.268a1.501 1.501 0 01-1.676-.308l-6.348-6.35-6.349 6.35a1.506 1.506 0 01-1.676.308l-5.043-2.268-6.092 13.56a1.5 1.5 0 01-2.736-1.23l6.707-14.928a1.502 1.502 0 011.983-.753l5.467 2.458 6.678-6.678a1.5 1.5 0 012.122 0l6.677 6.678 5.468-2.458a1.487 1.487 0 011.147-.034c.372.142.673.425.836.787l6.707 14.928a1.5 1.5 0 01-1.367 2.115z" fill="#33363A"/>
    </g>
  </g>
</svg>
