<svg width="141" height="141" fill="none" xmlns="http://www.w3.org/2000/svg">
  <g id="Jigglypuff">
    <g id="Group 9" fill-rule="evenodd" clip-rule="evenodd">
      <path id="Shape" d="M36.004 85.745c0 3.188-6.352 5.77-14.184 5.77-7.834 0-14.186-2.583-14.186-5.77 0-3.187 12.467-12.6 20.301-12.6 7.834 0 8.07 9.412 8.07 12.6z" fill="#EA81BD"/>
      <path id="Shape_2" d="M36.004 85.745c0 3.188-6.352 5.77-14.184 5.77-7.834 0-14.186-2.583-14.186-5.77 0-3.187 13.13-1.855 20.963-1.855 7.834 0 7.407-1.333 7.407 1.855z" fill="#D363A9"/>
      <path id="Shape_3" d="M21.82 93.016c-7.604 0-15.686-2.55-15.686-7.271 0-4.488 13.687-14.1 21.801-14.1 3.573 0 9.568 1.832 9.568 14.1.001 4.723-8.08 7.27-15.683 7.27zm6.115-18.371c-7.299 0-18.555 8.855-18.8 11.116 0 1.725 4.941 4.255 12.685 4.255 7.743 0 12.684-2.53 12.684-4.271 0-7.365-2.21-11.1-6.569-11.1z" fill="#33363A"/>
      <path id="Shape_4" d="M105.671 85.745c0 3.188 6.35 5.77 14.184 5.77s14.184-2.583 14.184-5.77c0-3.187-12.467-12.6-20.301-12.6-7.832 0-8.067 9.412-8.067 12.6z" fill="#EA81BD"/>
      <path id="Shape_5" d="M105.671 85.745c0 3.188 6.35 5.77 14.184 5.77s14.184-2.583 14.184-5.77c0-3.187-13.129-1.855-20.963-1.855-7.834 0-7.405-1.333-7.405 1.855z" fill="#D363A9"/>
      <path id="Shape_6" d="M119.855 93.016c-7.603 0-15.684-2.55-15.684-7.271 0-12.268 5.994-14.1 9.566-14.1 8.114 0 21.801 9.61 21.801 14.1.001 4.723-8.08 7.27-15.683 7.27zm-6.117-18.371c-4.357 0-6.566 3.734-6.566 11.1 0 1.74 4.941 4.27 12.684 4.27 7.743 0 12.684-2.53 12.684-4.27-.247-2.244-11.503-11.1-18.802-11.1z" fill="#33363A"/>
      <path id="Oval" d="M48.265 118.311c11.96 0 21.655-2.929 21.655-6.541 0-3.613-9.695-6.541-21.655-6.541s-21.655 2.928-21.655 6.541c0 3.612 9.696 6.541 21.655 6.541z" fill="#EA81BD"/>
      <path id="Shape_7" d="M69.92 111.77c0 3.611-9.695 0-21.654 0-11.96 0-21.655 3.611-21.655 0 0-3.613 9.695-6.541 21.655-6.541 11.958 0 21.654 2.928 21.654 6.541z" fill="#D363A9"/>
      <path id="Shape_8" d="M48.265 119.811c-11.507 0-23.155-2.762-23.155-8.041s11.648-8.041 23.155-8.041c11.506 0 23.154 2.762 23.154 8.041s-11.647 8.041-23.154 8.041zm0-13.082c-13.04 0-20.155 3.33-20.155 5.041 0 1.711 7.114 5.041 20.155 5.041s20.154-3.33 20.154-5.041c0-1.711-7.113-5.041-20.154-5.041z" fill="#33363A"/>
      <path id="Oval_2" d="M93.41 118.311c11.959 0 21.654-2.929 21.654-6.541 0-3.613-9.695-6.541-21.655-6.541s-21.655 2.928-21.655 6.541c0 3.612 9.696 6.541 21.655 6.541z" fill="#EA81BD"/>
      <path id="Shape_9" d="M71.754 111.77c0 3.611 9.695 0 21.655 0 11.959 0 21.654 3.611 21.654 0 0-3.613-9.695-6.541-21.654-6.541s-21.655 2.928-21.655 6.541z" fill="#D363A9"/>
      <path id="Shape_10" d="M93.41 119.811c-11.507 0-23.155-2.762-23.155-8.041s11.648-8.041 23.155-8.041c11.506 0 23.154 2.762 23.154 8.041s-11.648 8.041-23.154 8.041zm0-13.082c-13.04 0-20.155 3.33-20.155 5.041 0 1.711 7.114 5.041 20.155 5.041s20.154-3.33 20.154-5.041c0-1.711-7.114-5.041-20.154-5.041z" fill="#33363A"/>
      <path id="Shape_11" d="M26.322 23.013c-5.656 7.77-6.842 18.367-2.13 27.49C28.9 59.63 38.221 64.8 47.835 64.69c5.656-7.771 6.842-18.365 2.131-27.49-4.71-9.126-14.03-14.296-23.645-14.188z" fill="#9E3256"/>
      <path id="Shape_12" d="M26.322 23.013c-5.656 7.77 4.681 16.744 9.392 25.867 4.71 9.127 2.51 15.92 12.122 15.81 5.656-7.77 6.842-18.364 2.131-27.49-4.71-9.125-14.03-14.295-23.645-14.187z" fill="#FFCAE8"/>
      <path id="Shape_13" d="M26.322 23.013c-5.656 7.77 4.681 16.744 9.392 25.867 4.71 9.127 2.51 15.92 12.122 15.81 5.656-7.77 3.201-11.712-1.51-20.837-4.709-9.128-10.39-20.948-20.004-20.84z" fill="#EFA3CC"/>
      <path id="Shape_14" d="M47.608 66.19c-7.559 0-8.875-4.282-10.399-9.242-.676-2.2-1.44-4.692-2.829-7.381-1.248-2.416-2.953-4.892-4.6-7.286-4.623-6.712-9.4-13.652-4.67-20.151a1.502 1.502 0 011.195-.617l.311-.002c10.45 0 19.907 5.748 24.684 15 4.838 9.372 3.975 20.508-2.25 29.063a1.502 1.502 0 01-1.197.617h-.245zM27.126 24.517c-2.744 4.637.916 9.95 5.125 16.063 1.701 2.47 3.46 5.025 4.796 7.61 1.51 2.929 2.318 5.557 3.03 7.876 1.451 4.72 2.14 6.965 6.986 7.117 5.152-7.544 5.768-17.165 1.57-25.295-4.18-8.1-12.388-13.188-21.507-13.371z" fill="#33363A"/>
      <path id="Shape_15" d="M47.537 66.192c-10.448 0-19.905-5.748-24.679-15.002-4.838-9.37-3.976-20.505 2.251-29.061a1.502 1.502 0 011.196-.617l.311-.002c10.45 0 19.907 5.748 24.684 15 4.838 9.372 3.975 20.508-2.25 29.063a1.502 1.502 0 01-1.197.617l-.316.002zm-20.44-41.677c-5.155 7.545-5.772 17.168-1.573 25.299 4.185 8.11 12.405 13.2 21.536 13.373 5.155-7.544 5.771-17.167 1.573-25.3-4.185-8.108-12.406-13.198-21.536-13.372z" fill="#33363A"/>
      <path id="Shape_16" d="M115.351 23.013c5.656 7.77 6.842 18.367 2.131 27.49-4.709 9.127-14.03 14.297-23.644 14.188-5.657-7.771-6.842-18.365-2.13-27.49 4.71-9.126 14.03-14.296 23.643-14.188z" fill="#9E3256"/>
      <path id="Shape_17" d="M115.351 23.013c5.656 7.77-4.68 16.744-9.391 25.867-4.709 9.127-2.509 15.92-12.122 15.81-5.657-7.77-6.842-18.364-2.13-27.49 4.71-9.125 14.03-14.295 23.643-14.187z" fill="#FFCAE8"/>
      <path id="Shape_18" d="M115.351 23.013c5.656 7.77-4.68 16.744-9.391 25.867-4.709 9.127-2.509 15.92-12.122 15.81-5.657-7.77-3.202-11.712 1.51-20.837 4.708-9.128 10.39-20.948 20.003-20.84z" fill="#EFA3CC"/>
      <path id="Shape_19" d="M94.066 66.19h-.244a1.502 1.502 0 01-1.196-.617c-6.227-8.554-7.089-19.69-2.25-29.062 4.775-9.253 14.233-15.001 24.682-15.001l.311.002c.474.006.917.234 1.196.617 4.73 6.499-.049 13.44-4.67 20.152-1.648 2.394-3.352 4.869-4.6 7.286-1.387 2.688-2.153 5.18-2.829 7.38-1.525 4.96-2.842 9.244-10.4 9.244zm20.481-41.674c-9.119.183-17.326 5.27-21.507 13.372-4.198 8.13-3.582 17.752 1.57 25.295 4.846-.152 5.536-2.396 6.986-7.116.712-2.32 1.52-4.948 3.03-7.875 1.335-2.586 3.094-5.141 4.795-7.611 4.211-6.113 7.871-11.428 5.126-16.065z" fill="#33363A"/>
      <path id="Shape_20" d="M94.137 66.192l-.316-.002a1.502 1.502 0 01-1.196-.617c-6.227-8.554-7.089-19.69-2.25-29.062 4.775-9.253 14.233-15.001 24.682-15.001l.311.002c.474.006.917.234 1.196.617 6.227 8.556 7.089 19.69 2.251 29.062-4.774 9.253-14.23 15-24.678 15zm20.439-41.677c-9.129.174-17.35 5.264-21.535 13.373-4.199 8.132-3.582 17.756 1.573 25.299 9.13-.172 17.351-5.262 21.535-13.372 4.199-8.132 3.582-17.755-1.573-25.3z" fill="#33363A"/>
      <path id="Shape_21" d="M120.046 76.075c0 20.676-22.032 37.441-49.209 37.441-27.178 0-49.209-16.766-49.209-37.441 0-20.68 22.031-45.46 49.21-45.46 27.176 0 49.208 24.78 49.208 45.46z" fill="#FFCAE8"/>
      <path id="Shape_22" d="M120.046 76.075c0 20.676-22.032 37.441-49.209 37.441-27.178 0-49.209-16.766-49.209-37.441 0-20.68 22.031-34.928 49.21-34.928 27.176 0 49.208 14.248 49.208 34.928z" fill="#EFA3CC"/>
      <path id="Shape_23" d="M120.046 76.075c0 20.676-22.032 37.441-49.209 37.441-27.178 0-49.209-16.766-49.209-37.441 0-20.682 6.261 18.34 49.21 18.34 42.947 0 49.208-39.022 49.208-18.34z" fill="#EA81BD"/>
      <path id="Shape_24" d="M70.837 115.016c-27.96 0-50.709-17.47-50.709-38.941 0-21.27 22.62-46.96 50.71-46.96 13.04 0 25.771 5.473 35.848 15.407 9.305 9.174 14.86 20.97 14.86 31.553 0 21.473-22.748 38.941-50.709 38.941zm0-82.9c-26.428 0-47.709 24.048-47.709 43.959 0 19.818 21.402 35.941 47.71 35.941 26.306 0 47.708-16.123 47.708-35.941 0-19.911-21.28-43.96-47.709-43.96z" fill="#33363A"/>
      <path id="Shape_25" d="M54.675 73.917a8.05 8.05 0 01-8.053 8.05 8.05 8.05 0 01-8.05-8.05 8.05 8.05 0 018.05-8.051 8.051 8.051 0 018.053 8.05z" fill="#14A594"/>
      <path id="Shape_26" d="M54.675 73.917c0 4.449-3.605 1.664-8.053 1.664-4.446 0-8.05 2.785-8.05-1.664a8.05 8.05 0 018.05-8.051 8.051 8.051 0 018.053 8.05z" fill="#33363A"/>
      <path id="Shape_27" d="M46.623 83.468c-5.266 0-9.55-4.284-9.55-9.551s4.284-9.551 9.55-9.551c5.268 0 9.553 4.284 9.553 9.55 0 5.268-4.286 9.552-9.553 9.552zm0-16.102a6.558 6.558 0 00-6.55 6.55 6.557 6.557 0 006.55 6.552 6.56 6.56 0 006.553-6.551 6.56 6.56 0 00-6.553-6.551z" fill="#33363A"/>
      <path id="Oval_3" d="M42.62 74.58a3.281 3.281 0 100-6.561 3.281 3.281 0 000 6.562z" fill="#fff"/>
      <path id="Shape_28" d="M42.62 76.08a4.786 4.786 0 01-4.78-4.78 4.785 4.785 0 014.78-4.78 4.786 4.786 0 014.78 4.78 4.787 4.787 0 01-4.78 4.78zm0-6.56c-.982 0-1.78.798-1.78 1.779 0 .982.798 1.78 1.78 1.78.981 0 1.78-.798 1.78-1.78 0-.981-.799-1.78-1.78-1.78z" fill="#33363A"/>
      <path id="Shape_29" d="M103.102 73.917a8.049 8.049 0 01-8.05 8.05 8.05 8.05 0 01-8.053-8.05 8.05 8.05 0 018.052-8.051 8.05 8.05 0 018.051 8.05z" fill="#14A594"/>
      <path id="Shape_30" d="M103.102 73.917c0 4.449-3.604 1.664-8.05 1.664-4.448 0-8.053 2.785-8.053-1.664a8.05 8.05 0 018.052-8.051 8.05 8.05 0 018.051 8.05z" fill="#33363A"/>
      <path id="Shape_31" d="M95.051 83.468c-5.267 0-9.552-4.284-9.552-9.551s4.285-9.551 9.552-9.551c5.266 0 9.551 4.284 9.551 9.55 0 5.268-4.285 9.552-9.55 9.552zm0-16.102a6.558 6.558 0 00-6.552 6.55 6.558 6.558 0 006.552 6.552 6.558 6.558 0 006.551-6.551 6.557 6.557 0 00-6.55-6.551z" fill="#33363A"/>
      <path id="Oval_4" d="M91.046 74.58a3.28 3.28 0 100-6.56 3.28 3.28 0 000 6.56z" fill="#fff"/>
      <path id="Shape_32" d="M91.046 76.08a4.786 4.786 0 01-4.78-4.78 4.785 4.785 0 014.78-4.78 4.785 4.785 0 014.78 4.78 4.785 4.785 0 01-4.78 4.78zm0-6.56c-.98 0-1.78.798-1.78 1.779 0 .982.8 1.78 1.78 1.78a1.78 1.78 0 000-3.56z" fill="#33363A"/>
      <path id="Shape_33" d="M78.4 75.774c0 1.012-3.404 1.193-7.605 1.193-4.2 0-7.605-.182-7.605-1.193 0-1.01 3.405-3.654 7.605-3.654 4.201 0 7.605 2.645 7.605 3.654z" fill="#FFCAE8"/>
      <path id="Shape_34" d="M61.941 83.89a8.895 8.895 0 008.896 8.895 8.895 8.895 0 008.896-8.895H61.941z" fill="#9E3256"/>
      <path id="Shape_35" d="M70.837 94.284c-5.732 0-10.396-4.663-10.396-10.395a1.5 1.5 0 011.5-1.5h17.792a1.5 1.5 0 011.5 1.5c0 5.732-4.664 10.395-10.396 10.395zm-7.243-8.894c.695 3.36 3.68 5.895 7.243 5.895 3.564 0 6.548-2.534 7.244-5.895H63.594z" fill="#33363A"/>
      <path id="Oval_5" d="M70.837 61.433c10.61 0 19.21-8.6 19.21-19.21 0-10.61-8.6-19.21-19.21-19.21-10.61 0-19.21 8.6-19.21 19.21 0 10.61 8.6 19.21 19.21 19.21z" fill="#FFCAE8"/>
      <path id="Oval_6" d="M70.837 69.037c10.61 0 19.21-8.6 19.21-19.21 0-10.61-8.6-19.21-19.21-19.21-10.61 0-19.21 8.6-19.21 19.21 0 10.61 8.6 19.21 19.21 19.21z" fill="#EFA3CC"/>
      <path id="Shape_36" d="M90.046 43.723a1.5 1.5 0 01-1.5-1.5c0-9.766-7.944-17.711-17.709-17.711-9.766 0-17.71 7.945-17.71 17.71a1.5 1.5 0 11-3 0c0-11.42 9.29-20.71 20.71-20.71 11.42 0 20.71 9.29 20.71 20.71a1.5 1.5 0 01-1.5 1.5z" fill="#33363A"/>
      <path id="Shape_37" d="M67.745 61.479c-.25 0-.5-.006-.75-.017A16.617 16.617 0 0155.4 56.055c-7.64-8.343-7.07-21.346 1.27-28.986a1.5 1.5 0 112.025 2.21c-7.12 6.525-7.605 17.627-1.083 24.75a13.64 13.64 0 009.515 4.437 13.637 13.637 0 009.865-3.59 10.593 10.593 0 003.452-7.4 10.602 10.602 0 00-2.795-7.678c-3.067-3.348-8.289-3.578-11.639-.511-2.557 2.347-2.732 6.336-.39 8.892a1.5 1.5 0 01-.093 2.119c-.61.562-1.56.519-2.119-.092-3.458-3.775-3.2-9.665.575-13.131 4.57-4.185 11.692-3.873 15.878.695a13.584 13.584 0 013.58 9.836 13.57 13.57 0 01-4.422 9.48 16.593 16.593 0 01-11.274 4.393z" fill="#33363A"/>
    </g>
  </g>
</svg>
