<svg width="140" height="141" fill="none" xmlns="http://www.w3.org/2000/svg">
  <g id="Mankey">
    <g id="Group 10" fill-rule="evenodd" clip-rule="evenodd">
      <path id="Shape" d="M119.934 16.012c6.312 8.672 7.636 20.494 2.378 30.676-5.255 10.186-15.657 15.955-26.385 15.834-6.312-8.674-7.635-20.496-2.379-30.678 5.256-10.184 15.657-15.953 26.386-15.832z" fill="#FFECD2"/>
      <path id="Shape_2" d="M95.927 62.522c-6.312-8.674-7.635-20.496-2.379-30.678 5.256-10.184 15.657-15.953 26.386-15.832" fill="#F4D3A2"/>
      <path id="Shape_3" d="M96.258 64.024l-.348-.002a1.502 1.502 0 01-1.196-.617c-6.909-9.493-7.867-21.851-2.499-32.249 5.299-10.267 15.793-16.646 27.388-16.646l.348.002c.474.006.917.234 1.196.617 6.91 9.494 7.867 21.85 2.498 32.247-5.298 10.269-15.792 16.648-27.387 16.648zm22.901-46.51c-10.29.16-19.563 5.884-24.278 15.018-4.728 9.159-4.016 20.005 1.821 28.488 10.291-.16 19.563-5.884 24.277-15.02 4.729-9.158 4.017-20.003-1.82-28.486z" fill="#33363A"/>
      <path id="Shape_4" d="M115.319 26.865c3.885 5.338 4.699 12.615 1.464 18.88-3.234 6.27-9.637 9.82-16.24 9.747-3.885-5.338-4.699-12.615-1.464-18.881 3.235-6.27 9.636-9.82 16.24-9.746z" fill="#EFA3CC"/>
      <path id="Shape_5" d="M100.746 56.993l-.22-.001a1.502 1.502 0 01-1.196-.617c-4.382-6.021-4.989-13.857-1.584-20.452 3.361-6.513 10.017-10.559 17.37-10.559l.22.001c.474.006.917.234 1.196.617 4.382 6.021 4.989 13.857 1.584 20.452-3.36 6.514-10.016 10.559-17.37 10.559zm13.794-28.619c-5.996.203-11.373 3.584-14.129 8.925-2.765 5.354-2.402 11.678.909 16.685 5.997-.203 11.374-3.584 14.129-8.925 2.765-5.355 2.403-11.678-.909-16.685z" fill="#33363A"/>
      <path id="Shape_6" d="M19.6 16.012c-6.312 8.672-7.636 20.494-2.378 30.676 5.255 10.185 15.657 15.955 26.385 15.834 6.312-8.674 7.635-20.496 2.38-30.678C40.73 21.66 30.328 15.891 19.6 16.012z" fill="#FFECD2"/>
      <path id="Shape_7" d="M43.607 62.522c6.312-8.674 7.635-20.496 2.38-30.678C40.73 21.66 30.328 15.891 19.6 16.012" fill="#F4D3A2"/>
      <path id="Shape_8" d="M43.276 64.024c-11.595 0-22.089-6.38-27.387-16.648-5.369-10.397-4.412-22.753 2.498-32.247a1.502 1.502 0 011.196-.617l.348-.002c11.594 0 22.088 6.379 27.388 16.646 5.368 10.397 4.41 22.755-2.499 32.248a1.502 1.502 0 01-1.196.617l-.348.003zm-22.901-46.51c-5.837 8.483-6.549 19.328-1.82 28.485 4.713 9.136 13.986 14.86 24.277 15.021 5.837-8.483 6.549-19.329 1.821-28.487-4.715-9.135-13.988-14.859-24.278-15.019z" fill="#33363A"/>
      <path id="Shape_9" d="M24.215 26.865c-3.885 5.338-4.699 12.615-1.464 18.88 3.234 6.27 9.637 9.82 16.24 9.747 3.885-5.338 4.7-12.615 1.464-18.881-3.235-6.27-9.636-9.82-16.24-9.746z" fill="#EFA3CC"/>
      <path id="Shape_10" d="M38.788 56.993c-7.354 0-14.01-4.046-17.37-10.56-3.405-6.594-2.798-14.43 1.584-20.451a1.502 1.502 0 011.196-.617l.22-.001c7.353 0 14.009 4.046 17.37 10.56 3.405 6.594 2.798 14.43-1.584 20.451a1.502 1.502 0 01-1.196.617l-.22.001zM24.994 28.374c-3.312 5.007-3.674 11.33-.909 16.684 2.755 5.342 8.132 8.723 14.129 8.926 3.312-5.007 3.674-11.33.909-16.684-2.757-5.342-8.133-8.723-14.129-8.926z" fill="#33363A"/>
      <path id="Shape_11" d="M118.976 87.987c0 20.676-22.03 37.441-49.209 37.441-27.178 0-49.209-16.766-49.209-37.441 0-20.68 22.031-45.46 49.21-45.46 27.177 0 49.208 24.78 49.208 45.46z" fill="#F4D3A2"/>
      <path id="Shape_12" d="M118.976 87.987c0 20.676-22.03 37.441-49.209 37.441-27.178 0-49.209-16.766-49.209-37.44 0-20.68 22.031-34.929 49.21-34.929 27.177 0 49.208 14.248 49.208 34.928z" fill="#F4D3A2"/>
      <path id="Shape_13" d="M118.976 87.987c0 20.676-22.03 37.441-49.209 37.441-27.178 0-49.209-16.766-49.209-37.441 0-20.682 6.262 18.34 49.21 18.34 42.946 0 49.208-39.022 49.208-18.34z" fill="#E2BF91"/>
      <path id="Shape_14" d="M69.767 126.928c-27.96 0-50.709-17.469-50.709-38.941 0-21.27 22.62-46.96 50.71-46.96 13.04 0 25.771 5.473 35.848 15.407 9.305 9.174 14.86 20.97 14.86 31.553 0 21.472-22.748 38.941-50.709 38.941zm0-82.9c-26.428 0-47.709 24.048-47.709 43.959 0 19.818 21.402 35.941 47.71 35.941 26.306 0 47.708-16.123 47.708-35.941 0-19.912-21.28-43.96-47.709-43.96z" fill="#33363A"/>
      <path id="Shape_15" d="M80.203 100.268c0 1.393-4.69 1.643-10.478 1.643-5.787 0-10.479-.25-10.479-1.643 0-1.395 4.691-5.037 10.48-5.037 5.785 0 10.477 3.642 10.477 5.037z" fill="#F4D3A2"/>
      <path id="Shape_16" d="M60.741 86.696c-.367 0-.735-.134-1.025-.405l-12.75-11.938a1.5 1.5 0 012.051-2.189l12.75 11.937a1.5 1.5 0 01-1.026 2.595z" fill="#33363A"/>
      <path id="Shape_17" d="M78.793 86.696a1.5 1.5 0 01-1.026-2.595l12.75-11.938a1.5 1.5 0 012.051 2.189L79.818 86.29c-.29.272-.658.406-1.025.406z" fill="#33363A"/>
      <path id="Shape_18" d="M99.104 117.024l22.472-1.53-1.391-8.837 12.715-5.594-7.049-11.971 6.295-6.357-17.342-14.373-14.654 14.804.859.713-9.041 3.977 5.01 8.509-1.115.079 3.241 20.58z" fill="#E2BF91"/>
      <path id="Shape_19" d="M99.102 118.524a1.5 1.5 0 01-.1-2.996l20.837-1.419-1.136-7.219a1.5 1.5 0 01.878-1.606l11.17-4.914-6.192-10.517a1.499 1.499 0 01.227-1.816l5.142-5.192-16.08-13.327a1.5 1.5 0 111.914-2.31l17.342 14.373a1.499 1.499 0 01.109 2.211l-5.482 5.536 6.462 10.976a1.5 1.5 0 01-.689 2.134l-11.658 5.129 1.211 7.696a1.5 1.5 0 01-1.38 1.73l-22.472 1.529-.103.002z" fill="#33363A"/>
      <path id="Shape_20" d="M40.43 117.024l-22.472-1.53 1.391-8.837-12.715-5.594 7.049-11.971-6.295-6.357L24.73 68.362l14.654 14.804-.859.713 9.041 3.977-5.01 8.509 1.115.079-3.241 20.58z" fill="#E2BF91"/>
      <path id="Shape_21" d="M40.432 118.524a1.22 1.22 0 01-.104-.004l-22.472-1.529a1.5 1.5 0 01-1.38-1.73l1.211-7.696-11.657-5.129a1.505 1.505 0 01-.824-.912 1.504 1.504 0 01.135-1.222l6.462-10.976-5.482-5.536a1.5 1.5 0 01.11-2.211l17.341-14.373a1.5 1.5 0 111.914 2.31L9.607 82.844l5.142 5.192a1.5 1.5 0 01.227 1.816l-6.193 10.517 11.17 4.914c.623.274.983.934.878 1.606l-1.136 7.219 20.837 1.419a1.5 1.5 0 01-.1 2.997z" fill="#33363A"/>
      <path id="Shape_22" d="M53.605 92.03a8.05 8.05 0 01-8.053 8.051 8.053 8.053 0 118.053-8.05z" fill="#CC4306"/>
      <path id="Shape_23" d="M53.605 92.03c0 4.45-3.605 1.662-8.053 1.662-4.445 0-8.05 2.787-8.05-1.662a8.053 8.053 0 1116.103 0z" fill="#33363A"/>
      <path id="Shape_24" d="M45.552 101.58c-5.266 0-9.55-4.284-9.55-9.55 0-5.269 4.284-9.554 9.55-9.554 5.268 0 9.553 4.285 9.553 9.553 0 5.267-4.285 9.551-9.553 9.551zm0-16.103a6.56 6.56 0 00-6.55 6.553 6.558 6.558 0 006.55 6.551 6.56 6.56 0 006.553-6.55 6.56 6.56 0 00-6.553-6.554z" fill="#33363A"/>
      <path id="Oval" d="M41.549 92.692a3.28 3.28 0 100-6.56 3.28 3.28 0 000 6.56z" fill="#fff"/>
      <path id="Shape_25" d="M41.548 94.192a4.785 4.785 0 01-4.779-4.779 4.785 4.785 0 014.779-4.779 4.786 4.786 0 014.781 4.779 4.786 4.786 0 01-4.781 4.779zm0-6.559a1.78 1.78 0 00-1.779 1.779 1.78 1.78 0 003.56 0c0-.981-.799-1.779-1.781-1.779z" fill="#33363A"/>
      <path id="Shape_26" d="M102.033 92.03a8.05 8.05 0 01-8.05 8.051 8.053 8.053 0 118.05-8.05z" fill="#CC4306"/>
      <path id="Shape_27" d="M102.033 92.03c0 4.45-3.605 1.662-8.05 1.662-4.448 0-8.054 2.787-8.054-1.662a8.053 8.053 0 0116.104 0z" fill="#33363A"/>
      <path id="Shape_28" d="M93.982 101.58c-5.268 0-9.553-4.284-9.553-9.55 0-5.269 4.285-9.554 9.553-9.554 5.266 0 9.551 4.285 9.551 9.553 0 5.267-4.285 9.551-9.55 9.551zm0-16.103a6.56 6.56 0 00-6.553 6.553 6.56 6.56 0 006.553 6.551 6.558 6.558 0 006.551-6.55 6.559 6.559 0 00-6.55-6.554z" fill="#33363A"/>
      <path id="Oval_2" d="M89.977 92.692a3.28 3.28 0 100-6.56 3.28 3.28 0 000 6.56z" fill="#fff"/>
      <path id="Shape_29" d="M89.976 94.192a4.785 4.785 0 01-4.779-4.779 4.785 4.785 0 014.779-4.779 4.786 4.786 0 014.781 4.779 4.786 4.786 0 01-4.781 4.779zm0-6.559a1.78 1.78 0 00-1.779 1.779 1.78 1.78 0 003.56 0c0-.981-.799-1.779-1.781-1.779z" fill="#33363A"/>
      <path id="Oval_3" d="M69.767 114.999c7.086 0 12.83-3.55 12.83-7.93 0-4.379-5.744-7.93-12.83-7.93s-12.83 3.551-12.83 7.93c0 4.38 5.744 7.93 12.83 7.93z" fill="#FFCAE8"/>
      <path id="Shape_30" d="M82.597 107.069c0 4.379-5.744 7.93-12.83 7.93s-12.83-3.551-12.83-7.93 5.744-1.049 12.83-1.049 12.83-3.33 12.83 1.049z" fill="#EFA3CC"/>
      <path id="Shape_31" d="M69.767 116.498c-8.036 0-14.33-4.142-14.33-9.43 0-5.286 6.294-9.428 14.33-9.428 8.036 0 14.33 4.142 14.33 9.428 0 5.289-6.294 9.43-14.33 9.43zm0-15.857c-6.142 0-11.33 2.943-11.33 6.428s5.188 6.43 11.33 6.43 11.33-2.944 11.33-6.43c0-3.485-5.188-6.428-11.33-6.428z" fill="#33363A"/>
      <path id="Shape_32" d="M66.183 110.764a1.5 1.5 0 01-1.5-1.5v-3.955a1.5 1.5 0 113 0v3.955a1.5 1.5 0 01-1.5 1.5z" fill="#33363A"/>
      <path id="Shape_33" d="M73.351 110.764a1.5 1.5 0 01-1.5-1.5v-3.955a1.5 1.5 0 113 0v3.955a1.5 1.5 0 01-1.5 1.5z" fill="#33363A"/>
      <path id="Shape_34" d="M98.638 54.86l-9.433-20.995-9.018 4.053-10.42-10.42-10.42 10.42-9.018-4.053-9.433 20.995 20.991 9.435.469-1.045 7.411 7.412 7.41-7.41.469 1.043 20.992-9.435z" fill="#FFECD2"/>
      <path id="Shape_35" d="M80.187 55.5l-10.42-10.42-10.42 10.42-9.018-4.052-2.86 6.365 14.418 6.482.47-1.045 7.41 7.412 7.41-7.41.47 1.043 14.418-6.482-2.86-6.365-9.018 4.052z" fill="#F4D3A2"/>
      <path id="Shape_36" d="M98.64 56.36a1.5 1.5 0 01-1.37-.885l-8.819-19.626-7.649 3.438a1.497 1.497 0 01-1.675-.308l-9.36-9.36-9.359 9.359a1.503 1.503 0 01-1.675.308l-7.649-3.438-8.819 19.626a1.499 1.499 0 11-2.736-1.23l9.434-20.994a1.5 1.5 0 011.982-.753l8.074 3.629 9.688-9.688a1.5 1.5 0 012.121 0l9.688 9.688 8.074-3.629a1.503 1.503 0 011.982.753l9.434 20.994a1.5 1.5 0 01-1.367 2.116z" fill="#33363A"/>
      <path id="Shape_37" d="M54.05 42.039l-21.659-6.183-1.689 8.787-13.859.949 2.57 13.65-8.078 3.848 11.44 19.402 18.807-8.957-.567-.961 9.854-.675-1.827-9.705 1.077.304 3.931-20.459z" fill="#FFECD2"/>
      <path id="Shape_38" d="M44.562 55.358l-13.859.949 2.572 13.652-8.079 3.846 3.469 5.883 12.917-6.153-.567-.961 9.854-.675-1.827-9.705 1.077.304 2.7-14.05-6.568-1.877-1.689 8.787z" fill="#F4D3A2"/>
      <path id="Shape_39" d="M22.776 83.992a1.498 1.498 0 01-1.293-.738l-11.44-19.402a1.498 1.498 0 01.647-2.116l7.035-3.351-2.356-12.516a1.496 1.496 0 01.288-1.194c.262-.34.657-.55 1.084-.579l12.706-.871 1.471-7.652a1.5 1.5 0 011.885-1.159l21.66 6.184a1.5 1.5 0 01-.824 2.884l-20.084-5.733-1.38 7.178a1.499 1.499 0 01-1.37 1.213l-12.175.834 2.258 11.992a1.5 1.5 0 01-.829 1.632l-6.599 3.143 10.607 17.99a1.5 1.5 0 01-1.29 2.261z" fill="#33363A"/>
      <path id="Shape_40" d="M85.484 42.039l21.659-6.183 1.688 8.787 13.86.949-2.571 13.65 8.079 3.848-11.441 19.402-18.807-8.957.568-.961-9.855-.675 1.827-9.705-1.076.304-3.93-20.459z" fill="#FFECD2"/>
      <path id="Shape_41" d="M94.971 55.358l13.86.949-2.572 13.652 8.079 3.846-3.469 5.883-12.918-6.153.568-.961-9.855-.675 1.827-9.705-1.076.304-2.7-14.05 6.568-1.877 1.688 8.787z" fill="#F4D3A2"/>
      <path id="Shape_42" d="M116.757 83.992a1.5 1.5 0 01-1.29-2.262l10.608-17.99-6.6-3.144a1.5 1.5 0 01-.829-1.632l2.259-11.992-12.175-.834a1.5 1.5 0 01-1.371-1.213l-1.379-7.178-20.083 5.733a1.499 1.499 0 11-.823-2.884l21.659-6.184a1.5 1.5 0 011.885 1.159l1.47 7.652 12.707.871a1.5 1.5 0 011.372 1.773l-2.357 12.516 7.036 3.351a1.498 1.498 0 01.647 2.116l-11.44 19.402c-.283.477-.783.74-1.296.74z" fill="#33363A"/>
    </g>
  </g>
</svg>
