<svg width="141" height="141" fill="none" xmlns="http://www.w3.org/2000/svg">
  <g id="Meowth">
    <g id="Group 8" fill-rule="evenodd" clip-rule="evenodd">
      <path id="Shape" d="M121.061 33.908c6.312 8.672 7.635 20.496 2.378 30.678-5.255 10.184-15.657 15.953-26.386 15.832-6.312-8.674-7.635-20.494-2.377-30.678 5.256-10.183 15.656-15.953 26.385-15.832z" fill="#4F4B48"/>
      <path id="Shape_2" d="M97.053 80.418c-6.312-8.674-7.635-20.494-2.377-30.678 5.256-10.184 15.656-15.953 26.385-15.832" fill="#33363A"/>
      <path id="Shape_3" d="M97.384 81.92l-.348-.002a1.502 1.502 0 01-1.196-.617c-6.909-9.493-7.865-21.851-2.497-32.249 5.299-10.267 15.793-16.646 27.387-16.646l.348.002c.474.006.917.234 1.196.617 6.909 9.493 7.866 21.851 2.498 32.249-5.298 10.267-15.793 16.646-27.388 16.646zm22.903-46.51c-10.29.16-19.562 5.884-24.277 15.018-4.729 9.16-4.018 20.006 1.818 28.488 10.291-.16 19.564-5.884 24.278-15.018 4.729-9.159 4.017-20.004-1.819-28.488z" fill="#33363A"/>
      <path id="Shape_4" d="M116.446 44.764c3.885 5.336 4.699 12.613 1.463 18.88-3.234 6.269-9.637 9.82-16.24 9.745-3.885-5.338-4.698-12.613-1.463-18.881 3.234-6.27 9.636-9.82 16.24-9.744z" fill="#EFA3CC"/>
      <path id="Shape_5" d="M101.876 74.89h-.226a1.499 1.499 0 01-1.195-.618c-4.381-6.02-4.987-13.856-1.583-20.452 3.359-6.512 10.014-10.557 17.365-10.557l.226.001a1.5 1.5 0 011.195.617c4.382 6.02 4.988 13.856 1.583 20.452-3.36 6.512-10.014 10.557-17.365 10.557zm13.791-28.617c-5.996.202-11.373 3.582-14.129 8.923-2.765 5.355-2.402 11.68.908 16.685 5.995-.202 11.372-3.582 14.129-8.923 2.766-5.357 2.405-11.68-.908-16.685z" fill="#33363A"/>
      <path id="Shape_6" d="M20.727 33.908c-6.312 8.672-7.636 20.496-2.378 30.678C23.604 74.77 34.006 80.54 44.734 80.418c6.312-8.674 7.635-20.494 2.38-30.678-5.257-10.184-15.658-15.953-26.387-15.832z" fill="#4F4B48"/>
      <path id="Shape_7" d="M44.734 80.418c6.312-8.674 7.635-20.494 2.38-30.678-5.257-10.184-15.658-15.953-26.387-15.832" fill="#33363A"/>
      <path id="Shape_8" d="M44.403 81.92c-11.595 0-22.089-6.379-27.387-16.646-5.369-10.397-4.412-22.754 2.498-32.248a1.503 1.503 0 011.196-.617l.348-.002c11.594 0 22.089 6.379 27.388 16.646 5.367 10.398 4.409 22.755-2.499 32.248a1.503 1.503 0 01-1.196.617l-.348.002zM21.501 35.41c-5.837 8.483-6.549 19.329-1.819 28.487 4.714 9.135 13.986 14.858 24.277 15.019 5.836-8.482 6.548-19.328 1.82-28.488-4.714-9.134-13.988-14.857-24.278-15.018z" fill="#33363A"/>
      <path id="Shape_9" d="M25.342 44.764c-3.885 5.336-4.7 12.613-1.464 18.88 3.234 6.269 9.637 9.82 16.24 9.745 3.885-5.338 4.699-12.613 1.464-18.881-3.235-6.27-9.636-9.82-16.24-9.744z" fill="#EFA3CC"/>
      <path id="Shape_10" d="M39.911 74.89c-7.35 0-14.005-4.046-17.365-10.558-3.405-6.596-2.798-14.433 1.584-20.45a1.501 1.501 0 011.195-.618h.226c7.351 0 14.005 4.044 17.365 10.557 3.404 6.595 2.797 14.431-1.584 20.451a1.5 1.5 0 01-1.195.617l-.226.001zm-13.79-28.617c-3.312 5.005-3.674 11.328-.909 16.684 2.756 5.342 8.133 8.722 14.13 8.924 3.31-5.006 3.672-11.329.908-16.684-2.756-5.342-8.134-8.722-14.129-8.924z" fill="#33363A"/>
      <path id="Shape_11" d="M120.103 84.235c0 20.676-22.032 37.441-49.209 37.441-27.178 0-49.209-16.766-49.209-37.441 0-20.68 22.031-45.46 49.21-45.46 27.176 0 49.208 24.78 49.208 45.46z" fill="#FBFCF2"/>
      <path id="Shape_12" d="M120.103 84.235c0 20.676-22.032 37.441-49.209 37.441-27.178 0-49.209-16.766-49.209-37.44 0-20.68 22.031-34.929 49.21-34.929 27.176 0 49.208 14.248 49.208 34.928z" fill="#EAE4C5"/>
      <path id="Shape_13" d="M120.103 84.235c0 20.676-22.032 37.441-49.209 37.441-27.178 0-49.209-16.766-49.209-37.44 0-20.683 6.262 18.339 49.21 18.339 42.947-.001 49.208-39.022 49.208-18.34z" fill="#DDD2B1"/>
      <path id="Shape_14" d="M70.894 123.176c-27.96 0-50.709-17.469-50.709-38.941 0-21.27 22.62-46.96 50.71-46.96 13.04 0 25.771 5.473 35.848 15.407 9.305 9.174 14.86 20.97 14.86 31.553 0 21.472-22.748 38.941-50.709 38.941zm0-82.9c-26.428 0-47.709 24.048-47.709 43.959 0 19.818 21.402 35.941 47.71 35.941 26.306 0 47.708-16.123 47.708-35.941 0-19.912-21.28-43.96-47.709-43.96z" fill="#33363A"/>
      <path id="Shape_15" d="M54.732 82.076a8.05 8.05 0 01-8.053 8.05 8.05 8.05 0 110-16.102 8.053 8.053 0 018.053 8.052z" fill="#A35616"/>
      <path id="Shape_16" d="M54.732 82.076c0 4.449-3.605 1.664-8.053 1.664-4.445 0-8.051 2.785-8.051-1.664a8.053 8.053 0 0116.104 0z" fill="#33363A"/>
      <path id="Shape_17" d="M46.679 91.627c-5.267 0-9.551-4.284-9.551-9.551s4.284-9.551 9.55-9.551c5.269 0 9.554 4.284 9.554 9.55 0 5.268-4.285 9.552-9.553 9.552zm0-16.101a6.558 6.558 0 00-6.551 6.55 6.557 6.557 0 006.55 6.552 6.56 6.56 0 006.554-6.551 6.56 6.56 0 00-6.553-6.551z" fill="#33363A"/>
      <path id="Oval" d="M42.676 82.739a3.28 3.28 0 100-6.56 3.28 3.28 0 000 6.56z" fill="#fff"/>
      <path id="Shape_18" d="M42.675 84.24a4.785 4.785 0 01-4.779-4.78 4.784 4.784 0 014.779-4.78 4.785 4.785 0 014.781 4.78 4.785 4.785 0 01-4.781 4.78zm0-6.56a1.78 1.78 0 000 3.56c.982 0 1.781-.799 1.781-1.78 0-.982-.798-1.78-1.781-1.78z" fill="#33363A"/>
      <path id="Shape_19" d="M103.159 82.076a8.049 8.049 0 01-8.05 8.05 8.05 8.05 0 01-8.053-8.05 8.051 8.051 0 0116.103 0z" fill="#A35616"/>
      <path id="Shape_20" d="M103.159 82.076c0 4.449-3.604 1.664-8.05 1.664-4.448 0-8.053 2.785-8.053-1.664a8.051 8.051 0 0116.103 0z" fill="#33363A"/>
      <path id="Shape_21" d="M95.108 91.627c-5.267 0-9.552-4.284-9.552-9.551s4.285-9.551 9.552-9.551c5.267 0 9.551 4.284 9.551 9.55 0 5.268-4.285 9.552-9.55 9.552zm0-16.101a6.559 6.559 0 00-6.552 6.55 6.558 6.558 0 006.552 6.552 6.557 6.557 0 006.551-6.551 6.558 6.558 0 00-6.55-6.551z" fill="#33363A"/>
      <path id="Oval_2" d="M91.103 82.739a3.28 3.28 0 100-6.56 3.28 3.28 0 000 6.56z" fill="#fff"/>
      <path id="Shape_22" d="M91.104 84.24a4.786 4.786 0 01-4.781-4.78 4.785 4.785 0 014.781-4.78 4.784 4.784 0 014.779 4.78 4.784 4.784 0 01-4.779 4.78zm0-6.56c-.982 0-1.781.798-1.781 1.78 0 .981.799 1.78 1.781 1.78.981 0 1.779-.799 1.779-1.78a1.78 1.78 0 00-1.779-1.78z" fill="#33363A"/>
      <path id="Shape_23" d="M87.123 91.822c0 1.391-7.266 1.641-16.229 1.641-8.964 0-16.23-.25-16.23-1.641 0-1.393 7.267-5.031 16.23-5.031 8.964 0 16.23 3.639 16.23 5.031z" fill="#FBFCF2"/>
      <path id="Shape_24" d="M112.398 92.291l19.929-15.38-22.975 6.576" fill="#EAE4C5"/>
      <path id="Shape_25" d="M112.399 93.791a1.5 1.5 0 01-.917-2.688l13.729-10.597-15.446 4.422a1.5 1.5 0 11-.826-2.884l22.975-6.576a1.5 1.5 0 011.329 2.63l-19.929 15.381a1.49 1.49 0 01-.915.312z" fill="#33363A"/>
      <path id="Shape_26" d="M29.39 92.291L9.46 76.911l22.976 6.576" fill="#EAE4C5"/>
      <path id="Shape_27" d="M29.389 93.791c-.32 0-.643-.102-.915-.312L8.544 78.098a1.5 1.5 0 011.33-2.63l22.975 6.576a1.5 1.5 0 01-.826 2.884l-15.446-4.422 13.729 10.597a1.5 1.5 0 01-.917 2.688z" fill="#33363A"/>
      <path id="Shape_28" d="M112.957 92.348l20.198 15.588-23.284-6.666" fill="#DDD2B1"/>
      <path id="Shape_29" d="M133.155 109.436c-.137 0-.275-.019-.413-.058l-23.284-6.666a1.5 1.5 0 01.826-2.884l15.755 4.511-13.997-10.803a1.5 1.5 0 111.833-2.375l20.197 15.588a1.5 1.5 0 01-.917 2.687z" fill="#33363A"/>
      <path id="Shape_30" d="M28.832 92.348L8.634 107.936l23.283-6.666" fill="#DDD2B1"/>
      <path id="Shape_31" d="M8.634 109.436a1.5 1.5 0 01-.916-2.687l20.197-15.588a1.5 1.5 0 011.833 2.375l-13.996 10.803 15.753-4.511a1.5 1.5 0 01.826 2.884l-23.283 6.666a1.52 1.52 0 01-.414.058z" fill="#33363A"/>
      <path id="Shape_32" d="M95.524 51.358l.637-25.164-9.391 21.974" fill="#EAE4C5"/>
      <path id="Shape_33" d="M95.525 52.858h-.039a1.502 1.502 0 01-1.462-1.538l.439-17.336-6.314 14.774a1.496 1.496 0 01-1.969.789 1.499 1.499 0 01-.789-1.97l9.391-21.974a1.505 1.505 0 011.698-.876 1.502 1.502 0 011.181 1.504l-.637 25.165a1.502 1.502 0 01-1.499 1.462z" fill="#33363A"/>
      <path id="Shape_34" d="M46.263 51.358l-.637-25.164 9.391 21.974" fill="#EAE4C5"/>
      <path id="Shape_35" d="M46.262 52.858a1.5 1.5 0 01-1.499-1.462l-.637-25.164a1.5 1.5 0 012.879-.628l9.391 21.975a1.499 1.499 0 01-.789 1.97 1.496 1.496 0 01-1.969-.79l-6.314-14.775.439 17.336a1.501 1.501 0 01-1.462 1.538h-.039z" fill="#33363A"/>
      <path id="Shape_36" d="M91.77 103.506H50.017c-2.757 0-5-2.243-5-5s2.243-5 5-5a1.5 1.5 0 010 3c-1.103 0-2 .897-2 2s.897 2 2 2H91.77c1.103 0 2-.897 2-2s-.897-2-2-2a1.5 1.5 0 010-3c2.757 0 5 2.243 5 5s-2.243 5-5 5z" fill="#33363A"/>
      <path id="Shape_37" d="M86.428 56.158c0 7.258-5.887 13.143-13.145 13.143h-4.778c-7.26 0-13.145-5.885-13.145-13.143V33.156c0-7.26 5.885-13.146 13.145-13.146h4.778c7.258 0 13.145 5.887 13.145 13.146v23.002z" fill="#FFD039"/>
      <path id="Shape_38" d="M73.284 27.62h-4.778c-7.26 0-13.145 5.886-13.145 13.145v15.393c0 7.258 5.885 13.143 13.145 13.143h4.778c7.258 0 13.145-5.885 13.145-13.143V40.766c0-7.26-5.888-13.147-13.145-13.147z" fill="#FFB000"/>
      <path id="Shape_39" d="M85.237 33.653c0 .91-.737 1.648-1.646 1.648h-26.53a1.647 1.647 0 010-3.294h26.53a1.646 1.646 0 011.646 1.646z" fill="#EA7B1F"/>
      <path id="Shape_40" d="M85.237 42.352c0 .91-.737 1.648-1.646 1.648h-26.53a1.647 1.647 0 010-3.294h26.53a1.647 1.647 0 011.646 1.646z" fill="#EA7B1F"/>
      <path id="Shape_41" d="M85.237 51.879c0 .91-.737 1.648-1.646 1.648h-26.53a1.647 1.647 0 010-3.294h26.53c.908 0 1.646.738 1.646 1.646z" fill="#EA7B1F"/>
      <path id="Shape_42" d="M85.237 61.406c0 .91-.737 1.648-1.646 1.648h-26.53a1.647 1.647 0 010-3.294h26.53c.908 0 1.646.738 1.646 1.646z" fill="#EA7B1F"/>
      <path id="Shape_43" d="M73.284 70.801h-4.778c-8.075 0-14.645-6.568-14.645-14.643V33.156c0-8.076 6.57-14.646 14.645-14.646h4.778c8.075 0 14.645 6.57 14.645 14.646v23.002c0 8.075-6.57 14.643-14.645 14.643zM68.505 21.51c-6.42 0-11.645 5.225-11.645 11.646v23.002c0 6.42 5.224 11.643 11.645 11.643h4.778c6.421 0 11.645-5.223 11.645-11.643V33.156c0-6.422-5.224-11.646-11.645-11.646h-4.778z" fill="#33363A"/>
      <path id="Shape_44" d="M62.082 32.678h-.953a1.5 1.5 0 010-3h.953a1.5 1.5 0 010 3z" fill="#33363A"/>
      <path id="Shape_45" d="M80.66 32.678h-.952a1.5 1.5 0 010-3h.952a1.5 1.5 0 010 3z" fill="#33363A"/>
      <path id="Shape_46" d="M75.063 32.678h-8.337a1.5 1.5 0 010-3h8.337a1.5 1.5 0 010 3z" fill="#33363A"/>
      <path id="Shape_47" d="M62.082 42.205h-.953a1.5 1.5 0 010-3h.953a1.5 1.5 0 010 3z" fill="#33363A"/>
      <path id="Shape_48" d="M80.66 42.205h-.952a1.5 1.5 0 010-3h.952a1.5 1.5 0 010 3z" fill="#33363A"/>
      <path id="Shape_49" d="M75.063 42.205h-8.337a1.5 1.5 0 010-3h8.337a1.5 1.5 0 010 3z" fill="#33363A"/>
      <path id="Shape_50" d="M62.082 51.733h-.953a1.5 1.5 0 010-3h.953a1.5 1.5 0 010 3z" fill="#33363A"/>
      <path id="Shape_51" d="M80.66 51.733h-.952a1.5 1.5 0 010-3h.952a1.5 1.5 0 010 3z" fill="#33363A"/>
      <path id="Shape_52" d="M75.063 51.733h-8.337a1.5 1.5 0 010-3h8.337a1.5 1.5 0 010 3z" fill="#33363A"/>
      <path id="Shape_53" d="M62.082 61.26h-.953a1.5 1.5 0 010-3h.953a1.5 1.5 0 010 3z" fill="#33363A"/>
      <path id="Shape_54" d="M80.66 61.26h-.952a1.5 1.5 0 010-3h.952a1.5 1.5 0 010 3z" fill="#33363A"/>
      <path id="Shape_55" d="M75.063 61.26h-8.337a1.5 1.5 0 010-3h8.337a1.5 1.5 0 010 3z" fill="#33363A"/>
      <path id="Shape_56" d="M52.644 106.676a1.5 1.5 0 01-1.5-1.5v-2a1.5 1.5 0 013 0v2a1.5 1.5 0 01-1.5 1.5z" fill="#33363A"/>
      <path id="Shape_57" d="M89.144 106.676a1.5 1.5 0 01-1.5-1.5v-2a1.5 1.5 0 013 0v2a1.5 1.5 0 01-1.5 1.5z" fill="#33363A"/>
    </g>
  </g>
</svg>
