<svg width="141" height="141" fill="none" xmlns="http://www.w3.org/2000/svg">
  <g id="Mew">
    <g id="Group 20" fill-rule="evenodd" clip-rule="evenodd">
      <path id="Shape" d="M127.998 74.299c0 22.873-27.14 41.422-57.205 41.422-30.065 0-57.205-18.549-57.205-41.422 0-22.877 27.14-50.289 57.205-50.289 30.065 0 57.205 27.412 57.205 50.289z" fill="#FFDDD2"/>
      <path id="Shape_2" d="M127.998 74.299c0 22.873-27.14 41.422-57.205 41.422-30.065 0-57.205-18.549-57.205-41.422 0-22.877 27.14-38.641 57.205-38.641 30.065 0 57.205 15.764 57.205 38.641z" fill="#F4C4B3"/>
      <path id="Shape_3" d="M82.386 87.327c0 1.543-5.19 1.82-11.592 1.82s-11.592-.277-11.592-1.82c0-1.541 5.19-5.57 11.592-5.57 6.401-.001 11.592 4.029 11.592 5.57z" fill="#FFDDD2"/>
      <path id="Shape_4" d="M127.998 74.299c0 22.873-27.14 41.422-57.205 41.422-30.065 0-57.205-18.55-57.205-41.422 0-22.88 9.692 20.289 57.205 20.289s57.205-43.168 57.205-20.29z" fill="#E8B5A6"/>
      <path id="Shape_5" d="M70.793 117.221c-31.82 0-58.705-19.656-58.705-42.922 0-23.312 27.09-51.789 58.705-51.789 31.616 0 58.705 28.477 58.705 51.789 0 23.266-26.884 42.922-58.705 42.922zm0-91.711c-24.555 0-55.705 22.972-55.705 48.789 0 10.442 5.93 20.41 16.697 28.065 10.597 7.535 24.815 11.856 39.008 11.856 14.193 0 28.411-4.321 39.008-11.856 10.768-7.655 16.697-17.623 16.697-28.065 0-25.817-31.15-48.789-55.705-48.789z" fill="#33363A"/>
      <path id="Shape_6" d="M45.696 103.198c0-6.367 12.763-11.531 25.096-11.531 12.334 0 25.098 5.164 25.098 11.531 0 6.371-12.764 14.004-25.098 14.004-12.333 0-25.096-7.633-25.096-14.004z" fill="#FFDDD2"/>
      <path id="Shape_7" d="M45.696 103.198c0-6.367 12.763-11.531 25.096-11.531 12.334 0 25.098 5.164 25.098 11.531 0 6.371-12.764 10.76-25.098 10.76-12.333 0-25.096-4.389-25.096-10.76z" fill="#F4C4B3"/>
      <path id="Shape_8" d="M66.036 99.57c0-.43 2.13-.503 4.756-.503 2.625 0 4.755.074 4.755.504s-2.13 1.551-4.755 1.551c-2.627 0-4.756-1.121-4.756-1.551z" fill="#FFDDD2"/>
      <path id="Shape_9" d="M45.696 103.198c0-6.367 12.763-11.531 25.096-11.531 12.334 0 25.098 5.164 25.098 11.531 0 6.371-5.607-5.648-25.098-5.648-19.489-.001-25.096 12.019-25.096 5.648z" fill="#E8B5A6"/>
      <path id="Shape_10" d="M70.792 118.702c-12.925 0-26.596-7.97-26.596-15.504a1.5 1.5 0 113 0c0 5.229 11.89 12.504 23.596 12.504 11.707 0 23.598-7.274 23.598-12.504a1.5 1.5 0 113 0c0 7.534-13.672 15.504-26.598 15.504z" fill="#33363A"/>
      <path id="Shape_11" d="M52.913 81.756a8.905 8.905 0 01-8.908 8.906 8.904 8.904 0 01-8.906-8.906 8.908 8.908 0 1117.814 0z" fill="#2C9DCE"/>
      <path id="Shape_12" d="M52.913 81.756c0 4.922-3.988 1.842-8.908 1.842-4.919 0-8.906 3.08-8.906-1.842a8.908 8.908 0 1117.814 0z" fill="#33363A"/>
      <path id="Shape_13" d="M44.005 92.163c-5.738 0-10.406-4.668-10.406-10.406 0-5.739 4.668-10.408 10.406-10.408 5.74 0 10.408 4.669 10.408 10.408 0 5.738-4.669 10.406-10.408 10.406zm0-17.815c-4.084 0-7.406 3.323-7.406 7.408 0 4.084 3.322 7.406 7.406 7.406 4.085 0 7.408-3.322 7.408-7.406 0-4.085-3.323-7.408-7.408-7.408z" fill="#33363A"/>
      <path id="Oval" d="M39.575 82.49a3.629 3.629 0 100-7.257 3.629 3.629 0 000 7.258z" fill="#fff"/>
      <path id="Shape_14" d="M39.575 83.99a5.135 5.135 0 01-5.129-5.128 5.135 5.135 0 015.13-5.13 5.135 5.135 0 015.128 5.13 5.135 5.135 0 01-5.129 5.129zm0-7.257a2.131 2.131 0 00-2.129 2.129c0 1.174.955 2.129 2.13 2.129a2.131 2.131 0 002.128-2.13 2.131 2.131 0 00-2.129-2.128z" fill="#33363A"/>
      <path id="Shape_15" d="M106.487 81.756a8.904 8.904 0 01-8.906 8.906 8.905 8.905 0 01-8.908-8.906 8.908 8.908 0 1117.814 0z" fill="#2C9DCE"/>
      <path id="Shape_16" d="M106.487 81.756c0 4.922-3.988 1.842-8.906 1.842-4.92 0-8.908 3.08-8.908-1.842a8.908 8.908 0 1117.814 0z" fill="#33363A"/>
      <path id="Shape_17" d="M97.581 92.163c-5.739 0-10.408-4.668-10.408-10.406 0-5.739 4.67-10.408 10.408-10.408 5.738 0 10.406 4.669 10.406 10.408 0 5.738-4.668 10.406-10.406 10.406zm0-17.815c-4.085 0-7.408 3.323-7.408 7.408 0 4.084 3.323 7.406 7.408 7.406 4.084 0 7.406-3.322 7.406-7.406 0-4.085-3.322-7.408-7.406-7.408z" fill="#33363A"/>
      <path id="Oval_2" d="M93.15 82.49a3.629 3.629 0 100-7.257 3.629 3.629 0 000 7.258z" fill="#fff"/>
      <path id="Shape_18" d="M93.15 83.99a5.135 5.135 0 01-5.129-5.128 5.135 5.135 0 015.13-5.13 5.135 5.135 0 015.128 5.13c0 2.828-2.3 5.129-5.129 5.129zm0-7.257a2.131 2.131 0 00-2.129 2.129c0 1.174.955 2.129 2.13 2.129a2.131 2.131 0 002.128-2.13 2.131 2.131 0 00-2.129-2.128z" fill="#33363A"/>
      <path id="Shape_19" d="M41.685 74.348c-4.144 0-7.516-3.371-7.516-7.514a1.5 1.5 0 113 0 4.52 4.52 0 004.516 4.514 1.5 1.5 0 110 3z" fill="#33363A"/>
      <path id="Shape_20" d="M99.901 74.348a1.5 1.5 0 110-3 4.52 4.52 0 004.516-4.514 1.5 1.5 0 113 0c0 4.143-3.372 7.514-7.516 7.514z" fill="#33363A"/>
      <path id="Shape_21" d="M12.388 27.608C6.855 41.477 7.386 57.387 14.45 71.055a59.16 59.16 0 0116.312-20.816 59.213 59.213 0 0123.73-11.691c-11.929-9.719-27.388-13.506-42.103-10.94z" fill="#FFDDD2"/>
      <path id="Shape_22" d="M33.788 56.008c2.993-2.432 3.131-10.27 6.408-12.025-7.648-7.85-17.595-13.074-28.313-15.004-4.97 13.541-4.268 28.854 2.565 42.076 3.682-7.838 12.164-9.222 19.34-15.047z" fill="#F4C4B3"/>
      <path id="Shape_23" d="M14.45 72.555a1.5 1.5 0 01-1.334-.812c-7.156-13.846-7.928-30.136-2.12-44.691a1.501 1.501 0 011.134-.922c15.44-2.696 31.225 1.409 43.307 11.254a1.5 1.5 0 11-1.894 2.326c-11.192-9.119-25.75-13.018-40.066-10.763-5.149 13.546-4.322 28.594 2.305 41.419a1.5 1.5 0 01-1.332 2.189z" fill="#33363A"/>
      <path id="Shape_24" d="M129.198 27.608c5.533 13.869 5.002 29.779-2.061 43.447a59.16 59.16 0 00-16.312-20.816 59.219 59.219 0 00-23.729-11.691c11.927-9.719 27.386-13.506 42.102-10.94z" fill="#FFDDD2"/>
      <path id="Shape_25" d="M107.798 56.008c-2.993-2.432-3.131-10.27-6.408-12.025 7.648-7.85 17.594-13.074 28.313-15.004 4.97 13.541 4.268 28.854-2.565 42.076-3.682-7.838-12.165-9.222-19.34-15.047z" fill="#F4C4B3"/>
      <path id="Shape_26" d="M127.136 72.555a1.5 1.5 0 01-1.331-2.188c6.627-12.825 7.454-27.873 2.305-41.419-14.317-2.255-28.875 1.643-40.066 10.763a1.5 1.5 0 01-1.895-2.326c12.083-9.845 27.868-13.947 43.307-11.254.513.089.942.438 1.135.922 5.807 14.555 5.034 30.845-2.121 44.691a1.5 1.5 0 01-1.334.811z" fill="#33363A"/>
    </g>
  </g>
</svg>
