<svg width="141" height="141" fill="none" xmlns="http://www.w3.org/2000/svg">
  <g id="Pidgey">
    <g id="Group 7" fill-rule="evenodd" clip-rule="evenodd">
      <path id="Shape" d="M119.345 81.564c0 20.675-22.03 37.44-49.209 37.44-27.178 0-49.208-16.765-49.208-37.44 0-20.68 22.031-45.46 49.21-45.46 27.177 0 49.207 24.78 49.207 45.46z" fill="#F9CB58"/>
      <path id="Shape_2" d="M119.345 81.563c0 20.676-22.03 37.441-49.209 37.441-27.178 0-49.208-16.765-49.208-37.44 0-20.68 22.031-34.929 49.21-34.929 27.177 0 49.207 14.248 49.207 34.928z" fill="#E29C37"/>
      <path id="Shape_3" d="M70.137 104.829c24.06 0 44.073-13.143 48.352-30.504-.755-3.318-1.999-6.654-3.672-9.9-5.74 6.557-18.275 21.303-44.68 21.303s-38.939-14.747-44.68-21.304c-1.672 3.246-2.916 6.582-3.672 9.9 4.28 17.362 24.293 30.505 48.352 30.505z" fill="#96562C"/>
      <path id="Shape_4" d="M117.998 72.466c-7.223 8.025-21.248 21.402-47.86 21.402-26.614 0-40.638-13.377-47.86-21.402-.176.621-.35 1.24-.492 1.86 4.28 17.36 24.293 30.503 48.352 30.503 24.06 0 44.073-13.143 48.352-30.504a40.522 40.522 0 00-.492-1.859z" fill="#A8633D"/>
      <path id="Shape_5" d="M70.137 106.329c-24.34 0-45.289-13.308-49.808-31.644a1.499 1.499 0 01-.006-.692c.78-3.42 2.058-6.87 3.801-10.254a1.504 1.504 0 011.151-.803 1.51 1.51 0 011.311.5l.24.275c5.826 6.659 17.95 20.517 43.311 20.517 25.365 0 37.487-13.858 43.313-20.52l.238-.271a1.518 1.518 0 011.311-.502c.493.061.924.36 1.151.802 1.744 3.386 3.023 6.836 3.801 10.256.052.229.05.465-.006.692-4.519 18.335-25.466 31.644-49.808 31.644zM23.328 74.311c4.374 16.835 23.984 29.018 46.808 29.018 22.825 0 42.435-12.182 46.808-29.018a39.606 39.606 0 00-2.493-7.2c-6.544 7.367-19.296 20.117-44.314 20.117s-37.77-12.751-44.315-20.116a39.844 39.844 0 00-2.494 7.199z" fill="#33363A"/>
      <path id="Shape_6" d="M119.345 81.564c0 20.675-22.03 37.44-49.209 37.44-27.178 0-49.208-16.765-49.208-37.44 0-20.682 6.262 18.34 49.21 18.34 42.947 0 49.207-39.021 49.207-18.34z" fill="#F9F1D2"/>
      <path id="Shape_7" d="M119.345 81.564c0 20.675-22.03 27.358-49.209 27.358-27.178 0-49.209-6.684-49.209-27.358 0-20.682 6.262 18.34 49.21 18.34s49.208-39.021 49.208-18.34z" fill="#FFE98D"/>
      <path id="Shape_8" d="M70.137 120.506c-27.96 0-50.709-17.469-50.709-38.942 0-3.88 0-7.544 2.604-7.544 1.41 0 2.54 1.29 4.79 3.864 5.827 6.66 17.952 20.52 43.315 20.52 25.361 0 37.487-13.858 43.314-20.52 2.251-2.573 3.381-3.865 4.791-3.865 2.604 0 2.604 3.665 2.604 7.545-.001 21.473-22.749 38.942-50.709 38.942zm-47.563-42.85c-.08.725-.146 1.925-.146 3.907 0 19.819 21.402 35.942 47.71 35.942 26.306 0 47.708-16.123 47.708-35.941 0-1.982-.065-3.183-.146-3.908-.568.576-1.308 1.421-1.991 2.203-6.119 6.993-18.85 21.545-45.572 21.545-26.725 0-39.455-14.552-45.573-21.546-.683-.78-1.423-1.626-1.99-2.203z" fill="#33363A"/>
      <path id="Shape_9" d="M70.137 120.505c-27.96 0-50.709-17.469-50.709-38.94 0-21.27 22.62-46.96 50.71-46.96 13.04 0 25.771 5.473 35.848 15.407 9.305 9.173 14.86 20.97 14.86 31.552-.001 21.472-22.749 38.941-50.709 38.941zm0-82.9c-26.428 0-47.709 24.048-47.709 43.959 0 19.817 21.402 35.94 47.71 35.94 26.306 0 47.708-16.123 47.708-35.94-.001-19.911-21.282-43.96-47.709-43.96z" fill="#33363A"/>
      <path id="Shape_10" d="M23.722 18.008L21.2 38.8l-10.684-5.914 4.934 17.592-7.814 1.188L39.373 85.32h9.894L23.722 18.01z" fill="#F9F1D2"/>
      <path id="Shape_11" d="M44.013 85.32l-20.29-53.467-2.524 20.79-6.089-3.37.34 1.204-3.724.568 1.977 7.053 25.67 27.222h4.64z" fill="#FFE98D"/>
      <path id="Shape_12" d="M49.267 86.82h-9.895c-.413 0-.808-.17-1.09-.471L6.542 52.694a1.5 1.5 0 01.865-2.513l6.138-.932L9.071 33.29a1.5 1.5 0 012.171-1.717l8.736 4.835 2.255-18.58a1.5 1.5 0 011.308-1.31 1.51 1.51 0 011.583.958l25.545 67.31a1.5 1.5 0 01-1.402 2.032zm-9.247-3h7.073L24.478 24.229l-1.79 14.752a1.5 1.5 0 01-2.216 1.131l-7.543-4.175 3.964 14.136a1.502 1.502 0 01-1.219 1.889l-4.985.756L40.02 83.82z" fill="#33363A"/>
      <path id="Shape_13" d="M116.551 18.008l2.525 20.791 10.682-5.914-4.932 17.592 7.813 1.188-31.738 33.654h-9.893l25.543-67.31z" fill="#F9F1D2"/>
      <path id="Shape_14" d="M96.262 85.32l20.289-53.467 2.525 20.79 6.088-3.37-.338 1.204 3.723.568-1.979 7.053-25.669 27.222h-4.639z" fill="#FFE98D"/>
      <path id="Shape_15" d="M100.901 86.82h-9.894a1.499 1.499 0 01-1.402-2.032l25.543-67.312a1.509 1.509 0 011.583-.957 1.5 1.5 0 011.308 1.31l2.257 18.58 8.734-4.836a1.499 1.499 0 012.171 1.718l-4.474 15.959 6.137.932a1.5 1.5 0 01.865 2.513l-31.737 33.653a1.497 1.497 0 01-1.091.472zm-7.72-3h7.072l29.331-31.103-4.984-.757a1.504 1.504 0 01-1.219-1.889l3.963-14.136-7.542 4.176a1.5 1.5 0 01-2.216-1.131l-1.792-14.754L93.181 83.82z" fill="#33363A"/>
      <path id="Shape_16" d="M53.974 90.222a8.05 8.05 0 01-8.052 8.05 8.049 8.049 0 01-8.05-8.05 8.052 8.052 0 1116.102 0z" fill="#5B524D"/>
      <path id="Shape_17" d="M53.974 90.222c0 4.449-3.605 1.662-8.052 1.662-4.447 0-8.05 2.787-8.05-1.662a8.052 8.052 0 1116.102 0z" fill="#33363A"/>
      <path id="Shape_18" d="M45.923 99.772c-5.266 0-9.55-4.284-9.55-9.55 0-5.268 4.284-9.553 9.55-9.553 5.267 0 9.552 4.285 9.552 9.553 0 5.267-4.285 9.55-9.552 9.55zm0-16.103a6.56 6.56 0 00-6.55 6.553 6.558 6.558 0 006.55 6.552 6.558 6.558 0 006.552-6.552c0-3.613-2.94-6.552-6.552-6.552z" fill="#33363A"/>
      <path id="Oval" d="M41.92 90.885a3.28 3.28 0 100-6.56 3.28 3.28 0 000 6.56z" fill="#fff"/>
      <path id="Shape_19" d="M41.918 92.383a4.785 4.785 0 01-4.779-4.779 4.785 4.785 0 014.78-4.779 4.786 4.786 0 014.78 4.78 4.786 4.786 0 01-4.78 4.778zm0-6.558a1.78 1.78 0 00-1.779 1.78 1.78 1.78 0 003.56 0c0-.982-.799-1.78-1.78-1.78z" fill="#33363A"/>
      <path id="Shape_20" d="M102.402 90.222a8.05 8.05 0 01-8.05 8.05 8.053 8.053 0 118.05-8.051z" fill="#5B524D"/>
      <path id="Shape_21" d="M102.402 90.222c0 4.449-3.605 1.662-8.05 1.662-4.448 0-8.054 2.787-8.054-1.662a8.053 8.053 0 0116.104 0z" fill="#33363A"/>
      <path id="Shape_22" d="M94.351 99.772c-5.268 0-9.553-4.284-9.553-9.55 0-5.268 4.285-9.553 9.553-9.553 5.266 0 9.551 4.285 9.551 9.553 0 5.267-4.285 9.55-9.55 9.55zm0-16.103a6.56 6.56 0 00-6.553 6.553 6.56 6.56 0 006.553 6.552 6.558 6.558 0 006.551-6.552 6.558 6.558 0 00-6.55-6.552z" fill="#33363A"/>
      <path id="Oval_2" d="M90.346 90.885a3.28 3.28 0 100-6.56 3.28 3.28 0 000 6.56z" fill="#fff"/>
      <path id="Shape_23" d="M90.346 92.383a4.785 4.785 0 01-4.78-4.779 4.785 4.785 0 014.78-4.779 4.785 4.785 0 014.78 4.78 4.785 4.785 0 01-4.78 4.778zm0-6.558c-.98 0-1.78.798-1.78 1.78 0 .98.8 1.778 1.78 1.778.981 0 1.78-.798 1.78-1.779 0-.98-.798-1.779-1.78-1.779z" fill="#33363A"/>
      <path id="Shape_24" d="M80.573 96.386c0 1.395-4.69 1.645-10.478 1.645-5.787 0-10.479-.25-10.479-1.645 0-1.393 4.691-5.035 10.48-5.035 5.786 0 10.477 3.643 10.477 5.035z" fill="#A8633D"/>
      <path id="Shape_25" d="M88.595 104.923l-18.458 18.459-18.458-18.459 18.46-12.145 18.456 12.145z" fill="#E5B1C4"/>
      <path id="Shape_26" d="M70.138 92.778l18.457 12.145-18.458 18.459" fill="#B78094"/>
      <path id="Shape_27" d="M88.595 104.923l-18.458 18.459-18.458-18.459 18.46 4.578 18.456-4.578z" fill="#C191A0"/>
      <path id="Shape_28" d="M70.138 124.882c-.398 0-.78-.158-1.062-.439L50.62 105.984a1.5 1.5 0 01.236-2.314l18.458-12.145c.5-.33 1.149-.33 1.65 0L89.42 103.67a1.499 1.499 0 01.234 2.314l-18.457 18.458c-.281.281-.663.44-1.06.44zm-16.096-19.718l16.096 16.096 16.096-16.097-16.094-10.59-16.098 10.591z" fill="#33363A"/>
      <path id="Shape_29" d="M99.01 46.784L89.573 25.79l-9.018 4.052-10.419-10.419-10.42 10.42L50.7 25.79l-9.435 20.994 20.993 9.435.468-1.045 7.411 7.413 7.41-7.41.468 1.042 20.994-9.435z" fill="#F9CB58"/>
      <path id="Shape_30" d="M80.556 47.424L70.137 37.005l-10.42 10.42-9.017-4.053-2.86 6.365 14.418 6.482.468-1.045 7.411 7.413 7.41-7.41.468 1.042 14.42-6.482-2.86-6.365-9.019 4.052z" fill="#E29C37"/>
      <path id="Shape_31" d="M99.01 48.284a1.5 1.5 0 01-1.369-.885l-8.82-19.626-7.649 3.438a1.499 1.499 0 01-1.675-.308l-9.36-9.359-9.359 9.36a1.502 1.502 0 01-1.675.307l-7.648-3.438-8.82 19.626a1.5 1.5 0 11-2.736-1.23l9.435-20.994a1.5 1.5 0 011.982-.753l8.073 3.63 9.688-9.689a1.5 1.5 0 012.121 0l9.688 9.688 8.074-3.629a1.496 1.496 0 011.982.753l9.435 20.994a1.5 1.5 0 01-1.367 2.115z" fill="#33363A"/>
    </g>
  </g>
</svg>
