<svg width="141" height="141" fill="none" xmlns="http://www.w3.org/2000/svg">
  <g id="Pikachu">
    <g id="Group 3" fill-rule="evenodd" clip-rule="evenodd">
      <path id="Shape" d="M97.82 13.01H71.823L57.5 38.149h11.64L53.87 69.174 94 33.266H80.961L97.82 13.01z" fill="#FFD400"/>
      <path id="Shape_2" d="M66.858 21.725L57.5 38.149h11.64L53.87 69.174 84.257 41.98H74.13l7.252-8.715h-.419l9.603-11.541H66.858z" fill="#FFB000"/>
      <path id="Shape_3" d="M53.87 70.674a1.499 1.499 0 01-1.345-2.162L66.73 39.649h-9.229a1.501 1.501 0 01-1.304-2.242l14.323-25.14a1.502 1.502 0 011.304-.757H97.82a1.5 1.5 0 011.153 2.46l-14.81 17.796H94a1.499 1.499 0 011 2.618L54.87 70.292a1.496 1.496 0 01-1 .382zm6.211-34.025h9.06a1.499 1.499 0 011.344 2.162L58.627 62.904l31.446-28.138h-9.11a1.5 1.5 0 01-1.154-2.46L94.62 14.51H72.696L60.081 36.649z" fill="#33363A"/>
      <path id="Shape_4" d="M120.234 91.496c0 20.676-22.032 37.441-49.209 37.441-27.178 0-49.209-16.766-49.209-37.441 0-20.68 22.031-45.46 49.21-45.46 27.176 0 49.208 24.78 49.208 45.46z" fill="#FFF800"/>
      <path id="Shape_5" d="M120.234 91.496c0 20.676-22.032 37.441-49.209 37.441-27.178 0-49.209-16.766-49.209-37.441 0-20.68 22.031-34.928 49.21-34.928 27.176 0 49.208 14.249 49.208 34.928z" fill="#FFD400"/>
      <path id="Shape_6" d="M81.504 81.698c0 1.393-4.69 1.643-10.479 1.643-5.788 0-10.479-.25-10.479-1.643 0-1.395 4.691-5.037 10.48-5.037 5.787 0 10.478 3.642 10.478 5.037z" fill="#FFF800"/>
      <path id="Shape_7" d="M120.234 91.496c0 20.676-22.032 37.441-49.209 37.441-27.178 0-49.209-16.766-49.209-37.441 0-20.682 6.261 18.34 49.21 18.34 42.947 0 49.208-39.021 49.208-18.34z" fill="#FFB000"/>
      <path id="Shape_8" d="M71.025 130.438c-27.96 0-50.709-17.469-50.709-38.941 0-21.27 22.62-46.96 50.71-46.96 13.04 0 25.771 5.473 35.848 15.407 9.305 9.174 14.86 20.97 14.86 31.553 0 21.472-22.748 38.941-50.709 38.941zm0-82.901c-26.428 0-47.709 24.048-47.709 43.959 0 19.818 21.402 35.941 47.71 35.941 26.306 0 47.708-16.123 47.708-35.941 0-19.911-21.28-43.96-47.709-43.96z" fill="#33363A"/>
      <path id="Shape_9" d="M16.332 54.356c6.385 10.541 15.331 16.738 23.985 17.811 1.492-10.754-.872-23.232-7.258-33.773-6.386-10.544-15.332-16.741-23.985-17.81-1.492 10.75.872 23.231 7.258 33.772z" fill="#FFD400"/>
      <path id="Shape_10" d="M9.074 20.584c-1.492 10.75.872 23.23 7.258 33.771 6.385 10.541 15.331 16.738 23.985 17.811L9.074 20.584z" fill="#FFB000"/>
      <path id="Shape_11" d="M31.978 71.07c-.227 0-.455-.05-.67-.158-6.299-3.157-11.92-8.613-16.26-15.779-6.352-10.485-9.07-23.153-7.46-34.755a1.497 1.497 0 011.67-1.282c9.524 1.177 18.667 7.927 25.084 18.52 3.786 6.25 6.338 13.43 7.38 20.764a1.5 1.5 0 01-1.275 1.697 1.507 1.507 0 01-1.696-1.274c-.984-6.938-3.396-13.725-6.975-19.631-5.595-9.237-13.325-15.304-21.4-16.862-1.089 10.51 1.514 21.819 7.24 31.268 4.045 6.682 9.244 11.748 15.035 14.65a1.5 1.5 0 01-.673 2.843z" fill="#33363A"/>
      <path id="Shape_12" d="M25.197 28.643c-5.004-4.619-10.622-7.379-16.123-8.059-1.033 7.45-.212 15.729 2.512 23.616 6.64-2.053 15.421 3.47 13.611-15.557z" fill="#33363A"/>
      <path id="Shape_13" d="M125.718 54.356c-6.385 10.541-15.331 16.738-23.985 17.811-1.492-10.754.871-23.232 7.258-33.773 6.386-10.543 15.332-16.74 23.986-17.809 1.491 10.749-.872 23.23-7.259 33.771z" fill="#FFD400"/>
      <path id="Shape_14" d="M132.977 20.584c1.491 10.75-.872 23.23-7.259 33.771-6.385 10.541-15.331 16.738-23.985 17.811l31.244-51.582z" fill="#FFB000"/>
      <path id="Shape_15" d="M110.072 71.07a1.499 1.499 0 01-.673-2.84c5.789-2.901 10.988-7.968 15.036-14.651 5.725-9.447 8.328-20.758 7.24-31.271-8.076 1.559-15.807 7.625-21.401 16.862-3.579 5.909-5.991 12.697-6.974 19.63a1.5 1.5 0 11-2.97-.422c1.039-7.33 3.591-14.51 7.378-20.763 6.417-10.594 15.561-17.344 25.086-18.52a1.5 1.5 0 011.669 1.282c1.61 11.604-1.109 24.27-7.461 34.755-4.341 7.167-9.963 12.623-16.259 15.778-.216.11-.446.16-.671.16z" fill="#33363A"/>
      <path id="Shape_16" d="M116.853 28.643c5.005-4.619 10.622-7.379 16.124-8.059 1.033 7.449.212 15.729-2.512 23.615-6.64-2.052-15.423 3.471-13.612-15.556z" fill="#33363A"/>
      <path id="Oval" d="M40.024 101.871a7.013 7.013 0 100-14.026 7.013 7.013 0 000 14.026z" fill="#FF1A1A"/>
      <path id="Shape_17" d="M47.037 94.858a7.014 7.014 0 01-14.027 0" fill="#D61D1D"/>
      <path id="Oval_2" d="M102.026 101.872a7.014 7.014 0 100-14.028 7.014 7.014 0 000 14.028z" fill="#FF1A1A"/>
      <path id="Shape_18" d="M109.04 94.858a7.015 7.015 0 01-14.028 0" fill="#D61D1D"/>
      <path id="Shape_19" d="M67.107 84.297l3.918 1.96 3.92-1.96h-7.838z" fill="#33363A"/>
      <path id="Shape_20" d="M71.025 87.758c-.23 0-.46-.053-.67-.158l-3.919-1.961a1.502 1.502 0 01.671-2.842h7.837a1.502 1.502 0 01.671 2.842l-3.919 1.96a1.506 1.506 0 01-.67.159z" fill="#33363A"/>
      <path id="Shape_21" d="M66.935 94.452h-1.457a5.596 5.596 0 01-5.59-5.588 1.5 1.5 0 013 0 2.592 2.592 0 002.59 2.588h1.457a2.591 2.591 0 002.59-2.588v-1.455a1.5 1.5 0 013 0v1.455a5.595 5.595 0 01-5.59 5.588z" fill="#33363A"/>
      <path id="Shape_22" d="M76.572 94.452h-1.456a5.596 5.596 0 01-5.59-5.588v-1.455a1.5 1.5 0 013 0v1.455a2.592 2.592 0 002.59 2.588h1.456a2.592 2.592 0 002.591-2.588 1.5 1.5 0 013 0 5.596 5.596 0 01-5.59 5.588z" fill="#33363A"/>
      <path id="Shape_23" d="M54.863 77.227a8.05 8.05 0 01-8.053 8.05 8.05 8.05 0 01-8.05-8.05 8.052 8.052 0 1116.103 0z" fill="#6D5C4D"/>
      <path id="Shape_24" d="M54.863 77.227c0 4.449-3.605 1.662-8.053 1.662-4.446 0-8.05 2.787-8.05-1.662a8.052 8.052 0 1116.103 0z" fill="#33363A"/>
      <path id="Shape_25" d="M46.81 86.778c-5.267 0-9.55-4.284-9.55-9.551 0-5.268 4.283-9.553 9.55-9.553 5.268 0 9.553 4.285 9.553 9.553 0 5.267-4.285 9.55-9.553 9.55zm0-16.104a6.56 6.56 0 00-6.55 6.553 6.558 6.558 0 006.55 6.55 6.56 6.56 0 006.553-6.55 6.56 6.56 0 00-6.553-6.553z" fill="#33363A"/>
      <path id="Oval_3" d="M42.807 77.89a3.28 3.28 0 100-6.561 3.28 3.28 0 000 6.562z" fill="#fff"/>
      <path id="Shape_26" d="M42.806 79.389a4.785 4.785 0 01-4.78-4.78 4.785 4.785 0 014.78-4.778 4.785 4.785 0 014.781 4.779 4.785 4.785 0 01-4.78 4.779zm0-6.56c-.98 0-1.78.799-1.78 1.78 0 .98.8 1.779 1.78 1.779.982 0 1.781-.798 1.781-1.78 0-.98-.798-1.778-1.78-1.778z" fill="#33363A"/>
      <path id="Shape_27" d="M103.29 77.227a8.049 8.049 0 01-8.051 8.05 8.05 8.05 0 01-8.052-8.05 8.052 8.052 0 1116.103 0z" fill="#6D5C4D"/>
      <path id="Shape_28" d="M103.29 77.227c0 4.449-3.604 1.662-8.051 1.662s-8.052 2.787-8.052-1.662a8.052 8.052 0 1116.103 0z" fill="#33363A"/>
      <path id="Shape_29" d="M95.239 86.778c-5.267 0-9.552-4.284-9.552-9.551 0-5.268 4.285-9.553 9.552-9.553 5.267 0 9.551 4.285 9.551 9.553 0 5.267-4.285 9.55-9.551 9.55zm0-16.104a6.56 6.56 0 00-6.552 6.553 6.559 6.559 0 006.552 6.55 6.557 6.557 0 006.551-6.55 6.56 6.56 0 00-6.551-6.553z" fill="#33363A"/>
      <path id="Oval_4" d="M91.234 77.89a3.28 3.28 0 100-6.56 3.28 3.28 0 000 6.56z" fill="#fff"/>
      <path id="Shape_30" d="M91.235 79.389a4.785 4.785 0 01-4.78-4.78 4.786 4.786 0 014.78-4.778 4.784 4.784 0 014.78 4.779 4.784 4.784 0 01-4.78 4.779zm0-6.56c-.982 0-1.78.799-1.78 1.78 0 .98.798 1.779 1.78 1.779a1.78 1.78 0 001.78-1.78 1.78 1.78 0 00-1.78-1.778z" fill="#33363A"/>
    </g>
  </g>
</svg>
