<svg width="140" height="140" fill="none" xmlns="http://www.w3.org/2000/svg">
  <g id="Pokemon Trainer Boy">
    <g id="Group 24" fill-rule="evenodd" clip-rule="evenodd">
      <path id="Shape" d="M116.622 35.834a3.094 3.094 0 01-3.094 3.094H66.216a3.094 3.094 0 110-6.189h47.312a3.095 3.095 0 013.094 3.095z" fill="#7BC7FF"/>
      <path id="Shape_2" d="M113.528 40.428H66.216a4.6 4.6 0 01-4.594-4.594 4.6 4.6 0 014.594-4.595h47.312a4.6 4.6 0 014.594 4.595 4.6 4.6 0 01-4.594 4.594zM66.216 34.24a1.596 1.596 0 000 3.189h47.312a1.596 1.596 0 000-3.189H66.216z" fill="#33363A"/>
      <path id="Shape_3" d="M93.308 38.363c0 10.335-8.377 18.712-18.711 18.712h-8.346c-10.334 0-18.711-8.377-18.711-18.712v-4.938c0-10.334 8.377-18.71 18.711-18.71h8.346c10.334 0 18.711 8.376 18.711 18.71v4.938z" fill="#BA8663"/>
      <path id="Shape_4" d="M93.308 43.113c0 10.335-8.377 18.712-18.711 18.712h-8.346c-10.334 0-18.711-8.377-18.711-18.712v-4.938c0-10.334 8.377-18.71 18.711-18.71h8.346c10.334 0 18.711 8.376 18.711 18.71v4.938z" fill="#A57555"/>
      <path id="Shape_5" d="M74.597 58.575h-8.346c-11.145 0-20.211-9.067-20.211-20.212v-4.938c0-11.145 9.066-20.21 20.211-20.21h8.346c11.145 0 20.211 9.065 20.211 20.21v4.938c0 11.144-9.067 20.212-20.211 20.212zm-8.346-42.362c-9.49 0-17.211 7.721-17.211 17.211v4.938c0 9.49 7.721 17.212 17.211 17.212h8.346c9.49 0 17.211-7.722 17.211-17.212v-4.938c0-9.49-7.721-17.21-17.211-17.21h-8.346z" fill="#33363A"/>
      <path id="Shape_6" d="M70.425 76.807L8.462 95.414v32.61h123.924v-32.61L70.425 76.807z" fill="#4B6466"/>
      <path id="Shape_7" d="M70.425 76.807L8.462 95.414v32.61h123.924v-32.61L70.425 76.807z" fill="#7BC7FF"/>
      <path id="Shape_8" d="M70.425 93.993L8.462 95.414v32.61h123.924v-32.61l-61.961-1.42z" fill="#12B2B2"/>
      <path id="Shape_9" d="M70.425 93.993L8.462 95.414v32.61h123.924v-32.61l-61.961-1.42z" fill="#0086FF"/>
      <path id="Shape_10" d="M132.386 129.524H8.462a1.5 1.5 0 01-1.5-1.5v-32.61c0-.662.434-1.246 1.068-1.437L69.993 75.37a1.51 1.51 0 01.863 0l61.961 18.607a1.5 1.5 0 011.068 1.437v32.609a1.499 1.499 0 01-1.499 1.501zm-122.424-3h120.924V96.53L70.425 78.373 9.962 96.531v29.993z" fill="#33363A"/>
      <path id="Shape_11" d="M56.754 60.123l-2.63 30.912 16.3 8.12 16.301-8.12-2.63-30.912H56.754z" fill="#33363A"/>
      <path id="Shape_12" d="M70.424 102.155c-.264 0-.527-.069-.762-.208l-16.3-9.62a1.499 1.499 0 01-.732-1.419l2.629-30.911a1.5 1.5 0 011.495-1.373h27.342a1.5 1.5 0 011.495 1.373l2.629 30.911a1.5 1.5 0 01-.732 1.419l-16.301 9.62a1.51 1.51 0 01-.763.208zM55.699 90.222l14.725 8.69 14.726-8.69-2.433-28.599H58.132l-2.433 28.599z" fill="#33363A"/>
      <path id="Shape_13" d="M56.754 60.123l-2.63 30.912 16.3 2.958 16.301-2.958-2.63-30.912H56.754z" fill="#F9C19B"/>
      <path id="Shape_14" d="M84.095 60.123H56.754l-1.5 17.625 10.448 8.549a7.453 7.453 0 009.446 0l10.448-8.549-1.501-17.625z" fill="#EFA37D"/>
      <path id="Shape_15" d="M70.424 96.205c-.11 0-.22-.013-.33-.037l-16.3-3.671a1.499 1.499 0 01-1.165-1.59l2.63-30.911a1.5 1.5 0 011.494-1.373h27.342a1.5 1.5 0 011.495 1.373l2.63 30.911a1.5 1.5 0 01-1.166 1.59l-16.3 3.671c-.109.025-.22.037-.33.037zM55.73 89.859l14.694 3.31 14.695-3.31-2.402-28.235H58.132L55.73 89.859z" fill="#33363A"/>
      <path id="Shape_16" d="M48.527 54.645a7.739 7.739 0 01-7.739-7.74 7.74 7.74 0 017.74-7.739" fill="#F9C19B"/>
      <path id="Shape_17" d="M48.527 56.145c-5.095 0-9.239-4.146-9.239-9.24s4.145-9.239 9.24-9.239a1.5 1.5 0 110 3 6.246 6.246 0 00-6.24 6.239c0 3.44 2.8 6.24 6.24 6.24a1.5 1.5 0 110 3z" fill="#33363A"/>
      <path id="Shape_18" d="M92.32 39.165a7.74 7.74 0 110 15.479" fill="#F9C19B"/>
      <path id="Shape_19" d="M92.32 56.145a1.5 1.5 0 110-3c3.44 0 6.24-2.8 6.24-6.24a6.247 6.247 0 00-6.24-6.239 1.5 1.5 0 110-3c5.096 0 9.241 4.145 9.241 9.239 0 5.094-4.145 9.24-9.24 9.24z" fill="#33363A"/>
      <path id="Shape_20" d="M85.092 32.018L71.73 29.641a7.538 7.538 0 00-2.612 0l-13.361 2.377a7.46 7.46 0 00-6.152 7.344v22.01a7.454 7.454 0 002.736 5.774l13.361 10.932a7.447 7.447 0 004.723 1.687c1.675 0 3.35-.562 4.723-1.687l13.361-10.932a7.46 7.46 0 002.735-5.774v-22.01a7.459 7.459 0 00-6.152-7.344z" fill="#A57555"/>
      <path id="Shape_21" d="M85.092 32.018L71.73 38.495a7.441 7.441 0 00-2.612 0l-13.361-6.477a7.46 7.46 0 00-6.152 7.344v22.01a7.454 7.454 0 002.736 5.774l13.361 10.932a7.447 7.447 0 004.723 1.687c1.675 0 3.35-.562 4.723-1.687l13.361-10.932a7.46 7.46 0 002.735-5.774v-22.01a7.459 7.459 0 00-6.152-7.344z" fill="#F9C19B"/>
      <path id="Shape_22" d="M70.424 79.764c1.675 0 3.35-.562 4.723-1.687l13.362-10.93a7.46 7.46 0 002.735-5.775v-22.01a7.46 7.46 0 00-6.152-7.344L71.73 29.641c-.864-.152-.441-.152-1.306 0" fill="#EFA37D"/>
      <path id="Shape_23" d="M70.424 81.264a8.99 8.99 0 01-5.673-2.025L51.39 68.307a8.927 8.927 0 01-3.286-6.936v-22.01a1.5 1.5 0 113 0v22.01c0 1.796.796 3.478 2.186 4.613l13.361 10.932c2.125 1.738 5.425 1.738 7.546 0L87.56 65.984a5.939 5.939 0 002.185-4.613v-22.01a1.5 1.5 0 113 0v22.01a8.93 8.93 0 01-3.285 6.936L76.097 79.24a8.986 8.986 0 01-5.673 2.025z" fill="#33363A"/>
      <path id="Shape_24" d="M19.183 129.18a1.5 1.5 0 01-1.454-1.136l-5.333-21.307a1.5 1.5 0 112.91-.728l5.333 21.307a1.5 1.5 0 01-1.456 1.864z" fill="#33363A"/>
      <path id="Shape_25" d="M121.665 129.18a1.5 1.5 0 01-1.456-1.864l5.333-21.307a1.5 1.5 0 012.91.728l-5.333 21.307a1.5 1.5 0 01-1.454 1.136z" fill="#33363A"/>
      <path id="Shape_26" d="M81.033 11.008H59.815c-8.108 0-14.681 6.572-14.681 14.68v13.874h50.58V25.688c0-8.108-6.572-14.68-14.681-14.68z" fill="#7BC7FF"/>
      <path id="Shape_27" d="M81.033 17.741H59.815c-8.108 0-14.681 6.572-14.681 14.681v7.141h50.58v-7.14c0-8.11-6.572-14.682-14.681-14.682z" fill="#0086FF"/>
      <path id="Shape_28" d="M95.714 41.062h-50.58a1.5 1.5 0 01-1.5-1.5V25.688c0-8.922 7.259-16.18 16.18-16.18h21.22c8.922 0 16.18 7.258 16.18 16.18v13.874a1.501 1.501 0 01-1.5 1.5zm-49.08-3h47.58V25.688c0-7.268-5.913-13.18-13.181-13.18H59.815c-7.268 0-13.181 5.912-13.181 13.18v12.374z" fill="#33363A"/>
      <path id="Rectangle-path" d="M64.424 28.652h12v4.67h-12v-4.67z" fill="#33363A"/>
      <path id="Shape_29" d="M76.424 34.822h-12a1.5 1.5 0 01-1.5-1.5v-4.67a1.5 1.5 0 011.5-1.5h12a1.5 1.5 0 011.5 1.5v4.67a1.5 1.5 0 01-1.5 1.5zm-10.5-3h9v-1.67h-9v1.67z" fill="#33363A"/>
      <path id="Shape_30" d="M41.986 94.405a1.5 1.5 0 01-.285-2.973l12.834-2.5a1.5 1.5 0 01.573 2.946l-12.834 2.5a1.576 1.576 0 01-.288.027z" fill="#33363A"/>
      <path id="Shape_31" d="M98.862 94.405c-.095 0-.191-.009-.288-.027l-12.834-2.5a1.501 1.501 0 01.573-2.946l12.834 2.5a1.502 1.502 0 01-.285 2.973z" fill="#33363A"/>
      <path id="Shape_32" d="M52.3 120.54c0-10.009 8.115-18.124 18.123-18.124 10.009 0 18.124 8.115 18.124 18.124" fill="#FF8F8F"/>
      <path id="Shape_33" d="M52.3 120.54c0-7.662 8.115-13.885 18.123-13.885 10.009 0 18.124 6.223 18.124 13.885" fill="#FF1A1A"/>
      <path id="Shape_34" d="M88.548 122.04a1.5 1.5 0 01-1.5-1.5c0-9.167-7.458-16.624-16.624-16.624-9.166 0-16.623 7.457-16.623 16.624a1.5 1.5 0 11-3 0c0-10.82 8.803-19.624 19.623-19.624s19.624 8.804 19.624 19.624a1.5 1.5 0 01-1.5 1.5z" fill="#33363A"/>
      <path id="Shape_35" d="M88.548 122.04H52.3a1.5 1.5 0 110-3h36.247a1.5 1.5 0 010 3z" fill="#33363A"/>
      <path id="Shape_36" d="M74.66 116.342a5.988 5.988 0 010 8.472 5.991 5.991 0 110-8.472z" fill="#fff"/>
      <path id="Shape_37" d="M66.186 124.814a5.991 5.991 0 018.474-8.472" fill="#D8E5EA"/>
      <path id="Shape_38" d="M70.424 128.071a7.446 7.446 0 01-5.299-2.196 7.433 7.433 0 01-2.193-5.295c0-2.002.78-3.884 2.193-5.298a7.442 7.442 0 015.298-2.195c2.002 0 3.883.78 5.297 2.196a7.437 7.437 0 012.194 5.299c0 2.001-.78 3.882-2.196 5.294a7.431 7.431 0 01-5.294 2.195zm0-11.985c-1.2 0-2.328.468-3.177 1.316a4.462 4.462 0 00-1.314 3.177c0 1.199.466 2.327 1.314 3.173a4.46 4.46 0 003.178 1.318c1.2 0 2.327-.468 3.174-1.316a4.454 4.454 0 001.317-3.174c0-1.2-.467-2.329-1.315-3.177a4.465 4.465 0 00-3.177-1.317z" fill="#33363A"/>
    </g>
  </g>
</svg>
