<svg width="140" height="140" fill="none" xmlns="http://www.w3.org/2000/svg">
  <g id="Pokeball">
    <g id="Group 21" fill-rule="evenodd" clip-rule="evenodd">
      <path id="Oval" d="M69.834 131.5c34.058 0 61.667-27.609 61.667-61.667S103.892 8.166 69.834 8.166 8.167 35.776 8.167 69.833c0 34.058 27.61 61.667 61.667 61.667z" fill="#FF1A1A"/>
      <path id="Oval_2" d="M69.834 117.065c34.058 0 61.667-21.146 61.667-47.232 0-26.085-27.609-47.232-61.667-47.232S8.167 43.748 8.167 69.833c0 26.086 27.61 47.232 61.667 47.232z" fill="#D60909"/>
      <path id="Shape" d="M8.167 69.833c0 34.061 27.609 61.668 61.667 61.668s61.667-27.607 61.667-61.668H8.167z" fill="#fff"/>
      <path id="Shape_2" d="M69.834 117.065c34.058 0 61.667-21.148 61.667-47.232H8.167c0 26.084 27.609 47.232 61.667 47.232z" fill="#D8E5EA"/>
      <path id="Shape_3" d="M69.834 133.001c-34.831 0-63.167-28.337-63.167-63.168 0-34.83 28.336-63.166 63.167-63.166s63.167 28.336 63.167 63.166c0 34.831-28.336 63.168-63.167 63.168zm0-123.334c-33.176 0-60.167 26.99-60.167 60.166 0 33.177 26.991 60.168 60.167 60.168s60.167-26.991 60.167-60.168c0-33.176-26.991-60.166-60.167-60.166z" fill="#33363A"/>
      <path id="Shape_4" d="M131.501 71.333H8.167a1.5 1.5 0 110-3h123.334a1.5 1.5 0 110 3z" fill="#33363A"/>
      <path id="Oval_3" d="M69.834 92.299c9.259 0 16.764-7.506 16.764-16.764s-7.505-16.764-16.764-16.764c-9.258 0-16.764 7.505-16.764 16.764 0 9.258 7.506 16.764 16.764 16.764z" fill="#A7BBC1"/>
      <path id="Oval_4" d="M69.834 86.598c9.259 0 16.764-7.506 16.764-16.764 0-9.259-7.505-16.764-16.764-16.764-9.258 0-16.764 7.505-16.764 16.764 0 9.258 7.506 16.764 16.764 16.764z" fill="#fff"/>
      <path id="Shape_5" d="M57.98 81.688c-6.547-6.547-6.546-17.16 0-23.71 6.547-6.545 17.16-6.545 23.707 0" fill="#D8E5EA"/>
      <path id="Shape_6" d="M69.834 88.099c-4.878 0-9.465-1.9-12.915-5.35-7.12-7.12-7.12-18.707 0-25.83a18.149 18.149 0 0112.915-5.35c4.878 0 9.464 1.9 12.914 5.35A18.15 18.15 0 0188.1 69.835c0 4.878-1.9 9.464-5.35 12.914a18.14 18.14 0 01-12.915 5.35zm0-33.53c-4.077 0-7.91 1.588-10.793 4.47-5.95 5.954-5.95 15.638 0 21.589a15.164 15.164 0 0010.793 4.47 15.16 15.16 0 0010.792-4.47 15.165 15.165 0 004.472-10.793c0-4.077-1.588-7.911-4.472-10.795a15.161 15.161 0 00-10.792-4.47z" fill="#33363A"/>
      <path id="Shape_7" d="M75.538 75.537c-3.149 3.146-8.257 3.146-11.404 0a8.064 8.064 0 1111.404 0z" fill="#fff"/>
      <path id="Shape_8" d="M64.134 64.134a8.063 8.063 0 0111.404 11.403" fill="#D8E5EA"/>
      <path id="Shape_9" d="M69.835 79.396a9.503 9.503 0 01-6.762-2.798c-3.729-3.73-3.729-9.797 0-13.525a9.494 9.494 0 016.761-2.802 9.5 9.5 0 016.763 2.802c3.728 3.727 3.728 9.794.001 13.524a9.5 9.5 0 01-6.763 2.799zm0-16.124a6.516 6.516 0 00-4.64 1.923 6.57 6.57 0 000 9.282 6.52 6.52 0 004.64 1.919 6.529 6.529 0 004.643-1.92 6.572 6.572 0 000-9.281 6.525 6.525 0 00-4.644-1.923z" fill="#33363A"/>
    </g>
  </g>
</svg>
