<svg width="140" height="140" fill="none" xmlns="http://www.w3.org/2000/svg">
  <g id="Pokemon Trainer Girl">
    <g id="Group 23" fill-rule="evenodd" clip-rule="evenodd">
      <path id="Shape" d="M47.745 74.607c4.518-4.517 6.627-10.515 6.377-16.43-5.916-.25-11.913 1.86-16.43 6.375-4.518 4.518-6.627 10.515-6.376 16.431 5.916.25 11.913-1.858 16.429-6.376z" fill="#FF8B00"/>
      <path id="Shape_2" d="M32.258 82.503c-.001 0-.001 0 0 0-.335 0-.671-.007-1.005-.02a1.5 1.5 0 01-1.435-1.437c-.278-6.548 2.206-12.946 6.814-17.555 4.643-4.643 10.958-7.092 17.553-6.814a1.5 1.5 0 011.436 1.436c.277 6.55-2.207 12.948-6.815 17.555-4.407 4.408-10.284 6.835-16.548 6.835zm20.376-22.839c-5.257.138-10.168 2.237-13.881 5.95-3.681 3.681-5.807 8.676-5.95 13.882 5.259-.136 10.169-2.236 13.88-5.949 3.683-3.68 5.808-8.676 5.95-13.883z" fill="#33363A"/>
      <path id="Shape_3" d="M93.1 74.607c-4.517-4.517-6.626-10.515-6.377-16.43 5.917-.25 11.913 1.86 16.431 6.375 4.518 4.518 6.626 10.515 6.376 16.431-5.917.25-11.913-1.858-16.43-6.376z" fill="#FF8B00"/>
      <path id="Shape_4" d="M108.589 82.503c-6.265 0-12.142-2.427-16.55-6.835-4.607-4.606-7.091-11.005-6.815-17.555a1.502 1.502 0 011.436-1.436c6.6-.273 12.91 2.172 17.554 6.814 4.607 4.607 7.091 11.006 6.814 17.555a1.502 1.502 0 01-1.435 1.436c-.335.014-.67.021-1.004.021zM88.211 59.664c.144 5.208 2.269 10.202 5.949 13.883 3.713 3.713 8.624 5.812 13.881 5.95-.143-5.208-2.268-10.203-5.948-13.884-3.713-3.71-8.625-5.81-13.882-5.949z" fill="#33363A"/>
      <path id="Shape_5" d="M70.424 85.52L10.96 96.625l5.21 29.861h108.504l5.21-29.86L70.424 85.52z" fill="#4B6466"/>
      <path id="Shape_6" d="M70.424 85.52L10.96 96.625l5.21 29.861h108.504l5.21-29.86L70.424 85.52z" fill="#FF5252"/>
      <path id="Shape_7" d="M70.424 102.735l-59.463-6.11 5.21 29.861h108.504l5.21-29.86-59.461 6.109z" fill="#FF1A1A"/>
      <path id="Shape_8" d="M124.675 127.986H16.172a1.5 1.5 0 01-1.478-1.242l-5.21-29.86a1.5 1.5 0 011.202-1.733l59.463-11.104c.182-.033.369-.033.55 0l59.462 11.104a1.5 1.5 0 011.202 1.732l-5.21 29.861a1.5 1.5 0 01-1.478 1.242zm-107.242-3h105.981l4.738-27.159-57.73-10.78-57.73 10.78 4.74 27.159z" fill="#33363A"/>
      <path id="Shape_9" d="M56.753 61.334l-.13 30.912 13.8 33.557 13.801-33.557-.129-30.912H56.753z" fill="#EFA37D"/>
      <path id="Shape_10" d="M79.5 103.729H61.347l8.82 21.45h.514l8.82-21.45z" fill="#0086FF"/>
      <path id="Shape_11" d="M70.68 126.679h-.513a1.499 1.499 0 01-1.387-.93l-8.821-21.45a1.501 1.501 0 011.387-2.07h18.155a1.499 1.499 0 011.387 2.07l-8.821 21.45c-.231.563-.779.93-1.387.93zm-7.095-21.45l6.839 16.63 6.839-16.63H63.585z" fill="#33363A"/>
      <path id="Shape_12" d="M56.753 61.334l-.13 30.912 13.8 2.957 13.801-2.957-.129-30.912H56.753z" fill="#F9C19B"/>
      <path id="Shape_13" d="M84.095 61.334H56.753l-1.5 17.625L65.7 87.51a7.446 7.446 0 004.723 1.685 7.445 7.445 0 004.724-1.686l10.448-8.547-1.5-17.627z" fill="#EFA37D"/>
      <path id="Shape_14" d="M70.423 127.303a1.499 1.499 0 01-1.387-.93l-13.8-33.557a1.5 1.5 0 01-.113-.576l.13-30.912a1.5 1.5 0 011.5-1.494h27.342a1.5 1.5 0 011.5 1.494l.129 30.912c0 .197-.038.394-.113.576L71.81 126.373a1.5 1.5 0 01-1.387.93zm-12.298-35.35l12.298 29.906 12.299-29.906-.121-29.119H58.247l-.122 29.12z" fill="#33363A"/>
      <path id="Shape_15" d="M95.741 39.158c0 12.705-11.335 23.004-25.318 23.004-13.982 0-25.318-10.299-25.318-23.004 0-12.705 11.336-25.996 25.318-25.996 13.983 0 25.318 13.291 25.318 25.996z" fill="#FFBF31"/>
      <path id="Shape_16" d="M95.741 39.158c0 12.705-11.335 23.004-25.318 23.004-13.982 0-25.318-10.299-25.318-23.004 0-12.705 11.336-20.12 25.318-20.12 13.983 0 25.318 7.415 25.318 20.12z" fill="#FF8B00"/>
      <path id="Shape_17" d="M70.423 63.662c-14.788 0-26.818-10.992-26.818-24.504 0-12.979 11.469-27.496 26.818-27.496 12.66 0 26.818 11.76 26.818 27.496 0 13.512-12.03 24.504-26.818 24.504zm0-49c-11.243 0-23.818 10.476-23.818 24.496 0 11.857 10.685 21.504 23.818 21.504 13.133 0 23.818-9.646 23.818-21.504 0-14.02-12.575-24.496-23.818-24.496z" fill="#33363A"/>
      <path id="Shape_18" d="M50.412 58.355a7.073 7.073 0 110-14.145" fill="#F9C19B"/>
      <path id="Shape_19" d="M50.412 59.855c-4.728 0-8.573-3.846-8.573-8.572 0-4.728 3.846-8.573 8.573-8.573a1.5 1.5 0 110 3 5.58 5.58 0 00-5.573 5.573 5.58 5.58 0 005.573 5.572 1.5 1.5 0 110 3z" fill="#33363A"/>
      <path id="Shape_20" d="M90.435 44.21a7.073 7.073 0 010 14.145" fill="#F9C19B"/>
      <path id="Shape_21" d="M90.435 59.855a1.5 1.5 0 110-3 5.58 5.58 0 005.573-5.572 5.58 5.58 0 00-5.573-5.573 1.5 1.5 0 110-3c4.728 0 8.573 3.846 8.573 8.573s-3.846 8.572-8.573 8.572z" fill="#33363A"/>
      <path id="Shape_22" d="M85.092 35.73L71.73 33.351a7.538 7.538 0 00-2.612 0l-13.361 2.38a7.457 7.457 0 00-6.152 7.343v19.51a7.458 7.458 0 002.735 5.773L65.701 81.79a7.44 7.44 0 004.723 1.686 7.44 7.44 0 004.724-1.686L88.51 68.357a7.46 7.46 0 002.734-5.774V43.074a7.459 7.459 0 00-6.152-7.344z" fill="#EFA37D"/>
      <path id="Shape_23" d="M85.092 35.73L71.73 42.205a7.538 7.538 0 00-2.612 0L55.757 35.73a7.457 7.457 0 00-6.152 7.344v19.51a7.458 7.458 0 002.735 5.773L65.701 81.79a7.44 7.44 0 004.723 1.686 7.44 7.44 0 004.724-1.686L88.51 68.357a7.46 7.46 0 002.734-5.774V43.074a7.459 7.459 0 00-6.152-7.344z" fill="#F9C19B"/>
      <path id="Shape_24" d="M70.423 83.474a7.44 7.44 0 004.724-1.686l13.362-13.432a7.46 7.46 0 002.734-5.774V43.074a7.458 7.458 0 00-6.151-7.344L71.73 33.351c-.864-.152-.441-.152-1.307 0" fill="#EFA37D"/>
      <path id="Shape_25" d="M70.423 84.974a8.978 8.978 0 01-5.673-2.025 1.22 1.22 0 01-.113-.103l-13.31-13.38a8.927 8.927 0 01-3.224-6.884V43.074c0-4.35 3.108-8.06 7.39-8.82l13.361-2.379a9.02 9.02 0 013.135 0l13.365 2.38a8.948 8.948 0 017.389 8.82v19.508a8.926 8.926 0 01-3.223 6.884l-13.311 13.38a1.84 1.84 0 01-.113.103 8.973 8.973 0 01-5.673 2.024zm-3.716-4.3c2.103 1.681 5.334 1.68 7.434 0L87.446 67.3a1.84 1.84 0 01.113-.103 5.945 5.945 0 002.185-4.614V43.074a5.95 5.95 0 00-4.914-5.867l-13.362-2.379a6.106 6.106 0 00-2.089.001L56.02 37.207a5.952 5.952 0 00-4.915 5.867v19.51c0 1.794.796 3.476 2.186 4.612.04.033.077.067.113.104l13.303 13.374z" fill="#33363A"/>
      <path id="Shape_26" d="M27.468 127.986a1.5 1.5 0 01-1.358-.86l-5.333-11.309a1.5 1.5 0 012.714-1.279l5.333 11.309a1.5 1.5 0 01-1.356 2.139z" fill="#33363A"/>
      <path id="Shape_27" d="M113.379 127.986a1.5 1.5 0 01-1.356-2.14l5.333-11.309a1.5 1.5 0 112.714 1.279l-5.333 11.309a1.498 1.498 0 01-1.358.861z" fill="#33363A"/>
      <path id="Shape_28" d="M70.423 19.856c-11.517 0-20.852 9.335-20.852 20.852h41.703c0-11.517-9.335-20.852-20.851-20.852z" fill="#FFBF31"/>
      <path id="Shape_29" d="M70.423 25.827c-9.441 0-17.412 6.274-19.98 14.881h39.96c-2.57-8.607-10.54-14.88-19.98-14.88z" fill="#FF8B00"/>
      <path id="Shape_30" d="M91.275 42.208H49.57a1.5 1.5 0 110-3h41.703a1.5 1.5 0 010 3z" fill="#33363A"/>
      <path id="Rectangle-path" d="M80.053 125.979h.1v.1h-.1v-.1z" fill="#FF5252"/>
      <path id="Shape_31" d="M85.594 116.262c0-6.92 5.612-12.533 12.532-12.533 6.921 0 12.532 5.613 12.532 12.533" fill="#6EBDF9"/>
      <path id="Shape_32" d="M85.594 116.262c0-5.299 5.612-9.601 12.532-9.601 6.921 0 12.532 4.302 12.532 9.601" fill="#0086FF"/>
      <path id="Shape_33" d="M110.658 117.762a1.5 1.5 0 01-1.5-1.5c0-6.084-4.949-11.033-11.032-11.033s-11.032 4.949-11.032 11.033a1.5 1.5 0 11-3 0c0-7.738 6.295-14.033 14.032-14.033s14.032 6.295 14.032 14.033a1.5 1.5 0 01-1.5 1.5z" fill="#33363A"/>
      <path id="Shape_34" d="M110.658 117.762H85.594a1.5 1.5 0 110-3h25.064a1.5 1.5 0 110 3z" fill="#33363A"/>
      <path id="Oval" d="M98.125 120.431a4.143 4.143 0 100-8.286 4.143 4.143 0 000 8.286z" fill="#fff"/>
      <path id="Shape_35" d="M95.195 119.218a4.143 4.143 0 015.859-5.858" fill="#D8E5EA"/>
      <path id="Shape_36" d="M98.126 121.932a5.61 5.61 0 01-3.991-1.654 5.598 5.598 0 01-1.652-3.988c0-1.508.586-2.925 1.652-3.991a5.61 5.61 0 013.992-1.653c1.508 0 2.925.588 3.99 1.654a5.605 5.605 0 011.653 3.992 5.59 5.59 0 01-1.655 3.987 5.599 5.599 0 01-3.99 1.653zm0-8.287c-.706 0-1.371.275-1.87.774a2.626 2.626 0 00-.773 1.87c0 .706.274 1.368.773 1.866 1 1.002 2.74 1.001 3.738.002.501-.5.775-1.162.776-1.867 0-.707-.275-1.371-.775-1.871a2.632 2.632 0 00-1.87-.774z" fill="#33363A"/>
    </g>
  </g>
</svg>
