<svg width="140" height="140" fill="none" xmlns="http://www.w3.org/2000/svg">
  <g id="Pokemon">
    <g id="Group 26" fill-rule="evenodd" clip-rule="evenodd">
      <path id="Shape" d="M42.312 130.125a2.168 2.168 0 01-2.168 2.167h-3.52a2.167 2.167 0 01-2.168-2.167v-4.333c0-1.197.97-2.166 2.167-2.166h3.521c1.197 0 2.168.969 2.168 2.166v4.333z" fill="#FF8B00"/>
      <path id="Shape_2" d="M76.747 130.125c0 1.197-.97 2.167-2.167 2.167h-3.521a2.168 2.168 0 01-2.168-2.167v-4.333c0-1.197.97-2.166 2.168-2.166h3.52c1.198 0 2.168.969 2.168 2.166v4.333z" fill="#FF8B00"/>
      <path id="Shape_3" d="M40.144 133.792h-3.52a3.671 3.671 0 01-3.668-3.667v-4.333a3.67 3.67 0 013.667-3.666h3.521a3.672 3.672 0 013.668 3.666v4.333a3.671 3.671 0 01-3.668 3.667zm-3.52-8.666a.667.667 0 00-.668.666v4.333c0 .368.3.667.667.667h3.521a.668.668 0 00.668-.667v-4.333c0-.367-.3-.666-.668-.666h-3.52z" fill="#33363A"/>
      <path id="Shape_4" d="M74.58 133.792h-3.521a3.672 3.672 0 01-3.668-3.667v-4.333a3.672 3.672 0 013.668-3.666h3.52a3.67 3.67 0 013.668 3.666v4.333a3.671 3.671 0 01-3.667 3.667zm-3.522-8.666a.668.668 0 00-.668.666v4.333c0 .368.3.667.668.667h3.52a.667.667 0 00.668-.667v-4.333a.667.667 0 00-.667-.666h-3.521z" fill="#33363A"/>
      <path id="Shape_5" d="M29.625 28.208a30.54 30.54 0 0013.298 16.404 30.547 30.547 0 00.47-21.113A30.544 30.544 0 0030.096 7.1a30.527 30.527 0 00-.47 21.11z" fill="#FFBF31"/>
      <path id="Shape_6" d="M81.578 28.208a30.542 30.542 0 01-13.3 16.404 30.547 30.547 0 01-.47-21.113 30.544 30.544 0 0113.3-16.4 30.539 30.539 0 01.47 21.11z" fill="#FFBF31"/>
      <path id="Shape_7" d="M30.094 15.146a30.792 30.792 0 00-1.852 7.172 30.74 30.74 0 001.382 5.891 30.54 30.54 0 0013.298 16.404 30.839 30.839 0 001.852-7.173 30.787 30.787 0 00-1.381-5.892 30.539 30.539 0 00-13.3-16.402z" fill="#FF8B00"/>
      <path id="Shape_8" d="M67.809 31.548a30.695 30.695 0 00-1.381 5.892c.329 2.467.95 4.876 1.851 7.173A30.546 30.546 0 0081.578 28.21a30.722 30.722 0 001.381-5.893 30.639 30.639 0 00-1.851-7.17 30.548 30.548 0 00-13.299 16.402z" fill="#FF8B00"/>
      <path id="Shape_9" d="M42.923 46.112c-.268 0-.533-.072-.769-.212a32.175 32.175 0 01-13.948-17.207 32.172 32.172 0 01.492-22.144 1.498 1.498 0 012.165-.74 32.178 32.178 0 0113.949 17.204 32.195 32.195 0 01-.493 22.146 1.502 1.502 0 01-1.396.953zM30.874 9.377a29.175 29.175 0 00.17 18.346 29.172 29.172 0 0011.1 14.61 29.198 29.198 0 00-.169-18.349A29.192 29.192 0 0030.874 9.377z" fill="#33363A"/>
      <path id="Shape_10" d="M68.279 46.112a1.5 1.5 0 01-1.396-.953 32.195 32.195 0 01-.492-22.146A32.178 32.178 0 0180.34 5.81a1.502 1.502 0 012.165.74 32.177 32.177 0 01.492 22.144A32.174 32.174 0 0169.047 45.9a1.496 1.496 0 01-.768.212zm12.05-36.735a29.195 29.195 0 00-11.101 14.608 29.205 29.205 0 00-.17 18.35 29.186 29.186 0 0011.1-14.61 29.185 29.185 0 00.17-18.348z" fill="#33363A"/>
      <path id="Shape_11" d="M81.814 99.997V61.903c0-13.422-10.92-24.343-24.341-24.343h-3.745c-13.421 0-24.34 10.921-24.34 24.343v38.094a10.35 10.35 0 00-2.767 7.046v8.628c0 5.748 4.658 10.404 10.404 10.404h37.15c5.745 0 10.404-4.656 10.404-10.404v-8.628a10.339 10.339 0 00-2.765-7.046z" fill="#FFBF31"/>
      <path id="Shape_12" d="M81.814 99.997V68.325c0-13.422-10.92-24.342-24.341-24.342h-3.745c-13.421 0-24.34 10.92-24.34 24.342v38.095a10.353 10.353 0 00-2.767 7.046v2.205c0 5.748 4.658 10.404 10.404 10.404h37.15c5.745 0 10.404-4.656 10.404-10.404v-2.205c0-2.721-1.055-5.191-2.767-7.046v-6.423h.002z" fill="#FF8B00"/>
      <path id="Shape_13" d="M74.176 127.575h-37.15c-6.564 0-11.904-5.34-11.904-11.904v-8.628c0-2.79.979-5.469 2.767-7.61v-37.53c0-14.25 11.592-25.843 25.84-25.843h3.745c14.249 0 25.84 11.593 25.84 25.843v37.53a11.848 11.848 0 012.768 7.609v8.628c-.001 6.565-5.341 11.905-11.906 11.905zM53.728 39.061c-12.594 0-22.84 10.247-22.84 22.843v38.094c0 .377-.143.741-.398 1.018a8.868 8.868 0 00-2.368 6.028v8.628c0 4.91 3.994 8.904 8.904 8.904h37.15c4.91 0 8.904-3.995 8.904-8.904v-8.628a8.866 8.866 0 00-2.368-6.028 1.499 1.499 0 01-.398-1.018V61.903c0-12.596-10.246-22.843-22.841-22.843h-3.745v.001z" fill="#33363A"/>
      <path id="Shape_14" d="M126.103 76.602L98.673 64.93 72.269 85.02l12.28 5.23-30.044 25.879 58.469-19.869-13.755-5.854 26.884-13.803z" fill="#FFBF31"/>
      <path id="Shape_15" d="M92.148 93.9l26.885-13.805L93.192 69.1 72.269 85.02l12.28 5.23-30.044 25.879 49.974-16.98L92.148 93.9z" fill="#FF8B00"/>
      <path id="Shape_16" d="M54.505 117.629a1.5 1.5 0 01-.482-2.921l54.752-18.606-10.143-4.316a1.5 1.5 0 01-.099-2.715L122.57 76.73 98.888 66.651l-23.657 18 9.907 4.218a1.5 1.5 0 11-1.176 2.76L71.681 86.4a1.498 1.498 0 01-.32-2.573l26.404-20.09a1.5 1.5 0 011.495-.187l27.43 11.673a1.5 1.5 0 01.099 2.715L102.751 90.28l10.811 4.601a1.5 1.5 0 01-.105 2.801l-58.47 19.869c-.16.052-.322.078-.482.078z" fill="#33363A"/>
      <path id="Shape_17" d="M28.053 21.974a1.501 1.501 0 01-1.497-1.393 32.288 32.288 0 012.14-14.03 1.502 1.502 0 012.166-.742c3.503 2.09 6.556 4.823 9.074 8.125a1.5 1.5 0 01-.494 2.237l-10.691 5.63a1.482 1.482 0 01-.698.173zm2.82-12.596a29.395 29.395 0 00-1.395 8.65l6.95-3.66a28.942 28.942 0 00-5.554-4.99z" fill="#33363A"/>
      <path id="Shape_18" d="M30.094 7.098a30.594 30.594 0 00-2.041 13.376l10.69-5.629a30.604 30.604 0 00-8.65-7.747z" fill="#33363A"/>
      <path id="Shape_19" d="M83.149 21.974c-.24 0-.48-.058-.7-.173l-10.69-5.629a1.502 1.502 0 01-.494-2.237c2.519-3.302 5.57-6.036 9.074-8.125a1.502 1.502 0 012.165.741 32.322 32.322 0 012.14 14.031 1.5 1.5 0 01-1.495 1.392zm-8.376-7.605l6.95 3.66a29.362 29.362 0 00-1.395-8.65 28.906 28.906 0 00-5.555 4.99z" fill="#33363A"/>
      <path id="Shape_20" d="M72.458 14.845l10.691 5.63a30.594 30.594 0 00-2.041-13.377 30.618 30.618 0 00-8.65 7.747z" fill="#33363A"/>
      <path id="Shape_21" d="M47.561 68.258a1.5 1.5 0 01-1.061-2.56c5.456-5.458 14.333-5.458 19.791-.002a1.5 1.5 0 11-2.121 2.121c-4.286-4.287-11.264-4.285-15.549.002a1.491 1.491 0 01-1.06.44z" fill="#33363A"/>
      <path id="Shape_22" d="M65.231 80.254c-.384 0-.768-.146-1.061-.439-4.287-4.286-11.262-4.286-15.549 0a1.5 1.5 0 11-2.121-2.12c5.457-5.458 14.334-5.458 19.791 0a1.5 1.5 0 01-1.06 2.56z" fill="#33363A"/>
      <path id="Shape_23" d="M38.383 133.792h-7.776a1.5 1.5 0 110-3h7.776a1.5 1.5 0 110 3z" fill="#33363A"/>
      <path id="Shape_24" d="M24.173 133.792h-.09a1.5 1.5 0 110-3c.828 0 1.545.671 1.545 1.5s-.627 1.5-1.455 1.5z" fill="#33363A"/>
      <path id="Shape_25" d="M18.982 133.792h-.09a1.5 1.5 0 110-3c.828 0 1.545.671 1.545 1.5s-.627 1.5-1.455 1.5z" fill="#33363A"/>
      <path id="Shape_26" d="M13.79 133.792h-.09a1.5 1.5 0 110-3c.829 0 1.546.671 1.546 1.5s-.627 1.5-1.455 1.5z" fill="#33363A"/>
    </g>
  </g>
</svg>
