<svg width="141" height="141" fill="none" xmlns="http://www.w3.org/2000/svg">
  <g id="Psyduck">
    <g id="Group 15" fill-rule="evenodd" clip-rule="evenodd">
      <path id="Shape" d="M70.843 29.846a3 3 0 01-3-3V9.51a3 3 0 116 0v17.336a3 3 0 01-3 3z" fill="#33363A"/>
      <path id="Shape_2" d="M67.665 32.811a2.996 2.996 0 01-2.497-1.333l-9.636-14.416a3 3 0 114.988-3.334l9.636 14.416a3 3 0 01-2.49 4.667z" fill="#33363A"/>
      <path id="Shape_3" d="M74.02 32.811a3 3 0 01-2.491-4.667l9.637-14.416a2.999 2.999 0 114.988 3.334l-9.636 14.416a2.998 2.998 0 01-2.497 1.333z" fill="#33363A"/>
      <path id="Shape_4" d="M120.052 76.02c0 20.676-22.032 37.441-49.209 37.441-27.178 0-49.209-16.766-49.209-37.44 0-20.68 22.031-45.46 49.209-45.46 27.177 0 49.209 24.78 49.209 45.46z" fill="#FFF800"/>
      <path id="Shape_5" d="M120.052 76.02c0 20.676-22.032 37.441-49.209 37.441-27.178 0-49.209-16.766-49.209-37.44 0-20.68 22.031-34.929 49.209-34.929 27.177 0 49.209 14.248 49.209 34.928z" fill="#FFD400"/>
      <path id="Shape_6" d="M81.322 64.878c0 1.395-4.691 1.645-10.479 1.645-5.788 0-10.479-.25-10.479-1.645 0-1.393 4.691-5.035 10.479-5.035 5.788 0 10.479 3.642 10.479 5.035z" fill="#FFF800"/>
      <path id="Shape_7" d="M120.052 76.02c0 20.676-22.032 37.441-49.209 37.441-27.178 0-49.209-16.766-49.209-37.44 0-20.683 6.261 18.34 49.209 18.34s49.209-39.023 49.209-18.34z" fill="#FFB000"/>
      <path id="Shape_8" d="M70.843 114.961c-27.961 0-50.709-17.469-50.709-38.94 0-21.27 22.619-46.96 50.709-46.96 13.041 0 25.772 5.472 35.849 15.406 9.305 9.174 14.86 20.97 14.86 31.553 0 21.473-22.748 38.941-50.709 38.941zm0-82.9c-26.428 0-47.709 24.048-47.709 43.96 0 19.817 21.402 35.94 47.709 35.94 26.307 0 47.709-16.123 47.709-35.94 0-19.912-21.281-43.96-47.709-43.96z" fill="#33363A"/>
      <path id="Shape_9" d="M54.681 67.333a1.5 1.5 0 01-1.5-1.5c0-.87-2.487-2.469-6.552-2.469-4.063 0-6.55 1.6-6.55 2.47a1.5 1.5 0 01-3 0c0-3.119 4.104-5.47 9.55-5.47 5.446 0 9.552 2.351 9.552 5.47a1.5 1.5 0 01-1.5 1.5z" fill="#33363A"/>
      <path id="Shape_10" d="M103.108 67.333a1.5 1.5 0 01-1.5-1.5c0-.87-2.487-2.469-6.551-2.469s-6.552 1.6-6.552 2.47a1.5 1.5 0 01-3 0c0-3.119 4.106-5.47 9.552-5.47s9.551 2.351 9.551 5.47a1.5 1.5 0 01-1.5 1.5z" fill="#33363A"/>
      <path id="Shape_11" d="M110.257 108.268c0-12.697-11.573-16.83-20.176-23.713-14.392-12.383-9.663-20.273-18.64-20.888v-.043c-.209 0-.401.008-.598.014-.196-.006-.389-.014-.598-.014v.043c-8.978.615-4.248 8.506-18.641 20.89-8.603 6.882-20.176 11.015-20.176 23.712 0 20.506 20.319 22.297 38.816 23.145v.041c.198 0 .398-.016.598-.02.199.004.399.02.598.02v-.041c18.498-.849 38.817-2.64 38.817-23.146z" fill="#FFF4C7"/>
      <path id="Shape_12" d="M109.672 108.424c-2.446-11.707-12.133-12.502-19.591-18.469-14.393-12.383-9.663-20.27-18.641-20.889v-.043c-.209 0-.401.01-.598.016-.196-.006-.389-.016-.598-.016v.043c-8.978.617-4.248 8.506-18.641 20.89-7.458 5.966-17.145 6.761-19.591 18.468 3.435 15.287 21.568 16.822 38.231 17.588v.041c.198 0 .398-.016.598-.021.199.006.399.021.598.021v-.041c16.665-.765 34.799-2.301 38.233-17.588z" fill="#E0D5A4"/>
      <path id="Shape_13" d="M71.441 132.954c-.136 0-.27-.006-.408-.012l-.219-.008-.16.008c-.282.013-.568.027-.824-.047-16.027-.735-39.9-1.992-39.9-24.627 0-10.637 7.495-15.7 14.743-20.599 2.02-1.364 4.107-2.774 5.995-4.285 6.861-5.905 9.193-10.729 10.896-14.253 1.74-3.6 3.123-6.462 8.226-6.933.31-.104.664-.075.984-.064l.114.004.024-.004c.327-.01.688-.038 1.003.065 5.087.477 6.47 3.335 8.207 6.932 1.703 3.523 4.035 8.348 10.938 14.287 1.847 1.477 3.935 2.887 5.954 4.251 7.248 4.897 14.743 9.962 14.743 20.599 0 22.64-23.886 23.892-39.913 24.628a1.454 1.454 0 01-.403.058zm-.627-3.02l.321.01c.077-.016.156-.026.237-.029 20.454-.938 37.385-3.214 37.385-21.646 0-9.043-6.52-13.448-13.423-18.112-2.068-1.397-4.207-2.843-6.19-4.43-7.416-6.379-10.008-11.74-11.723-15.289-1.717-3.553-2.428-5.023-6.083-5.274a1.579 1.579 0 01-.229-.033l-.1.003-.12.004-.21-.004c-.036 0-.07-.002-.106-.003a1.37 1.37 0 01-.225.033c-3.655.251-4.366 1.722-6.083 5.274-1.715 3.548-4.307 8.91-11.682 15.255-2.024 1.621-4.163 3.066-6.23 4.464-6.904 4.664-13.424 9.07-13.424 18.112 0 18.433 16.931 20.709 37.385 21.646.081.003.16.014.237.029l.263-.01z" fill="#33363A"/>
      <path id="Shape_14" d="M66.698 82.723c-.573 0-1.12-.33-1.37-.887l-1.102-2.457a1.5 1.5 0 112.738-1.226l1.102 2.457a1.5 1.5 0 01-1.368 2.113z" fill="#33363A"/>
      <path id="Shape_15" d="M74.988 82.723a1.5 1.5 0 01-1.368-2.113l1.102-2.457a1.5 1.5 0 012.738 1.226l-1.102 2.457c-.25.557-.797.887-1.37.887z" fill="#33363A"/>
    </g>
  </g>
</svg>
