<svg width="141" height="141" fill="none" xmlns="http://www.w3.org/2000/svg">
  <g id="Rattata">
    <g id="Group 1" fill-rule="evenodd" clip-rule="evenodd">
      <path id="Shape" d="M45.378 42.948c0 13.918 1.373 22.463-12.545 22.463S7.634 54.129 7.634 40.211 18.915 15.01 32.833 15.01c13.918 0 12.545 14.02 12.545 27.938z" fill="#A962E8"/>
      <path id="Shape_2" d="M7.634 40.211c0 12.906 9.703 23.539 22.213 25.016 10.521-1.287 9.379-9.523 9.379-22.279 0-12.9 1.168-25.879-9.74-27.709C17.152 16.877 7.634 27.428 7.634 40.211z" fill="#8B4FE0"/>
      <path id="Shape_3" d="M26.525 45.03c0 13.918 20.227 20.381 6.309 20.381s-25.2-11.282-25.2-25.2S18.915 15.01 32.833 15.01c13.918 0-6.308 16.102-6.308 30.02z" fill="#E2CBAA"/>
      <path id="Shape_4" d="M15.329 45.03c0-11.846 14.639-25.268 10.418-29.002C15.281 19.09 7.634 28.754 7.634 40.21c0 11.678 7.945 21.496 18.723 24.355 1.676-2.155-11.028-8.5-11.028-19.536z" fill="#F2EAC9"/>
      <path id="Shape_5" d="M32.833 66.911a1.5 1.5 0 110-3c1.642 0 2.563-.097 3.073-.192-.474-.605-1.356-1.497-2.104-2.253-3.495-3.536-8.778-8.881-8.778-16.436 0-6.461 3.998-13.22 7.209-18.65 2.05-3.468 4.604-7.784 3.875-9.062-.108-.189-.664-.808-3.275-.808a1.5 1.5 0 110-3c3.067 0 4.99.759 5.88 2.321 1.593 2.791-.83 6.888-3.897 12.074-3.026 5.116-6.792 11.484-6.792 17.124 0 6.322 4.76 11.139 7.912 14.326 2.313 2.34 3.842 3.887 3.115 5.627-.673 1.613-2.79 1.929-6.218 1.929z" fill="#33363A"/>
      <path id="Shape_6" d="M32.833 66.911c-14.722 0-26.699-11.978-26.699-26.699 0-14.723 11.977-26.701 26.699-26.701 4.062 0 7.263 1.149 9.512 3.418 4.697 4.735 4.626 13.401 4.551 22.575-.009 1.144-.019 2.294-.019 3.444 0 1.184.01 2.327.02 3.431.066 7.626.119 13.648-3.427 17.226-2.236 2.255-5.616 3.306-10.637 3.306zm0-50.401c-13.068 0-23.699 10.632-23.699 23.701 0 13.067 10.631 23.699 23.699 23.699 4.111 0 6.894-.791 8.507-2.419 2.666-2.688 2.621-7.889 2.558-15.087-.009-1.111-.02-2.265-.02-3.457 0-1.158.009-2.317.019-3.469.07-8.531.135-16.59-3.682-20.438-1.688-1.702-4.103-2.53-7.382-2.53z" fill="#33363A"/>
      <path id="Shape_7" d="M94.814 42.948c0 13.918-1.373 22.463 12.545 22.463s25.199-11.281 25.199-25.199c0-13.918-11.281-25.202-25.199-25.202-13.918 0-12.545 14.02-12.545 27.938z" fill="#A962E8"/>
      <path id="Shape_8" d="M132.558 40.211c0 12.906-9.703 23.539-22.213 25.016-10.521-1.287-9.379-9.523-9.379-22.279 0-12.9-1.168-25.879 9.74-27.709 12.334 1.638 21.852 12.189 21.852 24.972z" fill="#8B4FE0"/>
      <path id="Shape_9" d="M113.667 45.03c0 13.918-20.227 20.381-6.309 20.381s25.199-11.281 25.199-25.199c0-13.918-11.28-25.202-25.198-25.202-13.918 0 6.308 16.102 6.308 30.02z" fill="#E2CBAA"/>
      <path id="Shape_10" d="M124.863 45.03c0-11.846-14.639-25.268-10.418-29.002 10.467 3.062 18.113 12.727 18.113 24.184 0 11.678-7.945 21.496-18.723 24.355-1.676-2.156 11.028-8.5 11.028-19.537z" fill="#F2EAC9"/>
      <path id="Shape_11" d="M107.359 66.911c-3.428 0-5.544-.315-6.218-1.928-.727-1.74.801-3.287 3.115-5.627 3.15-3.188 7.912-8.004 7.912-14.326 0-5.64-3.766-12.008-6.792-17.124-3.068-5.187-5.491-9.283-3.898-12.074.891-1.562 2.814-2.321 5.881-2.321a1.5 1.5 0 110 3c-2.612 0-3.167.618-3.275.808-.729 1.277 1.824 5.594 3.875 9.062 3.212 5.431 7.209 12.189 7.209 18.65 0 7.555-5.283 12.899-8.778 16.436-.748.756-1.629 1.647-2.104 2.253.51.096 1.431.192 3.073.192a1.5 1.5 0 110 2.999z" fill="#33363A"/>
      <path id="Shape_12" d="M107.359 66.911c-5.021 0-8.401-1.051-10.638-3.307-3.545-3.577-3.493-9.6-3.427-17.226.01-1.104.02-2.247.02-3.431 0-1.15-.009-2.301-.019-3.444-.075-9.174-.146-17.84 4.551-22.575 2.25-2.269 5.45-3.418 9.512-3.418 14.722 0 26.699 11.979 26.699 26.701.001 14.722-11.976 26.7-26.698 26.7zm0-50.401c-3.279 0-5.693.828-7.382 2.53-3.817 3.849-3.751 11.907-3.682 20.438.01 1.151.019 2.311.019 3.469 0 1.192-.01 2.346-.02 3.457-.063 7.198-.108 12.398 2.558 15.087 1.613 1.628 4.396 2.419 8.507 2.419 13.068 0 23.699-10.632 23.699-23.699 0-13.069-10.631-23.701-23.699-23.701z" fill="#33363A"/>
      <path id="Shape_13" d="M119.305 85.67c0 20.676-22.032 37.441-49.209 37.441-27.178 0-49.209-16.766-49.209-37.441 0-20.68 22.031-45.46 49.21-45.46 27.176 0 49.208 24.78 49.208 45.46z" fill="#BC7DFF"/>
      <path id="Shape_14" d="M119.305 85.67c0 20.676-22.032 37.441-49.209 37.441-27.178 0-49.209-16.766-49.209-37.441 0-20.68 22.031-34.928 49.21-34.928 27.176 0 49.208 14.249 49.208 34.928z" fill="#A962E8"/>
      <path id="Shape_15" d="M119.305 85.67c0 20.676-22.032 37.441-49.209 37.441-27.178 0-49.209-16.766-49.209-37.441 0-20.682 6.261 18.34 49.21 18.34 42.947 0 49.208-39.021 49.208-18.34z" fill="#F2EAC9"/>
      <path id="Shape_16" d="M70.096 112.01c-38.647 0-47.585-31.59-48.988-22.848 2.316 19.037 23.359 33.949 48.988 33.949 25.628 0 46.672-14.912 48.988-33.949-1.403-8.742-10.341 22.848-48.988 22.848z" fill="#FFFBEB"/>
      <path id="Shape_17" d="M70.096 124.612c-27.96 0-50.709-17.469-50.709-38.941 0-3.88 0-7.545 2.604-7.545 1.41 0 2.54 1.291 4.79 3.863 5.826 6.661 17.951 20.521 43.315 20.521 25.361 0 37.487-13.859 43.314-20.521 2.251-2.573 3.381-3.864 4.791-3.864 2.604 0 2.604 3.665 2.604 7.545 0 21.473-22.748 38.942-50.709 38.942zm-47.563-42.85c-.08.726-.146 1.926-.146 3.908 0 19.818 21.402 35.941 47.71 35.941 26.306 0 47.708-16.123 47.708-35.941 0-1.982-.065-3.183-.146-3.908-.568.577-1.308 1.422-1.991 2.203-6.119 6.993-18.85 21.545-45.572 21.545-26.726 0-39.456-14.553-45.574-21.546-.682-.78-1.42-1.625-1.989-2.202z" fill="#33363A"/>
      <path id="Shape_18" d="M70.096 124.612c-27.96 0-50.709-17.469-50.709-38.941 0-21.27 22.62-46.96 50.71-46.96 13.04 0 25.771 5.473 35.848 15.407 9.305 9.174 14.86 20.97 14.86 31.553 0 21.472-22.748 38.941-50.709 38.941zm0-82.901c-26.428 0-47.709 24.048-47.709 43.959 0 19.818 21.402 35.941 47.71 35.941 26.306 0 47.708-16.123 47.708-35.941 0-19.911-21.28-43.96-47.709-43.96z" fill="#33363A"/>
      <path id="Shape_19" d="M53.934 90.942a8.05 8.05 0 01-8.052 8.051 8.049 8.049 0 01-8.05-8.05 8.052 8.052 0 0116.103 0z" fill="#A5145D"/>
      <path id="Shape_20" d="M53.934 90.942c0 4.45-3.605 1.664-8.052 1.664-4.447 0-8.05 2.785-8.05-1.664a8.052 8.052 0 0116.103 0z" fill="#33363A"/>
      <path id="Shape_21" d="M45.882 100.493c-5.266 0-9.55-4.284-9.55-9.55 0-5.268 4.284-9.552 9.55-9.552 5.267 0 9.552 4.284 9.552 9.551s-4.285 9.551-9.552 9.551zm0-16.102a6.558 6.558 0 00-6.55 6.551 6.557 6.557 0 006.55 6.551 6.558 6.558 0 006.552-6.55 6.558 6.558 0 00-6.552-6.552z" fill="#33363A"/>
      <path id="Oval" d="M41.878 91.606a3.281 3.281 0 100-6.562 3.281 3.281 0 000 6.562z" fill="#fff"/>
      <path id="Shape_22" d="M41.877 93.106a4.786 4.786 0 01-4.78-4.781 4.785 4.785 0 014.78-4.78 4.786 4.786 0 014.781 4.78 4.787 4.787 0 01-4.78 4.78zm0-6.561c-.98 0-1.78.798-1.78 1.779 0 .982.8 1.78 1.78 1.78.982 0 1.781-.798 1.781-1.78 0-.981-.798-1.78-1.78-1.78z" fill="#33363A"/>
      <path id="Shape_23" d="M102.361 90.942a8.049 8.049 0 01-8.05 8.051 8.05 8.05 0 01-8.053-8.05 8.05 8.05 0 018.052-8.052 8.05 8.05 0 018.051 8.051z" fill="#A5145D"/>
      <path id="Shape_24" d="M102.361 90.942c0 4.45-3.604 1.664-8.05 1.664-4.448 0-8.053 2.785-8.053-1.664a8.05 8.05 0 018.052-8.05 8.05 8.05 0 018.051 8.05z" fill="#33363A"/>
      <path id="Shape_25" d="M94.31 100.493c-5.267 0-9.552-4.284-9.552-9.55 0-5.268 4.285-9.552 9.552-9.552 5.266 0 9.551 4.284 9.551 9.551s-4.285 9.551-9.55 9.551zm0-16.102a6.558 6.558 0 00-6.552 6.551 6.558 6.558 0 006.552 6.551 6.558 6.558 0 006.551-6.55 6.558 6.558 0 00-6.55-6.552z" fill="#33363A"/>
      <path id="Oval_2" d="M90.305 91.605a3.28 3.28 0 100-6.56 3.28 3.28 0 000 6.56z" fill="#fff"/>
      <path id="Shape_26" d="M90.306 93.106a4.787 4.787 0 01-4.781-4.781 4.785 4.785 0 014.78-4.78 4.785 4.785 0 014.78 4.78 4.786 4.786 0 01-4.78 4.78zm0-6.561c-.982 0-1.781.798-1.781 1.779 0 .982.799 1.78 1.78 1.78.982 0 1.78-.798 1.78-1.78a1.78 1.78 0 00-1.78-1.78z" fill="#33363A"/>
      <path id="Shape_27" d="M58.269 102.78l11.826 5.918 11.828-5.918H58.269z" fill="#33363A"/>
      <path id="Shape_28" d="M70.095 110.198c-.23 0-.46-.053-.671-.158l-11.826-5.918a1.5 1.5 0 01.671-2.842h23.654a1.5 1.5 0 01.671 2.842l-11.828 5.918a1.506 1.506 0 01-.671.158zm-5.477-5.918l5.477 2.74 5.478-2.74H64.618z" fill="#33363A"/>
      <path id="Shape_29" d="M76.372 126.53H63.82l-3.536-15.379h19.624l-3.536 15.379z" fill="#D3E0E2"/>
      <path id="Shape_30" d="M76.372 121.905l2.473-10.754H61.347l2.473 10.754h12.552z" fill="#fff"/>
      <path id="Shape_31" d="M76.372 128.03H63.82a1.5 1.5 0 01-1.462-1.164l-3.535-15.379a1.499 1.499 0 011.462-1.836h19.623a1.499 1.499 0 011.462 1.836l-3.535 15.379a1.502 1.502 0 01-1.463 1.164zm-11.358-3h10.164l2.846-12.379H62.168l2.846 12.379z" fill="#33363A"/>
      <path id="Shape_32" d="M70.096 127.155a1.5 1.5 0 01-1.5-1.5V112.01a1.5 1.5 0 113 0v13.645a1.5 1.5 0 01-1.5 1.5z" fill="#33363A"/>
      <path id="Shape_33" d="M111.6 105.184l19.929-15.381-22.975 6.576" fill="#FFFBEB"/>
      <path id="Shape_34" d="M111.601 106.684a1.5 1.5 0 01-.917-2.688l13.729-10.597-15.446 4.422a1.5 1.5 0 01-.825-2.884l22.975-6.576a1.502 1.502 0 011.329 2.63l-19.929 15.381a1.5 1.5 0 01-.916.312z" fill="#33363A"/>
      <path id="Shape_35" d="M28.592 105.184L8.663 89.803l22.975 6.576" fill="#FFFBEB"/>
      <path id="Shape_36" d="M28.591 106.684c-.32 0-.643-.102-.916-.312L7.747 90.992a1.5 1.5 0 011.329-2.63l22.975 6.575a1.5 1.5 0 01-.825 2.884l-15.447-4.42 13.729 10.596a1.5 1.5 0 01-.917 2.687z" fill="#33363A"/>
      <path id="Shape_37" d="M79.908 94.708c0 2.064-4.393.906-9.812.906s-9.812 1.158-9.812-.906c0-2.066 4.393-3.74 9.812-3.74 5.42 0 9.812 1.673 9.812 3.74z" fill="#BC7DFF"/>
      <path id="Shape_38" d="M70.476 75.68c-2.775 0-5.481-.849-7.804-2.474a13.583 13.583 0 01-5.626-8.826c-1.077-6.099 3.009-11.94 9.107-13.022 5.053-.89 9.881 2.49 10.772 7.532a1.5 1.5 0 11-2.954.521c-.604-3.414-3.881-5.71-7.296-5.1-4.469.793-7.465 5.076-6.675 9.547a10.608 10.608 0 004.392 6.89 10.61 10.61 0 007.972 1.764 13.625 13.625 0 008.853-5.645 13.634 13.634 0 002.269-10.25c-1.683-9.51-10.79-15.88-20.299-14.2a1.5 1.5 0 01-.522-2.955c11.14-1.962 21.804 5.492 23.775 16.632a16.614 16.614 0 01-2.764 12.492 16.603 16.603 0 01-10.789 6.88c-.805.142-1.611.213-2.411.213z" fill="#33363A"/>
    </g>
  </g>
</svg>
