<svg width="141" height="141" fill="none" xmlns="http://www.w3.org/2000/svg">
  <g id="Squirtle">
    <g id="Group 2" fill-rule="evenodd" clip-rule="evenodd">
      <path id="Shape" d="M104.137 30.492l.008.004C101.274 17.631 89.796 8.009 76.067 8.009c-15.893 0-28.777 12.885-28.777 28.777 0 11.66 6.939 21.693 16.91 26.215a28.862 28.862 0 01-.699-6.293 28.625 28.625 0 016.006-17.582c1.484 8.385 8.791 14.758 17.604 14.758 9.883 0 17.896-8.012 17.896-17.895a17.895 17.895 0 00-.87-5.497z" fill="#93F9EA"/>
      <path id="Shape_2" d="M63.5 56.709a28.625 28.625 0 016.006-17.582c1.484 8.385 8.79 14.758 17.604 14.758 8.58 0 15.745-6.043 17.484-14.107a18.347 18.347 0 00-.458-1.754l.008.004c-2.87-12.864-14.348-22.485-28.077-22.485-14.607 0-26.664 10.887-28.521 24.986 1.274 9.789 7.467 18.02 16.02 22.156.04-.73.106-1.453.2-2.17a28.594 28.594 0 01-.266-3.806z" fill="#70D3E0"/>
      <path id="Shape_3" d="M64.2 64.502c-.21 0-.422-.044-.62-.134-10.807-4.902-17.79-15.728-17.79-27.581C45.79 20.092 59.37 6.51 76.065 6.51c13.977 0 26.338 9.834 29.487 23.42.05.122.084.252.101.388.565 1.849.852 3.756.852 5.673 0 10.694-8.7 19.395-19.396 19.395a19.348 19.348 0 01-18.208-12.733C66.34 46.882 65 51.685 65 56.711c0 1.911.206 3.841.613 5.738a1.5 1.5 0 01-1.395 2.055c-.005-.002-.01-.002-.019-.002zM76.066 9.509c-15.04 0-27.277 12.236-27.277 27.277 0 9.694 5.185 18.626 13.425 23.494a29.954 29.954 0 01-.214-3.572c0-6.76 2.186-13.157 6.32-18.5a1.5 1.5 0 012.662.656 16.357 16.357 0 0016.128 13.52c9.04 0 16.396-7.354 16.396-16.395a16.39 16.39 0 00-.797-5.038 1.606 1.606 0 01-.061-.271C99.839 18.405 88.683 9.509 76.067 9.509z" fill="#33363A"/>
      <path id="Shape_4" d="M85.27 43.419c-3.523 0-6.853-2.143-8.186-5.625-1.44-3.765.449-7.997 4.21-9.436a1.502 1.502 0 011.073 2.803 4.31 4.31 0 00-2.48 5.562 5.758 5.758 0 007.432 3.315 7.514 7.514 0 004.207-3.982c.824-1.845.88-3.9.157-5.786a9.77 9.77 0 00-5.176-5.47 9.764 9.764 0 00-7.524-.205c-6.524 2.496-9.802 9.835-7.306 16.359a1.502 1.502 0 01-2.803 1.073c-3.086-8.07.967-17.146 9.036-20.234a12.747 12.747 0 019.82.27 12.75 12.75 0 016.754 7.136 10.485 10.485 0 01-.22 8.082 10.502 10.502 0 01-5.874 5.562 8.765 8.765 0 01-3.12.576z" fill="#33363A"/>
      <path id="Shape_5" d="M120.052 95.357c0 20.676-22.032 37.441-49.209 37.441-27.178 0-49.209-16.766-49.209-37.441 0-20.68 22.031-45.46 49.209-45.46 27.177 0 49.209 24.78 49.209 45.46z" fill="#93F9EA"/>
      <path id="Shape_6" d="M120.052 95.357c0 20.676-22.032 37.441-49.209 37.441-27.178 0-49.209-16.766-49.209-37.441 0-20.68 22.031-34.928 49.209-34.928 27.177 0 49.209 14.248 49.209 34.928z" fill="#7FE5D8"/>
      <path id="Shape_7" d="M81.364 109.412c0 1.393-4.691 1.643-10.479 1.643-5.788 0-10.479-.25-10.479-1.643 0-1.395 4.691-5.037 10.479-5.037 5.788 0 10.479 3.642 10.479 5.037z" fill="#93F9EA"/>
      <path id="Shape_8" d="M120.052 95.357c0 20.676-22.032 37.441-49.209 37.441-27.178 0-49.209-16.766-49.209-37.44 0-20.683 6.261 18.339 49.209 18.339s49.209-39.022 49.209-18.34z" fill="#70D3E0"/>
      <path id="Shape_9" d="M70.843 134.299c-27.961 0-50.709-17.469-50.709-38.94 0-21.27 22.619-46.96 50.709-46.96 13.041 0 25.772 5.472 35.849 15.406 9.305 9.174 14.86 20.97 14.86 31.553 0 21.472-22.748 38.941-50.709 38.941zm0-82.9c-26.428 0-47.709 24.047-47.709 43.958 0 19.818 21.402 35.941 47.709 35.941 26.307 0 47.709-16.123 47.709-35.94 0-19.912-21.281-43.96-47.709-43.96z" fill="#33363A"/>
      <path id="Shape_10" d="M54.681 101.263a8.05 8.05 0 01-8.052 8.051 8.049 8.049 0 01-8.05-8.051 8.052 8.052 0 0116.103 0z" fill="#893015"/>
      <path id="Shape_11" d="M54.681 101.263c0 4.449-3.605 1.664-8.052 1.664-4.447 0-8.05 2.785-8.05-1.664a8.052 8.052 0 0116.103 0z" fill="#33363A"/>
      <path id="Shape_12" d="M46.63 110.814c-5.268 0-9.552-4.284-9.552-9.551s4.284-9.55 9.551-9.55 9.552 4.283 9.552 9.55-4.285 9.551-9.552 9.551zm0-16.1a6.558 6.558 0 00-6.552 6.55 6.557 6.557 0 006.551 6.551 6.558 6.558 0 006.552-6.551c0-3.613-2.94-6.55-6.552-6.55z" fill="#33363A"/>
      <path id="Oval" d="M42.625 101.927a3.281 3.281 0 100-6.562 3.281 3.281 0 000 6.562z" fill="#fff"/>
      <path id="Shape_13" d="M42.624 103.427a4.786 4.786 0 01-4.78-4.781 4.785 4.785 0 014.78-4.78 4.785 4.785 0 014.781 4.78 4.785 4.785 0 01-4.781 4.781zm0-6.56c-.981 0-1.78.798-1.78 1.779 0 .982.799 1.781 1.78 1.781.982 0 1.781-.8 1.781-1.781 0-.981-.798-1.78-1.781-1.78z" fill="#33363A"/>
      <path id="Shape_14" d="M103.108 101.263a8.05 8.05 0 01-8.051 8.051 8.05 8.05 0 01-8.052-8.051 8.052 8.052 0 0116.103 0z" fill="#893015"/>
      <path id="Shape_15" d="M103.108 101.263c0 4.449-3.604 1.664-8.051 1.664s-8.052 2.785-8.052-1.664a8.052 8.052 0 0116.103 0z" fill="#33363A"/>
      <path id="Shape_16" d="M95.057 110.814c-5.267 0-9.552-4.284-9.552-9.551s4.285-9.55 9.552-9.55c5.267 0 9.551 4.283 9.551 9.55s-4.285 9.551-9.551 9.551zm0-16.1a6.559 6.559 0 00-6.552 6.55 6.558 6.558 0 006.552 6.551 6.558 6.558 0 006.551-6.551c0-3.613-2.94-6.55-6.551-6.55z" fill="#33363A"/>
      <path id="Oval_2" d="M91.052 101.926a3.28 3.28 0 100-6.56 3.28 3.28 0 000 6.56z" fill="#fff"/>
      <path id="Shape_17" d="M91.053 103.427a4.786 4.786 0 01-4.781-4.781 4.785 4.785 0 014.781-4.78 4.784 4.784 0 014.779 4.78 4.784 4.784 0 01-4.779 4.781zm0-6.56c-.982 0-1.781.798-1.781 1.779 0 .982.799 1.781 1.781 1.781a1.78 1.78 0 000-3.56z" fill="#33363A"/>
      <path id="Shape_18" d="M69.322 125.738c-.226-.901-2.811-3.222-11.883-3.062-.178.003-.354.004-.528.004-13.352 0-17.477-8.116-17.648-8.466a1.5 1.5 0 012.691-1.326c.152.3 3.591 6.792 14.958 6.792.158 0 .317-.001.479-.004 1.463-.01 14.381-.064 14.904 5.688l-2.988.271s-.002.038.015.103z" fill="#33363A"/>
      <path id="Shape_19" d="M72.364 125.738c.017-.065.015-.103.015-.103l-2.988-.271c.522-5.751 13.424-5.705 14.906-5.688 11.878.192 15.397-6.71 15.432-6.78a1.5 1.5 0 112.695 1.319c-.173.354-4.44 8.689-18.175 8.462-9.122-.153-11.659 2.16-11.885 3.061z" fill="#33363A"/>
      <path id="Shape_20" d="M68.375 117.554c-.398 0-.795-.157-1.091-.47l-1.5-1.588a1.502 1.502 0 01.06-2.121 1.502 1.502 0 012.122.061l1.5 1.588a1.502 1.502 0 01-1.091 2.53z" fill="#33363A"/>
      <path id="Shape_21" d="M73.31 117.554a1.502 1.502 0 01-1.091-2.53l1.5-1.588a1.502 1.502 0 012.122-.061c.602.569.629 1.519.06 2.121l-1.5 1.588c-.295.313-.693.47-1.09.47z" fill="#33363A"/>
      <path id="Shape_22" d="M55.978 89.468c-.266 0-.533-.07-.776-.218l-4.674-2.834a1.499 1.499 0 01-.505-2.06 1.498 1.498 0 012.06-.505l4.674 2.834a1.499 1.499 0 01-.779 2.783z" fill="#33363A"/>
      <path id="Shape_23" d="M85.708 89.468a1.499 1.499 0 01-.778-2.783l4.674-2.834a1.498 1.498 0 012.06.505c.43.708.204 1.631-.505 2.06l-4.674 2.834a1.49 1.49 0 01-.777.218z" fill="#33363A"/>
    </g>
  </g>
</svg>
