<svg width="131" height="121" viewBox="0 0 131 121" fill="none" xmlns="http://www.w3.org/2000/svg">
<path fill-rule="evenodd" clip-rule="evenodd" d="M114.709 81.255C114.709 101.931 92.677 118.696 65.5 118.696C38.322 118.696 16.291 101.93 16.291 81.255C16.291 60.575 38.322 35.796 65.5 35.796C92.677 35.796 114.709 60.575 114.709 81.255V81.255Z" fill="#F4D3A2"/>
<path fill-rule="evenodd" clip-rule="evenodd" d="M114.709 81.255C114.709 101.931 92.677 118.696 65.5 118.696C38.322 118.696 16.291 101.93 16.291 81.255C16.291 60.575 38.322 46.327 65.5 46.327C92.677 46.327 114.709 60.575 114.709 81.255V81.255Z" fill="#7C34C1"/>
<path fill-rule="evenodd" clip-rule="evenodd" d="M114.709 81.255C114.709 101.931 92.677 118.696 65.5 118.696C38.322 118.696 16.291 101.93 16.291 81.255C16.291 60.573 22.552 99.595 65.5 99.595C108.448 99.595 114.709 60.573 114.709 81.255V81.255Z" fill="#5F1DAA"/>
<path fill-rule="evenodd" clip-rule="evenodd" d="M65.5 120.196C37.539 120.196 14.791 102.727 14.791 81.255C14.791 59.985 37.411 34.296 65.5 34.296C78.541 34.296 91.272 39.768 101.349 49.702C110.654 58.876 116.209 70.672 116.209 81.255C116.209 102.728 93.461 120.196 65.5 120.196V120.196ZM65.5 37.296C39.072 37.296 17.791 61.344 17.791 81.255C17.791 101.073 39.193 117.196 65.5 117.196C91.807 117.196 113.209 101.073 113.209 81.255C113.209 61.344 91.928 37.296 65.5 37.296V37.296Z" fill="#33363A"/>
<path fill-rule="evenodd" clip-rule="evenodd" d="M75.936 93.536C75.936 94.929 71.245 95.179 65.457 95.179C59.669 95.179 54.978 94.929 54.978 93.536C54.978 92.141 59.669 88.499 65.457 88.499C71.245 88.499 75.936 92.142 75.936 93.536V93.536Z" fill="#8844D8"/>
<path fill-rule="evenodd" clip-rule="evenodd" d="M94.836 110.292L117.309 108.763L115.918 99.925L128.633 94.331L121.584 82.36L127.879 76.003L110.537 61.63L95.882 76.435L96.743 77.147L87.702 81.124L92.711 89.634L91.596 89.712L94.836 110.292Z" fill="#5F1DAA"/>
<path fill-rule="evenodd" clip-rule="evenodd" d="M94.835 111.792C94.053 111.792 93.394 111.186 93.34 110.394C93.284 109.568 93.908 108.852 94.735 108.796L115.573 107.377L114.437 100.158C114.332 99.485 114.692 98.826 115.315 98.552L126.485 93.638L120.293 83.121C119.947 82.535 120.041 81.789 120.52 81.305L125.662 76.113L109.58 62.785C108.942 62.256 108.853 61.31 109.382 60.673C109.911 60.034 110.856 59.947 111.494 60.475L128.837 74.848C129.161 75.117 129.358 75.509 129.378 75.93C129.399 76.35 129.242 76.76 128.946 77.059L123.464 82.595L129.926 93.571C130.143 93.94 130.193 94.384 130.061 94.793C129.929 95.2 129.629 95.532 129.237 95.705L117.579 100.834L118.79 108.53C118.855 108.946 118.743 109.37 118.48 109.699C118.218 110.028 117.829 110.231 117.41 110.26L94.937 111.789C94.904 111.791 94.869 111.792 94.835 111.792V111.792Z" fill="#33363A"/>
<path fill-rule="evenodd" clip-rule="evenodd" d="M36.163 110.292L13.691 108.763L15.083 99.925L2.367 94.331L9.416 82.36L3.121 76.003L20.463 61.63L35.118 76.435L34.257 77.147L43.299 81.124L38.29 89.634L39.404 89.712L36.163 110.292Z" fill="#5F1DAA"/>
<path fill-rule="evenodd" clip-rule="evenodd" d="M36.164 111.792C36.13 111.792 36.095 111.791 36.06 111.788L13.588 110.259C13.169 110.231 12.78 110.028 12.517 109.698C12.255 109.369 12.142 108.945 12.208 108.529L13.42 100.833L1.762 95.7041C1.37 95.5311 1.07 95.1991 0.937999 94.7921C0.806999 94.3841 0.855999 93.9391 1.073 93.5701L7.535 82.5941L2.053 77.0581C1.759 76.7601 1.602 76.3501 1.623 75.9301C1.644 75.5091 1.84 75.1171 2.164 74.8481L19.507 60.4751C20.145 59.9481 21.091 60.0361 21.619 60.6731C22.148 61.3111 22.059 62.2561 21.421 62.7851L5.34 76.1121L10.482 81.3041C10.961 81.7881 11.054 82.5341 10.709 83.1201L4.517 93.6371L15.688 98.5511C16.311 98.8251 16.672 99.4851 16.566 100.157L15.429 107.376L36.266 108.795C37.092 108.851 37.717 109.566 37.661 110.393C37.605 111.186 36.946 111.792 36.164 111.792V111.792Z" fill="#33363A"/>
<path fill-rule="evenodd" clip-rule="evenodd" d="M65.5 101.277C72.5858 101.277 78.33 97.7275 78.33 93.349C78.33 88.9705 72.5858 85.421 65.5 85.421C58.4142 85.421 52.67 88.9705 52.67 93.349C52.67 97.7275 58.4142 101.277 65.5 101.277Z" fill="#CC4306"/>
<path fill-rule="evenodd" clip-rule="evenodd" d="M78.331 93.349C78.331 97.728 72.586 101.277 65.501 101.277C58.415 101.277 52.671 97.728 52.671 93.349C52.671 88.97 58.415 92.3 65.5 92.3C72.585 92.3 78.331 88.97 78.331 93.349V93.349Z" fill="#A83C11"/>
<path fill-rule="evenodd" clip-rule="evenodd" d="M65.5 102.776C57.464 102.776 51.17 98.634 51.17 93.348C51.17 88.06 57.464 83.918 65.5 83.918C73.536 83.918 79.83 88.06 79.83 93.348C79.831 98.635 73.536 102.776 65.5 102.776V102.776ZM65.5 86.919C59.358 86.919 54.17 89.863 54.17 93.349C54.17 96.833 59.358 99.777 65.5 99.777C71.642 99.777 76.83 96.834 76.83 93.349C76.831 89.863 71.642 86.919 65.5 86.919V86.919Z" fill="#33363A"/>
<path fill-rule="evenodd" clip-rule="evenodd" d="M94.372 48.128L84.937 27.134L75.92 31.187L65.5 20.767L55.08 31.187L46.063 27.134L36.628 48.128L57.62 57.563L58.088 56.519L65.5 63.931L72.911 56.521L73.379 57.563L94.372 48.128Z" fill="#8844D8"/>
<path fill-rule="evenodd" clip-rule="evenodd" d="M75.92 48.769L65.5 38.349L55.08 48.769L46.063 44.716L43.202 51.081L57.62 57.563L58.088 56.519L65.5 63.931L72.911 56.521L73.379 57.563L87.797 51.081L84.937 44.716L75.92 48.769Z" fill="#7C34C1"/>
<path fill-rule="evenodd" clip-rule="evenodd" d="M94.373 49.628C93.8 49.628 93.254 49.299 93.004 48.743L84.184 29.117L76.536 32.555C75.968 32.812 75.301 32.687 74.861 32.247L65.501 22.888L56.142 32.247C55.702 32.685 55.035 32.81 54.467 32.555L46.819 29.117L37.999 48.743C37.66 49.499 36.772 49.837 36.016 49.496C35.26 49.156 34.923 48.268 35.263 47.513L44.698 26.519C44.861 26.157 45.161 25.873 45.533 25.732C45.905 25.591 46.319 25.603 46.68 25.766L54.753 29.395L64.441 19.707C65.027 19.121 65.976 19.121 66.562 19.707L76.251 29.395L84.324 25.766C84.686 25.603 85.099 25.59 85.471 25.732C85.843 25.874 86.143 26.157 86.306 26.519L95.741 47.513C96.081 48.269 95.743 49.157 94.988 49.496C94.787 49.586 94.578 49.628 94.373 49.628V49.628Z" fill="#33363A"/>
<path fill-rule="evenodd" clip-rule="evenodd" d="M49.783 35.308L28.124 29.124L26.434 37.911L12.576 38.86L15.147 52.511L7.069 56.358L18.508 75.761L37.315 66.804L36.748 65.843L46.602 65.167L44.776 55.462L45.851 55.767L49.783 35.308Z" fill="#8844D8"/>
<path fill-rule="evenodd" clip-rule="evenodd" d="M40.295 48.626L26.436 49.575L29.008 63.228L20.928 67.073L24.398 72.956L37.315 66.804L36.748 65.843L46.602 65.167L44.776 55.462L45.851 55.767L48.551 41.716L41.985 39.839L40.295 48.626Z" fill="#7C34C1"/>
<path fill-rule="evenodd" clip-rule="evenodd" d="M18.51 77.261C17.996 77.261 17.496 76.997 17.217 76.523L5.777 57.12C5.563 56.758 5.511 56.322 5.634 55.92C5.757 55.518 6.044 55.186 6.424 55.004L13.459 51.653L11.102 39.137C11.023 38.716 11.127 38.282 11.39 37.943C11.652 37.603 12.046 37.393 12.474 37.364L25.18 36.493L26.651 28.841C26.731 28.428 26.98 28.067 27.339 27.847C27.696 27.625 28.131 27.564 28.536 27.682L50.195 33.866C50.992 34.094 51.453 34.924 51.226 35.72C50.998 36.516 50.167 36.978 49.372 36.75L29.288 31.017L27.908 38.195C27.779 38.864 27.217 39.362 26.537 39.408L14.363 40.242L16.622 52.234C16.748 52.903 16.408 53.573 15.793 53.866L9.194 57.009L19.8 74.9991C20.221 75.7131 19.984 76.632 19.27 77.053C19.031 77.194 18.769 77.261 18.51 77.261V77.261Z" fill="#33363A"/>
<path fill-rule="evenodd" clip-rule="evenodd" d="M81.217 35.308L102.875 29.124L104.565 37.911L118.424 38.86L115.852 52.511L123.931 56.358L112.491 75.761L93.684 66.804L94.252 65.843L84.397 65.167L86.223 55.462L85.149 55.767L81.217 35.308Z" fill="#8844D8"/>
<path fill-rule="evenodd" clip-rule="evenodd" d="M90.704 48.626L104.564 49.575L101.992 63.228L110.071 67.073L106.602 72.956L93.684 66.804L94.252 65.843L84.397 65.167L86.223 55.462L85.149 55.767L82.448 41.716L89.015 39.839L90.704 48.626Z" fill="#7C34C1"/>
<path fill-rule="evenodd" clip-rule="evenodd" d="M112.489 77.261C112.23 77.261 111.968 77.195 111.729 77.053C111.015 76.632 110.778 75.713 111.199 74.999L121.807 57.008L115.207 53.865C114.592 53.572 114.252 52.902 114.378 52.233L116.638 40.241L104.463 39.407C103.784 39.361 103.221 38.863 103.092 38.194L101.712 31.016L81.629 36.75C80.837 36.978 80.003 36.517 79.775 35.72C79.547 34.923 80.009 34.093 80.806 33.866L102.464 27.682C102.869 27.566 103.303 27.625 103.661 27.847C104.019 28.067 104.269 28.428 104.349 28.841L105.82 36.493L118.527 37.364C118.955 37.393 119.349 37.603 119.611 37.943C119.873 38.282 119.978 38.716 119.899 39.137L117.541 51.653L124.577 55.004C124.957 55.186 125.244 55.518 125.367 55.92C125.49 56.322 125.438 56.758 125.224 57.12L113.784 76.522C113.503 76.997 113.003 77.261 112.489 77.261V77.261Z" fill="#33363A"/>
<path fill-rule="evenodd" clip-rule="evenodd" d="M50.415 81.036C50.415 87.841 44.903 93.348 38.103 93.348C31.304 93.348 25.792 87.84 25.792 81.036C25.792 74.237 31.304 68.725 38.103 68.725C44.903 68.726 50.415 74.237 50.415 81.036V81.036Z" fill="#CC4306"/>
<path fill-rule="evenodd" clip-rule="evenodd" d="M50.415 81.036C50.415 87.841 44.903 83.579 38.103 83.579C31.304 83.579 25.792 87.841 25.792 81.036C25.792 74.237 31.304 68.725 38.103 68.725C44.903 68.726 50.415 74.237 50.415 81.036V81.036Z" fill="#33363A"/>
<path fill-rule="evenodd" clip-rule="evenodd" d="M38.102 94.849C30.487 94.849 24.291 88.653 24.291 81.037C24.291 73.422 30.486 67.226 38.102 67.226C45.718 67.226 51.914 73.421 51.914 81.037C51.915 88.652 45.718 94.849 38.102 94.849V94.849ZM38.102 70.226C32.141 70.226 27.291 75.076 27.291 81.037C27.291 86.999 32.141 91.849 38.102 91.849C44.064 91.849 48.914 86.998 48.914 81.037C48.915 75.075 44.064 70.226 38.102 70.226V70.226Z" fill="#33363A"/>
<path fill-rule="evenodd" clip-rule="evenodd" d="M31.98 82.051C34.7508 82.051 36.997 79.8048 36.997 77.034C36.997 74.2632 34.7508 72.017 31.98 72.017C29.2092 72.017 26.963 74.2632 26.963 77.034C26.963 79.8048 29.2092 82.051 31.98 82.051Z" fill="white"/>
<path fill-rule="evenodd" clip-rule="evenodd" d="M31.979 83.552C28.386 83.552 25.463 80.628 25.463 77.034C25.463 73.442 28.386 70.52 31.979 70.52C35.573 70.52 38.497 73.442 38.497 77.034C38.497 80.628 35.573 83.552 31.979 83.552V83.552ZM31.979 73.521C30.041 73.521 28.463 75.097 28.463 77.035C28.463 78.974 30.04 80.553 31.979 80.553C33.918 80.553 35.497 78.975 35.497 77.035C35.497 75.097 33.918 73.521 31.979 73.521V73.521Z" fill="#33363A"/>
<path fill-rule="evenodd" clip-rule="evenodd" d="M105.208 81.036C105.208 87.841 99.696 93.348 92.897 93.348C86.096 93.348 80.585 87.84 80.585 81.036C80.585 74.237 86.097 68.725 92.897 68.725C99.696 68.726 105.208 74.237 105.208 81.036V81.036Z" fill="#CC4306"/>
<path fill-rule="evenodd" clip-rule="evenodd" d="M105.208 81.036C105.208 87.841 99.696 83.579 92.897 83.579C86.096 83.579 80.585 87.841 80.585 81.036C80.585 74.237 86.097 68.725 92.897 68.725C99.696 68.726 105.208 74.237 105.208 81.036V81.036Z" fill="#33363A"/>
<path fill-rule="evenodd" clip-rule="evenodd" d="M92.897 94.849C85.281 94.849 79.085 88.653 79.085 81.037C79.085 73.422 85.281 67.226 92.897 67.226C100.512 67.226 106.708 73.421 106.708 81.037C106.708 88.652 100.512 94.849 92.897 94.849V94.849ZM92.897 70.226C86.935 70.226 82.085 75.076 82.085 81.037C82.085 86.999 86.936 91.849 92.897 91.849C98.858 91.849 103.708 86.998 103.708 81.037C103.708 75.075 98.858 70.226 92.897 70.226V70.226Z" fill="#33363A"/>
<path fill-rule="evenodd" clip-rule="evenodd" d="M86.774 82.0499C89.5443 82.0499 91.79 79.8042 91.79 77.0339C91.79 74.2637 89.5443 72.0179 86.774 72.0179C84.0037 72.0179 81.758 74.2637 81.758 77.0339C81.758 79.8042 84.0037 82.0499 86.774 82.0499Z" fill="white"/>
<path fill-rule="evenodd" clip-rule="evenodd" d="M86.774 83.552C83.181 83.552 80.258 80.628 80.258 77.034C80.258 73.442 83.181 70.52 86.774 70.52C90.367 70.52 93.29 73.442 93.29 77.034C93.29 80.628 90.367 83.552 86.774 83.552V83.552ZM86.774 73.521C84.836 73.521 83.258 75.097 83.258 77.035C83.258 78.974 84.835 80.553 86.774 80.553C88.713 80.553 90.29 78.975 90.29 77.035C90.29 75.097 88.712 73.521 86.774 73.521V73.521Z" fill="#33363A"/>
<path fill-rule="evenodd" clip-rule="evenodd" d="M82.094 54.247L83.266 7.88599L65.966 48.37" fill="#9A5AE5"/>
<path fill-rule="evenodd" clip-rule="evenodd" d="M82.094 67.13L83.266 20.767L65.966 61.251" fill="#7C34C1"/>
<path fill-rule="evenodd" clip-rule="evenodd" d="M82.095 55.747C82.082 55.747 82.07 55.747 82.056 55.747C81.228 55.726 80.574 55.037 80.595 54.209L81.569 15.675L67.346 48.96C67.02 49.722 66.138 50.076 65.377 49.749C64.615 49.424 64.261 48.543 64.587 47.78L81.887 7.29604C82.17 6.63504 82.884 6.26604 83.586 6.42004C84.289 6.57304 84.784 7.20404 84.766 7.92404L83.594 54.285C83.573 55.101 82.906 55.747 82.095 55.747V55.747Z" fill="#33363A"/>
<path fill-rule="evenodd" clip-rule="evenodd" d="M48.907 54.247L47.733 7.88599L65.034 48.37" fill="#9A5AE5"/>
<path fill-rule="evenodd" clip-rule="evenodd" d="M48.907 67.13L47.733 20.767L65.034 61.251" fill="#7C34C1"/>
<path fill-rule="evenodd" clip-rule="evenodd" d="M48.906 55.747C48.095 55.747 47.427 55.101 47.407 54.285L46.233 7.92396C46.215 7.20396 46.71 6.57296 47.413 6.41996C48.118 6.26696 48.829 6.63496 49.112 7.29596L66.413 47.78C66.739 48.542 66.385 49.424 65.623 49.749C64.862 50.078 63.98 49.722 63.654 48.96L49.431 15.676L50.407 54.209C50.428 55.037 49.774 55.726 48.946 55.747C48.932 55.747 48.919 55.747 48.906 55.747V55.747Z" fill="#33363A"/>
<path fill-rule="evenodd" clip-rule="evenodd" d="M42.309 33.659C41.48 33.659 40.809 32.987 40.809 32.159C40.809 16.523 28.09 3.80396 12.455 3.80396C11.626 3.80396 10.955 3.13196 10.955 2.30396C10.955 1.47596 11.626 0.803955 12.455 0.803955C29.744 0.803955 43.809 14.87 43.809 32.159C43.809 32.987 43.138 33.659 42.309 33.659V33.659Z" fill="#33363A"/>
<path fill-rule="evenodd" clip-rule="evenodd" d="M12.331 8.27199C10.401 8.27199 8.83099 6.62699 8.83099 4.60599C8.83099 2.58399 10.401 0.937988 12.331 0.937988C14.261 0.937988 15.831 2.58399 15.831 4.60599C15.831 6.62799 14.26 8.27199 12.331 8.27199V8.27199ZM12.331 3.93799C12.06 3.93799 11.831 4.24399 11.831 4.60599C11.831 4.96699 12.06 5.27199 12.331 5.27199C12.602 5.27199 12.831 4.96699 12.831 4.60599C12.831 4.24399 12.602 3.93799 12.331 3.93799V3.93799Z" fill="#33363A"/>
<path fill-rule="evenodd" clip-rule="evenodd" d="M88.692 33.659C87.863 33.659 87.192 32.987 87.192 32.159C87.192 14.87 101.257 0.803955 118.546 0.803955C119.375 0.803955 120.046 1.47596 120.046 2.30396C120.046 3.13196 119.375 3.80396 118.546 3.80396C102.912 3.80396 90.192 16.524 90.192 32.159C90.192 32.987 89.521 33.659 88.692 33.659V33.659Z" fill="#33363A"/>
<path fill-rule="evenodd" clip-rule="evenodd" d="M118.669 8.27199C116.739 8.27199 115.169 6.62699 115.169 4.60599C115.169 2.58399 116.739 0.937988 118.669 0.937988C120.599 0.937988 122.169 2.58399 122.169 4.60599C122.169 6.62799 120.599 8.27199 118.669 8.27199V8.27199ZM118.669 3.93799C118.398 3.93799 118.169 4.24399 118.169 4.60599C118.169 4.96699 118.398 5.27199 118.669 5.27199C118.94 5.27199 119.169 4.96699 119.169 4.60599C119.169 4.24399 118.94 3.93799 118.669 3.93799V3.93799Z" fill="#33363A"/>
<path fill-rule="evenodd" clip-rule="evenodd" d="M62.915 99.39L59.561 106.718L56.209 99.39" fill="white"/>
<path fill-rule="evenodd" clip-rule="evenodd" d="M59.561 108.218V108.218C58.974 108.218 58.441 107.875 58.197 107.342L54.845 100.014C54.501 99.26 54.832 98.37 55.585 98.026C56.339 97.679 57.228 98.013 57.573 98.766L59.561 103.113L61.55 98.766C61.894 98.013 62.784 97.68 63.538 98.026C64.291 98.371 64.622 99.261 64.278 100.014L60.924 107.342C60.681 107.876 60.148 108.218 59.561 108.218V108.218Z" fill="#33363A"/>
<path fill-rule="evenodd" clip-rule="evenodd" d="M74.792 99.39L71.438 106.718L68.086 99.39" fill="white"/>
<path fill-rule="evenodd" clip-rule="evenodd" d="M71.438 108.218V108.218C70.851 108.218 70.318 107.875 70.074 107.342L66.722 100.014C66.378 99.26 66.709 98.37 67.462 98.026C68.216 97.679 69.105 98.013 69.45 98.766L71.438 103.113L73.427 98.766C73.771 98.013 74.661 97.68 75.415 98.026C76.168 98.371 76.499 99.261 76.155 100.014L72.801 107.342C72.558 107.876 72.025 108.218 71.438 108.218V108.218Z" fill="#33363A"/>
</svg>
