<svg width="140" height="141" fill="none" xmlns="http://www.w3.org/2000/svg">
  <g id="Venonat">
    <g id="Group 16" fill-rule="evenodd" clip-rule="evenodd">
      <path id="Shape" d="M118.977 90.961c0 20.676-22.032 37.441-49.209 37.441-27.178 0-49.209-16.766-49.209-37.44 0-20.68 22.031-45.46 49.21-45.46 27.176 0 49.208 24.78 49.208 45.46z" fill="#F4D3A2"/>
      <path id="Shape_2" d="M118.977 90.961c0 20.676-22.032 37.441-49.209 37.441-27.178 0-49.209-16.766-49.209-37.44 0-20.68 22.031-34.929 49.21-34.929 27.176 0 49.208 14.248 49.208 34.928z" fill="#7C34C1"/>
      <path id="Shape_3" d="M118.977 90.961c0 20.676-22.032 37.441-49.209 37.441-27.178 0-49.209-16.766-49.209-37.441 0-20.682 6.261 18.34 49.21 18.34 42.947 0 49.208-39.022 49.208-18.34z" fill="#5F1DAA"/>
      <path id="Shape_4" d="M69.768 129.902c-27.96 0-50.709-17.469-50.709-38.94 0-21.27 22.62-46.96 50.71-46.96 13.04 0 25.771 5.472 35.848 15.406 9.305 9.174 14.86 20.97 14.86 31.553 0 21.473-22.748 38.941-50.709 38.941zm0-82.9c-26.428 0-47.709 24.048-47.709 43.96 0 19.817 21.402 35.94 47.71 35.94 26.306 0 47.708-16.123 47.708-35.94 0-19.912-21.28-43.96-47.709-43.96z" fill="#33363A"/>
      <path id="Shape_5" d="M80.204 103.242c0 1.393-4.69 1.643-10.479 1.643-5.788 0-10.479-.25-10.479-1.643 0-1.395 4.691-5.037 10.48-5.037 5.787 0 10.478 3.643 10.478 5.037z" fill="#8844D8"/>
      <path id="Shape_6" d="M99.104 119.998l22.473-1.529-1.391-8.838 12.715-5.594-7.049-11.97 6.295-6.358-17.342-14.373-14.655 14.805.861.712-9.04 3.977 5.008 8.51-1.115.078 3.24 20.58z" fill="#5F1DAA"/>
      <path id="Shape_7" d="M99.103 121.498a1.5 1.5 0 01-.1-2.996l20.838-1.419-1.136-7.219a1.5 1.5 0 01.878-1.606l11.17-4.914-6.192-10.517a1.499 1.499 0 01.227-1.816l5.142-5.192-16.082-13.328a1.5 1.5 0 111.914-2.31l17.343 14.373a1.499 1.499 0 01.109 2.211l-5.482 5.536 6.462 10.976a1.5 1.5 0 01-.689 2.134l-11.658 5.129 1.211 7.696a1.5 1.5 0 01-1.38 1.73l-22.473 1.529a1.711 1.711 0 01-.102.003z" fill="#33363A"/>
      <path id="Shape_8" d="M40.431 119.998l-22.472-1.529 1.392-8.838-12.716-5.594 7.05-11.97-6.296-6.358 17.342-14.373 14.655 14.805-.86.712 9.041 3.977-5.009 8.51 1.114.078-3.24 20.58z" fill="#5F1DAA"/>
      <path id="Shape_9" d="M40.432 121.498a1.22 1.22 0 01-.104-.004l-22.472-1.529a1.497 1.497 0 01-1.38-1.73l1.212-7.696L6.03 105.41a1.505 1.505 0 01-.824-.912 1.504 1.504 0 01.135-1.222L11.803 92.3l-5.482-5.536a1.501 1.501 0 01.111-2.21l17.343-14.373a1.5 1.5 0 111.914 2.31L9.61 85.818l5.141 5.192a1.5 1.5 0 01.227 1.816l-6.192 10.517 11.171 4.914a1.5 1.5 0 01.878 1.606l-1.137 7.219 20.837 1.419a1.5 1.5 0 01-.102 2.997z" fill="#33363A"/>
      <path id="Oval" d="M69.768 110.983c7.086 0 12.83-3.549 12.83-7.928 0-4.378-5.744-7.928-12.83-7.928s-12.83 3.55-12.83 7.928c0 4.379 5.744 7.928 12.83 7.928z" fill="#CC4306"/>
      <path id="Shape_10" d="M82.6 103.055c0 4.379-5.746 7.928-12.83 7.928-7.087 0-12.83-3.549-12.83-7.928s5.743-1.049 12.828-1.049c7.085 0 12.831-3.33 12.831 1.049z" fill="#A83C11"/>
      <path id="Shape_11" d="M69.768 112.482c-8.036 0-14.33-4.142-14.33-9.428 0-5.288 6.294-9.43 14.33-9.43 8.036 0 14.33 4.142 14.33 9.43.001 5.287-6.294 9.428-14.33 9.428zm0-15.857c-6.142 0-11.33 2.944-11.33 6.43 0 3.484 5.188 6.428 11.33 6.428s11.33-2.943 11.33-6.428c.001-3.486-5.188-6.43-11.33-6.43z" fill="#33363A"/>
      <path id="Shape_12" d="M98.64 57.834L89.205 36.84l-9.017 4.053-10.42-10.42-10.42 10.42-9.017-4.053-9.435 20.994 20.992 9.435.468-1.044 7.412 7.412 7.411-7.41.468 1.042 20.993-9.435z" fill="#8844D8"/>
      <path id="Shape_13" d="M80.188 58.475l-10.42-10.42-10.42 10.42-9.017-4.053-2.86 6.365 14.417 6.482.468-1.044 7.412 7.412 7.411-7.41.468 1.042 14.418-6.482-2.86-6.365-9.017 4.053z" fill="#7C34C1"/>
      <path id="Shape_14" d="M98.641 59.334a1.5 1.5 0 01-1.369-.885l-8.82-19.626-7.648 3.438a1.497 1.497 0 01-1.675-.308l-9.36-9.359-9.359 9.359a1.504 1.504 0 01-1.675.308l-7.648-3.438-8.82 19.626a1.5 1.5 0 11-2.736-1.23l9.435-20.994a1.5 1.5 0 011.982-.753l8.073 3.629 9.688-9.688a1.5 1.5 0 012.121 0l9.69 9.688 8.072-3.629a1.496 1.496 0 011.982.753l9.435 20.994a1.5 1.5 0 01-1.368 2.115z" fill="#33363A"/>
      <path id="Shape_15" d="M54.051 45.014L32.392 38.83l-1.69 8.787-13.858.95 2.571 13.65-8.078 3.847 11.44 19.403 18.806-8.957-.567-.96 9.854-.677-1.826-9.705 1.075.305 3.932-20.459z" fill="#8844D8"/>
      <path id="Shape_16" d="M44.563 58.332l-13.859.949 2.572 13.653-8.08 3.845 3.47 5.883 12.917-6.152-.567-.961 9.854-.676-1.826-9.705 1.075.305 2.7-14.051-6.566-1.877-1.69 8.787z" fill="#7C34C1"/>
      <path id="Shape_17" d="M22.778 86.967a1.498 1.498 0 01-1.293-.738l-11.44-19.403a1.498 1.498 0 01.647-2.116l7.035-3.35-2.357-12.517a1.496 1.496 0 01.288-1.194c.262-.34.656-.55 1.084-.579l12.706-.87 1.471-7.653a1.5 1.5 0 011.885-1.159l21.66 6.184a1.5 1.5 0 01-.824 2.884l-20.084-5.733-1.38 7.178a1.499 1.499 0 01-1.37 1.213l-12.175.834 2.26 11.992a1.5 1.5 0 01-.83 1.632l-6.599 3.143 10.606 17.99a1.5 1.5 0 01-1.29 2.262z" fill="#33363A"/>
      <path id="Shape_18" d="M85.485 45.014l21.658-6.184 1.69 8.787 13.859.95-2.572 13.65 8.079 3.847-11.44 19.403-18.807-8.957.568-.96-9.855-.677 1.826-9.705-1.074.305-3.932-20.459z" fill="#8844D8"/>
      <path id="Shape_19" d="M94.972 58.332l13.86.949-2.572 13.653 8.079 3.845-3.469 5.883-12.918-6.152.568-.961-9.855-.676 1.826-9.705-1.074.305-2.7-14.051 6.566-1.877 1.69 8.787z" fill="#7C34C1"/>
      <path id="Shape_20" d="M116.757 86.967a1.5 1.5 0 01-1.29-2.262l10.608-17.99-6.6-3.144a1.5 1.5 0 01-.829-1.632l2.26-11.992-12.175-.834a1.5 1.5 0 01-1.371-1.213l-1.38-7.178-20.083 5.734a1.499 1.499 0 11-.823-2.884l21.658-6.184a1.503 1.503 0 011.885 1.159l1.471 7.652 12.707.871a1.5 1.5 0 011.372 1.773l-2.358 12.516 7.036 3.351a1.498 1.498 0 01.647 2.116l-11.44 19.402a1.502 1.502 0 01-1.295.74z" fill="#33363A"/>
      <path id="Shape_21" d="M54.683 90.742c0 6.805-5.512 12.312-12.312 12.312-6.799 0-12.31-5.508-12.31-12.312 0-6.799 5.511-12.311 12.31-12.311 6.8.001 12.312 5.512 12.312 12.311z" fill="#CC4306"/>
      <path id="Shape_22" d="M54.683 90.742c0 6.805-5.512 2.543-12.312 2.543-6.799 0-12.31 4.262-12.31-2.543 0-6.799 5.511-12.311 12.31-12.311 6.8.001 12.312 5.512 12.312 12.311z" fill="#33363A"/>
      <path id="Shape_23" d="M42.37 104.555c-7.615 0-13.81-6.196-13.81-13.812 0-7.615 6.194-13.811 13.81-13.811 7.616 0 13.812 6.195 13.812 13.811.001 7.615-6.196 13.812-13.812 13.812zm0-24.623c-5.96 0-10.81 4.85-10.81 10.811 0 5.962 4.85 10.812 10.81 10.812 5.962 0 10.812-4.851 10.812-10.812.001-5.962-4.85-10.811-10.812-10.811z" fill="#33363A"/>
      <path id="Oval_2" d="M36.248 91.757a5.017 5.017 0 100-10.034 5.017 5.017 0 000 10.034z" fill="#fff"/>
      <path id="Shape_24" d="M36.247 93.258a6.524 6.524 0 01-6.516-6.518 6.522 6.522 0 016.516-6.514c3.594 0 6.518 2.922 6.518 6.514a6.525 6.525 0 01-6.518 6.518zm0-10.03a3.52 3.52 0 00-3.516 3.513 3.521 3.521 0 003.516 3.518 3.522 3.522 0 003.518-3.518 3.52 3.52 0 00-3.518-3.514z" fill="#33363A"/>
      <path id="Shape_25" d="M109.476 90.742c0 6.805-5.512 12.312-12.311 12.312-6.801 0-12.312-5.508-12.312-12.312 0-6.799 5.512-12.311 12.312-12.311 6.799.001 12.311 5.512 12.311 12.311z" fill="#CC4306"/>
      <path id="Shape_26" d="M109.476 90.742c0 6.805-5.512 2.543-12.311 2.543-6.801 0-12.312 4.262-12.312-2.543 0-6.799 5.512-12.311 12.312-12.311 6.799.001 12.311 5.512 12.311 12.311z" fill="#33363A"/>
      <path id="Shape_27" d="M97.165 104.555c-7.616 0-13.812-6.196-13.812-13.812 0-7.615 6.196-13.811 13.812-13.811 7.615 0 13.811 6.195 13.811 13.811 0 7.615-6.196 13.812-13.811 13.812zm0-24.623c-5.962 0-10.812 4.85-10.812 10.811 0 5.962 4.851 10.812 10.812 10.812 5.961 0 10.811-4.851 10.811-10.812 0-5.962-4.85-10.811-10.811-10.811z" fill="#33363A"/>
      <path id="Oval_3" d="M91.042 91.756a5.016 5.016 0 100-10.032 5.016 5.016 0 000 10.032z" fill="#fff"/>
      <path id="Shape_28" d="M91.042 93.258a6.524 6.524 0 01-6.516-6.518 6.522 6.522 0 016.516-6.514 6.522 6.522 0 016.516 6.514 6.524 6.524 0 01-6.516 6.518zm0-10.03a3.52 3.52 0 00-3.516 3.513 3.521 3.521 0 003.516 3.518 3.52 3.52 0 003.516-3.518 3.52 3.52 0 00-3.516-3.514z" fill="#33363A"/>
      <path id="Shape_29" d="M86.362 63.953l1.172-46.361-17.3 40.484" fill="#9A5AE5"/>
      <path id="Shape_30" d="M86.362 76.836l1.172-46.363-17.3 40.484" fill="#7C34C1"/>
      <path id="Shape_31" d="M86.363 65.453h-.039a1.5 1.5 0 01-1.46-1.538l.973-38.534-14.223 33.285a1.499 1.499 0 01-1.969.79 1.5 1.5 0 01-.79-1.97l17.3-40.484a1.5 1.5 0 012.88.628l-1.173 46.361a1.5 1.5 0 01-1.499 1.462z" fill="#33363A"/>
      <path id="Shape_32" d="M53.175 63.953l-1.174-46.361 17.301 40.484" fill="#9A5AE5"/>
      <path id="Shape_33" d="M53.175 76.836l-1.174-46.363 17.301 40.484" fill="#7C34C1"/>
      <path id="Shape_34" d="M53.174 65.453a1.5 1.5 0 01-1.499-1.462L50.501 17.63a1.5 1.5 0 012.88-.628l17.3 40.484a1.5 1.5 0 11-2.759 1.18L53.7 25.382l.976 38.533a1.5 1.5 0 01-1.46 1.538h-.04z" fill="#33363A"/>
      <path id="Shape_35" d="M46.577 43.365a1.5 1.5 0 01-1.5-1.5c0-15.636-12.719-28.355-28.354-28.355a1.5 1.5 0 110-3c17.29 0 31.354 14.066 31.354 31.355a1.5 1.5 0 01-1.5 1.5z" fill="#33363A"/>
      <path id="Shape_36" d="M16.6 17.978c-1.93 0-3.5-1.645-3.5-3.666 0-2.022 1.57-3.668 3.5-3.668s3.5 1.646 3.5 3.668c0 2.022-1.572 3.666-3.5 3.666zm0-4.334c-.272 0-.5.306-.5.668 0 .361.228.666.5.666.27 0 .5-.305.5-.666 0-.362-.23-.668-.5-.668z" fill="#33363A"/>
      <path id="Shape_37" d="M92.96 43.365a1.5 1.5 0 01-1.5-1.5c0-17.289 14.065-31.355 31.354-31.355a1.5 1.5 0 110 3c-15.634 0-28.354 12.72-28.354 28.355a1.5 1.5 0 01-1.5 1.5z" fill="#33363A"/>
      <path id="Shape_38" d="M122.937 17.978c-1.93 0-3.5-1.645-3.5-3.666 0-2.022 1.57-3.668 3.5-3.668s3.5 1.646 3.5 3.668c0 2.022-1.57 3.666-3.5 3.666zm0-4.334c-.271 0-.5.306-.5.668 0 .361.229.666.5.666s.5-.305.5-.666c0-.362-.229-.668-.5-.668z" fill="#33363A"/>
      <path id="Shape_39" d="M67.183 109.096l-3.354 7.328-3.352-7.328" fill="#fff"/>
      <path id="Shape_40" d="M63.83 117.924a1.5 1.5 0 01-1.365-.876l-3.352-7.328a1.5 1.5 0 012.728-1.248l1.988 4.347 1.99-4.347a1.501 1.501 0 012.728 1.248l-3.355 7.328a1.497 1.497 0 01-1.363.876z" fill="#33363A"/>
      <path id="Shape_41" d="M79.06 109.096l-3.354 7.328-3.352-7.328" fill="#fff"/>
      <path id="Shape_42" d="M75.706 117.924a1.5 1.5 0 01-1.364-.876l-3.352-7.328a1.5 1.5 0 012.728-1.248l1.988 4.347 1.989-4.347a1.501 1.501 0 012.728 1.248l-3.354 7.328a1.497 1.497 0 01-1.363.876z" fill="#33363A"/>
    </g>
  </g>
</svg>
