<svg width="140" height="140" fill="none" xmlns="http://www.w3.org/2000/svg">
  <g id="Virtual Reality Pokemon">
    <g id="Group 29" fill-rule="evenodd" clip-rule="evenodd">
      <path id="Shape" d="M80.842 105.639l-.33-9.068c-.03-.189-.06-.38-.086-.572l5.664-4.602a8.57 8.57 0 003.17-6.658V62.954c0-.186-.018-.369-.03-.553v-.004c-.01-.125-.01-.254-.02-.379.033-.422.05-9.803.05-10.217 0-10.059-9.05-18.242-20.177-18.242-11.127 0-20.178 8.184-20.178 18.242 0 .414.023 9.795.053 10.217-.012.125-.012.254-.022.38v.003c-.012.184-.03.367-.03.553V84.74l-.002 20.9c-15.742 4.711-39.19 6.811-39.19 17.816v9.096h108.189v-8.768c-.002-8.847-20.518-13.194-37.061-18.144z" fill="#7C8D96"/>
      <path id="Shape_2" d="M15.055 120.405h97.502c2.953 0 5.344-.523 5.344 2.127v10.02H9.713v-7.35c0-2.65 2.39-4.797 5.342-4.797z" fill="#899BA3"/>
      <path id="Shape_3" d="M117.901 134.052a1.5 1.5 0 01-1.5-1.5v-8.768c0-6.445-15.234-10.774-28.675-14.594-2.472-.702-4.934-1.401-7.314-2.113a1.501 1.501 0 01-1.07-1.383l-.326-8.984-.075-.499a1.498 1.498 0 01.539-1.376l5.664-4.602a7.043 7.043 0 002.616-5.494V62.954c0-.104-.01-.206-.016-.309l-.028-.487a1.587 1.587 0 01-.002-.258c.027-.56.046-9.327.046-10.099 0-9.23-8.38-16.742-18.678-16.742-10.3 0-18.678 7.511-18.678 16.742 0 .703.024 9.57.05 10.13.003.068.002.157-.004.227l-.007.124a6.52 6.52 0 01-.015.244h-.002l-.007.133c-.007.098-.016.196-.016.295L50.4 105.64c0 .663-.435 1.247-1.07 1.438-3.74 1.118-7.961 2.104-12.044 3.058-12.82 2.993-26.076 6.089-26.076 13.321v9.096a1.5 1.5 0 11-3 0v-9.096c0-9.613 14.435-12.983 28.394-16.243 3.649-.852 7.41-1.73 10.796-2.697l.002-41.562c0-.173.01-.345.024-.516l.018-.288c.003-.057.005-.113.009-.169-.033-1.309-.051-10.089-.051-10.18 0-10.886 9.725-19.742 21.678-19.742 11.953 0 21.678 8.856 21.678 19.742 0 .092-.012 8.823-.05 10.181.005.06.008.12.01.18l.006.118c.003.04.004.078.004.117l.005.033c.013.174.024.348.024.523V84.74a10.03 10.03 0 01-3.725 7.823l-5.02 4.078.287 7.868c2.044.603 4.14 1.198 6.244 1.796 15.867 4.51 30.854 8.769 30.854 17.479v8.768a1.496 1.496 0 01-1.497 1.501z" fill="#33363A"/>
      <path id="Shape_4" d="M77.998 71.99a1.5 1.5 0 01-.878-2.717l3.48-2.51-1.916-4.644a1.5 1.5 0 112.773-1.145l2.369 5.738a1.5 1.5 0 01-.51 1.79l-4.443 3.202a1.482 1.482 0 01-.875.285z" fill="#33363A"/>
      <path id="Shape_5" d="M73.622 80.203c-3.199 0-5.845-.58-7.384-1.686-1.083-.777-1.432-1.679-1.533-2.298a1.502 1.502 0 011.238-1.723 1.499 1.499 0 011.723 1.238c.007.045.084.175.322.346 1.359.977 5.331 1.54 10.296.72a1.5 1.5 0 01.488 2.96 32.043 32.043 0 01-5.15.443z" fill="#33363A"/>
      <path id="Shape_6" d="M55.723 58.343a5.137 5.137 0 005.14 5.14H92.22a5.138 5.138 0 005.141-5.14v-8.396a5.14 5.14 0 00-5.14-5.14h-31.36a5.138 5.138 0 00-5.14 5.14v8.396h.001z" fill="#B2C4CC"/>
      <path id="Shape_7" d="M92.221 64.981h-31.36a6.647 6.647 0 01-6.639-6.639v-8.396a6.647 6.647 0 016.64-6.64H92.22a6.648 6.648 0 016.641 6.64v8.396a6.647 6.647 0 01-6.64 6.64zm-31.36-18.675a3.644 3.644 0 00-3.639 3.641v8.396a3.643 3.643 0 003.64 3.64H92.22a3.644 3.644 0 003.641-3.64v-8.396a3.645 3.645 0 00-3.64-3.64H60.86z" fill="#33363A"/>
      <path id="Shape_8" d="M65.53 58.343c0 2.84 1.757 5.14 3.927 5.14h23.975c2.172 0 3.93-2.3 3.93-5.14v-8.396c0-2.84-1.758-5.14-3.93-5.14H69.457c-2.17 0-3.928 2.3-3.928 5.14v8.396z" fill="#fff"/>
      <path id="Shape_9" d="M69.457 51.616h23.975c2.172 0 3.93 2.301 3.93 5.141v1.586c0 2.84-1.758 5.14-3.93 5.14H69.457c-2.17 0-3.928-2.3-3.928-5.14v-1.586c0-2.84 1.758-5.14 3.928-5.14z" fill="#D8E2EA"/>
      <path id="Shape_10" d="M93.432 64.981H69.457c-2.993 0-5.428-2.979-5.428-6.639v-8.396c0-3.662 2.435-6.64 5.428-6.64h23.975c2.994 0 5.43 2.978 5.43 6.64v8.396c0 3.661-2.436 6.64-5.43 6.64zM69.457 46.306c-1.316 0-2.428 1.667-2.428 3.641v8.396c0 1.973 1.112 3.64 2.428 3.64h23.975c1.317 0 2.43-1.667 2.43-3.64v-8.396c0-1.974-1.113-3.64-2.43-3.64H69.457z" fill="#33363A"/>
      <path id="Shape_11" d="M76.847 100.479a1.5 1.5 0 01-.947-2.665l5.666-4.6a1.5 1.5 0 111.891 2.33l-5.666 4.6a1.49 1.49 0 01-.944.335z" fill="#33363A"/>
      <path id="Shape_12" d="M48.905 70.962a1.499 1.499 0 01-.947-2.664l8.473-6.88a1.499 1.499 0 111.891 2.328l-8.473 6.88a1.49 1.49 0 01-.944.336z" fill="#33363A"/>
      <path id="Shape_13" d="M84.027 60.567a1.5 1.5 0 01-1.5-1.5c0-29.823-2.649-48.233-4.611-50.42a1.5 1.5 0 01.332-2.963c1.809 0 3.88 1.277 5.579 16.531 1.097 9.85 1.701 22.937 1.701 36.852a1.501 1.501 0 01-1.501 1.5z" fill="#33363A"/>
      <path id="Shape_14" d="M73.586 30.02a1.5 1.5 0 01-1.497-1.622c.084-1.03.172-2.036.265-3.009a1.5 1.5 0 112.986.281c-.09.961-.178 1.952-.261 2.972a1.5 1.5 0 01-1.493 1.378z" fill="#33363A"/>
      <path id="Shape_15" d="M74.44 21.63a1.5 1.5 0 01-1.49-1.688c.255-2.02.532-3.854.823-5.452a1.5 1.5 0 112.951.537 99.576 99.576 0 00-.797 5.29 1.502 1.502 0 01-1.487 1.313z" fill="#33363A"/>
      <path id="Shape_16" d="M76.545 10.987a1.5 1.5 0 01-1.412-2.008c.324-.9 1.185-3.295 3.115-3.295a1.5 1.5 0 01.351 2.96c-.11.145-.342.516-.642 1.351a1.502 1.502 0 01-1.412.992z" fill="#33363A"/>
      <path id="Shape_17" d="M14.146 60.57a1.5 1.5 0 01-1.5-1.5c0-1.553 0-3.679 22.679-5.585 12.647-1.062 28.692-1.697 42.921-1.697 13.915 0 27.002.604 36.852 1.7 15.253 1.698 16.532 3.77 16.533 5.578 0 .828-.671 1.5-1.499 1.501h-.001a1.5 1.5 0 01-1.463-1.168c-2.184-1.962-20.595-4.61-50.422-4.61-30.356 0-59.42 2.622-62.699 4.815a1.499 1.499 0 01-1.401.965z" fill="#33363A"/>
      <path id="Shape_18" d="M108.794 65.231a1.5 1.5 0 01-.121-2.995c1.02-.083 2.01-.17 2.971-.26a1.5 1.5 0 01.283 2.986c-.973.093-1.977.18-3.009.265-.042.002-.083.004-.124.004z" fill="#33363A"/>
      <path id="Shape_19" d="M117.184 64.38a1.5 1.5 0 01-.185-2.989c1.96-.247 3.74-.516 5.289-.798a1.5 1.5 0 11.538 2.951c-1.603.292-3.437.57-5.452.823a1.527 1.527 0 01-.19.012z" fill="#33363A"/>
      <path id="Shape_20" d="M127.829 62.271a1.5 1.5 0 01-.508-2.911c.834-.3 1.204-.53 1.351-.642a1.5 1.5 0 011.458-1.15h.001a1.5 1.5 0 011.5 1.498c.001 1.932-2.393 2.792-3.294 3.116a1.482 1.482 0 01-.508.09z" fill="#33363A"/>
      <path id="Shape_21" d="M43.591 64.894a1.74 1.74 0 01-.125-.005c-1.932-.16-3.953-.332-5.994-.513a1.5 1.5 0 01.264-2.988c2.035.181 4.051.351 5.977.511a1.5 1.5 0 01-.122 2.995zm-11.965-1.072c-.05 0-.101-.002-.151-.008a326.646 326.646 0 01-6-.65 1.5 1.5 0 01.355-2.979c1.875.224 3.882.438 5.944.645a1.5 1.5 0 01-.148 2.992zM19.702 62.35a1.5 1.5 0 01-.248-.02c-4.611-.766-6.806-1.448-6.809-3.26a1.5 1.5 0 011.498-1.502h.002c.553 0 1.037.3 1.297.745.366.17 1.454.551 4.503 1.057a1.5 1.5 0 01-.243 2.98z" fill="#33363A"/>
      <path id="Oval" d="M82.44 65.6c6.8 0 12.31-5.513 12.31-12.312 0-6.8-5.51-12.31-12.31-12.31-6.8 0-12.311 5.51-12.311 12.31 0 6.8 5.512 12.311 12.31 12.311z" fill="#FF8F8F"/>
      <path id="Shape_22" d="M94.75 53.288c0 5.21-5.512 9.43-12.311 9.43-6.797 0-12.311-4.22-12.311-9.43 0-5.203 5.514-9.43 12.31-9.43 6.8 0 12.312 4.227 12.312 9.43z" fill="#FF1A1A"/>
      <path id="Shape_23" d="M70.129 53.288c0 6.8 5.514 12.311 12.31 12.311 6.8 0 12.312-5.512 12.312-12.31H70.129z" fill="#fff"/>
      <path id="Shape_24" d="M82.44 62.718c6.799 0 12.31-4.22 12.31-9.43H70.13c0 5.21 5.514 9.43 12.31 9.43z" fill="#DCE6EA"/>
      <path id="Shape_25" d="M82.44 67.098c-7.615 0-13.811-6.195-13.811-13.81 0-7.617 6.195-13.812 13.81-13.812 7.617 0 13.812 6.195 13.812 13.811S90.055 67.098 82.44 67.098zm0-24.62c-5.961 0-10.811 4.85-10.811 10.81 0 5.961 4.85 10.811 10.81 10.811 5.962 0 10.812-4.85 10.812-10.81 0-5.962-4.85-10.812-10.811-10.812z" fill="#33363A"/>
      <path id="Shape_26" d="M94.75 54.788H70.129a1.5 1.5 0 110-3h24.62a1.5 1.5 0 110 3z" fill="#33363A"/>
      <path id="Shape_27" d="M89.156 51.821a4.067 4.067 0 010 5.754 4.066 4.066 0 01-5.756 0 4.07 4.07 0 115.756-5.754z" fill="#A7BBC1"/>
      <path id="Oval_2" d="M86.278 57.384a4.07 4.07 0 100-8.14 4.07 4.07 0 000 8.14z" fill="#fff"/>
      <path id="Shape_28" d="M83.401 56.192a4.07 4.07 0 010-5.756 4.07 4.07 0 015.756 0" fill="#D8E5EA"/>
      <path id="Shape_29" d="M86.278 58.885a5.528 5.528 0 01-3.938-1.632 5.53 5.53 0 01-1.632-3.938c0-1.489.58-2.888 1.632-3.939a5.532 5.532 0 013.938-1.63c1.488 0 2.886.578 3.938 1.631a5.53 5.53 0 011.632 3.938c0 1.49-.58 2.888-1.632 3.94a5.53 5.53 0 01-3.938 1.63zm0-8.14c-.687 0-1.332.267-1.817.752a2.555 2.555 0 00-.753 1.817c0 .686.267 1.332.752 1.816.973.973 2.664.972 3.635.001a2.55 2.55 0 00.753-1.817 2.55 2.55 0 00-.752-1.816 2.554 2.554 0 00-1.818-.754z" fill="#33363A"/>
    </g>
  </g>
</svg>
