<svg width="141" height="140" fill="none" xmlns="http://www.w3.org/2000/svg">
  <g id="Weedle">
    <g id="Group 19" fill-rule="evenodd" clip-rule="evenodd">
      <path id="Shape" d="M120.051 89.078c0 20.676-22.03 37.441-49.209 37.441-27.178 0-49.209-16.766-49.209-37.441 0-20.68 22.031-45.459 49.21-45.459 27.177 0 49.208 24.78 49.208 45.459z" fill="#F2D9A7"/>
      <path id="Shape_2" d="M120.051 89.078c0 20.676-22.03 37.441-49.209 37.441-27.178 0-49.209-16.766-49.209-37.441 0-20.68 22.031-34.928 49.21-34.928 27.177 0 49.208 14.249 49.208 34.928z" fill="#DDC38A"/>
      <path id="Shape_3" d="M81.322 88.85c0 1.395-4.691 1.645-10.478 1.645s-10.479-.25-10.479-1.645c0-1.393 4.691-5.035 10.479-5.035 5.787 0 10.478 3.642 10.478 5.035z" fill="#F2D9A7"/>
      <path id="Shape_4" d="M120.051 89.078c0 20.676-22.03 37.441-49.209 37.441-27.178 0-49.209-16.766-49.209-37.441 0-20.682 6.262 18.34 49.21 18.34s49.208-39.021 49.208-18.34z" fill="#C6A86D"/>
      <path id="Shape_5" d="M70.843 128.02c-27.961 0-50.709-17.469-50.709-38.941 0-21.27 22.62-46.959 50.709-46.959 13.041 0 25.772 5.472 35.849 15.406 9.305 9.174 14.86 20.97 14.86 31.553-.001 21.472-22.749 38.941-50.709 38.941zm0-82.901c-26.428 0-47.709 24.048-47.709 43.959 0 19.818 21.402 35.941 47.709 35.941 26.307 0 47.709-16.123 47.709-35.941-.001-19.911-21.282-43.959-47.709-43.959z" fill="#33363A"/>
      <path id="Shape_6" d="M54.68 88.272a8.05 8.05 0 01-8.052 8.051 8.049 8.049 0 01-8.05-8.051 8.052 8.052 0 1116.102 0z" fill="#6D5C4D"/>
      <path id="Shape_7" d="M54.68 88.272c0 4.449-3.605 1.662-8.052 1.662-4.447 0-8.05 2.787-8.05-1.662a8.052 8.052 0 1116.102 0z" fill="#33363A"/>
      <path id="Shape_8" d="M46.63 97.822c-5.267 0-9.552-4.284-9.552-9.551 0-5.268 4.285-9.553 9.551-9.553 5.267 0 9.552 4.285 9.552 9.553 0 5.267-4.285 9.551-9.552 9.551zm0-16.103a6.56 6.56 0 00-6.552 6.553 6.558 6.558 0 006.551 6.551 6.558 6.558 0 006.552-6.551c0-3.614-2.94-6.553-6.552-6.553z" fill="#33363A"/>
      <path id="Oval" d="M42.625 88.935a3.28 3.28 0 100-6.56 3.28 3.28 0 000 6.56z" fill="#fff"/>
      <path id="Shape_9" d="M42.624 90.434a4.785 4.785 0 01-4.779-4.779 4.785 4.785 0 014.779-4.779 4.786 4.786 0 014.781 4.779 4.786 4.786 0 01-4.781 4.779zm0-6.559a1.78 1.78 0 00-1.779 1.779 1.78 1.78 0 003.56 0c0-.981-.799-1.779-1.781-1.779z" fill="#33363A"/>
      <path id="Shape_10" d="M103.108 88.272a8.05 8.05 0 01-8.051 8.051 8.053 8.053 0 118.051-8.051z" fill="#6D5C4D"/>
      <path id="Shape_11" d="M103.108 88.272c0 4.449-3.605 1.662-8.051 1.662-4.447 0-8.053 2.787-8.053-1.662a8.053 8.053 0 0116.104 0z" fill="#33363A"/>
      <path id="Shape_12" d="M95.057 97.822c-5.268 0-9.553-4.284-9.553-9.551 0-5.268 4.285-9.553 9.553-9.553 5.266 0 9.551 4.285 9.551 9.553 0 5.267-4.285 9.551-9.551 9.551zm0-16.103a6.56 6.56 0 00-6.553 6.553 6.56 6.56 0 006.553 6.551 6.558 6.558 0 006.551-6.551 6.559 6.559 0 00-6.551-6.553z" fill="#33363A"/>
      <path id="Oval_2" d="M91.052 88.935a3.28 3.28 0 100-6.56 3.28 3.28 0 000 6.56z" fill="#fff"/>
      <path id="Shape_13" d="M91.052 90.434a4.785 4.785 0 01-4.78-4.779 4.785 4.785 0 014.78-4.779 4.785 4.785 0 014.78 4.779 4.785 4.785 0 01-4.78 4.779zm0-6.559c-.981 0-1.78.798-1.78 1.779 0 .981.799 1.779 1.78 1.779s1.78-.798 1.78-1.779c0-.981-.798-1.779-1.78-1.779z" fill="#33363A"/>
      <path id="Oval_3" d="M70.843 121.197c12.397 0 22.447-6.211 22.447-13.873 0-7.662-10.05-13.873-22.447-13.873-12.397 0-22.447 6.211-22.447 13.873 0 7.662 10.05 13.873 22.447 13.873z" fill="#AF4AD1"/>
      <path id="Shape_14" d="M93.291 107.324c0 7.662-10.051 13.873-22.447 13.873-12.396 0-22.447-6.211-22.447-13.873 0-7.66 10.051-1.834 22.447-1.834 12.396 0 22.447-5.826 22.447 1.834z" fill="#923BB7"/>
      <path id="Shape_15" d="M70.843 122.698c-13.428 0-23.947-6.753-23.947-15.373 0-8.619 10.519-15.371 23.947-15.371 13.428 0 23.947 6.752 23.947 15.371.001 8.62-10.518 15.373-23.947 15.373zm0-27.745c-11.55 0-20.947 5.55-20.947 12.371 0 6.822 9.397 12.373 20.947 12.373 11.55 0 20.947-5.551 20.947-12.373.001-6.821-9.396-12.371-20.947-12.371z" fill="#33363A"/>
      <path id="Shape_16" d="M92.877 51.317L70.843 1.5 48.811 51.313c-.397.594-.63 1.211-.63 1.848 0 4.424 10.146 8.008 22.661 8.008 12.516 0 22.662-3.584 22.662-8.008.001-.637-.23-1.251-.627-1.844z" fill="#fff"/>
      <path id="Shape_17" d="M59.9 60.174c3.245.633 6.974.994 10.942.994s7.698-.361 10.943-.994c-.041-.199-.074-.4-.13-.596L70.844 1.5 60.03 59.574c-.056.196-.088.399-.13.6z" fill="#D9E7E8"/>
      <path id="Shape_18" d="M70.843 62.668c-11.713 0-24.16-3.332-24.16-9.508 0-.864.27-1.727.806-2.565L69.471.894a1.5 1.5 0 012.744 0L94.2 50.599c.534.839.805 1.7.805 2.562 0 6.175-12.449 9.507-24.162 9.507zm0-57.46l-20.66 46.711c-.035.08-.077.156-.125.228-.25.373-.376.715-.376 1.014 0 2.718 8.05 6.508 21.161 6.508s21.162-3.79 21.162-6.508c0-.302-.123-.633-.375-1.011a1.421 1.421 0 01-.124-.227L70.843 5.208z" fill="#33363A"/>
    </g>
  </g>
</svg>
