<svg width="141" height="141" fill="none" xmlns="http://www.w3.org/2000/svg">
  <g id="Zubat">
    <g id="Group 12" fill-rule="evenodd" clip-rule="evenodd">
      <path id="Shape" d="M126.963 17.011c7.048 9.68 8.524 22.881 2.655 34.246-5.867 11.371-17.48 17.811-29.457 17.678-7.047-9.684-8.523-22.88-2.654-34.25 5.867-11.367 17.479-17.808 29.456-17.674z" fill="#3662CE"/>
      <path id="Shape_2" d="M100.161 68.935c-7.047-9.684-8.523-22.88-2.654-34.25 5.867-11.367 17.479-17.808 29.456-17.674" fill="#6892FC"/>
      <path id="Shape_3" d="M100.524 70.437l-.38-.002a1.499 1.499 0 01-1.196-.617c-7.674-10.545-8.736-24.27-2.774-35.82 5.886-11.404 17.543-18.488 30.421-18.488l.385.002c.474.006.917.234 1.196.617 7.676 10.543 8.739 24.268 2.775 35.817-5.886 11.405-17.544 18.491-30.427 18.491zm25.664-51.925c-11.589.146-22.042 6.58-27.349 16.861-5.323 10.311-4.506 22.525 2.096 32.061 11.592-.148 22.044-6.582 27.35-16.864 5.325-10.312 4.508-22.524-2.097-32.058z" fill="#33363A"/>
      <path id="Shape_4" d="M121.811 29.13c4.336 5.956 5.246 14.081 1.633 21.077-3.61 6.998-10.758 10.965-18.131 10.881-4.336-5.959-5.246-14.084-1.633-21.08 3.611-6.999 10.758-10.963 18.131-10.879z" fill="#EFA3CC"/>
      <path id="Shape_5" d="M105.313 61.088c-4.336-5.959-5.246-14.084-1.633-21.08 3.61-6.998 10.758-10.963 18.131-10.879" fill="#CE86AF"/>
      <path id="Shape_6" d="M105.543 62.59l-.246-.002a1.499 1.499 0 01-1.196-.617c-4.853-6.669-5.524-15.349-1.753-22.65 3.721-7.213 11.091-11.692 19.234-11.692l.246.001a1.5 1.5 0 011.196.617c4.853 6.668 5.524 15.346 1.753 22.65-3.721 7.211-11.091 11.692-19.234 11.692zm15.491-31.955c-6.798.194-12.9 4.012-16.021 10.06-3.132 6.063-2.705 13.23 1.077 18.886 6.797-.195 12.899-4.013 16.021-10.062 3.132-6.063 2.705-13.229-1.077-18.884z" fill="#33363A"/>
      <path id="Shape_7" d="M14.95 17.011c-7.047 9.68-8.523 22.881-2.655 34.246 5.867 11.371 17.48 17.811 29.458 17.678 7.047-9.684 8.522-22.88 2.654-34.25C38.54 23.318 26.928 16.877 14.95 17.011z" fill="#3662CE"/>
      <path id="Shape_8" d="M41.753 68.935c7.047-9.684 8.522-22.88 2.654-34.25C38.54 23.318 26.928 16.877 14.95 17.011" fill="#6892FC"/>
      <path id="Shape_9" d="M41.39 70.437c-12.884 0-24.543-7.086-30.428-18.492C5 40.396 6.062 26.672 13.737 16.13a1.503 1.503 0 011.196-.617l.385-.002c12.878 0 24.535 7.084 30.422 18.487 5.962 11.551 4.898 25.276-2.774 35.821a1.5 1.5 0 01-1.196.617l-.38.002zM15.725 18.512c-6.604 9.533-7.42 21.746-2.097 32.057 5.306 10.283 15.76 16.717 27.351 16.865 6.601-9.534 7.418-21.749 2.096-32.06-5.308-10.283-15.762-16.715-27.35-16.862z" fill="#33363A"/>
      <path id="Shape_10" d="M20.103 29.13c-4.338 5.956-5.246 14.081-1.633 21.077 3.61 6.998 10.758 10.965 18.13 10.881 4.337-5.959 5.245-14.084 1.634-21.08-3.612-6.999-10.759-10.963-18.13-10.879z" fill="#EFA3CC"/>
      <path id="Shape_11" d="M36.599 61.088c4.338-5.959 5.246-14.084 1.635-21.08-3.611-6.998-10.759-10.963-18.131-10.879" fill="#CE86AF"/>
      <path id="Shape_12" d="M36.37 62.59c-8.144 0-15.514-4.482-19.233-11.695-3.772-7.304-3.1-15.982 1.753-22.648a1.503 1.503 0 011.195-.617h.247c8.143 0 15.513 4.478 19.234 11.691 3.771 7.305 3.098 15.983-1.755 22.65a1.503 1.503 0 01-1.195.617l-.247.001zM20.88 30.634c-3.783 5.652-4.21 12.818-1.077 18.883 3.12 6.05 9.223 9.867 16.02 10.062 3.781-5.653 4.21-12.82 1.078-18.885-3.122-6.048-9.224-9.865-16.02-10.06z" fill="#33363A"/>
      <path id="Shape_13" d="M120.166 87.185c0 20.676-22.032 37.441-49.209 37.441-27.178 0-49.209-16.766-49.209-37.44 0-20.68 22.031-45.46 49.209-45.46 27.177 0 49.209 24.78 49.209 45.46z" fill="#6892FC"/>
      <path id="Shape_14" d="M120.166 87.185c0 20.676-22.032 37.441-49.209 37.441-27.178 0-49.209-16.766-49.209-37.44 0-20.68 22.031-34.929 49.209-34.929 27.177 0 49.209 14.25 49.209 34.928z" fill="#4F74E8"/>
      <path id="Shape_15" d="M120.166 87.185c0 20.676-22.032 37.441-49.209 37.441-27.178 0-49.209-16.766-49.209-37.44 0-20.683 6.261 18.339 49.209 18.339s49.209-39.02 49.209-18.34z" fill="#3662CE"/>
      <path id="Shape_16" d="M70.957 126.127c-27.961 0-50.709-17.469-50.709-38.94 0-21.27 22.619-46.96 50.709-46.96 13.041 0 25.772 5.472 35.849 15.406 9.305 9.174 14.86 20.97 14.86 31.553 0 21.472-22.748 38.941-50.709 38.941zm0-82.9c-26.428 0-47.709 24.047-47.709 43.958 0 19.818 21.402 35.941 47.709 35.941 26.307 0 47.709-16.123 47.709-35.94 0-19.912-21.281-43.96-47.709-43.96z" fill="#33363A"/>
      <path id="Shape_17" d="M80.769 72.504c0 2.066-4.393.906-9.812.906s-9.812 1.16-9.812-.906c0-2.064 4.393-3.74 9.812-3.74s9.812 1.675 9.812 3.74z" fill="#6892FC"/>
      <path id="Shape_18" d="M98.276 103.593c0 5.844-4.738 10.582-10.582 10.582H56.13c-5.844 0-10.582-4.738-10.582-10.582V85.076c0-5.844 4.738-10.582 10.582-10.582h31.564c5.844 0 10.582 4.738 10.582 10.582v18.517z" fill="#33363A"/>
      <path id="Shape_19" d="M56.13 93.16c-5.818 0-10.537 4.7-10.578 10.508.041 5.809 4.76 10.508 10.578 10.508h31.564c5.818 0 10.537-4.699 10.578-10.508-.04-5.809-4.76-10.508-10.578-10.508H56.13z" fill="#702252"/>
      <path id="Shape_20" d="M87.694 115.675H56.13c-6.662 0-12.082-5.42-12.082-12.082V85.076c0-6.662 5.42-12.082 12.082-12.082h31.564c6.662 0 12.082 5.42 12.082 12.082v18.518c0 6.662-5.42 12.081-12.082 12.081zM56.13 75.995c-5.008 0-9.082 4.073-9.082 9.081v18.518c0 5.008 4.074 9.082 9.082 9.082h31.564c5.008 0 9.082-4.074 9.082-9.082V85.076c0-5.008-4.074-9.082-9.082-9.082H56.13z" fill="#33363A"/>
      <path id="Shape_21" d="M67.911 76.263l-5.184 11.334-5.185-11.334" fill="#fff"/>
      <path id="Shape_22" d="M62.727 89.097a1.5 1.5 0 01-1.364-.876l-5.185-11.334a1.5 1.5 0 112.728-1.248l3.82 8.353 3.82-8.353a1.5 1.5 0 112.728 1.248L64.09 88.221a1.495 1.495 0 01-1.362.876z" fill="#33363A"/>
      <path id="Shape_23" d="M86.282 76.263l-5.184 11.334-5.185-11.334" fill="#fff"/>
      <path id="Shape_24" d="M81.098 89.097a1.5 1.5 0 01-1.364-.876l-5.185-11.334a1.5 1.5 0 112.728-1.248l3.82 8.353 3.82-8.353a1.5 1.5 0 112.728 1.248L82.46 88.221a1.494 1.494 0 01-1.362.876z" fill="#33363A"/>
      <path id="Shape_25" d="M81.005 112.111l5.185-11.334 5.186 11.334" fill="#fff"/>
      <path id="Shape_26" d="M91.377 113.611a1.5 1.5 0 01-1.365-.876l-3.82-8.353-3.822 8.353a1.5 1.5 0 11-2.728-1.248l5.186-11.334a1.5 1.5 0 012.728 0l5.186 11.334a1.5 1.5 0 01-1.365 2.124z" fill="#33363A"/>
      <path id="Shape_27" d="M52.448 112.111l5.186-11.334 5.185 11.334" fill="#fff"/>
      <path id="Shape_28" d="M62.82 113.611a1.5 1.5 0 01-1.365-.876l-3.82-8.353-3.822 8.353a1.5 1.5 0 01-2.728-1.248l5.186-11.334a1.5 1.5 0 012.728 0l5.186 11.334a1.5 1.5 0 01-1.365 2.124z" fill="#33363A"/>
    </g>
  </g>
</svg>
